<svg xmlns="http://www.w3.org/2000/svg" xmlns:xlink="http://www.w3.org/1999/xlink" viewBox="0 0 640 362"><defs><style>.a,.c,.e{fill:none;}.a{clip-rule:evenodd;}.b{clip-path:url(#a);}.c,.e{stroke:#040000;stroke-miterlimit:10;}.c{stroke-width:4px;}.d{clip-path:url(#b);}.e{stroke-width:4px;}.f{clip-path:url(#c);}.g{clip-path:url(#d);}.h{clip-path:url(#e);}.i{clip-path:url(#f);}.j{clip-path:url(#g);}.k{clip-path:url(#h);}.l{clip-path:url(#i);}.m{clip-path:url(#j);}.n{clip-path:url(#k);}</style><clipPath id="a"><path class="a" d="M412.09,295A75.87,75.87,0,0,1,505,348.62l19.64,73.27-73.28,19.64A75.86,75.86,0,0,1,412.09,295Z"/></clipPath><clipPath id="b"><path class="a" d="M285.17,261a75.86,75.86,0,0,1,0-107.29L338.81,100l53.64,53.64A75.86,75.86,0,0,1,285.17,261Z"/></clipPath><clipPath id="c"><path class="a" d="M319.18,387.88a75.87,75.87,0,0,1-92.91,53.65L153,421.89l19.63-73.27a75.86,75.86,0,0,1,146.56,39.26Z"/></clipPath><clipPath id="d"><path class="a" d="M603.17,80a75.86,75.86,0,0,1,0-107.29L656.81-81l53.64,53.64A75.86,75.86,0,0,1,603.17,80Z"/></clipPath><clipPath id="e"><path class="a" d="M635.18,206.88a75.87,75.87,0,0,1-92.91,53.65L469,240.89l19.63-73.27a75.86,75.86,0,0,1,146.56,39.26Z"/></clipPath><clipPath id="f"><path class="a" d="M603.17,442a75.86,75.86,0,0,1,0-107.29L656.81,281l53.64,53.64A75.86,75.86,0,0,1,603.17,442Z"/></clipPath><clipPath id="g"><path class="a" d="M-36.83,442a75.86,75.86,0,0,1,0-107.29L16.81,281l53.64,53.64A75.86,75.86,0,0,1-36.83,442Z"/></clipPath><clipPath id="h"><path class="a" d="M93.09,114A75.87,75.87,0,0,1,186,167.62l19.64,73.27-73.28,19.64A75.86,75.86,0,0,1,93.09,114Z"/></clipPath><clipPath id="i"><path class="a" d="M-36.83,80a75.86,75.86,0,0,1,0-107.29L16.81-81,70.45-27.32A75.86,75.86,0,0,1-36.83,80Z"/></clipPath><clipPath id="j"><path class="a" d="M412.09-67A75.87,75.87,0,0,1,505-13.38l19.64,73.27L451.36,79.53A75.86,75.86,0,0,1,412.09-67Z"/></clipPath><clipPath id="k"><path class="a" d="M319.18,25.88a75.87,75.87,0,0,1-92.91,53.65L153,59.89l19.63-73.27A75.86,75.86,0,1,1,319.18,25.88Z"/></clipPath></defs><title>tri</title><g class="b"><path class="c" d="M412.09,295A75.87,75.87,0,0,1,505,348.62l19.63,73.27-73.27,19.64A75.86,75.86,0,0,1,412.09,295Z"/></g><g class="d"><path class="e" d="M285.17,261a75.86,75.86,0,0,1,0-107.29L338.81,100l53.64,53.64A75.86,75.86,0,0,1,285.17,261Z"/></g><g class="f"><path class="c" d="M319.18,387.88a75.87,75.87,0,0,1-92.91,53.65L153,421.89l19.63-73.27a75.86,75.86,0,0,1,146.56,39.26Z"/></g><g class="g"><path class="e" d="M603.17,80a75.85,75.85,0,0,1,0-107.28L656.81-81l53.64,53.64A75.86,75.86,0,0,1,603.17,80Z"/></g><g class="h"><path class="c" d="M635.18,206.88a75.87,75.87,0,0,1-92.91,53.65L469,240.89l19.63-73.27a75.86,75.86,0,0,1,146.56,39.26Z"/></g><g class="i"><path class="e" d="M603.17,442a75.85,75.85,0,0,1,0-107.28L656.81,281l53.64,53.64A75.86,75.86,0,0,1,603.17,442Z"/></g><g class="j"><path class="e" d="M-36.83,442a75.85,75.85,0,0,1,0-107.28L16.81,281l53.64,53.64A75.86,75.86,0,0,1-36.83,442Z"/></g><g class="k"><path class="c" d="M93.09,114A75.87,75.87,0,0,1,186,167.62l19.63,73.27-73.27,19.64A75.86,75.86,0,0,1,93.09,114Z"/></g><g class="l"><path class="e" d="M-36.83,80a75.85,75.85,0,0,1,0-107.28L16.81-81,70.45-27.32A75.86,75.86,0,0,1-36.83,80Z"/></g><g class="m"><path class="c" d="M412.09-67A75.87,75.87,0,0,1,505-13.38l19.63,73.27L451.36,79.53A75.86,75.86,0,0,1,412.09-67Z"/></g><g class="n"><path class="c" d="M319.18,25.88a75.87,75.87,0,0,1-92.91,53.65L153,59.89l19.63-73.27A75.86,75.86,0,1,1,319.18,25.88Z"/></g></svg>