<svg xmlns="http://www.w3.org/2000/svg" xmlns:xlink="http://www.w3.org/1999/xlink" viewBox="0 0 395.43 611.75"><defs><style>.a,.dy,.dz{fill:none}.b{fill:#fff}.c{clip-path:url(#a)}.d{clip-path:url(#b)}.e{fill:url(#c)}.f{clip-path:url(#d)}.g{fill:url(#e)}.h{clip-path:url(#f)}.i{fill:url(#g)}.j{clip-path:url(#h)}.k{fill:url(#i)}.l{clip-path:url(#j)}.m{fill:url(#k)}.n{clip-path:url(#l)}.o{fill:url(#m)}.p{clip-path:url(#n)}.q{fill:url(#o)}.r{clip-path:url(#p)}.s{fill:url(#q)}.t{clip-path:url(#r)}.u{opacity:.2}.v{clip-path:url(#s)}.w{fill:#231815}.x{clip-path:url(#u)}.y{clip-path:url(#w)}.z{fill:url(#x)}.aa{clip-path:url(#y)}.ab{fill:url(#z)}.ac{clip-path:url(#aa)}.ad{fill:url(#ab)}.ae{clip-path:url(#ac)}.af{fill:url(#ad)}.ag{clip-path:url(#ae)}.ah{fill:url(#af)}.ai{clip-path:url(#ag)}.aj{fill:url(#ah)}.ak{clip-path:url(#ai)}.al{fill:url(#aj)}.am{clip-path:url(#ak)}.an{fill:url(#al)}.ao{clip-path:url(#am)}.ap{fill:url(#an)}.aq{clip-path:url(#ao)}.ar{fill:url(#ap)}.as{clip-path:url(#aq)}.at{fill:url(#ar)}.au{clip-path:url(#as)}.av{fill:url(#at)}.aw{clip-path:url(#au)}.ax{fill:url(#av)}.ay{clip-path:url(#aw)}.az{fill:url(#ax)}.ba{clip-path:url(#ay)}.bb{fill:url(#az)}.bc{clip-path:url(#ba)}.bd{fill:url(#bb)}.be{clip-path:url(#bc)}.bf{fill:url(#bd)}.bg{clip-path:url(#be)}.bh{fill:url(#bf)}.bi{clip-path:url(#bg)}.bj{fill:url(#bh)}.bk{clip-path:url(#bi)}.bl{fill:url(#bj)}.bm{clip-path:url(#bk)}.bn{fill:url(#bl)}.bo{clip-path:url(#bm)}.bp{fill:url(#bn)}.bq{clip-path:url(#bo)}.br{fill:url(#bp)}.bs{clip-path:url(#bq)}.bt{fill:url(#br)}.bu{clip-path:url(#bs)}.bv{fill:url(#bt)}.bw{clip-path:url(#bu)}.bx{fill:url(#bv)}.by{clip-path:url(#bw)}.bz{fill:url(#bx)}.ca{clip-path:url(#by)}.cb{fill:url(#bz)}.cc{clip-path:url(#ca)}.cd{fill:url(#cb)}.ce{clip-path:url(#cc)}.cf{fill:url(#cd)}.cg{clip-path:url(#ce)}.ch{fill:url(#cf)}.ci{clip-path:url(#cg)}.cj{fill:url(#ch)}.ck{clip-path:url(#ci)}.cl{fill:url(#cj)}.cm{clip-path:url(#ck)}.cn{fill:url(#cl)}.co{clip-path:url(#cn)}.cp{clip-path:url(#cp)}.cq{fill:url(#cq)}.cr{clip-path:url(#cr)}.cs{fill:url(#cs)}.ct{fill:#fdfeff}.cu{clip-path:url(#cu)}.cv{fill:url(#cv)}.cw{clip-path:url(#cx)}.cx{fill:url(#cy)}.cy{fill:#318d59}.cz{clip-path:url(#db)}.da{clip-path:url(#dd)}.db{fill:url(#de)}.dc{clip-path:url(#df)}.dd{fill:url(#dg)}.de{clip-path:url(#dh)}.df{fill:url(#di)}.dg{clip-path:url(#dj)}.dh{fill:url(#dk)}.di{clip-path:url(#dl)}.dj{fill:url(#dm)}.dk{clip-path:url(#dn)}.dl{fill:url(#do)}.dm{clip-path:url(#dp)}.dn{fill:url(#dq)}.do{clip-path:url(#dr)}.dp{fill:url(#ds)}.dq{clip-path:url(#dt)}.dr{fill:url(#du)}.ds{clip-path:url(#dv)}.dt{fill:url(#dw)}.du{clip-path:url(#dx)}.dv{fill:url(#dy)}.dw{fill:#006470}.dx{fill:#89c122}.dy{stroke:#fff;stroke-width:1.25px}.dy,.dz{stroke-miterlimit:10}.dz{stroke:#000;stroke-width:.25px}</style><clipPath id="a"><path class="a" d="M-26.81-27.16h450v666h-450z"/></clipPath><clipPath id="b"><path class="a" d="M291.1 435.28a87.53 87.53.0 0 0 105.09 14.23h0l.51-.31c2.72-1.57 5.91-4.18 8.49-6.07v-52.8a70.68 70.68.0 0 1-8.77 15.46c-23.86 31.66-66.76 30.75-91 6.5a45.26 45.26.0 0 1 0-64l-14.29-12a70 70 0 0 0 0 99h0"/></clipPath><linearGradient id="c" x1="-371.24" y1="208.54" x2="-370.24" y2="208.54" gradientTransform="translate(-24600.51 -43929.87) rotate(-90) scale(119.57)" gradientUnits="userSpaceOnUse"><stop offset="0" stop-color="#00858b"/><stop offset=".16" stop-color="#0d949a"/><stop offset=".44" stop-color="#1fa8ae"/><stop offset=".72" stop-color="#2ab4ba"/><stop offset="1" stop-color="#2eb8be"/></linearGradient><clipPath id="d"><path class="a" d="M291.1 336.27c-16.19 17.52-13.23 60.54 14.27 76h0a45.28 45.28.0 0 1 0-64 36.21 36.21.0 0 1 51.21.0h0a29 29 0 0 1 0 41l13.71 10.39a44.81 44.81.0 0 0 0-63.37A57.18 57.18.0 0 0 330 319.54a52.44 52.44.0 0 0-38.87 16.73"/></clipPath><linearGradient id="e" x1="-370.5" y1="203.36" x2="-369.5" y2="203.36" gradientTransform="translate(-27251.54 15524.08) rotate(180) scale(74.54)" gradientUnits="userSpaceOnUse"><stop offset="0" stop-color="#a1cc56"/><stop offset=".29" stop-color="#75bf5b"/><stop offset=".95" stop-color="#089e66"/><stop offset="1" stop-color="#009c67"/></linearGradient><clipPath id="f"><path class="a" d="M329.75 337.68h-.26a36.13 36.13.0 0 1 27.11 10.58 29 29 0 0 1 0 41 23.17 23.17.0 0 1-32.77.0h0a18.54 18.54.0 0 1 0-26.22h0l-4.21-4a28.68 28.68.0 0 0 0 40.56h0a35.79 35.79.0 0 0 50.61.08l.08-.08.3-.32a34.71 34.71.0 0 0 9.3-23.36c0-21.26-20.3-38.5-45.33-38.5-1.64.0-3.25.07-4.83.22"/></clipPath><linearGradient id="g" x1="-371.66" y1="213.75" x2="-370.66" y2="213.75" gradientTransform="translate(-12579.28 -22072.42) rotate(-90) scale(60.46)" gradientUnits="userSpaceOnUse"><stop offset="0" stop-color="#f18d00"/><stop offset=".64" stop-color="#ffec00"/><stop offset="1" stop-color="#a8cc07"/></linearGradient><clipPath id="h"><path class="a" d="M319.62 359.08a28.68 28.68.0 0 0 0 40.56h0a35.79 35.79.0 0 0 50.61.08l.08-.08.1-.1c-11.64 9.55-33 11.11-46.1-4.76-7.84-9.52-7.72-24.51-.48-31.75a14.81 14.81.0 0 1 20.94-.06l.06.06s6.61 2.28 7.16 22a18.29 18.29.0 0 0 .14-25.88v0a22.94 22.94.0 0 0-32.44.0"/></clipPath><linearGradient id="i" x1="-360.66" y1="202.9" x2="-359.66" y2="202.9" gradientTransform="translate(9827.22 17218.29) rotate(90) scale(46.76)" gradientUnits="userSpaceOnUse"><stop offset="0" stop-color="#f18d00"/><stop offset="1" stop-color="#e94d3c"/></linearGradient><clipPath id="j"><path class="a" d="M323.79 363h0a14.81 14.81.0 0 1 20.94-.06l.06.06a11.86 11.86.0 0 1 0 16.76v0a9.48 9.48.0 0 1-13.41.0h0c-3-3-2.42-8.57.0-11.23l-.06-.11.06-.07h0a11.75 11.75.0 0 0 0 16.62h0a14.59 14.59.0 0 0 20.63.13l.13-.13c6.82-7.06 6.82-17.31-.65-24.16a19 19 0 0 0-12.75-4.77A19.27 19.27.0 0 0 323.79 363"/></clipPath><linearGradient id="k" x1="-365.25" y1="226.38" x2="-364.25" y2="226.38" gradientTransform="translate(8535.38 -4708.75) scale(22.45)" gradientUnits="userSpaceOnUse"><stop offset="0" stop-color="#e62579"/><stop offset="1" stop-color="#e94d3c"/></linearGradient><clipPath id="l"><path class="a" d="M331.3 385a14.59 14.59.0 0 0 20.63.13l.13-.13a18.16 18.16.0 0 0 4.09-6.47h0c-2 4.86-7.63 8.2-14 7.58-7.58-.74-13.23-6.54-12.61-12.94a10.32 10.32.0 0 1 1.6-4.53 11.74 11.74.0 0 0 .21 16.4m-.21-16.4.21-.22h0v-.07l-.21.31"/></clipPath><linearGradient id="m" x1="-342.28" y1="205.69" x2="-341.28" y2="205.69" gradientTransform="translate(3653.08 5879.25) rotate(90) scale(16.1)" gradientUnits="userSpaceOnUse"><stop offset="0" stop-color="#e62579"/><stop offset=".57" stop-color="#c14a93"/><stop offset="1" stop-color="#aa61a3"/></linearGradient><clipPath id="n"><path class="a" d="M336.75 200.85l-66 65.71c-4.77 4.23-7.94 9.81-16.23 10.89 6 1.09 12 7.16 12 7.16h9.36l79.89-64.77a13.44 13.44.0 0 0-19-19h0"/></clipPath><linearGradient id="o" x1="-351.45" y1="204.99" x2="-350.45" y2="204.99" gradientTransform="translate(5387.43 8947.68) rotate(90) scale(24.78)" gradientUnits="userSpaceOnUse"><stop offset="0" stop-color="#4fb233"/><stop offset=".19" stop-color="#3db051"/><stop offset=".57" stop-color="#1cad85"/><stop offset=".85" stop-color="#08aca6"/><stop offset="1" stop-color="#00abb2"/></linearGradient><clipPath id="p"><path class="a" d="M245.06 284.61a12.27 12.27.0 0 0 0 24.54H405.19V284.61z"/></clipPath><linearGradient id="q" x1="-377.3" y1="222.08" x2="-376.3" y2="222.08" gradientTransform="translate(-5130.9 -8949.89) rotate(-90) scale(24.54)" gradientUnits="userSpaceOnUse"><stop offset="0" stop-color="#413b1e"/><stop offset=".51" stop-color="#646149"/><stop offset="1" stop-color="#7d734b"/></linearGradient><clipPath id="r"><path class="a" d="M27.2 87.44h377.99v504.91H27.2z"/></clipPath><clipPath id="s"><path class="a" d="M263.84 196.92h95.83v82.46H263.84z"/></clipPath><clipPath id="u"><path class="a" d="M301.52 284.61h103.67v9.54H301.52z"/></clipPath><clipPath id="w"><path class="a" d="M265.16 191l-90 22.12a341.8 341.8.0 0 0 207 69.42c4.13.0 8.25-.09 23-.24V126.09c-21.74-1.6-32.13-2.45-42.81-2.45-27.31.0-52.68 5.52-73.72 15l-.12.06a10 10 0 0 1-14-9.22v-9z"/></clipPath><linearGradient id="x" x1="-363.9" y1="202.4" x2="-362.9" y2="202.4" gradientTransform="translate(12349.39 21921.22) rotate(90) scale(59.58)" gradientUnits="userSpaceOnUse"><stop offset="0" stop-color="#7cbd27"/><stop offset=".17" stop-color="#64b842"/><stop offset=".56" stop-color="#2ead7e"/><stop offset=".85" stop-color="#0da7a4"/><stop offset="1" stop-color="#00a4b2"/></linearGradient><clipPath id="y"><path class="a" d="M283.15 184.66l15.55 15.55 34.15-34.15-49.7-49.7a48.3 48.3.0 0 0 0 68.3"/></clipPath><linearGradient id="z" x1="-357.36" y1="215.29" x2="-356.36" y2="215.29" gradientTransform="translate(11966.66 -6866.5) scale(32.63)" gradientUnits="userSpaceOnUse"><stop offset="0" stop-color="#e94d3c"/><stop offset=".02" stop-color="#ea513b"/><stop offset=".7" stop-color="#f9c011"/><stop offset="1" stop-color="#ffec00"/></linearGradient><clipPath id="aa"><path class="a" d="M301.29 173.41 316.84 189 351 154.81l-49.69-49.7a48.3 48.3.0 0 0 0 68.3"/></clipPath><linearGradient id="ab" x1="-373.2" y1="204.52" x2="-372.2" y2="204.52" gradientTransform="matrix(0, -63.7, -63.7, 0, 13344.89, -23622.53)" gradientUnits="userSpaceOnUse"><stop offset="0" stop-color="#c0dc96"/><stop offset=".46" stop-color="#60c198"/><stop offset=".83" stop-color="#1bae99"/><stop offset="1" stop-color="#00a69a"/></linearGradient><clipPath id="ac"><path class="a" d="M318 163.07l15.55 15.54 34.15-34.14L318 94.77a48.3 48.3.0 0 0 0 68.3"/></clipPath><linearGradient id="ad" x1="-373.2" y1="204.52" x2="-372.2" y2="204.52" gradientTransform="matrix(0, -63.7, -63.7, 0, 13361.59, -23632.87)" gradientUnits="userSpaceOnUse"><stop offset="0" stop-color="#a8cc07"/><stop offset="1" stop-color="#d3df51"/></linearGradient><clipPath id="ae"><path class="a" d="M334.38 155.74l15.55 15.55 34.15-34.15-49.7-49.7a48.3 48.3.0 0 0 0 68.3"/></clipPath><linearGradient id="af" x1="-373.2" y1="204.52" x2="-372.2" y2="204.52" gradientTransform="matrix(0, -63.7, -63.7, 0, 13377.82, -23640.19)" gradientUnits="userSpaceOnUse"><stop offset="0" stop-color="#66427d"/><stop offset=".62" stop-color="#935696"/><stop offset="1" stop-color="#aa61a3"/></linearGradient><clipPath id="ag"><path class="a" d="M350.63 157l15.55 15.55 34.15-34.15-49.7-49.7a48.3 48.3.0 0 0 0 68.3"/></clipPath><linearGradient id="ah" x1="-362.47" y1="211.78" x2="-361.47" y2="211.78" gradientTransform="translate(23476.58 -13389.27) scale(63.84)" xlink:href="#c"/><clipPath id="ai"><path class="a" d="M362.69 160l15.56 15.55 26.94-26.94V134.23l-42.5-42.49a48.3 48.3.0 0 0 0 68.3"/></clipPath><linearGradient id="aj" x1="-363.04" y1="211.39" x2="-362.04" y2="211.39" gradientTransform="translate(26312.21 -14978.54) scale(71.49)" xlink:href="#z"/><clipPath id="ak"><path class="a" d="M377.19 162l15.55 15.55 12.45-12.45V121.65l-28-28a48.3 48.3.0 0 0 0 68.3"/></clipPath><linearGradient id="al" x1="-375.68" y1="209.64" x2="-374.68" y2="209.64" gradientTransform="translate(-10420.77 -19200.26) rotate(-90) scale(51.53)" xlink:href="#ad"/><clipPath id="am"><path class="a" d="M392.44 168.67l12.75 12.75v-68.3l-12.75-12.75a48.3 48.3.0 0 0 0 68.3"/></clipPath><linearGradient id="an" x1="-374.08" y1="209.61" x2="-373.08" y2="209.61" gradientTransform="translate(-12994.37 -23709.95) rotate(-90) scale(63.85)" xlink:href="#ab"/><clipPath id="ao"><path class="a" d="M283.63 205l15.55 15.55 34.15-34.14-49.7-49.7a48.28 48.28.0 0 0 0 68.28h0"/></clipPath><linearGradient id="ap" x1="-373.18" y1="204.51" x2="-372.18" y2="204.51" gradientTransform="matrix(0, -63.76, -63.76, 0, 13337.85, -23609.71)" xlink:href="#z"/><clipPath id="aq"><path class="a" d="M298.79 196.58l15.55 15.55L348.49 178l-49.7-49.71a48.3 48.3.0 0 0 0 68.3"/></clipPath><linearGradient id="ar" x1="-362.47" y1="211.77" x2="-361.47" y2="211.77" gradientTransform="translate(23424.76 -13349.17) scale(63.84)" xlink:href="#c"/><clipPath id="as"><path class="a" d="M313.77 191.09l15.55 15.55 34.15-34.15-49.7-49.7a48.3 48.3.0 0 0 0 68.3"/></clipPath><linearGradient id="at" x1="-363.04" y1="211.39" x2="-362.04" y2="211.39" gradientTransform="translate(26263.29 -14947.49) scale(71.49)" xlink:href="#ad"/><clipPath id="au"><path class="a" d="M327.44 180.77 343 196.32l34.15-34.15-49.7-49.7a48.3 48.3.0 0 0 0 68.3"/></clipPath><linearGradient id="av" x1="-360.77" y1="205.17" x2="-359.77" y2="205.17" gradientTransform="translate(11413.73 19569.01) rotate(90) scale(53.96)" xlink:href="#z"/><clipPath id="aw"><path class="a" d="M342.9 181.16l15.55 15.55 34.15-34.15-49.7-49.7a48.3 48.3.0 0 0 0 68.3"/></clipPath><linearGradient id="ax" x1="-363.21" y1="206.36" x2="-362.21" y2="206.36" gradientTransform="matrix(0, 83.94, -83.94, 0, 17678.6, 30589.6)" xlink:href="#e"/><clipPath id="ay"><path class="a" d="M357.66 182l15.56 15.55 32-32V161.2l-47.53-47.52a48.3 48.3.0 0 0 0 68.3"/></clipPath><linearGradient id="az" x1="-374.39" y1="211.86" x2="-373.39" y2="211.86" gradientTransform="matrix(0, -54.56, 54.56, 0, -11187.26, -20255.16)" xlink:href="#ab"/><clipPath id="ba"><path class="a" d="M372.66 191.18l15.55 15.55 17-17V155.41l-32.53-32.53a48.3 48.3.0 0 0 0 68.3"/></clipPath><linearGradient id="bb" x1="-375.68" y1="209.67" x2="-374.68" y2="209.67" gradientTransform="translate(-10424.7 -19172.63) rotate(-90) scale(51.53)" xlink:href="#af"/><clipPath id="bc"><path class="a" d="M387.24 199.69l15.55 15.55 2.4-2.4v-63.5l-17.95-18a48.3 48.3.0 0 0 0 68.3"/></clipPath><linearGradient id="bd" x1="-374.08" y1="209.64" x2="-373.08" y2="209.64" gradientTransform="translate(-12998.75 -23690.94) rotate(-90) scale(63.85)" gradientUnits="userSpaceOnUse"><stop offset="0" stop-color="#ffec00"/><stop offset=".3" stop-color="#f9c011"/><stop offset=".98" stop-color="#ea513b"/><stop offset="1" stop-color="#e94d3c"/></linearGradient><clipPath id="be"><path class="a" d="M286.87 227.83l15.55 15.55 34.15-34.15-49.7-49.7a48.3 48.3.0 0 0 0 68.3"/></clipPath><linearGradient id="bf" x1="-357.36" y1="215.28" x2="-356.36" y2="215.28" gradientTransform="translate(11970.39 -6823.26) scale(32.63)" xlink:href="#z"/><clipPath id="bg"><path class="a" d="M302 218.83l15.55 15.55 34.15-34.15L302 150.53a48.3 48.3.0 0 0 0 68.3"/></clipPath><linearGradient id="bh" x1="-373.2" y1="204.52" x2="-372.2" y2="204.52" gradientTransform="matrix(0, -63.7, -63.7, 0, 13345.51, -23577.11)" xlink:href="#ab"/><clipPath id="bi"><path class="a" d="M318.7 208l15.55 15.55L368.4 189.4l-49.7-49.7a48.3 48.3.0 0 0 0 68.3"/></clipPath><linearGradient id="bj" x1="-373.2" y1="204.52" x2="-372.2" y2="204.52" gradientTransform="matrix(0, -63.7, -63.7, 0, 13362.26, -23591.49)" xlink:href="#k"/><clipPath id="bk"><path class="a" d="M334.3 207.47 349.85 223 384 188.87l-49.7-49.7a48.3 48.3.0 0 0 0 68.3"/></clipPath><linearGradient id="bl" x1="-373.2" y1="204.52" x2="-372.2" y2="204.52" gradientTransform="matrix(0, -63.7, -63.7, 0, 13377.66, -23588.47)" xlink:href="#bd"/><clipPath id="bm"><path class="a" d="M350.63 207.38l15.55 15.55 34.15-34.15-49.7-49.7a48.3 48.3.0 0 0 0 68.3"/></clipPath><linearGradient id="bn" x1="-362.47" y1="211.78" x2="-361.47" y2="211.78" gradientTransform="translate(23476.58 -13338.91) scale(63.84)" xlink:href="#z"/><clipPath id="bo"><path class="a" d="M365.28 210.47 380.83 226l24.36-24.36V182.08l-39.91-39.91a48.3 48.3.0 0 0 0 68.3"/></clipPath><linearGradient id="bp" x1="-363.04" y1="211.39" x2="-362.04" y2="211.39" gradientTransform="translate(26314.79 -14928.11) scale(71.49)" xlink:href="#e"/><clipPath id="bq"><path class="a" d="M378.74 217.39l15.56 15.55L405.19 222V175.53l-26.45-26.44a48.3 48.3.0 0 0 0 68.3"/></clipPath><linearGradient id="br" x1="-355.63" y1="206.89" x2="-354.63" y2="206.89" gradientTransform="matrix(0, 33.68, -33.68, 0, 7350.58, 12136.43)" xlink:href="#af"/><clipPath id="bs"><path class="a" d="M392.44 224.75l12.75 12.75V169.2l-12.75-12.75a48.3 48.3.0 0 0 0 68.3"/></clipPath><linearGradient id="bt" x1="-374.08" y1="209.62" x2="-373.08" y2="209.62" gradientTransform="translate(-12994.75 -23653.85) rotate(-90) scale(63.85)" xlink:href="#ab"/><clipPath id="bu"><path class="a" d="M283.86 241.71a10.79 10.79.0 0 0 1.57 1.67 11.89 11.89.0 0 0 17.34-16.08h0l-4-37.43-13.09-14.54c-18.87 17.92-19.33 47.43-1.85 66.38"/></clipPath><linearGradient id="bv" x1="-357.78" y1="215.12" x2="-356.78" y2="215.12" gradientTransform="translate(12431.89 -7100.49) scale(33.99)" xlink:href="#af"/><clipPath id="bw"><path class="a" d="M299.86 242.61a13 13 0 0 0 1.57 1.67 11.89 11.89.0 0 0 17.34-16.08h0l-4-37.43-13.09-14.54c-18.87 17.92-19.33 47.43-1.85 66.38"/></clipPath><linearGradient id="bx" x1="-377.11" y1="212.68" x2="-376.11" y2="212.68" gradientTransform="translate(-8200.64 -14837.62) rotate(-90) scale(39.98)" xlink:href="#c"/><clipPath id="by"><path class="a" d="M312.77 241.75a11.89 11.89.0 1 0 18.91-14.42h0l-4-37.42-13.09-14.54c-18.87 17.91-19.33 47.43-1.85 66.38"/></clipPath><linearGradient id="bz" x1="-365.95" y1="206.07" x2="-364.95" y2="206.07" gradientTransform="translate(30511.98 53763.34) rotate(90) scale(146.54)" xlink:href="#bd"/><clipPath id="ca"><path class="a" d="M328 239.65a11.36 11.36.0 0 0 1.58 1.67A11.88 11.88.0 0 0 347 225.25h0l-4-37.42-13.1-14.54c-18.9 17.9-19.33 47.42-1.9 66.36"/></clipPath><linearGradient id="cb" x1="-374.29" y1="212.47" x2="-373.29" y2="212.47" gradientTransform="translate(-10923.89 -19610.61) rotate(-90) scale(52.97)" xlink:href="#ad"/><clipPath id="cc"><path class="a" d="M341 241.09a11.36 11.36.0 0 0 1.58 1.67 11.89 11.89.0 0 0 17.33-16.08h0l-4-37.42-13.1-14.54c-18.87 17.91-19.33 47.43-1.85 66.37"/></clipPath><linearGradient id="cd" x1="-354.64" y1="217.19" x2="-353.64" y2="217.19" gradientTransform="translate(9527.91 -5414.35) scale(25.9)" xlink:href="#c"/><clipPath id="ce"><path class="a" d="M355.39 239.45a11.36 11.36.0 0 0 1.58 1.67A11.89 11.89.0 0 0 374.3 225h0l-4-37.43L357.21 173c-18.87 17.92-19.33 47.44-1.85 66.38"/></clipPath><linearGradient id="cf" x1="-374.29" y1="212.46" x2="-373.29" y2="212.46" gradientTransform="translate(-10896.45 -19610.81) rotate(-90) scale(52.97)" xlink:href="#k"/><clipPath id="cg"><path class="a" d="M370.1 238.22a13.87 13.87.0 0 0 1.58 1.67A11.89 11.89.0 0 0 389 223.81h0l-4-37.42-13-14.55c-18.86 17.92-19.32 47.43-1.85 66.38"/></clipPath><linearGradient id="ch" x1="-374.29" y1="212.46" x2="-373.29" y2="212.46" gradientTransform="translate(-10881.67 -19612.05) rotate(-90) scale(52.97)" xlink:href="#ab"/><clipPath id="ci"><path class="a" d="M385.41 242.73a11.85 11.85.0 0 0 18.35.51 11.51 11.51.0 0 0 1.43-2V229.66a11.61 11.61.0 0 0-.86-1.33h0l-4-37.42-13.1-14.54c-18.86 17.91-19.32 47.43-1.85 66.37"/></clipPath><linearGradient id="cj" x1="-374.29" y1="212.45" x2="-373.29" y2="212.45" gradientTransform="translate(-10867.06 -19607.05) rotate(-90) scale(52.97)" xlink:href="#e"/><clipPath id="ck"><path class="a" d="M400.74 239.45a11.36 11.36.0 0 0 1.58 1.67 11.74 11.74.0 0 0 2.87 1.85V176l-2.6-2.89c-18.87 17.92-19.33 47.44-1.85 66.38"/></clipPath><linearGradient id="cl" x1="-374.29" y1="212.32" x2="-373.29" y2="212.32" gradientTransform="translate(-10852.2 -19607.58) rotate(-90) scale(52.97)" xlink:href="#k"/><clipPath id="cn"><path class="a" d="M208.13 112.05h90.56v130.64H208.13z"/></clipPath><clipPath id="cp"><path class="a" d="M219.79 119.41c-36.75 3.52-74.38 24.59-79 45.52 2.68 2.94 41.53 4.91 68.41 10.31 14.74 3 22.8 8.76 22.8 8.76s-72.78 1.17-92.49 3.7c6.88 22.94 38.18 41.91 80.34 50.15a61.15 61.15.0 0 0 10.2.86c19.57.0 36.44-9.15 44.18-22.36 7.69-14.55 12-34.45 12-55.22.0-26.48-1.86-71.61-11.64-72h-.12a64.42 64.42.0 0 0-54.64 30.26"/></clipPath><linearGradient id="cq" x1="-365.49" y1="209.76" x2="-364.49" y2="209.76" gradientTransform="translate(53759.86 -30609.77) scale(146.71)" gradientUnits="userSpaceOnUse"><stop offset="0" stop-color="#00a68c"/><stop offset=".26" stop-color="#31b38b"/><stop offset=".74" stop-color="#58b431"/><stop offset="1" stop-color="#84c251"/></linearGradient><clipPath id="cr"><path class="a" d="M177.76 140.17a22.71 22.71.0 1 0 22.71-22.71 22.71 22.71.0 0 0-22.71 22.71"/></clipPath><linearGradient id="cs" x1="-361.23" y1="198.6" x2="-360.23" y2="198.6" gradientTransform="translate(7229 12895.52) rotate(90) scale(35.39)" xlink:href="#ad"/><clipPath id="cu"><path class="a" d="M189.34 139.91a11.22 11.22.0 1 0 11.22-11.22 11.22 11.22.0 0 0-11.22 11.22h0"/></clipPath><linearGradient id="cv" x1="-341.6" y1="204.84" x2="-340.6" y2="204.84" gradientTransform="translate(3402.18 5471.63) rotate(90) scale(15.63)" gradientUnits="userSpaceOnUse"><stop offset="0" stop-color="#0e8fa3"/><stop offset="1" stop-color="#005962"/></linearGradient><clipPath id="cx"><path class="a" d="M137.47 186.57a4.29 4.29.0 0 0 4.69 3.65s74.59-3.76 90-6l.12-.69-90.7-1.09a4.11 4.11.0 0 0-4.13 4.09v.05"/></clipPath><linearGradient id="cy" x1="-364.21" y1="210.64" x2="-363.21" y2="210.64" gradientTransform="translate(34627.99 -19791.09) scale(94.84)" gradientUnits="userSpaceOnUse"><stop offset="0" stop-color="#58b431"/><stop offset="1" stop-color="#84c251"/></linearGradient><clipPath id="db"><path class="a" d="M282.16 209.22h97.02v68.91H282.16z"/></clipPath><clipPath id="dd"><path class="a" d="M292.13 199.7a13.43 13.43.0 0 0 0 26.86H362a13.43 13.43.0 0 0 0-26.86z"/></clipPath><linearGradient id="de" x1="-361.06" y1="198.28" x2="-360.06" y2="198.28" gradientTransform="translate(7167.69 12667.78) rotate(90) scale(34.5)" xlink:href="#x"/><clipPath id="df"><path class="a" d="M352.8 203.44l-62.39 67c-6.64 6.65-17.5 5-17.5 14.15h8.58c-3.85 2.62-6.49 9.69-6.49 18.75h7.79a11.32 11.32.0 0 1 1.27-2.44v2.44h7.81c0-9.21 5.09-17.2 13.29-18.75 1-.2 66.63-62.19 66.63-62.19a13.44 13.44.0 0 0-19-19"/></clipPath><linearGradient id="dg" x1="-355.84" y1="207.19" x2="-354.84" y2="207.19" gradientTransform="translate(7456.42 12491.95) rotate(90) scale(34.42)" xlink:href="#x"/><clipPath id="dh"><path class="a" d="M275 303.36 278.91 311.84 282.82 303.36H275z"/></clipPath><linearGradient id="di" x1="-344.22" y1="242.55" x2="-343.22" y2="242.55" gradientTransform="translate(3708.95 -2108.18) scale(9.96)" xlink:href="#ad"/><clipPath id="dj"><path class="a" d="M284.06 303.36 287.96 311.84 291.87 303.36H284.06z"/></clipPath><linearGradient id="dk" x1="-344.22" y1="242.56" x2="-343.22" y2="242.56" gradientTransform="translate(3717.98 -2108.27) scale(9.96)" xlink:href="#ad"/><clipPath id="dl"><path class="a" d="M243.1 290.88 246.68 299.36 250.25 290.88H243.1z"/></clipPath><linearGradient id="dm" x1="-342.05" y1="245.73" x2="-341.05" y2="245.73" gradientTransform="translate(3367.72 -1945.97) scale(9.12)" xlink:href="#ad"/><clipPath id="dn"><path class="a" d="M260.03 290.88 263.6 299.36 267.18 290.88H260.03z"/></clipPath><linearGradient id="do" x1="-342.05" y1="245.73" x2="-341.05" y2="245.73" gradientTransform="translate(3384.66 -1945.88) scale(9.12)" xlink:href="#ad"/><clipPath id="dp"><path class="a" d="M251.59 290.88 255.16 299.36 258.74 290.88H251.59z"/></clipPath><linearGradient id="dq" x1="-342.05" y1="245.73" x2="-341.05" y2="245.73" gradientTransform="translate(3376.22 -1945.97) scale(9.12)" xlink:href="#ad"/><clipPath id="dr"><path class="a" d="M243.09 290.88h7.16c.11-5.39.66-5.31.66-5.31s.57-.08.68 5.31h7.13c.11-5.39.66-5.31.66-5.31s.57-.08.68 5.31h7.13c0-6.18-1-13.48-11.33-13.48s-12.77 7.67-12.77 13.48"/></clipPath><linearGradient id="ds" x1="-349.78" y1="219.42" x2="-348.78" y2="219.42" gradientTransform="matrix(0, 19.5, 19.5, 0, -4023.6, 7103.4)" gradientUnits="userSpaceOnUse"><stop offset="0" stop-color="#79bd28"/><stop offset=".03" stop-color="#75bd2e"/><stop offset=".22" stop-color="#61ba52"/><stop offset=".42" stop-color="#51b86f"/><stop offset=".61" stop-color="#45b783"/><stop offset=".81" stop-color="#3eb68f"/><stop offset="1" stop-color="#3cb693"/></linearGradient><clipPath id="dt"><path class="a" d="M246.62 308.84v0H254.43L250.53 300.36 246.62 308.84z"/></clipPath><linearGradient id="du" x1="-327.47" y1="198.88" x2="-326.47" y2="198.88" gradientTransform="matrix(0, 9.96, 9.96, 0, -1730.28, 3567.69)" xlink:href="#ad"/><clipPath id="dv"><path class="a" d="M255.89 308.84v0H263.7L259.79 300.36 255.89 308.84z"/></clipPath><linearGradient id="dw" x1="-327.47" y1="198.87" x2="-326.47" y2="198.87" gradientTransform="matrix(0, 9.96, 9.96, 0, -1721.01, 3567.7)" xlink:href="#ad"/><clipPath id="dx"><path class="a" d="M255.87 308.84s-.14.26-.71.26-.74-.26-.74-.26h-7.81v.36c0 1.86 3.83 3.37 8.55 3.37s8.55-1.51 8.55-3.37v-.36z"/></clipPath><linearGradient id="dy" x1="-359.56" y1="162.9" x2="-358.56" y2="162.9" gradientTransform="translate(-2971.19 1773.59) rotate(180) scale(8.98)" xlink:href="#ds"/></defs><path class="b" d="M0 0h395.43v611.75H0z"/><g class="c"><g class="d"><path class="e" d="M238.24 305.65h192.47v193.44H238.24z" transform="translate(-188.69 393.57) rotate(-49.3)"/></g><g class="f"><path class="g" d="M260.15 299.15h142.47v133.47H260.15z" transform="translate(-128.66 186.87) rotate(-26.57)"/></g><g class="h"><path class="i" d="M308.42 337.3h71.49v76.39H308.42z"/></g><g class="j"><path class="k" d="M299.9 343.69h79.05v78.65H299.9z" transform="translate(-109.33 136.99) rotate(-19.72)"/></g><g class="l"><path class="m" d="M316.67 348.81H366v49.35H316.67z" transform="translate(-164.63 374.32) rotate(-47.67)"/></g><g class="n"><path class="o" d="M323.33 361.08h36.19v37.04H323.33z" transform="translate(-168.84 396.88) rotate(-49.97)"/></g><g class="p"><path class="q" d="M239.06 172.16h137.37V309.4H239.06z" transform="translate(-80.34 286.3) rotate(-44.73)"/></g><g class="r"><path class="s" d="M232.79 284.61h172.4v24.54H232.79z"/></g><g class="t"><g class="u"><g class="v"><g class="v"><path class="w" d="M282.29 279.38l73.45-59.54a13.44 13.44.0 0 0-19-19h0l-66 65.72c-2.6 2.3-4.61 4.81-6.88 6.69 6.13 2.26 12.16 4.21 18.45 6.12"/></g></g></g><g class="u"><g class="x"><g class="x"><path class="w" d="M382.17 294.15c4.66.0 9.3-.11 23-.29v-9.25H301.52a344.43 344.43.0 0 0 80.65 9.54"/></g></g></g></g><g class="y"><path class="z" d="M175.15 120.5h230.04v162.05H175.15z"/></g><g class="aa"><path class="ab" d="M264.29 116.36h68.56v83.85H264.29z"/></g><g class="ac"><path class="ad" d="M269.26 95.31h94.9v103.38H269.26z" transform="translate(-31.98 128.86) rotate(-21.92)"/></g><g class="ae"><path class="af" d="M286.01 84.97h94.9v103.38H286.01z" transform="translate(-26.91 134.36) rotate(-21.92)"/></g><g class="ag"><path class="ah" d="M302.35 77.64h94.9v103.38H302.35z" transform="translate(-22.99 139.94) rotate(-21.92)"/></g><g class="ai"><path class="aj" d="M331.77 88.66h68.56v83.85H331.77z"/></g><g class="ak"><path class="al" d="M343.83 91.74h61.36v83.85H343.83z"/></g><g class="am"><path class="an" d="M335.63 89.29h92.27v92.58H335.63z" transform="translate(14.92 307.49) rotate(-44.66)"/></g><g class="ao"><path class="ap" d="M350.73 100.06h77.34v81.68H350.73z" transform="matrix(0.75, -0.66, 0.66, 0.75, 4.23, 292.99)"/></g><g class="aq"><path class="ar" d="M251.66 128.26h94.99v103.47H251.66z" transform="translate(-45.35 123.34) rotate(-21.7)"/></g><g class="as"><path class="at" d="M279.93 128.28h68.56v83.85H279.93z"/></g><g class="au"><path class="av" d="M294.91 122.79h68.56v83.85H294.91z"/></g><g class="aw"><path class="ax" d="M291.42 100.63H394.3v107.56H291.42z" transform="translate(-29.26 208.47) rotate(-32.51)"/></g><g class="ay"><path class="az" d="M305.81 101.1h104.03v107.84H305.81z" transform="matrix(0.82, -0.57, 0.57, 0.82, -24.47, 231.97)"/></g><g class="ba"><path class="bb" d="M323.74 103.3h96.5v104.5h-96.5z" transform="translate(-30.5 179.52) rotate(-26.1)"/></g><g class="bc"><path class="bd" d="M331.76 116.94h95.49v95.76H331.76z" transform="translate(-6.29 314.34) rotate(-44.66)"/></g><g class="be"><path class="bf" d="M345.25 129.71h83.09v87.22H345.25z" transform="translate(-17.88 299.38) rotate(-41.44)"/></g><g class="bg"><path class="bh" d="M268.01 159.53h68.56v83.85H268.01z"/></g><g class="bi"><path class="bj" d="M269.92 140.74h94.9v103.38H269.92z" transform="translate(-48.89 132.39) rotate(-21.92)"/></g><g class="bk"><path class="bl" d="M286.67 129.87h94.9v103.38H286.67z" transform="translate(-43.62 137.86) rotate(-21.92)"/></g><g class="bm"><path class="bn" d="M302.27 129.36h94.9v103.38H302.27z" transform="translate(-42.31 143.64) rotate(-21.92)"/></g><g class="bo"><path class="bp" d="M331.77 139.08h68.56v83.85H331.77z"/></g><g class="bq"><path class="br" d="M346.42 142.17h58.77v83.85H346.42z"/></g><g class="bs"><path class="bt" d="M336 146.51h93.08v89.08H336z" transform="translate(-12.01 355.86) rotate(-49.21)"/></g><g class="bu"><path class="bv" d="M350.72 156.14h77.34v81.68H350.72z" transform="translate(-32.89 307.03) rotate(-41.44)"/></g><g class="bw"><path class="bx" d="M266.38 175.33h39.66v72.36H266.38z"/></g><g class="by"><path class="bz" d="M266.98 171.14h70.46v82.5H266.98z" transform="translate(-65.65 178.98) rotate(-29.91)"/></g><g class="ca"><path class="cb" d="M291.02 173.2h48.22v76.67H291.02z" transform="translate(-23.52 40.16) rotate(-7.03)"/></g><g class="cc"><path class="cd" d="M298.51 168.46h63.8v81.93H298.51z" transform="translate(-54.29 138.48) rotate(-21.92)"/></g><g class="ce"><path class="cf" d="M323.48 174.72h39.66v72.36H323.48z"/></g><g class="cg"><path class="ch" d="M325.84 168.25h63.8v81.93H325.84z" transform="translate(-52.24 148.68) rotate(-21.92)"/></g><g class="ci"><path class="cj" d="M340.57 167.02h63.8v81.93H340.57z" transform="translate(-50.72 154.08) rotate(-21.92)"/></g><g class="ck"><path class="cl" d="M355.79 171.99h61.57v81.03H355.79z" transform="translate(-51.38 159.67) rotate(-21.92)"/></g><g class="cm"><path class="cn" d="M371.02 171.47h46.43v73.03H371.02z" transform="translate(-49.14 162.21) rotate(-21.92)"/></g><g class="t"><g class="u"><g class="co"><g class="co"><path class="w" d="M242.54 242.69c19.48.0 36.28-9.07 44.07-22.17 7.75-14.57 12.08-34.54 12.08-55.39.0-15.54-.64-37.51-3.15-53.08a47.9 47.9.0 0 0-5.63 11.07l-6.76-6.76s-44.4-3.23-50.85 7c16.11 27.72 11.38 48.35-24.17 111.81 16.11 6.11 29.36 7.47 34.41 7.47"/></g></g></g></g><g class="cp"><path class="cq" d="M139.48 89.15h146.71v149.57H139.48z"/></g><g class="cr"><path class="cs" d="M177.76 117.46h45.41v45.41H177.76z"/></g><g class="t"><path class="ct" d="M218.62 140.08a18.24 18.24.0 1 1-18.25-18.23h0a18.24 18.24.0 0 1 18.24 18.23"/></g><g class="cu"><path class="cv" d="M184.72 124.09h31.68v31.68H184.72z" transform="translate(-37.2 197.13) rotate(-48.43)"/></g><g class="t"><path class="ct" d="M212.65 134.47a5.79 5.79.0 1 1-5.8-5.78h0a5.78 5.78.0 0 1 5.78 5.78"/></g><g class="cw"><path class="cx" d="M137.32 182.43h94.98v7.92H137.32z"/></g><g class="t"><path class="cy" d="M232.37 182.44c-1.91-1.53-8.58-4.75-18.86-6.94s-70.42-11.87-70.42-11.87a3.7 3.7.0 1 0-1.17 7.31h.17s58.65 5.65 70 7.57a99.41 99.41.0 0 1 20.09 5.68z"/><path class="cy" d="M243.51 176.48a8.5 8.5.0 0 1-5.77 14.77 9.54 9.54.0 0 1-1.51-.15 8.51 8.51.0 1 0 11.57-12.49 8.63 8.63.0 0 0-4.29-2.13"/><path class="cy" d="M163.46 157.24a2 2 0 1 1-2.05-2.05 2.05 2.05.0 0 1 2.05 2.05h0"/></g><g class="t"><g class="u"><g class="cz"><g class="cz"><path class="w" d="M295.58 236.26h37.65l-35.64 35.79c10.27 2.6 18.87 4.43 29.49 6.08l48.16-46a13.41 13.41.0 0 0-11.72-22.72H295.58a13.43 13.43.0 0 0 0 26.85"/></g></g></g></g><g class="da"><path class="db" d="M278.71 199.7h96.74v26.85H278.71z"/></g><g class="dc"><path class="dd" d="M251.96 178.38h146.03v146.07H251.96z" transform="translate(-73.69 350.83) rotate(-51.73)"/></g><g class="de"><path class="df" d="M273.74 302.25h10.33v10.72H273.74z" transform="translate(-91.68 120.32) rotate(-20.99)"/></g><g class="dg"><path class="dh" d="M282.8 302.25h10.33v10.72H282.8z" transform="translate(-91.08 123.56) rotate(-20.99)"/></g><g class="di"><path class="dj" d="M241.81 289.88h9.72v10.48H241.81z" transform="translate(-89.35 107.94) rotate(-20.99)"/></g><g class="dk"><path class="dl" d="M258.73 289.89h9.72v10.48H258.73z" transform="translate(-88.23 114) rotate(-20.99)"/></g><g class="dm"><path class="dn" d="M250.3 289.88h9.72v10.48H250.3z" transform="translate(-88.78 110.98) rotate(-20.99)"/></g><g class="do"><path class="dp" d="M241.39 273.07h27.5v22.12h-27.5z" transform="translate(-93.53 128.4) rotate(-24.01)"/></g><g class="dq"><path class="dr" d="M245.16 299.42h10.72v10.33H245.16z" transform="translate(-123.59 429.38) rotate(-69.01)"/></g><g class="ds"><path class="dt" d="M254.42 299.42h10.72v10.33H254.42z" transform="translate(-117.65 438.02) rotate(-69.01)"/></g><g class="du"><path class="dv" d="M249.99 302.14h10.36v17.14H249.99z" transform="translate(-132.49 417.38) rotate(-65.99)"/></g><g class="t"><path class="dw" d="M36 394c-.21-2.36-1-3.35-2.22-3.35-1.88.0-2.71 1.65-2.71 6.31s.83 6.31 2.71 6.31c1.51.0 2.38-1 2.42-3.81h1.62c0 3.31-1.49 5.17-4 5.17s-4.32-2-4.32-7.67 1.65-7.68 4.32-7.68c2.22.0 3.58 1.53 3.83 4.72z"/><path class="dw" d="M40.21 393.69H41.7V395h0a2.76 2.76.0 0 1 2.73-1.51v1.41a2.82 2.82.0 0 0-2.77 1.9v7.66H40.21z"/><path class="dw" d="M45.88 396.63c.29-1.7 1.29-3.15 3.19-3.15A2.8 2.8.0 0 1 52.15 396a2.71 2.71.0 0 1 0 .57v6a4.44 4.44.0 0 0 .27 1.91H50.87l-.19-.91a3.91 3.91.0 0 1-2.29 1.11 2.61 2.61.0 0 1-2.8-2.41 2.16 2.16.0 0 1 0-.36c0-2.65 2.92-4 5.07-4.47v-.76c0-1.18-.6-1.93-1.55-1.93-1.14.0-1.7 1.14-1.86 2.11zm4.78 2c-1.36.42-3.58 1.41-3.58 3.11.0 1 .46 1.65 1.53 1.65a3.11 3.11.0 0 0 2-1.11z"/><path class="dw" d="M54.16 393.69h1.66v-2.2c0-1.45.58-2.19 2.19-2.19a6.44 6.44.0 0 1 1.16.13v1.15a2.05 2.05.0 0 0-.81-.16c-.72.0-1 .45-1 1.14v2.13H59.1v1.24H57.31v9.52H55.82v-9.52H54.16z"/><path class="dw" d="M59.71 393.69h1.45v-3.6h1.49v3.6h2v1.24h-2v7.53a1 1 0 0 0 .91 1.08h.16a3.54 3.54.0 0 0 .91-.21v1.12a4.43 4.43.0 0 1-1.4.2c-1.41.0-2.07-.66-2.07-2.31v-7.41H59.71z"/><path class="dw" d="M66.85 389.51h1.49v1.74H66.85zm0 4.18h1.49v10.76H66.85z"/><path class="dw" d="M71.38 393.69h1.41v1.18a4.2 4.2.0 0 1 2.44-1.39c1.49.0 2.36.83 2.36 2.81v8.16H76.1V396.5c0-1.24-.37-1.78-1.18-1.78a2.82 2.82.0 0 0-2 1.33v8.4H71.38z"/><path class="dw" d="M87.52 394.85a1.37 1.37.0 0 0-1.36.37 6.1 6.1.0 0 1 .33 2.07c0 2.69-1.24 3.85-2.9 3.85-.33.0-.66-.09-1-.09a.75.75.0 0 0-.74.71c0 .76 1.22.8 2.6 1.09 1.55.34 2.94.83 2.94 2.59.0 1.41-1.37 2.52-3.64 2.52-2.44.0-3.68-.91-3.68-2.31a2.37 2.37.0 0 1 1.57-2.16 1.45 1.45.0 0 1 .25-2.87 4 4 0 0 1-1.29-3.08c0-2.57 1.25-4.06 3.13-4.06a2.22 2.22.0 0 1 2 1 2 2 0 0 1 1.82-1zm-4.63 9c-.87.37-1.45.87-1.45 1.47.0.89.75 1.51 2.36 1.51S86 406.17 86 405.3s-1.86-1.16-3.14-1.45m.66-3.85c.87.0 1.57-.66 1.57-2.71s-.7-2.71-1.57-2.71-1.57.66-1.57 2.71.7 2.71 1.57 2.71"/><path class="dw" d="M94.23 389.51h3.6c2.4.0 4.1 1.4 4.1 3.87a3.61 3.61.0 0 1-2.4 3.66l2.52 7.41h-1.69L98 397.37l-2.11.08v7H94.23zm1.62 6.54h1.4c2.32.0 3.07-.91 3.07-2.59s-.75-2.59-3.07-2.59h-1.4z"/><path class="dw" d="M104.77 389.51h1.49v1.74h-1.49zm0 4.18h1.49v10.76h-1.49z"/><path class="dw" d="M113.52 396.87c-.15-1.61-.79-2.15-1.7-2.15-1.26.0-1.8.79-1.8 4.35s.54 4.34 1.8 4.34c1 0 1.49-.49 1.74-2.36H115c-.25 2.11-1.24 3.6-3.19 3.6-2.25.0-3.29-1.69-3.29-5.58s1-5.59 3.29-5.59c2 0 2.86 1.28 3.15 3.39z"/><path class="dw" d="M117.35 389.51h1.49v5.36a3.85 3.85.0 0 1 2.36-1.39c1.49.0 2.36.83 2.36 2.82v8.15h-1.49V396.5c0-1.24-.37-1.78-1.18-1.78a2.8 2.8.0 0 0-2 1.33v8.4H117.4z"/><path class="dw" d="M137.84 389.51V390.87H132.62V395.96H136.47V397.33H132.62v5.75H138.09V404.45H131.01V389.51H137.84z"/><path class="dw" d="M138.85 393.69H140.39L142.17 397.45 143.74 393.69H145.27L142.95 398.86 145.68 404.45H144.15L142.21 400.23 140.39 404.45H138.85L141.34 398.86 138.85 393.69z"/><path class="dw" d="M148.58 394.72h0a2.58 2.58.0 0 1 2.2-1.24c1.69.0 3.1 1.45 3.1 5.59s-1.41 5.58-3.1 5.58a2.89 2.89.0 0 1-2-1V408h-1.49V393.69h1.24zm.25 7.74a2.49 2.49.0 0 0 1.61 1c1.27.0 2-1 2-4.34s-.79-4.35-2-4.35a2.41 2.41.0 0 0-1.57 1z"/><path class="dw" d="M157.13 399.31v.61c0 2.62.6 3.49 2 3.49 1.14.0 1.61-1.05 1.8-2l1.4.16a3.43 3.43.0 0 1-3.41 3.1c-2.26.0-3.29-1.69-3.29-5.58s1-5.59 3.29-5.59 3.29 2 3.29 5.13v.7zm3.6-1.24c0-2.31-.45-3.35-1.8-3.35-1.08.0-1.78.79-1.8 3.35z"/><path class="dw" d="M164.33 393.69h1.49V395h0a2.76 2.76.0 0 1 2.74-1.51v1.41a2.84 2.84.0 0 0-2.78 1.9v7.66h-1.49z"/><path class="dw" d="M170.27 389.51h1.49v1.74h-1.49zm0 4.18h1.49v10.76h-1.49z"/><path class="dw" d="M175.53 399.31v.61c0 2.62.6 3.49 2 3.49 1.14.0 1.61-1.05 1.8-2l1.4.16a3.43 3.43.0 0 1-3.41 3.1c-2.25.0-3.29-1.69-3.29-5.58s1-5.59 3.29-5.59 3.29 2 3.29 5.13v.7zm3.6-1.24c0-2.31-.45-3.35-1.8-3.35-1.07.0-1.78.79-1.8 3.35z"/><path class="dw" d="M182.86 393.69h1.4v1.18a4.22 4.22.0 0 1 2.45-1.39c1.49.0 2.35.83 2.35 2.81v8.16h-1.49V396.5c0-1.24-.37-1.78-1.17-1.78a2.82 2.82.0 0 0-2.05 1.33v8.4h-1.49z"/><path class="dw" d="M196.27 396.87c-.15-1.61-.79-2.15-1.7-2.15-1.26.0-1.8.79-1.8 4.35s.54 4.34 1.8 4.34c1 0 1.49-.49 1.74-2.36h1.45c-.25 2.11-1.24 3.6-3.19 3.6-2.25.0-3.29-1.69-3.29-5.58s1-5.59 3.29-5.59c2 0 2.86 1.28 3.15 3.39z"/><path class="dw" d="M200.82 399.31v.61c0 2.62.6 3.49 2 3.49 1.14.0 1.61-1.05 1.8-2l1.41.16a3.45 3.45.0 0 1-3.42 3.1c-2.25.0-3.29-1.69-3.29-5.58s1-5.59 3.29-5.59 3.29 2 3.29 5.13v.7zm3.6-1.24c0-2.31-.45-3.35-1.8-3.35-1.07.0-1.78.79-1.8 3.35z"/><path class="dw" d="M212.33 396.42c-.27-.93-.66-1.7-1.86-1.7a1.2 1.2.0 0 0-1.2 1.2V396c0 2.2 4.55 2.32 4.55 5.67a2.88 2.88.0 0 1-2.76 3h-.18c-1.94.0-2.92-1-3.43-2.85l1.36-.29c.31 1 .87 1.9 2 1.9a1.63 1.63.0 0 0 1.55-1.63c0-2.48-4.55-2.53-4.55-5.69a2.67 2.67.0 0 1 2.73-2.61h.06a2.89 2.89.0 0 1 3 2.57z"/><path class="dw" d="M30.28 416.49 31.81 424.39H31.85L33.59 416.49H34.99L36.77 424.39H36.81L38.22 416.49H39.63L37.4 427.25H36.15L34.29 418.89H34.25L32.39 427.25H31.15L28.87 416.49H30.28z"/><path class="dw" d="M41.56 412.31h1.49v1.74H41.56zm0 4.18h1.49v10.76H41.56z"/><path class="dw" d="M44.77 416.49h1.44v-3.6H47.7v3.6h2v1.24h-2v7.53a1 1 0 0 0 .91 1.08h.17a3.54 3.54.0 0 0 .91-.21v1.12a4.5 4.5.0 0 1-1.41.2c-1.4.0-2.07-.66-2.07-2.31v-7.41H44.77z"/><path class="dw" d="M51.84 412.31h1.49v5.36a3.85 3.85.0 0 1 2.36-1.39c1.49.0 2.36.83 2.36 2.81v8.16H56.56V419.3c0-1.24-.37-1.78-1.18-1.78a2.84 2.84.0 0 0-2.05 1.33v8.4H51.84z"/><path class="dw" d="M65.3 412.31h3.51a4.1 4.1.0 0 1 0 8.19h-1.9v6.75H65.3zm1.61 6.83h1.7c1.61.0 2.56-.87 2.56-2.73s-1-2.74-2.56-2.74h-1.7z"/><path class="dw" d="M74.69 416.49h1.49v1.3h0A2.76 2.76.0 0 1 79 416.28v1.41a2.84 2.84.0 0 0-2.78 1.9v7.66H74.69z"/><path class="dw" d="M83.1 416.28c2.25.0 3.29 1.7 3.29 5.59s-1 5.58-3.29 5.58-3.29-1.69-3.29-5.58 1-5.59 3.29-5.59m0 9.93c1.26.0 1.8-.78 1.8-4.34s-.54-4.35-1.8-4.35-1.8.79-1.8 4.35.53 4.34 1.8 4.34"/><path class="dw" d="M95.57 417.65a1.55 1.55.0 0 0-.43.0 1.27 1.27.0 0 0-.93.41 6.1 6.1.0 0 1 .33 2.07c0 2.69-1.24 3.85-2.9 3.85-.33.0-.66-.09-1-.09a.75.75.0 0 0-.74.71c0 .76 1.22.8 2.6 1.09 1.55.33 2.94.83 2.94 2.59.0 1.41-1.37 2.52-3.64 2.52-2.44.0-3.68-.91-3.68-2.31a2.34 2.34.0 0 1 1.57-2.15 1.46 1.46.0 0 1 .25-2.88 4 4 0 0 1-1.29-3.08c0-2.57 1.25-4.06 3.13-4.06a2.22 2.22.0 0 1 2 1 2 2 0 0 1 1.82-1zm-4.63 9c-.87.37-1.45.87-1.45 1.47.0.89.75 1.51 2.36 1.51s2.23-.67 2.23-1.53-1.86-1.16-3.14-1.45m.66-3.85c.87.0 1.57-.66 1.57-2.71s-.7-2.71-1.57-2.71S90 418 90 420.09s.7 2.71 1.57 2.71"/><path class="dw" d="M97.69 416.49h1.49v1.3h0a2.76 2.76.0 0 1 2.73-1.51v1.41a2.82 2.82.0 0 0-2.77 1.9v7.66H97.69z"/><path class="dw" d="M104.29 422.12v.6c0 2.62.6 3.49 2 3.49 1.14.0 1.61-1 1.8-2l1.4.17a3.43 3.43.0 0 1-3.41 3.1c-2.26.0-3.29-1.69-3.29-5.58s1-5.59 3.29-5.59 3.29 2 3.29 5.13v.71zm3.6-1.25c0-2.31-.45-3.35-1.8-3.35-1.07.0-1.78.79-1.8 3.35z"/><path class="dw" d="M115.8 419.22c-.27-.93-.66-1.7-1.86-1.7a1.2 1.2.0 0 0-1.2 1.22v.07c0 2.19 4.55 2.31 4.55 5.67a2.88 2.88.0 0 1-2.76 3h-.18c-1.95.0-2.92-1.05-3.44-2.85l1.37-.29c.31 1 .87 1.9 2 1.9a1.63 1.63.0 0 0 1.55-1.63c0-2.49-4.55-2.53-4.55-5.69a2.66 2.66.0 0 1 2.71-2.61h.08a2.89 2.89.0 0 1 3 2.57z"/><path class="dw" d="M123.85 419.22c-.27-.93-.66-1.7-1.86-1.7a1.2 1.2.0 0 0-1.2 1.22v.07c0 2.19 4.55 2.31 4.55 5.67a2.88 2.88.0 0 1-2.76 3h-.18c-1.94.0-2.92-1.05-3.44-2.85l1.37-.29c.31 1 .87 1.9 2 1.9a1.63 1.63.0 0 0 1.55-1.63c0-2.49-4.55-2.53-4.55-5.69a2.67 2.67.0 0 1 2.73-2.61h.06a2.89 2.89.0 0 1 3 2.57z"/><path class="dw" d="M127.78 412.31h1.49v1.74h-1.49zm0 4.18h1.49v10.76h-1.49z"/><path class="dw" d="M132.69 416.49 134.84 425.76H134.88L136.99 416.49H138.48L135.83 427.25H133.84L131.2 416.49H132.69z"/><path class="dw" d="M141.09 422.12v.6c0 2.62.6 3.49 2 3.49 1.14.0 1.61-1 1.8-2l1.4.17a3.43 3.43.0 0 1-3.41 3.1c-2.26.0-3.29-1.69-3.29-5.58s1-5.59 3.29-5.59 3.29 2 3.29 5.13v.71zm3.6-1.25c0-2.31-.45-3.35-1.8-3.35-1.08.0-1.78.79-1.8 3.35z"/><path class="dw" d="M159.72 412.31V413.67H154.5V418.76H158.35V420.13H154.5v5.75H159.96V427.25H152.89V412.31H159.72z"/><path class="dw" d="M162.2 416.49h1.41v1.18a4.2 4.2.0 0 1 2.44-1.39c1.49.0 2.36.83 2.36 2.81v8.16h-1.49V419.3c0-1.24-.37-1.78-1.18-1.78a2.82 2.82.0 0 0-2.05 1.33v8.4H162.2z"/><path class="dw" d="M171.39 412.31h1.49v5.36a3.85 3.85.0 0 1 2.36-1.39c1.49.0 2.36.83 2.36 2.81v8.16h-1.49V419.3c0-1.24-.37-1.78-1.18-1.78a2.84 2.84.0 0 0-2.05 1.33v8.4h-1.49z"/><path class="dw" d="M180.37 419.43c.29-1.7 1.29-3.15 3.19-3.15a2.8 2.8.0 0 1 3.08 2.49 2.72 2.72.0 0 1 0 .57v6a4.44 4.44.0 0 0 .27 1.91h-1.55l-.19-.91a3.91 3.91.0 0 1-2.29 1.11 2.61 2.61.0 0 1-2.8-2.41 2.16 2.16.0 0 1 0-.36c0-2.65 2.92-4 5.07-4.47v-.76c0-1.18-.6-1.93-1.55-1.93-1.14.0-1.7 1.14-1.86 2.11zm4.78 2c-1.36.42-3.58 1.41-3.58 3.11.0 1 .46 1.65 1.53 1.65a3 3 0 0 0 2.05-1.12z"/><path class="dw" d="M189.77 416.49h1.41v1.18a4.2 4.2.0 0 1 2.44-1.39c1.49.0 2.36.83 2.36 2.81v8.16h-1.49V419.3c0-1.24-.37-1.78-1.18-1.78a2.82 2.82.0 0 0-2.05 1.33v8.4h-1.49z"/><path class="dw" d="M203.18 419.67c-.15-1.61-.79-2.15-1.7-2.15-1.26.0-1.8.79-1.8 4.35s.54 4.34 1.8 4.34c1 0 1.49-.49 1.74-2.36h1.45c-.25 2.11-1.24 3.6-3.19 3.6-2.25.0-3.29-1.69-3.29-5.58s1-5.59 3.29-5.59c2 0 2.86 1.28 3.15 3.39z"/><path class="dw" d="M207.73 422.12v.6c0 2.62.6 3.49 2 3.49 1.14.0 1.62-1 1.8-2l1.41.17a3.45 3.45.0 0 1-3.42 3.1c-2.25.0-3.28-1.69-3.28-5.58s1-5.59 3.28-5.59 3.29 2 3.29 5.13v.71zm3.61-1.25c-.05-2.31-.46-3.35-1.81-3.35-1.07.0-1.77.79-1.8 3.35z"/><path class="dw" d="M215.23 427.25V416.49h1.36v1.18a3.49 3.49.0 0 1 2.51-1.39 2 2 0 0 1 1.92 1.37 3.5 3.5.0 0 1 2.5-1.37c1.41.0 2.18 1 2.18 2.48v8.49h-1.49V419c0-1.12-.33-1.45-1.12-1.45a2.61 2.61.0 0 0-1.88 1.12v8.61h-1.49V419c0-1.12-.4-1.45-1.18-1.45a2.36 2.36.0 0 0-1.82 1.12v8.61z"/><path class="dw" d="M229.59 422.12v.6c0 2.62.6 3.49 2 3.49 1.14.0 1.61-1 1.8-2l1.4.17a3.43 3.43.0 0 1-3.41 3.1c-2.25.0-3.29-1.69-3.29-5.58s1-5.59 3.29-5.59 3.29 2 3.29 5.13v.71zm3.6-1.25c0-2.31-.45-3.35-1.8-3.35-1.07.0-1.78.79-1.8 3.35z"/><path class="dw" d="M236.92 416.49h1.41v1.18a4.2 4.2.0 0 1 2.44-1.39c1.49.0 2.36.83 2.36 2.81v8.16h-1.49V419.3c0-1.24-.38-1.78-1.18-1.78a2.82 2.82.0 0 0-2.05 1.33v8.4h-1.49z"/><path class="dw" d="M244.78 416.49h1.45v-3.6h1.49v3.6h2v1.24h-2v7.53a1 1 0 0 0 .91 1.08h.17a3.54 3.54.0 0 0 .91-.21v1.12a4.5 4.5.0 0 1-1.41.2c-1.41.0-2.07-.66-2.07-2.31v-7.41h-1.45z"/><path class="dx" d="M153.05 584.16c-.09-1.11-.54-1.95-1.67-1.95a1.39 1.39.0 0 0-1.48 1.28v.14c0 2.45 4.35 2.48 4.35 6a2.53 2.53.0 0 1-2.27 2.76 2.17 2.17.0 0 1-.51.0c-1.69.0-2.71-1.25-2.74-3.06h1.08c0 1.27.63 2.07 1.78 2.07 1 0 1.61-.63 1.61-1.79.0-2.46-4.35-2.74-4.35-5.83a2.42 2.42.0 0 1 2.31-2.53h.3c1.56.0 2.58 1 2.67 2.94z"/><path class="dx" d="M161.69 581.37V582.36H157.91V586.05H160.7V587.04H157.91V591.21H161.87V592.2H156.74V581.37H161.69z"/><path class="dx" d="M168.74 584.64c-.15-1.71-.69-2.43-1.61-2.43-1.36.0-2 1.2-2 4.57s.6 4.58 2 4.58c1.1.0 1.73-.75 1.76-2.76h1.17c0 2.4-1.08 3.75-2.93 3.75s-3.13-1.47-3.13-5.57 1.2-5.56 3.13-5.56c1.61.0 2.6 1.11 2.78 3.42z"/><path class="dx" d="M175.46 592.35c-1.83.0-3.06-1.53-3.06-5.57s1.23-5.56 3.06-5.56 3.06 1.53 3.06 5.56-1.23 5.57-3.06 5.57m0-10.14c-1.05.0-1.89.9-1.89 4.57s.84 4.58 1.89 4.58 1.89-.9 1.89-4.58-.84-4.57-1.89-4.57"/><path class="dx" d="M182.78 581.37 185.57 589.35H185.6V581.37H186.77V592.2H185.51L182.15 582.78H182.12V592.2H180.95V581.37H182.78z"/><path class="dx" d="M189.5 581.37h2c2.28.0 3.66 1.26 3.66 5.41s-1.38 5.42-3.66 5.42h-2zm1.17 9.84h.63c1.71.0 2.7-.72 2.7-4.43s-1-4.42-2.7-4.42h-.63z"/><path class="dx" d="M207.08 581.37V582.36H203.3V586.05H206.09V587.04H203.3V591.21H207.26V592.2H202.13V581.37H207.08z"/><path class="dx" d="M209.69 581.37h2c2.28.0 3.66 1.26 3.66 5.41s-1.38 5.42-3.66 5.42h-2zm1.17 9.84h.63c1.71.0 2.7-.72 2.7-4.43s-1-4.42-2.7-4.42h-.63z"/><path class="dx" d="M218.18 581.37h1.17v10.83H218.18z"/><path class="dx" d="M227.04 581.37V582.36H224.82V592.2H223.65V582.36H221.43V581.37H227.04z"/><path class="dx" d="M229.14 581.37h1.17v10.83H229.14z"/><path class="dx" d="M236 592.35c-1.83.0-3.06-1.53-3.06-5.57s1.23-5.56 3.06-5.56 3.06 1.53 3.06 5.56-1.23 5.57-3.06 5.57m0-10.14c-1 0-1.89.9-1.89 4.57s.84 4.58 1.89 4.58 1.89-.9 1.89-4.58-.84-4.57-1.89-4.57"/><path class="dx" d="M243.36 581.37 246.15 589.35H246.18V581.37H247.35V592.2H246.09L242.73 582.78H242.7V592.2H241.53V581.37H243.36z"/><path class="dw" d="M34.2 323.18H27.84l7.05-38.26h8.16l7.05 38.26H43.74l-1.17-8.48H35.36zM36.32 309h5.3L39 292.55h-.1z"/><path class="dw" d="M52.86 284.92h9.75c6.78.0 10.38 3.71 10.38 11.55v15.16c0 7.84-3.6 11.55-10.38 11.55H52.86zm6.57 32.86H61.7c3.5.0 4.72-1.33 4.72-5.36V295.68c0-4-1.22-5.35-4.72-5.35H59.43z"/><path class="dw" d="M82.11 323.18H75.75l7-38.26H91l7 38.26H91.65l-1.17-8.48h-7.2zM84.23 309h5.3l-2.6-16.43h-.1z"/><path class="dw" d="M100.77 323.18V284.92h9.43c8.11.0 11.87 3.13 11.87 11.29s-3.76 11.29-11.87 11.29h-2.86v15.68zm6.57-21.09h2.54c4.29.0 5.62-1.32 5.62-5.88s-1.33-5.88-5.62-5.88h-2.54z"/><path class="dw" d="M130.02 290.64H123.66V284.92H142.95V290.64H136.59V323.18H130.02V290.64z"/><path class="dw" d="M146.66 284.92h6.57v38.26H146.66z"/><path class="dw" d="M172.84 284.92H179.31L171.31 323.18H164.74L156.73 284.92H163.2L167.97 311.47H168.07L172.84 284.92z"/><path class="dw" d="M181.91 323.18V284.92H199.5V290.64H188.48V300.5H196.96V306.23H188.48V317.46H200.24V323.18H181.91z"/><path class="dw" d="M41.78 333.74H47.18L51.63 358.11H51.74L55.4 333.74H61.54L54.81 372H49.3L44.53 346.72H44.43L39.98 372H34.46L27.2 333.74H33.35L37.38 358.11H37.48L41.78 333.74z"/><path class="dw" d="M63.88 372V333.74H81.47V339.46H70.45V349.32H78.93V355.04H70.45V366.27H82.21V372H63.88z"/><path class="dw" d="M85.56 333.74h9.75c7 0 10.17 3.6 10.17 10.12.0 3.28-1.38 6.73-4.56 8 3.34 1.48 5.3 4.13 5.3 9.06.0 6.31-2.81 11.08-10.28 11.08H85.56zm6.57 15.68h2.38c2.49.0 4.4-1.69 4.4-4.87.0-3.55-1.38-5.41-4.29-5.41H92.13zm0 17.17h2.75c3.5.0 4.77-2 4.77-5.88s-1.48-5.88-5.4-5.88H92.13z"/><path class="dw" d="M120.11 333.74h9.75c6.78.0 10.39 3.71 10.39 11.55v15.16c0 7.84-3.61 11.55-10.39 11.55h-9.75zm6.57 32.85H129c3.5.0 4.72-1.32 4.72-5.35V344.49c0-4-1.22-5.35-4.72-5.35h-2.28z"/><path class="dw" d="M144.75 372V333.74H162.35V339.46H151.33V349.32H159.81V355.04H151.33V366.27H163.09V372H144.75z"/><path class="dw" d="M178.41 343.17c-.27-3.29-2-4.24-3.5-4.24-2.12.0-3.29 1.38-3.29 3.76.0 6.52 13.36 9.65 13.36 20 0 6.3-4.24 9.8-10.39 9.8s-9.59-4.88-9.86-10.6L171 361c.26 3.87 1.8 5.78 3.92 5.78 2.28.0 3.82-1.22 3.82-3.5.0-7.58-13.36-9.59-13.36-20.56.0-6.1 3.71-9.54 10.18-9.54 5.35.0 8.53 3.86 9.11 9.27z"/><path class="dw" d="M189.01 333.74h6.57V372H189.01z"/><path class="dw" d="M210.05 352.6h10.76V372h-3.18l-1.22-2.86c-2 2.33-3.55 3.39-6.63 3.39-5.19.0-8.79-3.71-8.79-9.81V343c0-5.41 3.18-9.8 9.64-9.8s9.86 4.77 9.86 10.49v2.44h-6.25c0-5.73-1.17-7.21-3.77-7.21-1.59.0-2.91.95-2.91 4.19v19.66c0 2.43.79 4 3.07 4 2.65.0 3.61-1.48 3.61-5.3v-3.71h-4.19z"/><path class="dw" d="M225.63 372V333.74H231.72L239.73 355.62H239.83V333.74H245.77V372H240.04L231.67 348.1H231.57V372H225.63z"/><path class="dw" d="M236 497.13h-1.17a12.61 12.61.0 0 0 .25-2.94V482h1.51v5a3 3 0 0 1 2-1c1.72.0 3.15 1.47 3.15 5.67s-1.43 5.67-3.15 5.67a2.71 2.71.0 0 1-2.27-1.26zm.59-2.1a2.36 2.36.0 0 0 1.6 1.05c1.26.0 2.05-1.05 2.05-4.41s-.73-4.41-2-4.41a2.48 2.48.0 0 0-1.64 1z"/><path class="dw" d="M244.37 486.21l2.06 8.35h0l1.68-8.35h1.55l-2.49 10.69c-.57 2.39-1.62 3.8-3.45 3.8H243v-1.26h.47c1.19.0 2-.87 2.26-2.4l-2.89-10.83z"/><path class="dw" d="M260.22 482l3.34 15.16h-1.63l-.91-4.5h-3.86l-.9 4.5h-1.64L258 482zm-2.83 9.28h3.4l-1.68-8.15h0z"/><path class="dw" d="M265.05 489.19c.3-1.72 1.31-3.19 3.24-3.19a2.85 2.85.0 0 1 3.13 2.54 2.72 2.72.0 0 1 0 .57v6.08a4.57 4.57.0 0 0 .27 1.94h-1.57l-.19-.93a4 4 0 0 1-2.33 1.14 2.66 2.66.0 0 1-2.84-2.47 2 2 0 0 1 0-.35c0-2.69 3-4 5.14-4.53v-.78c0-1.2-.6-1.95-1.57-1.95-1.15.0-1.72 1.15-1.89 2.14zm4.85 2.06c-1.38.42-3.63 1.42-3.63 3.15.0 1 .46 1.68 1.56 1.68a3.09 3.09.0 0 0 2.07-1.14z"/><path class="dw" d="M274.46 486.21H276v1.32h0a2.81 2.81.0 0 1 2.77-1.53v1.43c-1.14.0-2 .37-2.81 1.93v7.77h-1.52z"/><path class="dw" d="M283 486c2.29.0 3.34 1.72 3.34 5.67s-1 5.67-3.34 5.67-3.34-1.73-3.34-5.67 1-5.67 3.34-5.67m0 10.08c1.28.0 1.82-.8 1.82-4.41s-.54-4.41-1.82-4.41-1.83.8-1.83 4.41.55 4.41 1.83 4.41"/><path class="dw" d="M288.6 486.21H290v1.19a4.4 4.4.0 0 1 2.48-1.4c1.51.0 2.4.84 2.4 2.85v8.28h-1.52v-8.07c0-1.26-.37-1.8-1.19-1.8a2.86 2.86.0 0 0-2.08 1.34v8.53H288.6z"/><path class="dw" d="M308.75 486.63c-.12-2-.71-3.49-2.37-3.49-1.82.0-2.71 1.64-2.71 6.41s.89 6.4 2.71 6.4a2.14 2.14.0 0 0 2.37-1.88 2.17 2.17.0 0 0 0-.51v-2.15H306.7V490h3.69v7.1h-1.05l-.21-1.14a3.25 3.25.0 0 1-2.75 1.35c-2.66.0-4.34-2.06-4.34-7.79s1.68-7.79 4.34-7.79 3.8 2.43 4 4.87z"/><path class="dw" d="M319.38 497.13H318v-1.2a4.36 4.36.0 0 1-2.47 1.41c-1.52.0-2.4-.84-2.4-2.86v-8.27h1.51v8.06c0 1.26.38 1.81 1.2 1.81a2.87 2.87.0 0 0 2.08-1.35v-8.52h1.51z"/><path class="dw" d="M326.65 489c-.28-1-.68-1.72-1.89-1.72a1.22 1.22.0 0 0-1.22 1.22v.08c0 2.23 4.62 2.35 4.62 5.75a2.93 2.93.0 0 1-2.86 3h-.14c-2 0-3-1.08-3.49-2.9l1.39-.3c.31 1 .88 1.94 2 1.94a1.67 1.67.0 0 0 1.58-1.66c0-2.52-4.62-2.56-4.62-5.78a2.7 2.7.0 0 1 2.76-2.64h.07a2.94 2.94.0 0 1 3 2.6z"/><path class="dw" d="M329.23 486.21h1.47v-3.65h1.51v3.65h2v1.26h-2v7.64a1 1 0 0 0 .9 1.09h.19a3 3 0 0 0 .93-.21v1.14a4.63 4.63.0 0 1-1.43.21c-1.43.0-2.1-.68-2.1-2.36v-7.51h-1.47z"/><path class="dw" d="M336.2 489.19c.3-1.72 1.3-3.19 3.24-3.19a2.84 2.84.0 0 1 3.12 2.53 2.81 2.81.0 0 1 0 .58v6.08a4.43 4.43.0 0 0 .28 1.94h-1.58l-.19-.93a4 4 0 0 1-2.33 1.14 2.65 2.65.0 0 1-2.83-2.46 2.16 2.16.0 0 1 0-.36c0-2.69 3-4 5.14-4.53v-.78c0-1.2-.61-1.95-1.57-1.95-1.16.0-1.72 1.15-1.89 2.14zm4.85 2.06c-1.38.42-3.63 1.42-3.63 3.15.0 1 .46 1.68 1.55 1.68a3.09 3.09.0 0 0 2.08-1.14z"/><path class="dw" d="M344.6 486.21h1.68V484c0-1.47.59-2.22 2.23-2.22a7.74 7.74.0 0 1 1.17.12v1.18a1.8 1.8.0 0 0-.82-.17c-.73.0-1.07.46-1.07 1.16v2.16h1.77v1.26h-1.77v9.66h-1.51v-9.66H344.6z"/><path class="dw" d="M355.81 489c-.27-1-.67-1.72-1.89-1.72a1.21 1.21.0 0 0-1.21 1.23v.07c0 2.23 4.62 2.35 4.62 5.75a2.93 2.93.0 0 1-2.86 3h-.14c-2 0-3-1.08-3.48-2.9l1.39-.3c.31 1 .88 1.94 2 1.94a1.67 1.67.0 0 0 1.57-1.66c0-2.52-4.61-2.56-4.61-5.78A2.7 2.7.0 0 1 354 486h0a2.92 2.92.0 0 1 3 2.6z"/><path class="dw" d="M362.3 486c2.29.0 3.34 1.72 3.34 5.67s-1.05 5.67-3.34 5.67-3.33-1.73-3.33-5.67 1-5.67 3.33-5.67m0 10.08c1.28.0 1.83-.8 1.83-4.41s-.55-4.41-1.83-4.41-1.82.8-1.82 4.41.54 4.41 1.82 4.41"/><path class="dw" d="M367.91 486.21h1.43v1.19a4.31 4.31.0 0 1 2.48-1.4c1.51.0 2.39.84 2.39 2.85v8.28H372.7v-8.07c0-1.26-.38-1.8-1.2-1.8a2.86 2.86.0 0 0-2.08 1.34v8.53h-1.51z"/><path class="dw" d="M246.73 504.8H251.38V505.79H247.9V509.48H250.5V510.46H247.9V515.63H246.73V504.8z"/><path class="dw" d="M254.48 507.68c1.64.0 2.39 1.23 2.39 4.05s-.75 4-2.39 4-2.38-1.23-2.38-4 .75-4.05 2.38-4.05m0 7.2c.92.0 1.31-.57 1.31-3.15s-.39-3.15-1.31-3.15-1.31.57-1.31 3.15.4 3.15 1.31 3.15"/><path class="dw" d="M258.4 507.83h1.08v.94h0a2 2 0 0 1 2-1.09v1a2.06 2.06.0 0 0-2 1.38v5.55H258.4z"/><path class="dw" d="M263.18 511.91v.43c0 1.91.44 2.54 1.46 2.54.82.0 1.17-.77 1.3-1.47l1 .12a2.49 2.49.0 0 1-2.47 2.25c-1.64.0-2.39-1.23-2.39-4s.75-4 2.39-4 2.38 1.47 2.38 3.72v.5zm2.61-.9c0-1.68-.33-2.43-1.3-2.43-.78.0-1.29.57-1.31 2.43z"/><path class="dw" d="M268.7 507.83 269.81 513.56H269.84L271.1 507.83H272.12L273.41 513.56H273.44L274.46 507.83H275.48L273.86 515.63H272.96L271.61 509.57H271.58L270.23 515.63H269.33L267.68 507.83H268.7z"/><path class="dw" d="M278.66 507.68c1.64.0 2.39 1.23 2.39 4.05s-.75 4-2.39 4-2.38-1.23-2.38-4 .75-4.05 2.38-4.05m0 7.2c.92.0 1.31-.57 1.31-3.15s-.39-3.15-1.31-3.15-1.31.57-1.31 3.15.4 3.15 1.31 3.15"/><path class="dw" d="M282.58 507.83h1.08v.94h0a2 2 0 0 1 2-1.09v1a2.06 2.06.0 0 0-2 1.38v5.55h-1.08z"/><path class="dw" d="M290.36 514.87h0a1.87 1.87.0 0 1-1.6.91c-1.23.0-2.25-1.06-2.25-4s1-4 2.25-4a2.11 2.11.0 0 1 1.44.72v-3.6h1.08v8.73a8.17 8.17.0 0 0 .18 2.09h-1zm-.19-5.6a1.8 1.8.0 0 0-1.17-.69c-.92.0-1.44.75-1.44 3.15s.57 3.14 1.46 3.14a1.68 1.68.0 0 0 1.15-.75z"/><path class="dw" d="M297.57 515.63h-.84a8.25 8.25.0 0 0 .18-2.1V504.8H298v3.6a2.11 2.11.0 0 1 1.44-.72c1.23.0 2.25 1.05 2.25 4.05s-1 4-2.25 4a1.93 1.93.0 0 1-1.62-.9zm.42-1.5a1.69 1.69.0 0 0 1.14.75c.9.0 1.47-.75 1.47-3.15s-.52-3.15-1.44-3.15a1.8 1.8.0 0 0-1.17.69z"/><path class="dw" d="M303.54 507.83l1.48 6h0l1.2-6h1.12l-1.79 7.63c-.41 1.71-1.16 2.72-2.46 2.72h-.55v-.9h.33c.85.0 1.4-.62 1.61-1.71l-2.06-7.74z"/><path class="dw" d="M313.91 504.8v8.13c0 2.22-.75 2.85-2.67 2.85l-.6-.09.09-1a1.93 1.93.0 0 0 .67.12c1 0 1.34-.41 1.34-1.59v-8.4z"/><path class="dw" d="M316.5 511.91v.43c0 1.91.44 2.54 1.46 2.54.82.0 1.17-.77 1.3-1.47l1 .12a2.49 2.49.0 0 1-2.47 2.25c-1.64.0-2.39-1.23-2.39-4s.75-4 2.39-4 2.38 1.47 2.38 3.72v.5zm2.61-.9c0-1.68-.33-2.43-1.3-2.43-.78.0-1.29.57-1.31 2.43z"/><path class="dw" d="M321.72 507.83h1.08v.94h0a2 2 0 0 1 2-1.09v1a2.08 2.08.0 0 0-2 1.38v5.55h-1.08z"/><path class="dw" d="M326.51 511.91v.43c0 1.91.43 2.54 1.45 2.54.83.0 1.17-.77 1.31-1.47l1 .12a2.5 2.5.0 0 1-2.48 2.25c-1.63.0-2.38-1.23-2.38-4s.75-4 2.38-4 2.39 1.47 2.39 3.72v.5zm2.61-.9c0-1.68-.33-2.43-1.31-2.43-.78.0-1.29.57-1.3 2.43z"/><path class="dw" d="M331.94 515.63v-7.8h1v.85a2.51 2.51.0 0 1 1.81-1 1.48 1.48.0 0 1 1.4 1 2.56 2.56.0 0 1 1.81-1c1 0 1.58.69 1.58 1.8v6.15h-1.08v-6c0-.81-.24-1.05-.81-1.05a1.87 1.87.0 0 0-1.37.81v6.24H335.2v-6c0-.81-.28-1.05-.85-1.05a1.69 1.69.0 0 0-1.32.81v6.24z"/><path class="dw" d="M341.88 507.83l1.47 6h0l1.2-6h1.11l-1.78 7.63c-.41 1.71-1.16 2.72-2.46 2.72h-.56v-.9h.33c.86.0 1.41-.62 1.62-1.71l-2.07-7.74z"/><path class="dw" d="M351.08 504.8V510.32H351.11L354.14 504.8H355.4L353.3 508.58 355.79 515.63H354.53L352.52 509.78H352.49L351.08 512.29V515.63H349.91V504.8H351.08z"/><path class="dw" d="M357.33 511.91v.43c0 1.91.44 2.54 1.46 2.54.82.0 1.17-.77 1.3-1.47l1 .12a2.49 2.49.0 0 1-2.47 2.25c-1.64.0-2.39-1.23-2.39-4s.75-4 2.39-4 2.38 1.47 2.38 3.72v.5zm2.61-.9c0-1.68-.33-2.43-1.3-2.43-.78.0-1.29.57-1.31 2.43z"/><path class="dw" d="M362.69 504.8h1.08v1.26h-1.08zm0 3h1.08v7.8h-1.08z"/><path class="dw" d="M365 507.83h1.05v-2.61h1.08v2.61h1.44v.9h-1.44v5.46a.71.71.0 0 0 .63.78h.15a2.44 2.44.0 0 0 .66-.15v.81a3.37 3.37.0 0 1-1 .15c-1 0-1.5-.48-1.5-1.68v-5.37H365z"/><path class="dw" d="M370.14 504.8h1.08v3.88a2.79 2.79.0 0 1 1.71-1c1.08.0 1.71.6 1.71 2v5.91h-1.08v-5.76c0-.9-.27-1.29-.85-1.29a2 2 0 0 0-1.49 1v6.09h-1.08z"/></g><g class="c"><path class="dy" d="M396.19 623.84v15m0-651v-15m-396 651v15m0-651v-15m408 639h15m-435 0h-15m435-612h15m-435 0h-15"/><path class="dz" d="M396.19 623.84v15m0-651v-15m-396 651v15m0-651v-15m408 639h15m-435 0h-15m435-612h15m-435 0h-15"/></g></g></svg>