<svg width="750" height="129" viewBox="0 0 750 129" xmlns="http://www.w3.org/2000/svg" xmlns:xlink="http://www.w3.org/1999/xlink"><title>画板</title><g id="画板" stroke="none" stroke-width="1" fill="none" fill-rule="evenodd"><g id="Top-Bar"><g id="Body"><path id="Shape" fill="#f8f8f8" d="M0 0H750V129H0z"/><path id="Shape" fill="#adadad" d="M0 128H750v1H0z"/></g><g id="编组" transform="translate(13.000000, 3.000000)"><g id="Signal" transform="translate(0.000000, 5.000000)"><g transform="translate(0.000000, 7.000000)" id="Shape"><path d="M5.54878049.0C8.61329268.0 11.0983537 2.46242857 11.0983537 5.5 11.0983537 8.53757143 8.61408537 11 5.54878049 11 2.48426829 11 0 8.53835714.0 5.5.0 2.46242857 2.48506098.0 5.54878049.0V0z" fill="#000"/><path d="M19.5487805.0C22.6132927.0 25.097561 2.46242857 25.097561 5.5 25.097561 8.53757143 22.6132927 11 19.5487805 11 16.4842683 11 14 8.53835714 14 5.5 14 2.46242857 16.4842683.0 19.5487805.0V0z" fill="#000"/><path d="M33.4992056.0C36.5637178.0 39.0479861 2.46242857 39.0479861 5.5 39.0479861 8.53757143 36.5637178 11 33.4992056 11 30.4354861 11 27.9512178 8.53835714 27.9512178 5.5 27.9504252 2.46242857 30.4346935.0 33.4992056.0V0z" fill="#000"/><path d="M47.5487805.0C50.6132927.0 53.097561 2.46242857 53.097561 5.5 53.097561 8.53757143 50.6140854 11 47.5487805 11 44.4842683 11 42 8.53835714 42 5.5 42 2.46242857 44.4842683.0 47.5487805.0V0z" fill="#000"/><path d="M61.547988.5C62.9426812.5 64.2055319 1.06000783 65.1195813 1.96602159 66.0320257 2.87044447 66.5967685 4.11978716 66.5967685 5.5 66.5967685 6.88021284 66.0320257 8.12955553 65.1195813 9.03397841 64.2055319 9.93999217 62.9426812 10.5 61.547988 10.5 60.1532813 10.5 58.8905909 9.94016891 57.9767292 9.03421179 57.0645001 8.12987306 56.5000002 6.88053683 56.5000002 5.49986952 56.49964 4.11974046 57.0641534 2.87047056 57.9764319 1.96608289 58.8903906 1.06002959 60.1532666.5 61.547988.5z" stroke="#000"/></g><text id="VIRGIN" font-family="HelveticaNeue, Helvetica Neue" font-size="22" font-weight="normal" letter-spacing="1" fill="#000"><tspan x="76" y="21">VIRGI</tspan><tspan x="137.606" y="21">N</tspan></text><path d="M176.482686 15.0182497C177.996986 15.0182497 179.382089 15.6574703 180.458474 16.5783687v0L176.482686 21.11 172.511406 16.5738619C173.587039 15.6552169 174.971392 15.0182497 176.482686 15.0182497zM176.587846 9.00912484C179.589404 9.00912484 182.32656 10.2267238 184.429754 12.0895525v0L182.496318 14.2926479C180.906153 12.9015355 178.844273 12.055 176.587095 12.055 174.333673 12.055 172.274797 12.8977798 170.686134 14.2866387v0L168.755703 12.0805388C170.858146 10.2229681 173.591546 9.00912484 176.587846 9.00912484zM176.638924 3C181.107459 3 185.17789 4.95146329 188.294372 7.74195064v0L186.46835 9.8241124C183.837855 7.47679801 180.405143 6.04587516 176.639675 6.04587516 172.879465 6.04587516 169.452762 7.47154002 166.823018 9.81284529v0L165 7.72918125C168.112727 4.94620531 172.1779 3 176.638924 3z" id="Wifi" fill="#000"/></g><path d="M600.324 17.504 605.97 11.978 597.546 4H597.346V15.096L591.628 9.245 590 10.905 596.879 17.504 590 24.103 591.628 25.762 597.346 19.91V31.006H597.71L606.051 23.007 600.324 17.504v0zM603.215 11.978 599.41 15.713V8.635L603.215 11.978v0zM599.41 26.542V19.163L603.048 23.03 599.41 26.542v0z" id="Blutooth" fill="#000" opacity=".45"/><g id="Battery" transform="translate(313.000000, 0.000000)"><path d="M411 21C412.104 21 412.999 19.9546667 412.999 18.6666667V16.3333333C412.999 15.0453333 412.104 14 411 14h-1v7h1z" id="Shape" fill="#000"/><path d="M366 11.007484C366 10.4510659 366.449949 10 367.006845 10H380V25H367.006845C366.45078 25 366 24.5510798 366 23.992516V11.007484z" id="Shape" fill="#000"/><path d="M406.5 8.5C407.050261 8.5 407.547503 8.73271437 407.907797 9.10611279 408.274556 9.48621177 408.5 10.0116412 408.5 10.5909277v0 13.818281C408.5 24.9887758 408.274462 25.5143279 407.907723 25.8945317 407.547343 26.2681438 407.05004 26.501 406.5 26.501v0h-40C365.949717 26.501 365.452459 26.2682626 365.092169 25.8947441 364.725408 25.5145164 364.5 24.9888691 364.5 24.4092087v0-13.818281C364.5 10.0116412 364.725444 9.48621177 365.092203 9.10611279 365.452497 8.73271437 365.949739 8.5 366.5 8.5v0z" id="Shape" stroke="#000"/><text id="22%" font-family="HelveticaNeue-Light, Helvetica Neue" font-size="23" font-weight="300" letter-spacing="1" fill="#000"><tspan x="307" y="26">22</tspan><tspan x="334.576" y="26">%</tspan></text><text id="4-21-PM" font-family="HelveticaNeue, Helvetica Neue" font-size="24" font-weight="normal" letter-spacing="1" fill="#000"><tspan x="0" y="26">4 21 PM</tspan></text><text id=":" font-family="AvenirNext-Regular, Avenir Next" font-size="24" font-weight="normal" letter-spacing="1" fill="#000"><tspan x="13.5" y="24">:</tspan></text></g><path d="M688.991 59 699.389 65.003 688.991 71.007 688.99 65.981 688.720088 65.9858425C683.326523 66.1340965 679 70.5535932 679 75.982 679 81.505 683.477 85.983 689 85.983 694.165 85.983 698.416 82.003 698.945 76.979 699.993 76.978 701.207 76.992 701.959 76.992 701.428 83.685 695.829 88.982 689 88.982 681.82 88.982 676 83.162 676 75.982 676 68.8060164 681.81511 62.9868918 688.99095 62.9820031L688.991 59z" id="Refresh" fill="#000"/></g><text id="Louie" font-family="HelveticaNeue-Medium, Helvetica Neue" font-size="33" font-weight="400" letter-spacing=".700000048" fill="#000"><tspan x="232.024" y="96.6999733">www.didialift.com</tspan></text></g></g></svg>