<svg xmlns="http://www.w3.org/2000/svg" viewBox="0 0 286.23 338.48"><defs><style>.a,.b,.c{fill:#aaa;}.a{opacity:0.25;}.b{opacity:0.5;}.c{opacity:0.75;}.d,.m{fill:#fff;}.e{fill:#040000;}.f{fill:#262626;}.g,.k,.l{fill:none;stroke-miterlimit:10;}.g,.k{stroke:#040000;}.h{fill:#e10032;}.i{fill:#009fb5;}.j{fill:#009c42;}.k{stroke-width:2px;}.l{stroke:#000;}.m{opacity:0.1;}</style></defs><title>ffly</title><ellipse class="a" cx="148.01" cy="323.25" rx="138.22" ry="15.23"/><path class="b" d="M256,320.25c0,6.57-48.34,11.9-108,11.9s-108-5.33-108-11.9,48.34-11.9,108-11.9S256,313.68,256,320.25Z"/><ellipse class="c" cx="148.01" cy="318.25" rx="79.39" ry="8.75"/><path class="d" d="M144.5,319.45c-53.13,0-99.8-17.71-113.51-43.06l-.24-.44V259.24c-12.9-8.35-20.24-18.07-21.28-28.19A41.42,41.42,0,0,1,2,207.75c0-9.71,3.59-19,10.66-27.59V113.81C12.66,52.16,71.8,2,144.5,2S276.33,52.16,276.33,113.81v89.54c1.12,1.49,3.33,5.34,3.33,12.65v12.5c0,11.05-7.4,21.66-21.41,30.74v16.7l-.24.45C244.3,301.74,197.62,319.45,144.5,319.45Z"/><path class="e" d="M144.5,4c71.7,0,129.83,49.16,129.83,109.81v90.27s3.33,3.25,3.33,11.92v12.5c0,10.93-7.87,21.11-21.41,29.65v17.29c-13.08,24.18-58.15,42-111.75,42s-98.68-17.83-111.75-42V258.15c-12.78-8-20.5-17.57-21.34-27.8A39.77,39.77,0,0,1,4,207.75c0-9.66,3.84-18.79,10.66-26.87V113.81C14.66,53.16,72.79,4,144.5,4m0-4C108.87,0,75.35,11.76,50.11,33.11c-25.44,21.51-39.45,50.17-39.45,80.7v65.64C3.68,188.16,0,197.92,0,207.75a43.23,43.23,0,0,0,7.53,24c1.27,10.31,8.57,20.14,21.22,28.57v16.13l.48.89c7,12.85,21.74,23.88,42.77,31.91s46,12.2,72.5,12.2,51.58-4.22,72.49-12.2,35.83-19.06,42.77-31.91l.49-.89V260.32c14-9.34,21.41-20.31,21.41-31.82V216c0-7-2-11.2-3.33-13.26V113.81c0-30.53-14-59.19-39.44-80.7C213.64,11.76,180.12,0,144.5,0Z"/><path class="f" d="M274.5,109.46c0-50.7-58.21-91.79-130-91.79s-130,41.09-130,91.79c0,.35,0,.69,0,1h0v80.83c0,9.57,58.2,17.33,130,17.33s130-7.76,130-17.33V110.5h0C274.48,110.15,274.5,109.81,274.5,109.46Z"/><path d="M50.77,203.34c23.65,3.28,56.9,5.32,93.73,5.32,38.95,0,73.89-2.28,97.72-5.9V127.3h0c0-.28,0-.56,0-.84,0-23.4-14.29-44.24-36.55-57.68a54.81,54.81,0,0,0,7.42-25.62c-19-9.78-42-15.49-66.59-15.49-27.08,0-52,6.89-72.11,18.5a55.26,55.26,0,0,0,8.84,25.24c-19.9,13.44-32.46,33.12-32.46,55.05,0,.28,0,.56,0,.84h0Z"/><path class="e" d="M161.81,253.83a17.94,17.94,0,0,0,3-3.8V232.69a17.94,17.94,0,0,0-3-3.8Z"/><path class="e" d="M156.65,257.5a20.66,20.66,0,0,0,3-1.82V227a19.81,19.81,0,0,0-3-1.82Z"/><path class="e" d="M150.65,259.38a21.44,21.44,0,0,0,3-.7V224a21.42,21.42,0,0,0-3-.69Z"/><path class="e" d="M140.81,258.68a21.12,21.12,0,0,0,3,.7v-36a21.1,21.1,0,0,0-3,.69Z"/><path class="e" d="M135.65,256.25a19.63,19.63,0,0,0,3,1.62v-33a19.63,19.63,0,0,0-3,1.62Z"/><path class="e" d="M129.65,250a18,18,0,0,0,3,3.81V228.89a17.94,17.94,0,0,0-3,3.8Z"/><path class="g" d="M32.25,258.5c23.74,15,65.42,24.85,112.25,24.85S233,273.46,256.75,258.5"/><path class="g" d="M14.66,195.08S20.58,214,146.92,214c111,0,127.83-18.92,127.83-18.92"/><circle class="h" cx="195.25" cy="237.67" r="6"/><path class="i" d="M219.54,233.66a5.42,5.42,0,1,1-5.42-5.42A5.42,5.42,0,0,1,219.54,233.66Z"/><path class="j" d="M242.69,225.22a4,4,0,1,1-4-4A4,4,0,0,1,242.69,225.22Z"/><path class="h" d="M83.44,225.69a27.91,27.91,0,0,0-13.68,3.57l.14,0c-2.11,1.62-9.26,7.6-2.65,9,4.38,1,11.7,1.36,17.17,1.54a28.94,28.94,0,0,0-3.06,21.43,280.7,280.7,0,0,0,28.2,4.2,29,29,0,0,0,2.19-11.1A28.51,28.51,0,0,0,83.44,225.69Z"/><path class="k" d="M84.42,239.87c-5.47-.18-12.79-.58-17.17-1.54-6.61-1.43.54-7.41,2.65-9-25.27-6.19-45.37-18.52-55.24-34l-.91-14.46A40.47,40.47,0,0,0,4,207.75c0,28.68,33.85,52.65,79.08,58.58a29,29,0,0,1,1.34-26.46Z"/><path class="g" d="M28.77,210.43s-15.27,4.44-14.27,24"/><path class="g" d="M35.52,215.17s-14.35,5.5-13.64,26.68"/><path class="g" d="M43.49,219.69a26.81,26.81,0,0,0-11.33,29.63"/><path class="g" d="M52.12,223.6s-15.95,10.91-7.91,32.07"/><path class="g" d="M61.44,226.94s-16,12.7-6.78,32.84"/><path class="g" d="M23.68,206.08S8.91,207.82,8.16,224.85"/><path class="g" d="M67.25,238.33s-6.88,9.6-1.54,24.71"/><path class="g" d="M79.12,239.64s-7.89,12.09-1.38,25.73"/><path class="g" d="M18.75,200.89S6.41,199.84,4.54,214"/><path class="g" d="M14.66,196.34s-7.95-1.46-10.12,6.21"/><path class="g" d="M14.66,191.17s-4.15-1.57-7.95,2.71"/><path class="l" d="M266.25,197.42V120.5h0c0-.35,0-.69,0-1,0-50.7-53.62-91.79-119.75-91.79S26.74,68.76,26.74,119.46c0,.35,0,.69,0,1h0v78.18"/><path class="g" d="M81.39,261.42c16.54,3.46,37.23,5.58,63.11,5.58,140.49,0,130.25-62.92,130.25-62.92"/><path class="g" d="M83.39,266.42c16.54,3.46,37.23,5.58,63.11,5.58,140.49,0,130.25-62.92,130.25-62.92"/><path class="m" d="M171.25,102.67s16.33-7,26.67-12.67c0,0,16.33,23.67,19.66,45.67,0,0-16,7-38.66,8A179.08,179.08,0,0,0,171.25,102.67Z"/></svg>