<svg xmlns="http://www.w3.org/2000/svg" viewBox="0 0 187.54 13.32"><defs><style>.a{fill:#231815;}</style></defs><title>logo_pku</title><path class="a" d="M9.78,3.44A3.83,3.83,0,0,1,9.39,5.2,3.49,3.49,0,0,1,8.31,6.47a4.62,4.62,0,0,1-1.49.74,6.46,6.46,0,0,1-1.73.23H3.67v3.85a1.32,1.32,0,0,0,.1.55.73.73,0,0,0,.43.37,2.69,2.69,0,0,0,.57.11,5.38,5.38,0,0,0,.76.06V13H.08v-.64l.61-.06a2.44,2.44,0,0,0,.56-.11.77.77,0,0,0,.38-.35,1.2,1.2,0,0,0,.12-.57V2.1a1.69,1.69,0,0,0-.09-.56.68.68,0,0,0-.41-.38A4.44,4.44,0,0,0,.57,1L0,.93V.29H5.8a4.54,4.54,0,0,1,2.87.86A2.74,2.74,0,0,1,9.78,3.44ZM7.05,5.6a2.61,2.61,0,0,0,.4-.89,4.54,4.54,0,0,0,.1-.83,4.68,4.68,0,0,0-.12-1A2.35,2.35,0,0,0,7,1.92a2,2,0,0,0-.82-.65A3.13,3.13,0,0,0,4.92,1H3.67v5.6h.91a3.36,3.36,0,0,0,1.56-.3A2.28,2.28,0,0,0,7.05,5.6Z"/><path class="a" d="M21.94,9.28,21.7,13H11.15v-.64c.18,0,.42,0,.72-.07a2.72,2.72,0,0,0,.58-.12.8.8,0,0,0,.39-.35,1.12,1.12,0,0,0,.12-.55V2.14a1.38,1.38,0,0,0-.1-.52.85.85,0,0,0-.41-.38A3.64,3.64,0,0,0,11.8,1a4.6,4.6,0,0,0-.65-.11V.29H21V3.35h-.66a4.05,4.05,0,0,0-.78-1.42,1.93,1.93,0,0,0-1.13-.82c-.19,0-.41,0-.66-.06H14.87v5H16.3a2.73,2.73,0,0,0,1-.13,1.43,1.43,0,0,0,.56-.43,2.4,2.4,0,0,0,.33-.7A3.77,3.77,0,0,0,18.38,4H19V9h-.66a4,4,0,0,0-.2-.91,2.44,2.44,0,0,0-.32-.7,1.32,1.32,0,0,0-.63-.46,3.28,3.28,0,0,0-.93-.11H14.87v3.81a4.2,4.2,0,0,0,.08.9.83.83,0,0,0,.31.5,1.38,1.38,0,0,0,.64.22,10.46,10.46,0,0,0,1.14,0h.77a6.5,6.5,0,0,0,.82,0,4.62,4.62,0,0,0,.69-.13,1,1,0,0,0,.52-.25,5.93,5.93,0,0,0,.86-1.3,10,10,0,0,0,.58-1.28Z"/><path class="a" d="M35.05,13H31.47a37.62,37.62,0,0,0-2.29-3.17c-.84-1-1.72-2.06-2.64-3H26.3v4.43a1.29,1.29,0,0,0,.11.53.85.85,0,0,0,.4.37,3.6,3.6,0,0,0,.53.16,2.94,2.94,0,0,0,.64.09V13H22.72v-.64l.6-.05a1.81,1.81,0,0,0,.56-.11.73.73,0,0,0,.39-.34,1.18,1.18,0,0,0,.12-.55V2.14a1.12,1.12,0,0,0-.11-.53.77.77,0,0,0-.4-.37A4.86,4.86,0,0,0,23.3,1a3,3,0,0,0-.58-.11V.29H28V.93a4.39,4.39,0,0,0-.62.08,3.26,3.26,0,0,0-.55.14.67.67,0,0,0-.4.35,1.46,1.46,0,0,0-.11.55V6.46h.18C27,6,27.55,5.53,28.07,5s1-1,1.42-1.47.82-1,1-1.31a1.7,1.7,0,0,0,.32-.87.25.25,0,0,0-.16-.22A1.88,1.88,0,0,0,30.31,1C30.14,1,30,1,29.86,1l-.32,0V.29H34.3V.93h-.11L34,1l-.25,0-.32.07a2.68,2.68,0,0,0-.65.23,1.57,1.57,0,0,0-.54.39L30.29,3.86c-.67.74-1.33,1.43-2,2.05.91,1,1.66,1.91,2.26,2.64s1.23,1.53,1.9,2.38a4.52,4.52,0,0,0,1.43,1.2,2,2,0,0,0,.58.18,2.74,2.74,0,0,0,.58.07Z"/><path class="a" d="M41.42,13H35.68v-.64l.7-.05a2.35,2.35,0,0,0,.65-.11.85.85,0,0,0,.43-.31,1,1,0,0,0,.14-.57V2.12a1.34,1.34,0,0,0-.1-.52A.84.84,0,0,0,37,1.24a6.54,6.54,0,0,0-.68-.2,4.38,4.38,0,0,0-.67-.11V.29h5.74V.93c-.18,0-.4,0-.66.07a5,5,0,0,0-.68.15.72.72,0,0,0-.45.35,1.18,1.18,0,0,0-.12.53v9.22a1,1,0,0,0,.13.52.9.9,0,0,0,.44.36,4.36,4.36,0,0,0,.62.16,3.52,3.52,0,0,0,.72.09Z"/><path class="a" d="M55.68.93a5.47,5.47,0,0,0-.78.14,3,3,0,0,0-.75.28,1.28,1.28,0,0,0-.43.86,9.09,9.09,0,0,0-.12,1.62v9.33h-.78L45.1,2.73V9.3A7.92,7.92,0,0,0,45.24,11a1.58,1.58,0,0,0,.42.85,2.22,2.22,0,0,0,.85.37,4.58,4.58,0,0,0,.85.17V13H42.15v-.64a5.09,5.09,0,0,0,.81-.17,2.26,2.26,0,0,0,.72-.28,1.41,1.41,0,0,0,.43-.77,9.9,9.9,0,0,0,.11-1.76V3.13a2.68,2.68,0,0,0-.14-.83,1.6,1.6,0,0,0-.38-.63,2.72,2.72,0,0,0-.88-.51,3,3,0,0,0-.88-.23V.29h3.63L52.73,10V4a7.4,7.4,0,0,0-.15-1.71,1.33,1.33,0,0,0-.41-.8,3.14,3.14,0,0,0-.81-.33,4.18,4.18,0,0,0-.87-.18V.29h5.19Z"/><path class="a" d="M69,7.92,68.44,8a2.21,2.21,0,0,0-.59.17.85.85,0,0,0-.39.38,1.34,1.34,0,0,0-.11.58v1c0,.72,0,1.21,0,1.46s0,.46,0,.62A13.94,13.94,0,0,1,65,13a9.89,9.89,0,0,1-2.32.29,6.25,6.25,0,0,1-2.34-.46,5.76,5.76,0,0,1-2-1.31A6.26,6.26,0,0,1,57,9.48a7.18,7.18,0,0,1-.5-2.73A7.44,7.44,0,0,1,57,4.05,6.3,6.3,0,0,1,58.37,1.9a5.86,5.86,0,0,1,2-1.4A6.48,6.48,0,0,1,62.91,0a5.81,5.81,0,0,1,1.87.27,7.28,7.28,0,0,1,1.4.63l.37-.61h.72l.08,4.44h-.74c-.13-.49-.29-1-.47-1.46A5.13,5.13,0,0,0,65.43,2a3.46,3.46,0,0,0-1.07-.91A3.21,3.21,0,0,0,62.85.74a3.53,3.53,0,0,0-1.7.4,3.67,3.67,0,0,0-1.3,1.16A5.32,5.32,0,0,0,59,4.16a9.66,9.66,0,0,0-.3,2.49A8.87,8.87,0,0,0,59,8.94a5.9,5.9,0,0,0,.85,1.86,4.09,4.09,0,0,0,1.39,1.26,3.81,3.81,0,0,0,1.89.46,3.92,3.92,0,0,0,1.44-.25,2.63,2.63,0,0,0,.92-.51,7.3,7.3,0,0,0,.07-.94c0-.32,0-.59,0-.81v-.7a1.92,1.92,0,0,0-.11-.67A.71.71,0,0,0,65,8.21,3.13,3.13,0,0,0,64.23,8l-.79-.08V7.28H69Z"/><path class="a" d="M87.33.93a5.07,5.07,0,0,0-.74.11,2.21,2.21,0,0,0-.79.29,1.2,1.2,0,0,0-.42.85,8.92,8.92,0,0,0-.12,1.58V9.29a3.71,3.71,0,0,1-.44,1.84,3.76,3.76,0,0,1-1.16,1.28,4.91,4.91,0,0,1-1.49.69,5.92,5.92,0,0,1-1.5.22,6.45,6.45,0,0,1-2-.31,4.47,4.47,0,0,1-1.5-.81A3.26,3.26,0,0,1,76.21,11a3.12,3.12,0,0,1-.31-1.37V2.14a1.15,1.15,0,0,0-.1-.52,1,1,0,0,0-.42-.39A1.64,1.64,0,0,0,74.8,1a3.12,3.12,0,0,0-.57-.1V.29h5.26V.93a4.57,4.57,0,0,0-.62.08,3.26,3.26,0,0,0-.55.14.62.62,0,0,0-.4.35,1.42,1.42,0,0,0-.1.55v7a5.05,5.05,0,0,0,.11,1.07,2.84,2.84,0,0,0,.44,1,2.82,2.82,0,0,0,1,.8A3.61,3.61,0,0,0,81,12.3,3.91,3.91,0,0,0,82.65,12a2.85,2.85,0,0,0,1.06-.82,3.35,3.35,0,0,0,.52-1,4,4,0,0,0,.15-1.07V3.88a8,8,0,0,0-.14-1.63,1.37,1.37,0,0,0-.43-.83A2.79,2.79,0,0,0,83,1.07a5.66,5.66,0,0,0-.83-.14V.29h5.21Z"/><path class="a" d="M101.66.93a5.47,5.47,0,0,0-.78.14,3.14,3.14,0,0,0-.75.28,1.28,1.28,0,0,0-.43.86,9.21,9.21,0,0,0-.11,1.62v9.33H98.8L91.08,2.73V9.3A7.92,7.92,0,0,0,91.22,11a1.51,1.51,0,0,0,.43.85,2.08,2.08,0,0,0,.84.37,4.58,4.58,0,0,0,.85.17V13H88.13v-.64a5.09,5.09,0,0,0,.81-.17,2.15,2.15,0,0,0,.72-.28,1.35,1.35,0,0,0,.43-.77,9.65,9.65,0,0,0,.12-1.76V3.13a2.69,2.69,0,0,0-.15-.83,1.5,1.5,0,0,0-.38-.63,2.78,2.78,0,0,0-.87-.51,3.06,3.06,0,0,0-.89-.23V.29h3.63L98.71,10V4a8.14,8.14,0,0,0-.14-1.71,1.39,1.39,0,0,0-.42-.8,3,3,0,0,0-.81-.33,4.24,4.24,0,0,0-.86-.18V.29h5.18Z"/><path class="a" d="M107.89,13h-5.74v-.64l.7-.05a2.26,2.26,0,0,0,.64-.11.92.92,0,0,0,.44-.31,1.14,1.14,0,0,0,.13-.57V2.12a1.18,1.18,0,0,0-.1-.52.84.84,0,0,0-.47-.36,6.28,6.28,0,0,0-.67-.2,4.8,4.8,0,0,0-.67-.11V.29h5.74V.93a6.66,6.66,0,0,0-.67.07,4.5,4.5,0,0,0-.67.15.71.71,0,0,0-.46.35A1.18,1.18,0,0,0,106,2v9.22a1.11,1.11,0,0,0,.13.52.93.93,0,0,0,.45.36,4.14,4.14,0,0,0,.61.16,3.69,3.69,0,0,0,.73.09Z"/><path class="a" d="M121.33.93a3,3,0,0,0-.57.1,2.3,2.3,0,0,0-.54.23,1.44,1.44,0,0,0-.49.49,3.8,3.8,0,0,0-.36.7q-.62,1.42-1.81,4.44t-2.48,6.29h-.74l-2.5-6.69c-.8-2.15-1.34-3.6-1.63-4.35a1.72,1.72,0,0,0-.29-.49,2.4,2.4,0,0,0-.47-.4,1.62,1.62,0,0,0-.54-.22,2.38,2.38,0,0,0-.55-.1V.29h5.26V.93a7.69,7.69,0,0,0-1.13.13c-.31.07-.46.19-.46.35a1.12,1.12,0,0,0,0,.24c0,.09,0,.16.06.21l1.08,2.87c.5,1.33,1.21,3.21,2.12,5.66.46-1.11,1-2.41,1.57-3.92s1-2.55,1.2-3.11a7.57,7.57,0,0,0,.34-1.13,3.92,3.92,0,0,0,0-.51.44.44,0,0,0-.18-.35,1.72,1.72,0,0,0-.49-.23,4.34,4.34,0,0,0-.6-.14l-.62-.07V.29h4.74Z"/><path class="a" d="M132.51,9.28,132.27,13H121.72v-.64c.18,0,.42,0,.72-.07a2.72,2.72,0,0,0,.58-.12.8.8,0,0,0,.39-.35,1.12,1.12,0,0,0,.12-.55V2.14a1.38,1.38,0,0,0-.1-.52.81.81,0,0,0-.41-.38,3.64,3.64,0,0,0-.65-.2,4.6,4.6,0,0,0-.65-.11V.29h9.83V3.35h-.66a4.05,4.05,0,0,0-.78-1.42A1.93,1.93,0,0,0,129,1.11c-.19,0-.41,0-.66-.06h-2.88v5h1.43a2.73,2.73,0,0,0,1-.13,1.43,1.43,0,0,0,.56-.43,2.4,2.4,0,0,0,.33-.7A3.77,3.77,0,0,0,129,4h.66V9H129a4,4,0,0,0-.19-.91,2.71,2.71,0,0,0-.33-.7,1.32,1.32,0,0,0-.63-.46,3.28,3.28,0,0,0-.93-.11h-1.43v3.81a4.2,4.2,0,0,0,.08.9.83.83,0,0,0,.31.5,1.38,1.38,0,0,0,.64.22,10.6,10.6,0,0,0,1.14,0h.77a6.3,6.3,0,0,0,.82,0,4.74,4.74,0,0,0,.7-.13,1,1,0,0,0,.51-.25,5.93,5.93,0,0,0,.86-1.3,10,10,0,0,0,.58-1.28Z"/><path class="a" d="M146.24,13h-3.45c-.76-1.18-1.44-2.21-2-3.07s-1.28-1.75-2-2.67h-1.31v4a1.38,1.38,0,0,0,.1.55.73.73,0,0,0,.42.36,2.44,2.44,0,0,0,.56.11,4.59,4.59,0,0,0,.68.06V13h-5.35v-.64l.62-.06a2.71,2.71,0,0,0,.56-.11.81.81,0,0,0,.38-.35,1.2,1.2,0,0,0,.12-.57V2.09a1.6,1.6,0,0,0-.09-.56.69.69,0,0,0-.41-.37,3.81,3.81,0,0,0-.58-.14,4,4,0,0,0-.6-.09V.29h5.87a6.68,6.68,0,0,1,1.52.17,4.17,4.17,0,0,1,1.28.53,2.76,2.76,0,0,1,.89.94,2.79,2.79,0,0,1,.33,1.4,3.51,3.51,0,0,1-.23,1.3,2.54,2.54,0,0,1-.66,1,4.07,4.07,0,0,1-1,.67,7.49,7.49,0,0,1-1.26.48c.63.83,1.15,1.53,1.57,2.1l1.53,2.07a4.14,4.14,0,0,0,.72.79,3.83,3.83,0,0,0,.63.42,2.51,2.51,0,0,0,.58.17,2.9,2.9,0,0,0,.59.07Zm-4.71-9.48a2.5,2.5,0,0,0-.66-1.83A2.55,2.55,0,0,0,139,1h-1.54V6.48h1.18a2.87,2.87,0,0,0,2.08-.79A2.79,2.79,0,0,0,141.53,3.54Z"/><path class="a" d="M154.65,7.2a3.2,3.2,0,0,1,.59,1,3.69,3.69,0,0,1,.19,1.25,3.55,3.55,0,0,1-1.24,2.79,4.51,4.51,0,0,1-3.09,1.1,5.39,5.39,0,0,1-1.71-.29,7.1,7.1,0,0,1-1.46-.66l-.39.65h-.72l-.13-4.35h.72a9.93,9.93,0,0,0,.52,1.46,5,5,0,0,0,.8,1.22,3.58,3.58,0,0,0,1.09.85,3.2,3.2,0,0,0,1.46.32,3.51,3.51,0,0,0,1.08-.16,1.83,1.83,0,0,0,1.18-1.16,2.82,2.82,0,0,0,.14-.92,2.57,2.57,0,0,0-.43-1.43,2.71,2.71,0,0,0-1.28-1l-1.34-.51c-.5-.19-.93-.37-1.3-.53a4.23,4.23,0,0,1-1.67-1.27,3.32,3.32,0,0,1-.6-2.06,3.11,3.11,0,0,1,.3-1.36A3.34,3.34,0,0,1,148.2,1a3.64,3.64,0,0,1,1.22-.73A4.17,4.17,0,0,1,150.9,0a4.27,4.27,0,0,1,1.57.27,7.91,7.91,0,0,1,1.27.63l.36-.61h.72l.08,4.23h-.72c-.13-.48-.28-.95-.44-1.39a4.92,4.92,0,0,0-.64-1.2,2.88,2.88,0,0,0-.95-.82A2.68,2.68,0,0,0,150.79.8a2.09,2.09,0,0,0-1.45.54,1.76,1.76,0,0,0-.6,1.34,2.28,2.28,0,0,0,.38,1.37,2.82,2.82,0,0,0,1.12.89,11.79,11.79,0,0,0,1.29.54c.41.16.82.32,1.22.5a8.28,8.28,0,0,1,1,.52A4,4,0,0,1,154.65,7.2Z"/><path class="a" d="M162.58,13h-5.74v-.64l.7-.05a2.26,2.26,0,0,0,.64-.11.92.92,0,0,0,.44-.31,1.14,1.14,0,0,0,.13-.57V2.12a1.34,1.34,0,0,0-.1-.52.84.84,0,0,0-.47-.36,5.88,5.88,0,0,0-.68-.2,4.48,4.48,0,0,0-.66-.11V.29h5.74V.93a6.66,6.66,0,0,0-.67.07,4.5,4.5,0,0,0-.67.15.71.71,0,0,0-.46.35,1.18,1.18,0,0,0-.12.53v9.22a1.11,1.11,0,0,0,.13.52.93.93,0,0,0,.45.36,4.53,4.53,0,0,0,.61.16,3.61,3.61,0,0,0,.73.09Z"/><path class="a" d="M174.54,3.75h-.61a3.77,3.77,0,0,0-.29-.77,6.76,6.76,0,0,0-.47-.84,4.94,4.94,0,0,0-.59-.73,1.2,1.2,0,0,0-.62-.35,5.91,5.91,0,0,0-.71-.06H170V11.17a1.26,1.26,0,0,0,.12.55.88.88,0,0,0,.44.38,5.77,5.77,0,0,0,.68.17,4.36,4.36,0,0,0,.8.11V13h-6v-.64l.76-.07a2.9,2.9,0,0,0,.71-.13.83.83,0,0,0,.43-.34,1,1,0,0,0,.14-.59V1h-1.21c-.27,0-.53,0-.79.06a1.08,1.08,0,0,0-.61.35,4.82,4.82,0,0,0-.59.73,5.91,5.91,0,0,0-.47.86,5.53,5.53,0,0,0-.29.75h-.63V.29h11.1Z"/><path class="a" d="M187.54.93a2.7,2.7,0,0,0-.48.12,2,2,0,0,0-.48.22,3.64,3.64,0,0,0-.47.33,4.76,4.76,0,0,0-.49.61c-.46.66-.89,1.33-1.29,2s-.89,1.54-1.48,2.58a5.52,5.52,0,0,0-.44.92,3.77,3.77,0,0,0-.1,1v2.43a1.13,1.13,0,0,0,.13.56.88.88,0,0,0,.44.38,5.1,5.1,0,0,0,.67.17,3.89,3.89,0,0,0,.78.11V13h-6v-.64l.76-.06a2.89,2.89,0,0,0,.7-.13.82.82,0,0,0,.44-.37,1.26,1.26,0,0,0,.12-.57V8.15a1.71,1.71,0,0,0-.17-.52c-.12-.26-.26-.54-.42-.85-.36-.7-.75-1.44-1.19-2.25s-.81-1.5-1.14-2.07a5.21,5.21,0,0,0-.52-.78,2.57,2.57,0,0,0-.53-.45,1.7,1.7,0,0,0-.51-.21,3,3,0,0,0-.54-.09V.29h5.43V.93a5.63,5.63,0,0,0-1.29.13c-.26.07-.38.17-.38.3a.76.76,0,0,0,.05.19l.16.34c.07.15.17.33.27.53l.3.58.86,1.6,1.14,2.06c.94-1.51,1.66-2.7,2.15-3.54a5.6,5.6,0,0,0,.74-1.52.4.4,0,0,0-.15-.33,1.15,1.15,0,0,0-.4-.2,4.37,4.37,0,0,0-.56-.09l-.57,0V.29h4.42Z"/></svg>