<svg xmlns="http://www.w3.org/2000/svg" id="Layer_1" data-name="Layer 1" viewBox="0 0 1502.36 649.13"><defs><style>.cls-1{fill:#696969}.cls-3{fill:#797979}.cls-5,.cls-85{fill:none;stroke-miterlimit:10;stroke-width:.5px}.cls-5{stroke:#000}.cls-6{fill:#b7b7b7}.cls-7{fill:#7b7b7b}.cls-8{fill:#858585}.cls-9{fill:#757575}.cls-10{fill:#898989}.cls-11{fill:#9b9b9b}.cls-12{fill:#aaa}.cls-13{fill:#b5b5b5}.cls-14{fill:#bcbcbc}.cls-15{fill:#c1c1c1}.cls-16{fill:#c4c4c4}.cls-17{fill:silver}.cls-18{fill:#a9a9a9}.cls-19{fill:#9a9a9a}.cls-20{fill:#8c8c8c}.cls-21{fill:#fff}.cls-22{fill:#b6b6b6}.cls-23{fill:#c2c2c2}.cls-24{fill:#bbb}.cls-25{fill:#b0b0b0}.cls-26{fill:#a3a3a3}.cls-28{fill:#7a7a7a}.cls-29{fill:#8f8f8f}.cls-31{fill:#afafaf}.cls-32{fill:#c3c3c3}.cls-34{fill:#989898}.cls-35{fill:#ababab}.cls-36{fill:#bebebe}.cls-37{fill:#a1a1a1}.cls-38{fill:#bababa}.cls-39{fill:#a8a8a8}.cls-41{fill:#6c6c6c}.cls-42{fill:#7e7e7e}.cls-43{fill:#8d8d8d}.cls-44{fill:#9d9d9d}.cls-45{fill:#adadad}.cls-46{fill:#bdbdbd}.cls-47{fill:#aeaeae}.cls-48{fill:#a2a2a2}.cls-49{fill:#929292}.cls-50{fill:gray}.cls-51{fill:#c5c5c5}.cls-52{fill:#969696}.cls-53{fill:#8b8b8b}.cls-54{fill:#7c7c7c}.cls-57{fill:#b8b8b8}.cls-58{fill:#949494}.cls-59{fill:#959595}.cls-60{fill:#6b6b6b}.cls-61{fill:#8e8e8e}.cls-62{fill:#9f9f9f}.cls-63{fill:#acacac}.cls-64{fill:#bfbfbf}.cls-65{fill:#999}.cls-66{fill:#b9b9b9}.cls-67{fill:#a4a4a4}.cls-68{fill:#6d6d6d}.cls-69{fill:#939393}.cls-70{fill:#b1b1b1}.cls-71{fill:#b4b4b4}.cls-72{fill:#7f7f7f}.cls-73{fill:#787878}.cls-74{fill:#848484}.cls-75{fill:#a7a7a7}.cls-76{fill:#b2b2b2}.cls-77{fill:#909090}.cls-78{fill:#7d7d7d}.cls-79{fill:#6a6a6a}.cls-80{fill:#6f6f6f}.cls-81{fill:#a5a5a5}.cls-82{fill:#9e9e9e}.cls-85{stroke:#3f3f3f}.cls-87,.cls-88,.cls-89{fill:#3f3f3f}.cls-87,.cls-88{isolation:isolate}.cls-87,.cls-88,.cls-89{font-size:12.96px;font-family:Georgia-Italic,Georgia;font-style:italic}.cls-88,.cls-89{font-size:12.46px}</style></defs><path d="m670.62 488.63 1-.31 1.1-.3-1 .3z" class="cls-1"/><path d="m671.72 488.32 1-.3 1.1-.2-.9.31z" style="fill:#717171"/><path d="m672.92 488.13.9-.31 1.2-.09-1 .29z" class="cls-3"/><path d="m674.02 488.02 1-.29h1.1l-.9.29z" style="fill:#818181"/><path d="M1089.32 148.52h.5M1088.82 148.42l.5.1M1097.22 148.92l1.5.1M1091.42 148.42l1.5.1M1099.52 148.72l-.8.3M670.62 488.62l-1 .4M671.62 488.32l-1 .3M672.72 488.02l-1.1.3M671.72 488.32l-1.1.3M673.82 487.82l-1.1.2M672.92 488.12l-1.2.2M675.02 487.72l-1.2.1M674.02 488.02l-1.1.1M669.62 489.02l-1.1.5M676.12 487.72h-1.1M675.22 488.02h-1.2M676.12 487.72l-.9.3" class="cls-5"/><path d="m597.92 309.63-3.4 17.1-1.4.5 3.5-17.71z" class="cls-6"/><path d="m599.42 327.13 1.9-.11-1.2.41-2.1.09z" class="cls-7"/><path d="m594.52 326.73 4.9.4-1.4.39-4.9-.29z" class="cls-8"/><path d="m606.12 328.02-2 1-1.4.5 2-1.09z" class="cls-9"/><path d="m607.82 326.52-1.7 1.5-1.4.41 1.7-1.5z" class="cls-10"/><path d="m609.12 324.52-1.3 2-1.4.41 1.3-1.91z" class="cls-11"/><path d="m610.12 322.23-1 2.29-1.4.5 1-2.39z" class="cls-12"/><path d="m610.82 319.43-.7 2.8-1.4.4.7-2.81z" class="cls-13"/><path d="m611.02 316.32-.2 3.11-1.4.39.2-3z" class="cls-14"/><path d="m610.92 314.43.1 1.89-1.4.5-.1-2z" class="cls-15"/><path d="m610.52 312.63.4 1.8-1.4.39-.4-1.8z" class="cls-16"/><path d="m609.92 311.13.6 1.5-1.4.39-.6-1.5z" class="cls-16"/><path d="m609.02 309.73.9 1.4-1.4.39-.9-1.39z" class="cls-17"/><path d="m607.92 308.63 1.1 1.1-1.4.4-1.1-1.11z" class="cls-6"/><path d="m606.52 307.73 1.4.9-1.4.39-1.4-.79z" class="cls-18"/><path d="m604.92 307.23 1.6.5-1.4.5-1.6-.6z" class="cls-19"/><path d="m603.12 306.93 1.8.3-1.4.4-1.8-.31z" class="cls-20"/><path d="m595.72 306.32 7.4.61-1.4.39-7.4-.5z" class="cls-8"/><path d="m596.62 309.52-3.4 17.6 4.8.4 2.1-.1 1.3-.4.5-.2 1.5-1 1.2-1.4 1-1.6.7-1.9.4-2 .1-2.1-.2-2.5-.3-1.1-.5-1-.8-.9-1-.7-1.3-.5-1.6-.3-3.2-.2Zm-6.6 20 4.4-22.7 7.3.6 1.8.3 1.6.6 1.4.9 1.1 1.1.9 1.4.6 1.6.4 1.8.1 2-.2 3.1-.6 2.7-1 2.4-1.4 2-1.7 1.4-2 1.1-2.3.6h-2.5Z" class="cls-21"/><path d="m627.02 329.23-.5 2.59-1.4.41.5-2.5z" class="cls-22"/><path d="m615.32 328.32 11.7.91-1.4.5-11.7-.91z" class="cls-8"/><path d="m616.72 321.02-1.4 7.3-1.4.5 1.5-7.89zM628.12 318.73l-.5 2.59-1.3.41.4-2.5z" class="cls-6"/><path d="m617.32 317.93 10.8.8-1.4.5-10.8-.91z" class="cls-8"/><path d="m618.62 311.23-1.3 6.7-1.4.39 1.4-7.19zM630.82 309.02l-.5 2.61-1.4.39.5-2.5z" class="cls-6"/><path d="m616.42 307.93 14.4 1.09-1.4.5-14.4-1.2z" class="cls-8"/><path d="m610.62 331.13 4.4-22.81 14.4 1.2-.5 2.5-10.3-.79-1.3-.1-1.4 7.19 10.8.91-.4 2.5-9.6-.71-1.3-.09-1.5 7.89 11.7.91-.5 2.5z" class="cls-21"/><path d="m647.52 315.32.1 1.81-1.3.5-.2-1.81z" class="cls-15"/><path d="m647.12 313.82.4 1.5-1.4.5-.4-1.59z" class="cls-16"/><path d="m646.42 312.52.7 1.3-1.4.41-.7-1.3z" class="cls-23"/><path d="m645.42 311.43 1 1.09-1.4.41-.9-1.11z" class="cls-24"/><path d="m644.32 310.52 1.1.91-1.3.39-1.2-.89z" class="cls-25"/><path d="m643.02 309.82 1.3.7-1.4.41-1.3-.61z" class="cls-26"/><path d="m640.12 309.23 2.9.59-1.4.5-2.9-.69z" style="fill:#919191"/><path d="m637.32 309.43 2.8-.2-1.4.4-2.8.19z" class="cls-3"/><path d="m638.42 330.73 1.6-.1-1 .39-1.9.11z" class="cls-28"/><path d="m636.12 330.23 2.3.5-1.3.4-2.4-.5z" class="cls-29"/><path d="m635.12 329.82 1 .41-1.4.4-.9-.4z" style="fill:#a0a0a0"/><path d="m634.32 329.13.8.69-1.3.41-.9-.6z" class="cls-31"/><path d="m633.72 328.32.6.81-1.4.5-.6-.81z" class="cls-14"/><path d="m633.22 327.32.5 1-1.4.5-.5-1z" class="cls-32"/><path d="m632.92 326.13.3 1.19-1.4.5-.3-1.19z" class="cls-16"/><path d="M632.92 324.73v1.4l-1.4.5v-1.5z" class="cls-17"/><path d="m630.12 324.52 2.8.21-1.4.4-2.8-.2z" class="cls-8"/><path d="m643.82 331.93-1.2.7-1.4.39 1.2-.59z" class="cls-9"/><path d="m644.92 331.02-1.1.91-1.4.5 1.1-.91z" style="fill:#868686"/><path d="m645.72 329.93-.8 1.09-1.4.5.8-1.2z" class="cls-34"/><path d="m646.32 328.52-.6 1.41-1.4.39.6-1.3z" class="cls-35"/><path d="m646.52 326.82-.2 1.7-1.4.5.2-1.7z" class="cls-24"/><path d="m646.42 325.43.1 1.39-1.4.5-.1-1.5z" class="cls-15"/><path d="m646.12 324.23.3 1.2-1.4.39-.4-1.19z" class="cls-16"/><path d="m645.62 323.23.5 1-1.5.4-.4-1z" class="cls-32"/><path d="m644.92 322.32.7.91-1.4.4-.7-.81z" class="cls-36"/><path d="m643.32 321.13 1.6 1.19-1.4.5-1.6-1.3z" class="cls-25"/><path d="m641.42 320.23 1.9.9-1.4.39-1.9-.79z" class="cls-37"/><path d="m638.62 319.23 2.8 1-1.4.5-2.8-1.1z" class="cls-11"/><path d="m637.32 318.52 1.3.71-1.4.4-1.3-.61z" class="cls-37"/><path d="m636.22 317.73 1.1.79-1.4.5-1.1-.79z" class="cls-31"/><path d="m635.52 316.63.7 1.1-1.4.5-.7-1.1z" class="cls-17"/><path d="m635.22 315.23.3 1.4-1.4.5-.3-1.5z" class="cls-16"/><path d="m635.32 314.23-.1 1-1.4.4.1-.9z" class="cls-38"/><path d="m635.72 313.52-.4.71-1.4.5.4-.8z" class="cls-39"/><path d="m636.92 312.43-1.2 1.09-1.4.41 1.2-1.11z" class="cls-10"/><path d="m637.22 312.32-.3.11-1.4.39 1.6-.5z" style="fill:#686868"/><path d="m646.32 317.63-2.8-.2-.3-2.3-.4-.9-.6-.71-1.6-.89-1.9-.4-1.5.09h-.1l-1.6.5-1.2 1.11-.4.8-.1.9.3 1.5.7 1.1 1.1.79 1.3.61 2.8 1.1 1.9.79 1.6 1.3.7.81.5 1 .3 1.19.1 1.5-.2 1.7-.6 1.3-.8 1.2-1.1.91-1.2.59-1.4.41-2.9.2-1.8-.2-1.6-.5-1.5-.7-1.2-.91-1-1.19-.7-1.5-.4-1.7v-2l2.8.2v1.5l.3 1.19.5 1 .6.81.9.6.9.4 2.4.5 1.9-.11 1-.39.6-.31 1.2-1.3.4-.89.1-1-.3-1.61-.8-1.09-1.2-.8-1.4-.61-2.9-1.09-1.8-.91-1.5-1.29-1-1.71-.3-1.09-.1-1.2.2-1.5.5-1.3.8-1.11 1-.89 1.1-.61 1.3-.5 2.8-.19 2.9.69 1.3.61 1.2.89.9 1.11.7 1.3.4 1.59z" class="cls-21"/><path d="m656.02 311.02-4.4 22.71-1.4.4 4.4-22.7z" class="cls-6"/><path d="m653.22 310.82 2.8.2-1.4.41-2.7-.2z" class="cls-8"/><path d="m647.42 333.93 4.5-22.7 2.7.2-4.4 22.7z" class="cls-21"/><path d="m676.82 323.52-2.3 12-1.4.41 2.3-12z" class="cls-6"/><path d="m667.72 322.82 9.1.7-1.4.41-9.1-.7z" class="cls-8"/><path d="m667.92 332.82.4-.09-.5.2-1.3.3z" class="cls-41"/><path d="M666.32 332.82h1.6l-1.4.41h-1.6z" class="cls-42"/><path d="m664.82 332.63 1.5.19-1.4.41-1.5-.21z" class="cls-43"/><path d="m663.62 332.02 1.2.61-1.4.39-1.2-.5z" class="cls-44"/><path d="m662.52 331.32 1.1.7-1.4.5-1.1-.79z" class="cls-45"/><path d="m661.72 330.43.8.89-1.4.41-.8-.91z" class="cls-38"/><path d="m661.02 329.23.7 1.2-1.4.39-.7-1.09z" class="cls-15"/><path d="m660.52 327.93.5 1.3-1.4.5-.5-1.41z" class="cls-16"/><path d="m660.12 324.82.4 3.11-1.4.39-.4-3.09z" class="cls-32"/><path d="m660.32 322.73-.2 2.09-1.4.41.2-2z" class="cls-46"/><path d="m660.72 320.73-.4 2-1.4.5.4-2.1z" class="cls-22"/><path d="m661.32 318.82-.6 1.91-1.4.4.7-1.9z" class="cls-47"/><path d="m662.32 317.13-1 1.69-1.3.41.9-1.6z" class="cls-48"/><path d="m663.52 315.82-1.2 1.31-1.4.5 1.2-1.4z" class="cls-49"/><path d="m665.02 314.73-1.5 1.09-1.4.41 1.5-1.1z" class="cls-50"/><path d="m665.62 314.52-.6.21-1.4.4 1.8-.61z" class="cls-1"/><path d="m677.12 317.93.2 1.89-1.4.41-.2-1.91z" class="cls-23"/><path d="m676.62 316.32.5 1.61-1.4.39-.5-1.59z" class="cls-51"/><path d="m675.82 314.93.8 1.39-1.4.41-.8-1.41z" class="cls-23"/><path d="m674.82 313.73 1 1.2-1.4.39-1-1.09z" class="cls-38"/><path d="m673.62 312.82 1.2.91-1.4.5-1.3-1z" class="cls-31"/><path d="m672.12 312.13 1.5.69-1.5.41-1.4-.71z" class="cls-48"/><path d="m670.52 311.63 1.6.5-1.4.39-1.6-.39z" class="cls-52"/><path d="m668.82 311.43 1.7.2-1.4.5-1.7-.31z" class="cls-53"/><path d="m666.32 311.52 2.5-.09-1.4.39-2.5.11z" class="cls-54"/><path d="m664.02 312.23 2.3-.71-1.4.41-2.3.7z" class="cls-21"/><path d="m671.22 334.23-1.5.7-1.4.5 1.5-.8z" style="fill:#727272"/><path d="m669.82 334.63-1.5.8-1.7.39h-1.7l-2-.3-1.8-.7-1.5-.89-1.3-1.3-1-1.5-.8-1.81-.4-2-.2-2.3.2-2.7.7-2.59.9-2.3 1.3-2 1.7-1.61 1.9-1.19 2.3-.7 2.5-.11 1.7.31 1.6.39 1.4.71 1.3 1 1 1.09.8 1.41.5 1.59.2 1.91-2.8-.21-.1-1.2-.4-1.09-.5-1-.7-.71-1.8-1.09-2.2-.5-1.8.09h-.2l-1.8.61-1.5 1.1-1.2 1.4-.9 1.6-.7 1.9-.4 2.1-.2 2 .4 3.09.5 1.41.7 1.09.8.91 1.1.79 1.2.5 1.5.21h1.6l1.3-.3.5-.2.7-.41 1-.8.8-1 .7-1.2 1-3-6.7-.5.5-2.59 9.1.7-2.3 12-1.8-.11-.1-1.59v-.71z" class="cls-21"/><path d="m669.82 334.63 1.4-1.11v.71z" style="fill:#888"/><path d="m684.42 319.93-3 16.09-1.4.41 3.5-18.7h.1zM699.82 314.32l-4.4 22.81-1.4.39 4.4-22.7z" class="cls-6"/><path d="m697.12 314.13 2.7.19-1.4.5-2.7-.19z" class="cls-8"/><path d="m686.12 313.32 6.6 17.41-.4 2.7h-.1l-7.5-19.7z" class="cls-16"/><path d="m683.12 313.13 3 .19-1.4.41-3-.21z" class="cls-8"/><path d="m677.32 336.23 4.4-22.71 3 .21 7.5 19.7h.1l.4-2.7 3-16.1 2.7.19-4.4 22.7-3-.2-6.6-17.39-.8-2.2h-.1l-3.5 18.7z" class="cls-21"/><path d="m713.62 324.73-2.6 13.59-1.4.41 2.7-14.1z" class="cls-22"/><path d="m717.12 322.02-.4 2.41-1.4.5.4-2.41z" class="cls-57"/><path d="m714.22 321.82 2.9.2-1.4.5-2.9-.2z" class="cls-8"/><path d="m714.52 320.32-.3 1.5-1.4.5.3-1.5z" class="cls-13"/><path d="m714.92 319.02-.4 1.3-1.4.5.4-1.3z" class="cls-25"/><path d="m715.62 318.32-.7.7-1.4.41.8-.91.8-.2z" class="cls-58"/><path d="m718.72 315.82-.4 2.31-1.4.39.4-2.29z" class="cls-6"/><path d="m717.72 315.52 1 .3-1.4.41-1-.3z" class="cls-59"/><path d="m716.62 315.43 1.1.09-1.4.41-1.1-.11z" class="cls-10"/><path d="M715.32 315.43h1.3l-1.4.39-1.3.11z" class="cls-54"/><path d="m709.12 321.43 1.3.09-.1.61-2.5-.2z" class="cls-8"/><path d="m707.12 338.52 2.8-14-2.6-.2.5-2.39 2.5.2.1-.61.5-1.89.7-2 .5-.81.8-.59 1-.3 1.3-.11 1.1.11 1 .3-.4 2.29-.6-.09-.6-.11h-.8l-.6.2-.8.91-.4 1.39-.3 1.5 2.9.2-.4 2.41-1.7-.2-1.3-.1-2.7 14.1z" class="cls-21"/><path d="m714.32 318.52.6-.2h.2z" class="cls-60"/><path d="m728.32 338.13-1.4.89-1.4.41 1.4-.91z" class="cls-7"/><path d="m729.52 336.93-1.2 1.2-1.4.39 1.2-1.2z" class="cls-61"/><path d="m730.52 335.32-1 1.61-1.4.39 1-1.5z" class="cls-62"/><path d="m731.22 333.63-.7 1.69-1.4.5.7-1.8z" class="cls-63"/><path d="m731.62 331.73-.4 1.9-1.4.39.4-1.89z" class="cls-13"/><path d="m731.72 329.73-.1 2-1.4.4.1-2z" class="cls-14"/><path d="m731.62 328.13.1 1.6-1.4.4-.1-1.61z" class="cls-15"/><path d="m731.32 326.73.3 1.4-1.4.39-.3-1.39zM730.82 325.52l.5 1.21-1.4.4-.5-1.2z" class="cls-16"/><path d="m730.12 324.43.7 1.09-1.4.41-.7-1z" class="cls-64"/><path d="m729.22 323.63.9.8-1.4.5-.9-.91z" class="cls-22"/><path d="m728.12 322.93 1.1.7-1.4.39-1-.59z" class="cls-39"/><path d="m726.92 322.52 1.2.41-1.3.5-1.3-.41z" class="cls-65"/><path d="m725.42 322.32 1.5.2-1.4.5-1.5-.29z" class="cls-53"/><path d="m723.62 322.43 1.8-.11-1.4.41-1.8.09z" class="cls-54"/><path d="m718.42 330.12-.4 2.7.3 1.9.8 1.5 1.3 1 1.8.5 1.3-.1.9-.4.2-.1 1-.8.8-1 1.1-2.5.4-2.6-.2-1.9-.7-1.6-1.2-1.1-1.8-.5-.9.1h-.4l-1.2.5-1 .8-.8 1-.6 1.2Zm-2.7 4-.1-1.5.1-2 .4-1.9.7-1.7 1-1.5 1.2-1.2 1.5-.9 1.7-.5 1.9-.1 1.4.2 1.3.4 1.1.6.9.8.7 1 .5 1.2.3 1.4.1 1.6-.1 2-.4 1.9-.7 1.7-1 1.5-1.2 1.2-1.4.9-1.7.5-1.9.1-1.4-.2-1.3-.5-1.1-.7-.9-.9-.7-1.1-.5-1.2Z" class="cls-21"/><path d="m719.82 329.63-.3 2.69-1.4.41.3-2.6z" class="cls-66"/><path d="m720.32 328.32-.5 1.31-1.4.5.5-1.4z" class="cls-31"/><path d="m720.92 327.13-.6 1.19-1.4.41.6-1.21z" class="cls-67"/><path d="m721.72 326.13-.8 1-1.4.39.8-1z" class="cls-52"/><path d="m722.72 325.32-1 .81-1.4.39 1-.79z" class="cls-8"/><path d="m722.92 325.23-.2.09-1.4.41 1.2-.5z" class="cls-68"/><path d="M723.62 337.23h.8l-.9.4-1.3.1z" class="cls-3"/><path d="m721.82 336.82 1.8.41-1.4.5-1.8-.5z" class="cls-69"/><path d="m720.52 335.73 1.3 1.09-1.4.41-1.3-1z" class="cls-70"/><path d="m719.72 334.23.8 1.5-1.4.5-.8-1.6z" class="cls-32"/><path d="m719.52 332.32.2 1.91-1.4.4-.2-1.9z" class="cls-32"/><path d="m737.12 332.93-1.5 7.3-1.4.4 1.5-7.31z" class="cls-22"/><path d="m737.52 330.93-.4 2-1.4.39.4-2z" class="cls-71"/><path d="m738.32 329.13-.8 1.8-1.4.39.8-1.8z" class="cls-12"/><path d="m739.72 327.52-1.4 1.61-1.4.39 1.4-1.59z" class="cls-69"/><path d="m740.52 327.02-.8.5-1.4.41.9-.5 1.1-.41z" class="cls-7"/><path d="m744.42 323.82-.6 2.91-1.4.4.6-2.9z" class="cls-22"/><path d="m743.92 323.73.5.09-1.4.41-.5-.1z" class="cls-53"/><path d="M743.52 323.73h.4l-1.4.4h-.4z" class="cls-72"/><path d="m741.72 323.82 1.8-.09-1.4.4-1.8.19z" class="cls-73"/><path d="m738.62 323.73-.3 1.79-.7.71-1 1.4-.1.1.8-3.6z" class="cls-22"/><path d="m736.32 323.52 2.3.21-1.3.4-2.4-.11z" class="cls-8"/><path d="m731.82 340.43 3.1-16.41 2.4.11-.8 3.6h.1v-.1l1-1.4.7-.71.5-.5 1.5-.7 1.8-.19h.4l.5.1-.6 2.9-.4-.11h-1.8l-1 .41-.9.5-1.4 1.59-.8 1.8-.4 2-1.5 7.31z" class="cls-21"/><path d="m739.22 327.43 1-.41h.1z" class="cls-21"/><path d="m772.52 319.93-2.6 13.7-1.4.39 2.6-13.59z" class="cls-6"/><path d="m769.82 319.73 2.7.2-1.4.5-2.7-.2z" class="cls-8"/><path d="m762.32 340.13.2-.11-.4.21-1.2.29z" class="cls-41"/><path d="M760.72 340.13h1.6l-1.4.39h-1.6z" class="cls-42"/><path d="m759.32 339.93 1.4.2-1.4.39-1.4-.2z" class="cls-53"/><path d="m758.12 339.52 1.2.41-1.4.39-1.2-.39z" class="cls-65"/><path d="m757.12 338.93 1 .59-1.4.41-1-.61z" class="cls-18"/><path d="m756.42 338.13.7.8-1.4.39-.7-.8z" class="cls-57"/><path d="m755.82 337.13.6 1-1.4.39-.6-.89z" class="cls-23"/><path d="m755.62 336.02.2 1.11-1.4.5-.2-1.2z" class="cls-16"/><path d="M755.62 334.63v1.39l-1.4.41-.1-1.41z" class="cls-17"/><path d="m755.82 333.02-.2 1.61-1.5.39.3-1.59z" class="cls-66"/><path d="m758.52 318.93-2.7 14.09-1.4.41 2.7-14.11z" class="cls-6"/><path d="m755.72 318.73 2.8.2-1.4.39-2.8-.19z" class="cls-8"/><path d="m767.52 340.32-1.9 1.5-1.4.41 1.9-1.5z" class="cls-74"/><path d="m768.32 339.23-.8 1.09-1.4.41.8-1.1z" class="cls-19"/><path d="m768.92 337.93-.6 1.3-1.4.4.6-1.2z" class="cls-75"/><path d="m769.42 336.13-.5 1.8-1.4.5.5-1.91z" class="cls-76"/><path d="m769.92 333.63-.5 2.5-1.4.39.5-2.5z" class="cls-22"/><path d="m771.12 320.43-2.6 13.59-.5 2.5-.5 1.91-.6 1.2-.8 1.1-1.9 1.5-2.3.79-2.6.11-2.1-.4-1.8-.6-1.5-.9-1.1-1.21-.8-1.5-.5-1.7v-2.09l.2-2.21 2.6-13.39 2.8.19-2.7 14.11-.3 1.59.1 1.41.2 1.2.6.89.7.8 1 .61 1.2.39 1.4.2h1.6l1.2-.29.4-.21.6-.29.8-.8 1.1-2.2.7-2.91 2.7-13.59z" class="cls-21"/><path d="m785.12 330.93.2 1.3-1.4.4-.2-1.31z" class="cls-23"/><path d="m784.82 329.73.3 1.2-1.4.39-.3-1.19z" class="cls-51"/><path d="m784.22 328.73.6 1-1.4.4-.6-.9z" class="cls-15"/><path d="m783.52 327.93.7.8-1.4.5-.7-.8z" class="cls-66"/><path d="m781.62 326.93 1.9 1-1.4.5-1.9-1.11z" class="cls-75"/><path d="m779.52 326.52 2.1.41-1.4.39-2.1-.39z" class="cls-77"/><path d="m777.52 326.63 2-.11-1.4.41-2 .2z" class="cls-73"/><path d="M778.52 341.43h1l-.1.09-1.1.3-1.2.11z" class="cls-78"/><path d="m776.92 341.23 1.6.2-1.4.5-1.5-.3z" class="cls-61"/><path d="m775.72 340.52 1.2.71-1.3.4-1.3-.61z" class="cls-26"/><path d="m774.82 339.52.9 1-1.4.5-.9-1.09z" class="cls-46"/><path d="m774.62 337.93.2 1.59-1.4.41-.2-1.5z" class="cls-32"/><path d="m772.12 337.73 2.5.2-1.4.5-2.5-.2z" class="cls-8"/><path d="m782.42 343.02-2 .71-1.4.5 2-.8z" class="cls-79"/><path d="m783.22 342.32-.8.7-1.4.41.8-.61z" class="cls-8"/><path d="m783.92 341.52-.7.8-1.4.5.7-.89z" class="cls-34"/><path d="m784.32 340.43-.4 1.09-1.4.41.4-1z" class="cls-63"/><path d="m784.42 339.23-.1 1.2-1.4.5.1-1.3z" class="cls-24"/><path d="m784.12 337.43.3 1.8-1.4.4-.3-1.7z" class="cls-16"/><path d="m783.12 336.13 1 1.3-1.4.5-.9-1.41z" class="cls-64"/><path d="m781.92 335.13 1.2 1-1.3.39-1.3-1z" class="cls-76"/><path d="m780.42 334.23 1.5.9-1.4.39-1.5-.89z" class="cls-18"/><path d="m778.92 333.43 1.5.8-1.4.4-1.4-.7z" class="cls-67"/><path d="m777.62 332.73 1.3.7-1.3.5-1.3-.8z" class="cls-39"/><path d="m776.72 331.82.9.91-1.3.4-1-.9z" class="cls-13"/><path d="m776.42 330.82.3 1-1.4.41-.3-1z" class="cls-51"/><path d="m776.72 329.82-.3 1-1.4.41.3-1z" class="cls-76"/><path d="m777.22 329.32-.5.5-1.4.41.8-.6 1-.31z" class="cls-74"/><path d="m783.92 332.63-2.5-.11-.2-1.29-.7-1-1-.6-1.3-.31h-1.1l-1 .31-.8.6-.3 1 .3 1 1 .9 1.3.8 1.4.7 1.5.89 1.3 1 .9 1.41.3 1.7-.1 1.3-.4 1-.7.89-.8.61-2 .8-2.2.09-2.4-.5-1-.5-.9-.59-.7-.8-.6-1-.3-1.2-.2-1.5 2.5.2.2 1.5.9 1.09 1.3.61 1.5.3 1.2-.11 1.1-.3.1-.09.7-.61.3-1.19-.3-1.11-.9-.79-1.3-.8-1.5-.8-1.4-.81-1.3-1-.9-1.3-.4-1.7.1-1.09.4-.91 1.3-1.5 1.8-.69 2-.2 2.1.39 1.9 1.11.7.8.6.9.3 1.19z" class="cls-21"/><path d="m800.92 336.73-.2 1-1.4.4.2-.9z" class="cls-57"/><path d="m801.02 335.52-.1 1.21-1.4.5.1-1.21z" class="cls-14"/><path d="m800.92 333.93.1 1.59-1.4.5-.1-1.7z" class="cls-15"/><path d="m800.62 332.43.3 1.5-1.4.39-.3-1.5z" class="cls-16"/><path d="m800.12 331.13.5 1.3-1.4.39-.5-1.3z" class="cls-16"/><path d="m799.42 329.93.7 1.2-1.4.39-.7-1.09z" class="cls-15"/><path d="m798.62 329.02.8.91-1.4.5-.9-.91z" class="cls-57"/><path d="m797.42 328.32 1.2.7-1.4.5-1.1-.7z" class="cls-12"/><path d="m796.12 327.93 1.3.39-1.3.5-1.4-.5z" class="cls-19"/><path d="m794.62 327.63 1.5.3-1.4.39-1.5-.19z" class="cls-53"/><path d="m793.02 327.73 1.6-.1-1.4.5h-1.6z" class="cls-7"/><path d="m797.52 343.93-2 .89-1.4.41 2-.91z" class="cls-80"/><path d="m799.12 342.32-1.6 1.61-1.4.39 1.6-1.59z" class="cls-29"/><path d="m799.62 341.23-.5 1.09-1.4.41.6-1.1z" class="cls-81"/><path d="m800.02 339.93-.4 1.3-1.3.4.3-1.31z" class="cls-70"/><path d="m797.52 339.73 2.5.2-1.4.39-2.5-.09z" class="cls-8"/><path d="m793.22 342.63 1.1-.11-1 .41-1.5.09z" class="cls-28"/><path d="m791.72 342.23 1.5.4-1.4.39-1.5-.39z" class="cls-58"/><path d="m790.42 341.32 1.3.91-1.4.4-1.2-.81z" class="cls-45"/><path d="m789.62 340.02.8 1.3-1.3.5-.9-1.39z" class="cls-17"/><path d="m789.22 338.23.4 1.79-1.4.41-.3-1.7z" class="cls-16"/><path d="m789.32 337.32-.1.91-1.3.5v-1.5z" class="cls-46"/><path d="m788.32 334.82 8.8.7V335l-.1-1.2-.6-1.6-1.1-1.1-.8-.4-1-.2-1.1.1-.8.1-1.5.9L789 333Zm-.4 2.4-.1 1.4.3 1.8.9 1.3 1.3.9 1.5.4 1.5-.1 1-.4.3-.1.9-.9.7-1.3 2.5.2-.4 1.3-.5 1.1-1.6 1.6-2 .9-2.3.2-1.8-.4-1.4-.6-1.1-.8-.9-1-.6-1.1-.4-1.2-.3-2.3.2-2.3.5-2 .7-1.8 1-1.5 1.2-1.2 1.3-.8 1.5-.5 1.5-.1 1.6.2 1.3.5 1.1.7.9.9.7 1.1.5 1.3.3 1.5.1 1.7-.1 1.2-.1.9-10-.8Z" class="cls-21"/><path d="m789.72 334.43 7.4.59v.5l-8.8-.7z" class="cls-8"/><path d="m790.42 332.63-.7 1.8-1.4.39.7-1.69z" class="cls-63"/><path d="m791.52 331.23-1.1 1.4-1.4.5 1.1-1.5z" class="cls-34"/><path d="m792.42 330.63-.9.6-1.4.4 1.5-.9z" class="cls-3"/><path d="m806.02 338.23-1.4 7.29-1.5.41 1.5-7.3z" class="cls-22"/><path d="m806.42 336.23-.4 2-1.4.4.5-1.9z" class="cls-71"/><path d="m807.22 334.43-.8 1.8-1.3.5.8-1.91z" class="cls-12"/><path d="m808.62 332.82-1.4 1.61-1.3.39 1.3-1.59z" class="cls-69"/><path d="m809.42 332.32-.8.5-1.4.41.9-.5 1.1-.41z" class="cls-7"/><path d="m813.32 329.13-.6 2.89-1.4.41.6-2.91z" class="cls-22"/><path d="m812.82 329.02.5.11-1.4.39-.5-.09z" class="cls-53"/><path d="M812.42 329.02h.4l-1.4.41h-.4z" class="cls-72"/><path d="m810.62 329.13 1.8-.11-1.4.41-1.8.2z" class="cls-73"/><path d="m807.62 329.02-.4 1.8-.7.7-1 1.5h-.1l.8-3.5z" class="cls-22"/><path d="m805.22 328.82 2.4.2-1.4.5-2.4-.2z" class="cls-8"/><path d="m800.72 345.73 3.1-16.41 2.4.2-.8 3.5h.1l1-1.5.7-.7.5-.5 1.5-.69 1.8-.2h.4l.5.09-.6 2.91-.4-.11h-1.7l-.1.11-1 .3-.9.5-1.3 1.59-.8 1.91-.5 1.9-1.5 7.3z" class="cls-21"/><path d="m808.12 332.73 1-.3.1-.11z" class="cls-21"/><path d="m824.72 333.93.2 1.39-1.4.41-.2-1.41z" class="cls-23"/><path d="m824.42 332.73.3 1.2-1.4.39-.3-1.09z" class="cls-51"/><path d="m823.82 331.82.6.91-1.4.5-.6-1z" class="cls-15"/><path d="m823.12 331.02.7.8-1.4.41-.7-.8z" class="cls-66"/><path d="m821.22 330.02 1.9 1-1.4.41-1.9-1z" class="cls-75"/><path d="m819.12 329.52 2.1.5-1.4.41-2-.41z" class="cls-77"/><path d="m817.12 329.73 2-.21-1.3.5-2.1.11z" class="cls-73"/><path d="M818.12 344.52h1-.1l-1.1.41h-1.2z" class="cls-78"/><path d="m816.62 344.23 1.5.29-1.4.41-1.6-.2z" class="cls-61"/><path d="m815.32 343.63 1.3.6-1.5.5-1.2-.71z" class="cls-26"/><path d="m814.42 342.52.9 1.11-1.4.39-.9-1z" class="cls-46"/><path d="m814.22 341.02.2 1.5-1.3.5-.3-1.59z" class="cls-32"/><path d="m811.72 340.82 2.5.2-1.4.41-2.5-.2z" class="cls-8"/><path d="m822.02 346.02-2 .8-1.4.41 2-.71z" class="cls-79"/><path d="m822.82 345.43-.8.59-1.4.5.8-.7z" class="cls-8"/><path d="m823.42 344.52-.6.91-1.4.39.7-.8z" class="cls-34"/><path d="m823.92 343.52-.5 1-1.3.5.4-1.09z" class="cls-63"/><path d="m824.02 342.23-.1 1.29-1.4.41.1-1.3z" class="cls-24"/><path d="m823.62 340.52.4 1.71-1.4.4-.3-1.7z" class="cls-16"/><path d="m822.82 339.23.9 1.29-1.4.41-1-1.3z" class="cls-64"/><path d="m821.52 338.13 1.3 1.1-1.5.4-1.2-1.11z" class="cls-76"/><path d="m820.02 337.23 1.5.9-1.4.39-1.5-.89z" class="cls-18"/><path d="m818.52 336.52 1.5.71-1.4.4-1.5-.7z" class="cls-67"/><path d="m817.32 335.73 1.2.79-1.4.41-1.2-.8z" class="cls-39"/><path d="m816.32 334.93 1 .8-1.4.4-1-.81z" class="cls-13"/><path d="m816.02 333.82.3 1.11-1.4.39-.3-1z" class="cls-51"/><path d="m816.32 332.82-.3 1-1.4.5.3-1.09z" class="cls-76"/><path d="m816.82 332.43-.5.39-1.4.41.7-.5 1.1-.3z" class="cls-74"/><path d="m823.52 335.73-2.5-.21-.2-1.29-.7-.91-1-.59-1.3-.3h-1.1l-1.1.3-.7.5-.3 1.09.3 1 1 .81 1.2.8 1.5.7 1.5.89 1.2 1.11 1 1.3.3 1.7-.1 1.3-.4 1.09-.7.8-.8.7-2 .71-2.2.09-2.4-.5-1-.39-.9-.61-.7-.8-.6-1-.4-1.29-.1-1.5 2.5.2.3 1.59.8 1 1.2.71 1.6.2h1.2l1.1-.41h.1l.7-.7.3-1.19-.3-1-.9-.9-1.3-.8-1.5-.7-1.4-.91-1.3-1-.9-1.3-.4-1.7.1-1.09.4-.91 1.3-1.39 1.8-.8 2.1-.11 2 .41 1.9 1 .7.8.6 1 .3 1.09z" class="cls-21"/><path d="m681.62 291.23-.6 2.5-1.4.4.6-2.5z" class="cls-22"/><path d="m669.82 290.32 11.8.91-1.4.4-11.8-.9z" class="cls-8"/><path d="m671.22 282.93-1.4 7.39-1.4.41 1.5-7.91zM682.62 280.73l-.4 2.5-1.4.5.4-2.6z" class="cls-6"/><path d="m671.82 279.82 10.8.91-1.4.4-10.8-.81z" class="cls-8"/><path d="m673.12 273.13-1.3 6.69-1.4.5 1.4-7.3zM685.32 271.02l-.5 2.5-1.4.41.5-2.5z" class="cls-6"/><path d="m670.92 269.82 14.4 1.2-1.4.41-14.4-1.11z" class="cls-8"/><path d="m665.12 293.02 4.4-22.7 14.4 1.11-.5 2.5-10.3-.8-1.3-.11-1.4 7.3 10.8.81-.4 2.6-9.6-.8-1.3-.11-1.5 7.91 11.8.9-.6 2.5z" class="cls-21"/><path d="m690.92 274.52-3.3 17.11-1.4.5 3.4-17.7z" class="cls-6"/><path d="m692.42 292.02 2-.09-1.3.39-2.1.11z" class="cls-7"/><path d="m687.62 291.63 4.8.39-1.4.41-4.8-.3z" class="cls-8"/><path d="m699.12 292.93-2 1-1.3.5 1.9-1.11z" class="cls-9"/><path d="m700.82 291.43-1.7 1.5-1.4.39 1.7-1.5z" class="cls-10"/><path d="m702.22 289.43-1.4 2-1.4.39 1.4-1.89z" class="cls-11"/><path d="m703.22 287.13-1 2.3-1.4.5 1-2.41z" class="cls-12"/><path d="m703.82 284.32-.6 2.81-1.4.39.6-2.7z" class="cls-13"/><path d="m704.02 281.23-.2 3.09-1.4.5.2-3.09z" class="cls-14"/><path d="m703.92 279.32.1 1.91-1.4.5-.1-2z" class="cls-15"/><path d="m703.52 277.52.4 1.8-1.4.41-.4-1.71zM702.92 276.02l.6 1.5-1.4.5-.6-1.59z" class="cls-16"/><path d="m702.02 274.63.9 1.39-1.4.41-.9-1.41z" class="cls-17"/><path d="m700.92 273.52 1.1 1.11-1.4.39-1.1-1.09z" class="cls-6"/><path d="m699.62 272.63 1.3.89-1.4.41-1.4-.8z" class="cls-18"/><path d="m697.92 272.13 1.7.5-1.5.5-1.5-.61z" class="cls-19"/><path d="m696.12 271.82 1.8.31-1.3.39-1.9-.29z" class="cls-20"/><path d="m688.82 271.23 7.3.59-1.4.41-7.3-.5z" class="cls-8"/><path d="m689.62 274.42-3.4 17.6 4.8.4 2.1-.1 1.3-.4.5-.2 1.5-1 1.2-1.4 1-1.6.7-1.9.4-2 .1-2.1-.2-2.5-.3-1.1-.5-1-.8-.9-1-.7-1.3-.5-1.6-.3-3.2-.2Zm-6.6 20 4.4-22.7 7.3.6 1.8.3 1.6.6 1.4.8 1.1 1.1.9 1.4.6 1.5.4 1.8.1 2-.2 3.1-.6 2.7-1 2.4-1.4 1.9-1.7 1.5-2 1.1-2.3.6-2.5.1Z" class="cls-21"/><path d="m726.12 274.13-2.6 13.6-1.4.5 2.6-13.71z" class="cls-6"/><path d="m723.32 273.93 2.8.2-1.4.39-2.7-.2z" class="cls-8"/><path d="M715.92 294.23h.2l-.4.2-1.2.3z" class="cls-41"/><path d="M714.32 294.23h1.6l-1.4.5h-1.6z" class="cls-42"/><path d="m712.92 294.02 1.4.21-1.4.5-1.4-.21z" class="cls-53"/><path d="m711.72 293.63 1.2.39-1.4.5-1.2-.39z" class="cls-65"/><path d="m710.72 293.02 1 .61-1.4.5-1-.61z" class="cls-18"/><path d="m709.92 292.32.8.7-1.4.5-.7-.79z" class="cls-57"/><path d="m709.42 291.32.5 1-1.3.41-.6-1z" class="cls-23"/><path d="m709.22 290.13.2 1.19-1.4.41-.2-1.21z" class="cls-16"/><path d="m709.12 288.73.1 1.4-1.4.39v-1.29z" class="cls-17"/><path d="m709.42 287.23-.3 1.5-1.3.5.2-1.6z" class="cls-66"/><path d="m712.12 273.02-2.7 14.21-1.4.4 2.7-14.11z" class="cls-6"/><path d="m709.32 272.82 2.8.2-1.4.5-2.8-.29z" class="cls-8"/><path d="m721.12 294.43-1.9 1.5-1.4.5 1.9-1.5z" class="cls-74"/><path d="m721.92 293.43-.8 1-1.4.5.8-1.11z" class="cls-19"/><path d="m722.52 292.13-.6 1.3-1.4.39.6-1.3z" class="cls-75"/><path d="m723.02 290.32-.5 1.81-1.4.39.5-1.79z" class="cls-76"/><path d="m723.52 287.73-.5 2.59-1.4.41.5-2.5z" class="cls-22"/><path d="m724.72 274.52-2.6 13.71-.5 2.5-.5 1.79-.6 1.3-.8 1.11-1.9 1.5-2.3.7-2.6.1-2.1-.3-1.9-.61-1.4-.89-1.2-1.3-.7-1.4-.5-1.8v-2l.2-2.3 2.6-13.4 2.8.29-2.7 14.11-.2 1.6v1.29l.2 1.21.6 1 .7.79 1 .61 1.2.39 1.4.21h1.6l1.2-.3.4-.2.6-.41.8-.8 1.1-2.2.7-2.8 2.7-13.7z" class="cls-21"/><path d="m742.52 290.73 2.8.2-1.4.39-2.8-.19z" class="cls-8"/><path d="m736.02 295.93 1.7-.11-.7.41-2.4.09z" class="cls-73"/><path d="m734.62 295.73 1.4.2-1.4.39-1.4-.19z" class="cls-43"/><path d="m733.32 295.23 1.3.5-1.4.4-1.3-.5z" class="cls-44"/><path d="m732.22 294.43 1.1.8-1.4.4-1-.81z" class="cls-45"/><path d="m731.42 293.52.8.91-1.3.39-.9-.89z" class="cls-38"/><path d="m730.72 292.32.7 1.2-1.4.41-.7-1.11z" class="cls-15"/><path d="m730.22 291.02.5 1.3-1.4.5-.5-1.39z" class="cls-16"/><path d="m729.92 287.93.3 3.09-1.4.41-.3-3.11z" class="cls-32"/><path d="m730.02 285.82-.1 2.11-1.4.39.1-2z" class="cls-46"/><path d="m730.42 283.82-.4 2-1.4.5.4-2.09z" class="cls-22"/><path d="m731.12 281.93-.7 1.89-1.4.41.7-1.91z" class="cls-47"/><path d="m732.02 280.23-.9 1.7-1.4.39.9-1.59z" class="cls-48"/><path d="m733.22 278.93-1.2 1.3-1.4.5 1.3-1.41z" class="cls-49"/><path d="m734.72 277.82-1.4 1.11-1.4.39 1.4-1z" class="cls-50"/><path d="m735.32 277.63-.6.19-1.4.5 1.8-.69z" class="cls-1"/><path d="m746.42 281.23.1 1.9-1.4.39-.1-1.79z" class="cls-23"/><path d="m745.92 279.63.5 1.6-1.4.5-.5-1.71z" class="cls-16"/><path d="m745.22 278.13.7 1.5-1.4.39-.7-1.39z" class="cls-32"/><path d="m744.22 276.93 1 1.2-1.4.5-1-1.2z" class="cls-14"/><path d="m743.12 276.02 1.1.91-1.4.5-1.1-1z" class="cls-76"/><path d="m741.72 275.32 1.4.7-1.4.41-1.4-.7z" class="cls-81"/><path d="m740.22 274.82 1.5.5-1.4.41-1.5-.5z" class="cls-34"/><path d="m738.62 274.52 1.6.3-1.4.41-1.6-.3z" class="cls-53"/><path d="m736.02 274.63 2.6-.11-1.4.41-2.6.09z" class="cls-54"/><path d="m733.82 275.32 2.2-.69-1.4.39-2.2.71z" class="cls-21"/><path d="m741.02 297.63-1.5.6-1.4.4 1.5-.61z" class="cls-41"/><path d="m742.22 296.73-1.2.9-1.4.39 1.2-.79z" class="cls-72"/><path d="m743.32 295.63-1.1 1.1-1.4.5 1.1-1.21z" class="cls-77"/><path d="m744.12 294.23-.8 1.4-1.4.39.8-1.29z" class="cls-82"/><path d="m744.82 292.73-.7 1.5-1.4.5.7-1.6z" class="cls-12"/><path d="m745.32 290.93-.5 1.8-1.4.4.5-1.81z" style="fill:#b3b3b3"/><path d="m741.12 291.13 2.8.19-.5 1.81-.7 1.6-.8 1.29-1.1 1.21-1.2.79-1.5.61-1.6.3h-1.9l-2-.3-1.8-.7-1.5-.91-1.3-1.2-1-1.59-.7-1.8-.5-2-.1-2.3.2-2.7.6-2.61.9-2.3 1.3-2 1.7-1.59 2-1.2 2.2-.71 2.6-.09 1.6.3 1.5.5 1.4.7 1.1 1 1 1.2.7 1.39.5 1.71.1 1.79-2.7-.2-.4-2.39-.5-.91-.6-.79-1.6-1.21-2.1-.5-1.9.11h-.2l-1.8.69-1.4 1-1.3 1.41-.9 1.59-.7 1.91-.4 2.09-.1 2 .4 3.11.4 1.39.7 1.11.9.89 1 .81 1.3.5 1.4.19 2.4-.09.7-.41 1.1-.59 1.4-1.71z" class="cls-21"/><path d="m752.02 292.82-3.4 6.11-1.4.5 3.7-6.7z" class="cls-26"/><path d="m761.22 276.82 3.7 23.41-1.3.4-3.8-23.4z" class="cls-32"/><path d="m758.12 276.63 3.1.19-1.4.41-3.1-.21z" class="cls-8"/><path d="m757.82 279.82-5.6 10.4 7.2.5-.1-.5-1.2-8.8Zm-13.6 19.3 12.6-22.1 3 .2 3.8 23.4-2.9-.2-1-7-7.7-.6-1.1-.1-3.7 6.7-3-.3Z" class="cls-21"/><path d="m758.02 281.43-4.5 8.39-1.4.41 5.7-10.41z" class="cls-67"/><path d="m753.52 289.82 5.8.41.1.59-7.3-.59z" class="cls-8"/><path d="m785.82 278.73-.5 2.5-1.4.5.5-2.6z" class="cls-22"/><path d="m768.92 277.43 16.9 1.3-1.4.4-16.9-1.31z" class="cls-8"/><path d="m778.12 281.23-3.8 19.7-1.4.39 4-20.19z" class="cls-6"/><path d="m784.42 279.13-.5 2.6-5.8-.5-1.2-.1-4 20.19-2.8-.19 4-20.2-7.1-.5.5-2.61z" class="cls-21"/><path d="m790.92 279.13-4.4 22.69-1.4.5 4.4-22.8z" class="cls-6"/><path d="m788.12 278.93 2.8.2-1.4.39-2.8-.2z" class="cls-8"/><path d="m782.32 302.13 4.4-22.81 2.8.2-4.4 22.8z" class="cls-21"/><path d="m795.12 290.82-.1 2.11-1.4.5.1-2.11z" class="cls-46"/><path d="m795.52 288.82-.4 2-1.4.5.4-2.09z" class="cls-22"/><path d="m796.22 286.93-.7 1.89-1.4.41.7-1.8z" class="cls-47"/><path d="m797.12 285.32-.9 1.61-1.4.5 1-1.7z" class="cls-48"/><path d="m798.42 283.93-1.3 1.39-1.3.41 1.2-1.41z" class="cls-49"/><path d="m799.92 282.82-1.5 1.11-1.4.39 1.5-1z" class="cls-50"/><path d="m800.42 282.63-.5.19-1.4.5 1.7-.69z" class="cls-1"/><path d="m801.22 300.93 1.7-.11-1.2.5-1.9.11z" class="cls-7"/><path d="m799.72 300.73 1.5.2-1.4.5-1.5-.3z" class="cls-43"/><path d="m798.42 300.23 1.3.5-1.4.4-1.3-.5z" class="cls-44"/><path d="m797.42 299.43 1 .8-1.4.4-1-.7z" class="cls-45"/><path d="m796.52 298.52.9.91-1.4.5-.9-1z" class="cls-38"/><path d="m795.82 297.32.7 1.2-1.4.41-.7-1.11z" class="cls-15"/><path d="m795.42 296.02.4 1.3-1.4.5-.4-1.3z" class="cls-16"/><path d="m795.02 292.93.4 3.09-1.4.5-.4-3.09z" class="cls-32"/><path d="m807.82 301.52-1.9 1.21-1.4.4 1.9-1.2z" class="cls-7"/><path d="m809.42 299.93-1.6 1.59-1.4.41 1.6-1.61z" class="cls-61"/><path d="m810.72 297.93-1.3 2-1.4.39 1.3-2z" class="cls-82"/><path d="m811.62 295.63-.9 2.3-1.4.39 1-2.3z" class="cls-35"/><path d="m812.22 293.13-.6 2.5-1.3.39.5-2.5z" class="cls-13"/><path d="m812.42 290.43-.2 2.7-1.4.39.2-2.59z" class="cls-14"/><path d="m812.32 288.32.1 2.11-1.4.5-.1-2.11z" class="cls-15"/><path d="m811.82 286.43.5 1.89-1.4.5-.5-2z" class="cls-16"/><path d="m811.12 284.63.7 1.8-1.4.39-.7-1.8z" class="cls-16"/><path d="m810.12 283.02 1 1.61-1.4.39-1-1.59z" class="cls-17"/><path d="m808.82 281.73 1.3 1.29-1.4.41-1.3-1.3z" class="cls-66"/><path d="m807.32 280.63 1.5 1.1-1.4.4-1.5-1.11z" class="cls-45"/><path d="m805.62 279.93 1.7.7-1.4.39-1.7-.7z" class="cls-82"/><path d="m803.72 279.52 1.9.41-1.4.39-1.9-.3z" class="cls-43"/><path d="m801.12 279.63 2.6-.11-1.4.5-2.5.11z" class="cls-54"/><path d="m798.92 280.32 2.2-.69-1.3.5-2.3.6z" class="cls-21"/><path d="m793.72 291.32-.1 2.1.4 3.1.5 1.3.7 1.1.9 1 1.1.7 1.3.5 1.5.2 2-.1 1.2-.4.5-.2 1.5-1 1.2-1.4.9-1.6.7-1.9.4-2 .1-2-.4-3-.5-1.3-.7-1.2-.8-1-1-.8-1.2-.5-1.4-.3-1.9.1h-.2l-1.8.6-1.5 1-1.2 1.4-1 1.6-.7 1.9Zm-2.7 4.1-.2-2.3.2-2.7.6-2.6 1-2.3 1.3-2 1.7-1.6 2-1.2 2.3-.7 2.5-.1 1.9.3 1.7.7 1.5 1 1.3 1.3 1 1.6.7 1.8.5 2 .2 2.1-.2 2.6-.6 2.5-1 2.3-1.3 2-1.6 1.6-1.9 1.2-2.2.7-2.5.1-2-.3-1.8-.6-1.5-.9-1.3-1.3-1-1.5-.7-1.8Z" class="cls-21"/><path d="m819.32 288.13-3.1 16-1.4.5 3.6-18.7zM834.72 282.52l-4.5 22.71-1.3.4 4.4-22.7z" class="cls-6"/><path d="m832.02 282.32 2.7.2-1.4.41-2.7-.2z" class="cls-8"/><path d="m820.92 281.43 6.7 17.5-.5 2.59h-.1l-7.4-19.7z" class="cls-16"/><path d="m818.02 281.23 2.9.2-1.3.39-3-.19z" class="cls-8"/><path d="m812.12 304.43 4.5-22.8 3 .19 7.4 19.7h.1l.5-2.59 3-16.2 2.7.2-4.4 22.7-3-.2-6.6-17.3-.9-2.2-3.6 18.7z" class="cls-21"/><path d="m848.52 292.93-2.7 13.5-1.4.39 2.8-14z" class="cls-22"/><path d="m851.92 290.23-.4 2.4-1.4.39.4-2.39z" class="cls-57"/><path d="m849.02 289.93 2.9.3-1.4.4-2.9-.2z" class="cls-8"/><path d="m849.42 288.52-.4 1.41-1.4.5.4-1.5z" class="cls-13"/><path d="m849.82 287.13-.4 1.39-1.4.41.4-1.3z" class="cls-25"/><path d="m850.42 286.43-.6.7-1.4.5.8-.9.7-.3z" class="cls-58"/><path d="m853.62 283.93-.5 2.3-1.4.5.4-2.3z" class="cls-6"/><path d="m852.52 283.63 1.1.3-1.5.5-1-.3z" class="cls-59"/><path d="m851.52 283.52 1 .11-1.4.5-1-.2z" class="cls-10"/><path d="M850.12 283.52h1.4l-1.4.41-1.4.09z" class="cls-54"/><path d="m844.02 289.63 1.3.1-.1.5-2.6-.21z" class="cls-8"/><path d="m841.92 306.73 2.8-14.1-2.5-.2.4-2.41 2.6.21.1-.5.4-1.91.7-2.09.6-.8.7-.61 1-.3 1.4-.09 1 .2 1 .3-.4 2.3-.6-.21-.5-.09H849.82l-.6.3-.8.9-.4 1.3-.4 1.5 2.9.2-.4 2.39-1.6-.09-1.3-.11-2.8 14z" class="cls-21"/><path d="m849.22 286.73.6-.3h.1z" class="cls-60"/><path d="m863.22 306.23-1.4.9-1.4.5 1.4-1z" class="cls-7"/><path d="m864.42 305.02-1.2 1.21-1.4.4 1.2-1.2z" class="cls-61"/><path d="m865.32 303.52-.9 1.5-1.4.41.9-1.5z" class="cls-62"/><path d="m866.02 301.73-.7 1.79-1.4.41.7-1.7z" class="cls-63"/><path d="m866.42 299.82-.4 1.91-1.4.5.5-1.91z" class="cls-13"/><path d="m866.62 297.82-.2 2-1.3.5.1-2z" class="cls-14"/><path d="m866.52 296.23.1 1.59-1.4.5-.1-1.59z" class="cls-15"/><path d="m866.22 294.82.3 1.41-1.4.5-.3-1.5z" class="cls-16"/><path d="m865.72 293.63.5 1.19-1.4.41-.5-1.21z" class="cls-16"/><path d="m865.02 292.52.7 1.11-1.4.39-.7-1z" class="cls-64"/><path d="m864.12 291.73.9.79-1.4.5-.9-.89z" class="cls-22"/><path d="m863.02 291.13 1.1.6-1.4.4-1.1-.61z" class="cls-39"/><path d="m861.72 290.63 1.3.5-1.4.39-1.3-.39z" class="cls-65"/><path d="m860.32 290.43 1.4.2-1.4.5-1.4-.2z" class="cls-53"/><path d="m858.42 290.52 1.9-.09-1.4.5h-1.9z" class="cls-54"/><path d="m853.32 298.22-.4 2.7.3 1.9.8 1.5 1.3 1 1.8.5 1.3-.1.9-.4.2-.1 1-.8.8-1 1.1-2.5.4-2.6-.2-1.9-.7-1.6-1.2-1.1-1.8-.5-.9.1h-.4l-1.2.5-1 .8-.8 1-.6 1.2Zm-2.8 4-.1-1.5.1-2 .4-1.9.7-1.7 1-1.5 1.2-1.2 1.5-.9 1.7-.5 1.9-.1 1.5.2 1.3.4 1.1.6.9.8.7 1 .5 1.2.3 1.4.1 1.6-.1 2-.4 1.9-.7 1.8-1 1.5-1.2 1.2-1.4.9-1.7.5-1.9.1-1.4-.2-1.3-.5-1.1-.7-.9-.9-.7-1.1-.5-1.2Z" class="cls-21"/><path d="m854.72 297.73-.4 2.7-1.4.5.4-2.7z" class="cls-66"/><path d="m855.12 296.43-.4 1.3-1.4.5.4-1.3z" class="cls-31"/><path d="m855.82 295.23-.7 1.2-1.4.5.7-1.2z" class="cls-67"/><path d="m856.62 294.23-.8 1-1.4.5.8-1z" class="cls-52"/><path d="m857.62 293.43-1 .8-1.4.5 1-.8z" class="cls-8"/><path d="m857.82 293.32-.2.11-1.4.5 1.2-.5z" class="cls-68"/><path d="M858.52 305.32h.8l-.9.41-1.3.09z" class="cls-3"/><path d="m856.72 304.93 1.8.39-1.4.5-1.8-.5z" class="cls-69"/><path d="m855.42 303.82 1.3 1.11-1.4.39-1.3-1z" class="cls-70"/><path d="m854.62 302.32.8 1.5-1.4.5-.8-1.5z" class="cls-32"/><path d="m854.32 300.43.3 1.89-1.4.5-.3-1.89z" class="cls-32"/><path d="m871.92 301.02-1.4 7.3-1.4.41 1.4-7.21z" class="cls-22"/><path d="m872.42 299.02-.5 2-1.4.5.5-2z" class="cls-71"/><path d="m873.22 297.23-.8 1.79-1.4.5.8-1.89z" class="cls-12"/><path d="m874.62 295.63-1.4 1.6-1.4.4 1.4-1.61z" class="cls-69"/><path d="m875.32 295.13-.7.5-1.4.39.9-.5 1-.29z" class="cls-7"/><path d="m879.22 291.93-.6 2.89-1.4.41.6-2.91z" class="cls-22"/><path d="m878.82 291.82.4.11-1.4.39h-.4z" class="cls-53"/><path d="M878.32 291.82h.5l-1.4.5h-.5z" class="cls-72"/><path d="m876.62 292.02 1.7-.2-1.4.41-1.7.2z" class="cls-73"/><path d="m873.52 291.82-.4 1.91-.7.59-.9 1.5h-.1l.7-3.5z" class="cls-22"/><path d="m871.22 291.63 2.3.19-1.4.5-2.3-.19z" class="cls-8"/><path d="m866.62 308.63 3.2-16.5 2.3.19-.7 3.5h.1l.9-1.5.7-.59.6-.6 1.5-.7 1.7-.2.5.09h.4l-.6 2.91h-.3l-.4-.1h-1.2l-.2.1h-.1l-.9.29-.9.5-1.4 1.61-.8 1.89-.5 2-1.4 7.21z" class="cls-21"/><path d="m874.12 295.52.9-.29h.1z" class="cls-21"/><path d="m890.92 299.93-1.9 9.8-1.4.5 2-10.41zM901.22 297.52l-.5 2.61-1.4.39.5-2.5z" class="cls-6"/><path d="m891.52 296.82 9.7.7-1.4.5-9.7-.79z" class="cls-8"/><path d="m892.82 290.13-1.3 6.69-1.4.41 1.4-7.21zM904.42 287.82l-.5 2.61-1.4.39.5-2.5z" class="cls-6"/><path d="m890.62 286.82 13.8 1-1.4.5-13.8-1.09z" class="cls-8"/><path d="m884.92 310.02 4.3-22.79 13.8 1.09-.5 2.5-9.7-.69-1.3-.11-1.4 7.21 9.7.79-.5 2.5-8.4-.59-1.3-.11-2 10.41z" class="cls-21"/><path d="m918.12 295.32-3.2 16.41-1.4.5 3.2-16.5z" class="cls-6"/><path d="m915.62 295.13 2.5.19-1.4.41-2.5-.21z" class="cls-8"/><path d="M908.42 309.23h.8l-.1.09-1 .31h-1z" class="cls-54"/><path d="m907.42 309.02 1 .21-1.3.4-1.1-.2z" class="cls-77"/><path d="m906.62 308.52.8.5-1.4.41-.8-.5z" class="cls-75"/><path d="m906.02 307.73.6.79-1.4.41-.6-.7z" class="cls-36"/><path d="m905.82 306.73.2 1-1.4.5-.2-1.1z" class="cls-16"/><path d="M905.82 306.13v.6l-1.4.4v-.61z" class="cls-46"/><path d="m905.92 305.43-.1.7-1.4.39.1-.7z" class="cls-38"/><path d="m906.02 304.73-.1.7-1.4.39.1-.69z" class="cls-57"/><path d="m906.22 304.13-.2.6-1.4.4.2-.61z" class="cls-22"/><path d="m908.12 294.52-1.9 9.61-1.4.39 1.9-9.59z" class="cls-22"/><path d="m905.62 294.32 2.5.2-1.4.41-2.5-.2z" class="cls-8"/><path d="m911.42 310.52-.8.5-1.4.5 1.3-.79.9-.3z" class="cls-28"/><path d="m916.72 295.73-3.2 16.5-2.4-.21.3-1.5v-.09l.2-.91h-.1l-1 1.21-1.3.79-1.5.41-1.6.09-1.8-.39-1.3-.9-.8-1.41-.3-1.89.1-1.41.4-1.89 1.8-9.4 2.5.2-1.9 9.59-.2.61-.1.69-.1.7v.61l.2 1.1.6.7.8.5 1.1.2h1l.9-.31h.1l.1-.09 1.4-1 1.2-1.6.7-2 1.7-9.11z" class="cls-21"/><path d="M911.52 309.52h.1l-.2.91-.9.3z" class="cls-49"/><path d="m909.02 309.32-.9.31 1-.31z" class="cls-21"/><path d="m926.62 291.02-1 4.8-1.3.5.9-4.89z" class="cls-6"/><path d="m924.12 290.82 2.5.2-1.4.41-2.5-.2zM920.62 295.52l1.3.11-.1.5-2.6-.2z" class="cls-8"/><path d="m926.12 310.13-.4 2.5-1.4.39.5-2.5z" class="cls-57"/><path d="m925.42 310.23.7-.1-1.3.39-.7.21z" class="cls-68"/><path d="m924.72 310.32.7-.09-1.3.5h-.8z" class="cls-54"/><path d="m923.72 309.93 1 .39-1.4.41-1-.3z" style="fill:#979797"/><path d="m923.32 309.63.4.3-1.4.5-.4-.41z" class="cls-66"/><path d="m923.22 309.02.1.61-1.4.39-.1-.59z" class="cls-16"/><path d="m923.32 308.52-.1.5-1.4.41.1-.5z" class="cls-46"/><path d="M923.32 307.93v.59l-1.4.41v-.5z" class="cls-24"/><path d="m925.12 298.82-1.8 9.11-1.4.5 1.9-9.7zM928.72 296.13l-.5 2.39-1.4.41.5-2.41z" class="cls-6"/><path d="m925.62 295.82 3.1.31-1.4.39-3-.2z" class="cls-8"/><path d="m925.22 291.43-.9 4.89 3 .2-.5 2.41-1.7-.11-1.3-.09-1.9 9.7v.5l-.1.5.1.59.4.41 1 .3h.8l.7-.21-.5 2.5H922.62l-1.4-.2-1-.5-.8-.89-.2-1.3v-.7l.1-.7 2-10.21-2.5-.2.4-2.39 2.6.2.1-.5.8-4.4z" class="cls-21"/><path d="m943.62 297.23-3.2 16.5-1.3.4 3.2-16.4z" class="cls-6"/><path d="m941.22 297.02 2.4.21-1.3.5-2.5-.21z" class="cls-8"/><path d="m934.02 311.23.8-.1-.2.19-1 .31h-1z" class="cls-54"/><path d="m932.92 310.93 1.1.3-1.4.4-1-.2z" class="cls-77"/><path d="m932.12 310.52.8.41-1.3.5-.9-.5z" class="cls-75"/><path d="m931.52 309.73.6.79-1.4.41-.6-.8z" class="cls-36"/><path d="m931.32 308.63.2 1.1-1.4.4-.2-1z" class="cls-16"/><path d="m931.42 308.13-.1.5-1.4.5.1-.61z" class="cls-46"/><path d="m931.52 307.43-.1.7-1.4.39.1-.7z" class="cls-38"/><path d="m931.62 306.73-.1.7-1.4.39.1-.69z" class="cls-57"/><path d="m931.72 306.13-.1.6-1.4.4.1-.61z" class="cls-22"/><path d="m933.62 296.52-1.9 9.61-1.4.39 1.9-9.59z" class="cls-22"/><path d="m931.12 296.32 2.5.2-1.4.41-2.5-.2z" class="cls-8"/><path d="m936.92 312.52-.8.5-1.4.41 1.3-.7 1-.3z" class="cls-28"/><path d="m942.32 297.73-3.2 16.4-2.4-.11.2-1.5.1-.09.1-.91-1.1 1.21-1.3.7-1.5.5h-1.5l-1.9-.41-1.3-.79-.8-1.41-.3-2 .2-1.39.3-1.8 1.8-9.4 2.5.2-1.9 9.59-.1.61-.1.69-.1.7-.1.61.2 1 .6.8.9.5 1 .2h1l.9-.31h.1l.2-.19 1.3-.9 1.2-1.6.7-2 1.8-9.11z" class="cls-21"/><path d="m937.12 311.52-.1.91-1 .3z" class="cls-49"/><path d="m934.52 311.32-.9.31 1-.31z" class="cls-21"/><path d="m948.52 306.93-1.4 7.3-1.5.4 1.5-7.2z" class="cls-22"/><path d="m948.92 304.93-.4 2-1.4.5.5-2z" class="cls-71"/><path d="m949.72 303.13-.8 1.8-1.3.5.7-1.91z" class="cls-12"/><path d="m951.12 301.52-1.4 1.61-1.4.39 1.4-1.59z" class="cls-69"/><path d="m951.92 301.02-.8.5-1.4.41.9-.5 1.1-.3z" class="cls-7"/><path d="m955.82 297.82-.6 2.91-1.4.4.6-2.9z" class="cls-22"/><path d="m955.32 297.73.5.09-1.4.41h-.5z" class="cls-53"/><path d="M954.92 297.73h.4l-1.4.5h-.4z" class="cls-72"/><path d="m953.12 297.93 1.8-.2-1.4.5-1.8.09z" class="cls-73"/><path d="m950.12 297.73-.4 1.9-.7.6-1 1.5h-.1l.8-3.5z" class="cls-22"/><path d="m947.72 297.52 2.4.21-1.4.5-2.4-.21z" class="cls-8"/><path d="m943.22 314.52 3.1-16.5 2.4.21-.8 3.5h.1l1-1.5.7-.6.5-.61 1.5-.7 1.8-.09h.9l-.6 2.9h-.4l-.3-.11H951.92l-.2.11h-.1l-1 .3-.9.5-1.4 1.59-.7 1.91-.5 2-1.5 7.2z" class="cls-21"/><path d="m950.62 301.43 1-.3h.1z" class="cls-21"/><path d="m968.92 307.43-.2 1-1.4.39.2-.89z" class="cls-57"/><path d="m969.02 306.23-.1 1.2-1.4.5.1-1.3z" class="cls-14"/><path d="m968.92 304.52.1 1.71-1.4.4-.1-1.61z" class="cls-15"/><path d="m968.62 303.02.3 1.5-1.4.5-.3-1.5z" class="cls-16"/><path d="m968.12 301.73.5 1.29-1.4.5-.5-1.29z" class="cls-16"/><path d="m967.42 300.63.7 1.1-1.4.5-.7-1.1z" class="cls-15"/><path d="m966.62 299.73.8.9-1.4.5-.8-1z" class="cls-57"/><path d="m965.42 299.02 1.2.71-1.4.4-1.1-.7z" class="cls-12"/><path d="m964.12 298.52 1.3.5-1.3.41-1.4-.41z" class="cls-19"/><path d="m962.62 298.32 1.5.2-1.4.5-1.5-.29z" class="cls-53"/><path d="m961.02 298.43 1.6-.11-1.4.41-1.6.09z" class="cls-7"/><path d="m965.52 314.63-2 .89-1.4.41 2-.91z" class="cls-80"/><path d="m967.12 313.02-1.6 1.61-1.4.39 1.6-1.59z" class="cls-29"/><path d="m967.62 311.93-.5 1.09-1.4.41.6-1.11z" class="cls-81"/><path d="m968.02 310.63-.4 1.3-1.3.39.3-1.3z" class="cls-70"/><path d="m965.52 310.43 2.5.2-1.4.39-2.5-.2z" class="cls-8"/><path d="m961.22 313.32 1.1-.09-1 .4-1.5.1z" class="cls-28"/><path d="m959.72 312.93 1.5.39-1.4.41-1.5-.41z" class="cls-58"/><path d="m958.42 312.02 1.3.91-1.4.39-1.2-.89z" class="cls-45"/><path d="m957.62 310.73.8 1.29-1.3.41-.9-1.3z" class="cls-17"/><path d="m957.32 308.93.3 1.8-1.4.4-.3-1.7z" class="cls-16"/><path d="M957.32 308.02v.91l-1.4.5v-1.5z" class="cls-46"/><path d="m956.32 305.52 8.8.7v-.5l-.1-1.2-.6-1.6-1.1-1.2-.8-.4-.9-.2-1.1.1-.8.1-1.5.9-1.1 1.4Zm-.3 2.4-.1 1.5.3 1.8.9 1.3 1.3.9 1.5.4 1.5-.1 1-.4.3-.1 1-.9.7-1.3 2.5.2-.4 1.3-.5 1.1-1.6 1.6-2 .9-2.3.2-1.7-.3-1.4-.6-1.1-.8-.9-1-.6-1.1-.4-1.2-.3-2.3.2-2.3.5-2.1.7-1.8 1-1.5 1.2-1.2 1.3-.8 1.5-.5 1.5-.1 1.6.2 1.3.5 1.1.7.9.9.7 1.1.5 1.3.3 1.5.1 1.7-.1 1.2-.2.9-10-.8Z" class="cls-21"/><path d="m957.72 305.13 7.4.5v.6l-8.8-.71z" class="cls-8"/><path d="m958.42 303.32-.7 1.81-1.4.39.7-1.79z" class="cls-63"/><path d="m959.52 301.93-1.1 1.39-1.4.41 1.1-1.41z" class="cls-34"/><path d="m960.42 301.32-.9.61-1.4.39 1.5-.89z" class="cls-3"/><path d="m594.52 326.72 3.4-17.1M601.32 327.02l-1.9.11-4.9-.4M604.12 329.02l2-1 1.7-1.5 1.3-2 1-2.29.7-2.8.2-3.11-.1-1.89-.4-1.8-.6-1.5-.9-1.4-1.1-1.1-1.4-.9-1.6-.5-1.8-.3-7.4-.61M626.52 331.82l.5-2.59-11.7-.91 1.4-7.3M627.62 321.32l.5-2.59-10.8-.8 1.3-6.7M630.32 311.63l.5-2.61-14.4-1.09M647.62 317.13l-.1-1.81-.4-1.5-.7-1.3-1-1.09-1.1-.91-1.3-.7-2.9-.59-2.8.2M640.02 330.63l-1.6.1-2.3-.5-1-.41-.8-.69-.6-.81-.5-1-.3-1.19v-1.4l-2.8-.21M642.62 332.63l1.2-.7 1.1-.91.8-1.09.6-1.41.2-1.7-.1-1.39-.3-1.2-.5-1-.7-.91-1.6-1.19-1.9-.9-2.8-1-1.3-.71-1.1-.79-.7-1.1-.3-1.4.1-1 .4-.71 1.2-1.09.3-.11M651.62 333.73l4.4-22.71-2.8-.2M674.52 335.52l2.3-12-9.1-.7M668.32 332.73l-.4.09h-1.6l-1.5-.19-1.2-.61-1.1-.7-.8-.89-.7-1.2-.5-1.3-.4-3.11.2-2.09.4-2 .6-1.91 1-1.69 1.2-1.31 1.5-1.09.6-.21M677.32 319.82l-.2-1.89-.5-1.61-.8-1.39-1-1.2-1.2-.91-1.5-.69-1.6-.5-1.7-.2-2.5.09-2.3.71M669.72 334.92l1.5-.7M681.42 336.02l3-16.1M695.42 337.13l4.4-22.81-2.7-.19M692.72 330.73l-6.6-17.41-3-.19M711.02 338.32l2.6-13.6M716.72 324.43l.4-2.41-2.9-.2.3-1.5.4-1.3.7-.7M718.32 318.13l.4-2.31-1-.3-1.1-.09h-1.3M710.42 321.52l-1.3-.1M725.22 339.52l1.7-.5 1.4-.89 1.2-1.2 1-1.61.7-1.69.4-1.9.1-2-.1-1.6-.3-1.4-.5-1.21-.7-1.09-.9-.8-1.1-.7-1.2-.41-1.5-.2-1.8.11M719.52 332.32l.3-2.69.5-1.31.6-1.19.8-1 1-.81.2-.09M724.42 337.23h-.8l-1.8-.41-1.3-1.09-.8-1.5-.2-1.91M735.62 340.23l1.5-7.3.4-2 .8-1.8 1.4-1.61.8-.5M743.82 326.73l.6-2.91-.5-.09h-.4l-1.8.09M738.32 325.52l.3-1.79-2.3-.21M769.92 333.63l2.6-13.7-2.7-.2M762.52 340.02l-.2.11h-1.6l-1.4-.2-1.2-.41-1-.59-.7-.8-.6-1-.2-1.11v-1.39l.2-1.61 2.7-14.09-2.8-.2M763.32 342.52l2.3-.7 1.9-1.5.8-1.09.6-1.3.5-1.8.5-2.5M785.32 332.23l-.2-1.3-.3-1.2-.6-1-.7-.8-1.9-1-2.1-.41-2 .11M779.52 341.43h-1l-1.6-.2-1.2-.71-.9-1-.2-1.59-2.5-.2M780.42 343.73l2-.71.8-.7.7-.8.4-1.09.1-1.2-.3-1.8-1-1.3-1.2-1-1.5-.9-1.5-.8-1.3-.7-.9-.91-.3-1 .3-1 .5-.5M800.72 337.73l.2-1 .1-1.21-.1-1.59-.3-1.5-.5-1.3-.7-1.2-.8-.91-1.2-.7-1.3-.39-1.5-.3-1.6.1M795.52 344.82l2-.89 1.6-1.61.5-1.09.4-1.3-2.5-.2M794.32 342.52l-1.1.11-1.5-.4-1.3-.91-.8-1.3-.4-1.79.1-.91M797.12 335.02l-7.4-.59.7-1.8 1.1-1.4.9-.6M804.62 345.52l1.4-7.29.4-2 .8-1.8 1.4-1.61.8-.5M812.72 332.02l.6-2.89-.5-.11h-.4l-1.8.11M807.22 330.82l.4-1.8-2.4-.2M824.92 335.32l-.2-1.39-.3-1.2-.6-.91-.7-.8-1.9-1-2.1-.5-2 .21M819.12 344.52h-1l-1.5-.29-1.3-.6-.9-1.11-.2-1.5-2.5-.2M820.02 346.82l2-.8.8-.59.6-.91.5-1 .1-1.29-.3-1.71-.9-1.29-1.3-1.1-1.5-.9-1.5-.71-1.2-.79-1-.8-.3-1.11.3-1 .5-.39M594.32 306.82l-4.4 22.7M601.72 307.32l-7.4-.5M603.52 307.62l-1.8-.3M605.12 308.22l-1.6-.6M606.52 309.02l-1.4-.8M607.62 310.12l-1.1-1.1M608.52 311.52l-.9-1.4M609.12 313.02l-.6-1.5M609.52 314.82l-.4-1.8M609.62 316.82l-.1-2M609.42 319.82l.2-3M608.72 322.62l.7-2.8M607.72 325.02l1-2.4M606.42 326.92l1.3-1.9M604.72 328.42l1.7-1.5M602.72 329.52l2-1.1M600.42 330.12l2.3-.6M597.92 330.12h2.5M589.92 329.52l8 .6M593.12 327.22l3.5-17.7M598.02 327.52l-4.9-.3M600.12 327.42l-2.1.1M603.42 325.82l-1.5 1M604.62 324.52l-1.2 1.3M605.62 322.82l-1 1.7M606.32 321.02l-.7 1.8M606.72 318.92l-.4 2.1M606.82 316.92l-.1 2M606.62 314.42l.2 2.5M606.22 313.22l.4 1.2M605.72 312.22l.5 1M604.92 311.32l.8.9M603.92 310.62l1 .7M602.62 310.12l1.3.5M601.02 309.92l1.6.2M595.72 306.32l-1.4.5M604.12 329.02l-1.4.5M594.52 326.72l-1.4.5M615.02 308.32l-4.4 22.8M629.42 309.52l-14.4-1.2M628.92 312.02l.5-2.5M615.92 318.32l1.4-7.2M626.72 319.22l-10.8-.9M626.32 321.72l.4-2.5M613.92 328.82l1.5-7.9M625.62 329.72l-11.7-.9M625.12 332.22l.5-2.5M610.62 331.12l14.5 1.1M616.42 307.92l-1.4.4M630.82 309.02l-1.4.5M630.32 311.62l-1.4.4M617.32 317.92l-1.4.4M628.12 318.72l-1.4.5M627.72 321.32l-1.4.4M615.32 328.32l-1.4.5M627.02 329.22l-1.4.5M626.52 331.82l-1.4.4M643.52 317.42l2.8.2M643.22 315.12l.3 2.3M642.82 314.22l.4.9M642.22 313.52l.6.7M640.62 312.62l1.6.9M638.72 312.22l1.9.4M635.52 312.82l1.6-.5M634.32 313.92l1.2-1.1M633.92 314.72l.4-.8M633.82 315.62l.1-.9M634.12 317.12l-.3-1.5M634.82 318.22l-.7-1.1M635.92 319.02l-1.1-.8M637.22 319.62l-1.3-.6M640.02 320.72l-2.8-1.1M641.92 321.52l-1.9-.8M643.52 322.82l-1.6-1.3M644.22 323.62l-.7-.8M644.72 324.62l-.5-1M645.02 325.82l-.3-1.2M645.12 327.32l-.1-1.5M644.92 329.02l.2-1.7M644.32 330.32l.6-1.3M643.52 331.52l.8-1.2M642.42 332.42l1.1-.9M641.22 333.02l1.2-.6M639.82 333.42l1.4-.4M636.92 333.62l2.9-.2M635.12 333.42l1.8.2M633.52 332.92l1.6.5M632.02 332.22l1.5.7M630.82 331.32l1.2.9M629.82 330.12l1 1.2M629.12 328.62l.7 1.5M628.72 326.92l.4 1.7M628.72 324.92v2M631.52 325.12l-2.8-.2M631.52 326.62v-1.5M631.82 327.82l-.3-1.2M632.32 328.82l-.5-1M632.92 329.62l-.6-.8M633.82 330.22l-.9-.6M634.72 330.62l-.9-.4M637.12 331.12l-2.4-.5M639.02 331.02l-1.9.1M641.82 329.02l-1.2 1.3M642.22 328.12l-.4.9M642.32 327.12l-.1 1M642.02 325.52l.3 1.6M641.22 324.42l.8 1.1M640.02 323.62l1.2.8M638.62 323.02l1.4.6M635.72 321.92l2.9 1.1M633.92 321.02l1.8.9M632.42 319.72l1.5 1.3M631.42 318.02l1 1.7M631.12 316.92l.3 1.1M631.02 315.72l.1 1.2M631.22 314.22l-.2 1.5M631.72 312.92l-.5 1.3M632.52 311.82l-.8 1.1M633.52 310.92l-1 .9M634.62 310.32l-1.1.6M635.92 309.82l-1.3.5M638.72 309.62l-2.8.2M641.62 310.32l-2.9-.7M642.92 310.92l-1.3-.6M644.12 311.82l-1.2-.9M645.02 312.92l-.9-1.1M645.72 314.22l-.7-1.3M646.12 315.82l-.4-1.6M646.32 317.62l-.2-1.8M647.62 317.12l-1.3.5M642.62 332.62l-1.4.4M630.12 324.52l-1.4.4M632.92 324.72l-1.4.4M637.32 309.42l-1.4.4M651.92 311.22l-4.5 22.7M654.62 311.42l-2.7-.2M650.22 334.12l4.4-22.7M647.42 333.92l2.8.2M653.22 310.82l-1.3.4M656.02 311.02l-1.4.4M651.62 333.72l-1.4.4M669.82 334.62l1.4-1.1M668.32 335.42l1.5-.8M666.62 335.82l1.7-.4M664.92 335.82h1.7M662.92 335.52l2 .3M661.12 334.82l1.8.7M659.62 333.92l1.5.9M658.32 332.62l1.3 1.3M657.32 331.12l1 1.5M656.52 329.32l.8 1.8M656.12 327.32l.4 2M655.92 325.02l.2 2.3M656.12 322.32l-.2 2.7M656.82 319.72l-.7 2.6M657.72 317.42l-.9 2.3M659.02 315.42l-1.3 2M660.72 313.82l-1.7 1.6M662.62 312.62l-1.9 1.2M664.92 311.92l-2.3.7M667.42 311.82l-2.5.1M669.12 312.12l-1.7-.3M670.72 312.52l-1.6-.4M672.12 313.22l-1.4-.7M673.42 314.22l-1.3-1M674.42 315.32l-1-1.1M675.22 316.72l-.8-1.4M675.72 318.32l-.5-1.6M675.92 320.22l-.2-1.9M673.12 320.02l2.8.2M673.02 318.82l.1 1.2M672.62 317.72l.4 1.1M672.12 316.72l.5 1M671.42 316.02l.7.7M669.62 314.92l1.8 1.1M667.42 314.42l2.2.5M663.62 315.12l1.8-.6M662.12 316.22l1.5-1.1M660.92 317.62l1.2-1.4M660.02 319.22l.9-1.6M659.32 321.12l.7-1.9M658.92 323.22l.4-2.1M658.72 325.22l.2-2M659.12 328.32l-.4-3.1M659.62 329.72l-.5-1.4M660.32 330.82l-.7-1.1M661.12 331.72l-.8-.9M662.22 332.52l-1.1-.8M663.42 333.02l-1.2-.5M664.92 333.22l-1.5-.2M666.52 333.22h-1.6M667.82 332.92l-1.3.3M670.02 331.52l-1 .8M670.82 330.52l-.8 1M671.52 329.32l-.7 1.2M672.52 326.32l-1 3M665.82 325.82l6.7.5M666.32 323.22l-.5 2.6M675.42 323.92l-9.1-.7M673.12 335.92l2.3-12M671.32 335.82l1.8.1M669.72 334.92l-1.4.5M664.02 312.22l-1.4.4M677.32 319.82l-1.4.4M667.72 322.82l-1.4.4M676.82 323.52l-1.4.4M674.52 335.52l-1.4.4M681.72 313.52l-4.4 22.7M684.72 313.72l-3-.2M692.22 333.42l-7.5-19.7M698.42 314.82l-2.7-.2M694.02 337.52l4.4-22.7M691.02 337.32l3 .2M683.52 317.72h.1M680.02 336.42l3.5-18.7M677.32 336.22l2.7.2M683.12 313.12l-1.4.4M686.12 313.32l-1.4.4M692.32 333.42h-.1M697.12 314.12l-1.4.5M699.82 314.32l-1.4.5M695.42 337.12l-1.4.4M681.42 336.02l-1.4.4M709.92 324.52l-2.8 14M707.32 324.32l2.6.2M707.82 321.92l-.5 2.4M710.32 322.12l-2.5-.2M711.62 317.62l-.7 2M712.12 316.82l-.5.8M712.92 316.22l-.8.6M713.92 315.92l-1 .3M715.22 315.82l-1.3.1M716.32 315.92l-1.1-.1M717.32 316.22l-1-.3M716.92 318.52l.4-2.3M716.32 318.42l.6.1M715.72 318.32l.6.1M714.32 318.52l.6-.2M713.52 319.42l.8-.9M713.12 320.82l.4-1.4M712.82 322.32l.3-1.5M715.72 322.52l-2.9-.2M715.32 324.92l.4-2.4M709.62 338.72l2.7-14.1M707.12 338.52l2.5.2M709.12 321.42l-1.3.5M715.32 315.42l-1.4.5M718.72 315.82l-1.4.4M718.32 318.12l-1.4.4M714.22 321.82l-1.4.5M717.12 322.02l-1.4.5M716.72 324.42l-1.4.5M711.02 338.32l-1.4.4M715.62 332.62l.1 1.5M715.72 330.62l-.1 2M716.12 328.72l-.4 1.9M716.92 326.92l-.8 1.8M717.82 325.52l-.9 1.4M719.02 324.22l-1.2 1.3M720.52 323.32l-1.5.9M722.22 322.82l-1.7.5M724.02 322.72l-1.8.1M725.52 323.02l-1.5-.3M726.82 323.42l-1.3-.4M727.82 324.02l-1-.6M728.72 324.92l-.9-.9M729.42 325.92l-.7-1M729.92 327.12l-.5-1.2M730.22 328.52l-.3-1.4M730.32 330.12l-.1-1.6M730.22 332.12l.1-2M729.82 334.02l.4-1.9M729.12 335.82l.7-1.8M728.12 337.32l1-1.5M726.92 338.52l1.2-1.2M725.52 339.42l1.4-.9M723.92 340.02l1.6-.6M722.02 340.02h1.9M720.52 339.82l1.5.2M719.32 339.32l1.2.5M718.22 338.62l1.1.7M717.32 337.72l.9.9M716.62 336.62l.7 1.1M716.02 335.42l.6 1.2M715.72 334.12l.3 1.3M718.12 332.72l.3-2.6M718.32 334.62l-.2-1.9M719.12 336.22l-.8-1.6M720.42 337.22l-1.3-1M722.22 337.72l-1.8-.5M723.52 337.62l-1.3.1M725.62 336.32l-1 .8M726.42 335.22l-.8 1.1M727.52 332.82l-1.1 2.4M727.92 330.22l-.4 2.6M727.62 328.32l.3 1.9M726.92 326.72l.7 1.6M725.62 325.72l1.3 1M723.92 325.12l1.7.6M721.32 325.72l1.2-.5M720.32 326.52l1-.8M719.52 327.52l.8-1M718.92 328.72l.6-1.2M718.42 330.12l.5-1.4M723.62 322.42l-1.4.4M725.22 339.52l-1.3.5M734.92 324.02l-3.1 16.4M737.32 324.12l-2.4-.1M736.52 327.72l.8-3.6M736.62 327.72h-.1M740.32 324.32l-1.5.7M742.12 324.12l-1.8.2M742.52 324.12h-.4M743.02 324.22l-.5-.1M742.42 327.12l.6-2.9M742.02 327.02l.4.1M741.72 327.02h.3M740.92 327.02h.8M739.22 327.42l1-.4M738.32 327.92l.9-.5M736.92 329.52l1.4-1.6M736.12 331.32l.8-1.8M735.72 333.32l.4-2M734.22 340.62l1.5-7.3M731.82 340.42l2.4.2M736.32 323.52l-1.4.5M738.62 323.72l-1.3.4M736.62 327.62l-.1.1M741.72 323.82l-1.4.5M744.42 323.82l-1.4.4M743.82 326.72l-1.4.4M735.62 340.22l-1.4.4M768.52 334.02l2.6-13.6M768.02 336.52l.5-2.5M767.52 338.42l.5-1.9M766.92 339.62l.6-1.2M766.12 340.72l.8-1.1M764.22 342.22l1.9-1.5M761.92 343.02l2.3-.8M759.32 343.12l2.6-.1M757.22 342.72l2.1.4M755.42 342.12l1.8.6M753.92 341.22l1.5.9M752.82 340.02l1.1 1.2M752.02 338.52l.8 1.5M751.52 336.82l.5 1.7M751.52 334.72v2.1M751.72 332.52l-.2 2.2M754.32 319.12l-2.6 13.4M757.12 319.32l-2.8-.2M754.42 333.42l2.7-14.1M754.12 335.02l.3-1.6M754.22 336.42l-.1-1.4M754.42 337.62l-.2-1.2M755.02 338.52l-.6-.9M755.72 339.32l-.7-.8M756.72 339.92l-1-.6M757.92 340.32l-1.2-.4M759.32 340.52l-1.4-.2M760.92 340.52h-1.6M762.12 340.22l-1.2.3M763.92 338.92l-.8.8M765.02 336.72l-1.1 2.2M765.72 333.82l-.7 2.9M768.42 320.22l-2.7 13.6M771.12 320.42l-2.7-.2M772.52 319.92l-1.4.5M763.32 342.52l-1.4.5M755.72 318.72l-1.4.4M758.52 318.92l-1.4.4M769.82 319.72l-1.4.5M781.42 332.52l2.5.1M781.22 331.22l.2 1.3M780.52 330.22l.7 1M779.52 329.62l1 .6M778.22 329.32l1.3.3M776.12 329.62l1-.3M775.32 330.22l.8-.6M775.02 331.22l.3-1M775.32 332.22l-.3-1M776.32 333.12l-1-.9M777.62 333.92l-1.3-.8M779.02 334.62l-1.4-.7M780.52 335.52l-1.5-.9M781.82 336.52l-1.3-1M782.72 337.92l-.9-1.4M783.02 339.62l-.3-1.7M782.92 340.92l.1-1.3M782.52 341.92l.4-1M781.82 342.82l.7-.9M781.02 343.42l.8-.6M779.02 344.22l2-.8M776.82 344.32l2.2-.1M774.42 343.82l2.4.5M773.42 343.32l1 .5M772.52 342.72l.9.6M771.82 341.92l.7.8M771.22 340.92l.6 1M770.92 339.72l.3 1.2M770.72 338.22l.2 1.5M773.22 338.42l-2.5-.2M773.42 339.92l-.2-1.5M774.32 341.02l-.9-1.1M775.62 341.62l-1.3-.6M777.12 341.92l-1.5-.3M778.32 341.82l-1.2.1M779.42 341.52l-1.1.3M780.52 339.62l-.3 1.2M780.22 338.52l.3 1.1M779.32 337.72l.9.8M778.02 336.92l1.3.8M776.52 336.12l1.5.8M775.12 335.32l1.4.8M773.82 334.32l1.3 1M772.92 333.02l.9 1.3M772.52 331.32l.4 1.7M772.62 330.22l-.1 1.1M773.02 329.32l-.4.9M774.32 327.82l-1.3 1.5M776.12 327.12l-1.8.7M778.12 326.92l-2 .2M780.22 327.32l-2.1-.4M782.12 328.42l-1.9-1.1M782.82 329.22l-.7-.8M783.42 330.12l-.6-.9M783.72 331.32l-.3-1.2M783.92 332.62l-.2-1.3M785.32 332.22l-1.4.4M776.72 329.82l-1.4.4M776.42 330.82l-1.4.4M776.72 331.82l-1.4.4M780.42 343.72l-1.4.5M772.12 337.72l-1.4.5M774.62 337.92l-1.4.5M774.82 339.52l-1.4.4M777.52 326.62l-1.4.5M787.92 338.72v-1.5M788.22 340.42l-.3-1.7M789.12 341.82l-.9-1.4M790.32 342.62l-1.2-.8M791.82 343.02l-1.5-.4M793.32 342.92l-1.5.1M795.52 341.52l-1 .9M796.12 340.22l-.6 1.3M798.62 340.32l-2.5-.1M798.32 341.62l.3-1.3M797.72 342.72l.6-1.1M796.12 344.32l1.6-1.6M794.12 345.22l2-.9M791.82 345.42l2.3-.2M790.12 345.12l1.7.3M788.72 344.52l1.4.6M787.52 343.72l1.2.8M786.72 342.82l.8.9M786.12 341.72l.6 1.1M785.62 340.52l.5 1.2M785.42 338.22l.2 2.3M785.52 335.92l-.1 2.3M786.02 333.92l-.5 2M786.72 332.12l-.7 1.8M787.72 330.62l-1 1.5M788.92 329.42l-1.2 1.2M790.22 328.62l-1.3.8M791.62 328.12l-1.4.5M793.22 328.12h-1.6M794.72 328.32l-1.5-.2M796.12 328.82l-1.4-.5M797.22 329.52l-1.1-.7M798.02 330.42l-.8-.9M798.72 331.52l-.7-1.1M799.22 332.82l-.5-1.3M799.52 334.32l-.3-1.5M799.62 336.02l-.1-1.7M799.52 337.22l.1-1.2M799.32 338.12l.2-.9M797.12 335.52l-8.8-.7M796.42 332.22l.6 1.6M795.32 331.12l1.1 1.1M794.52 330.72l.8.3M793.52 330.52l1 .2M790.12 331.62l1.5-.9M789.02 333.12l1.1-1.5M788.32 334.82l.7-1.7M800.72 337.72l-1.4.4M797.52 339.72l-1.4.5M800.02 339.92l-1.4.4M795.52 344.82l-1.4.4M793.02 327.72l-1.4.4M789.72 334.42l-1.4.4M803.82 329.32l-3.1 16.4M806.22 329.52l-2.4-.2M805.42 333.02l.8-3.6M805.52 333.02h-.1M809.22 329.62l-1.5.7M811.02 329.42l-1.8.2M811.42 329.42h-.4M811.92 329.52l-.5-.1M811.32 332.42l.6-2.9M810.92 332.32l.4.1M810.62 332.32h.3M809.82 332.32h.8M808.12 332.72l1-.3M807.22 333.22l.9-.5M805.92 334.82l1.3-1.6M805.12 336.72l.8-1.9M804.62 338.62l.5-1.9M803.12 345.92l1.5-7.3M800.72 345.72l2.4.2M805.22 328.82l-1.4.5M807.62 329.02l-1.4.4M805.52 333.02h-.1M810.62 329.12l-1.4.5M813.32 329.12l-1.4.4M812.72 332.02l-1.4.4M804.52 345.52l-1.4.4M821.02 335.52l2.5.2M820.82 334.22l.2 1.3M820.12 333.32l.7.9M819.12 332.72l1 .6M817.82 332.42l1.3.3M815.62 332.72l1.1-.3M814.92 333.22l.7-.5M814.62 334.32l.3-1.1M814.92 335.32l-.3-1M815.92 336.12l-1-.8M817.12 336.92l-1.2-.8M818.62 337.62l-1.5-.7M820.12 338.52l-1.5-.9M821.32 339.62l-1.2-1.1M822.32 340.92l-1-1.3M822.62 342.62l-.3-1.7M822.52 343.92l.1-1.3M822.12 345.02l.4-1.1M821.42 345.82l.7-.8M820.62 346.52l.8-.7M818.62 347.22l2-.7M816.42 347.32l2.2-.1M814.02 346.82l2.4.5M813.02 346.42l1 .4M812.12 345.82l.9.6M811.42 345.02l.7.8M810.82 343.92l.6 1.1M810.42 342.72l.4 1.2M810.32 341.22l.1 1.5M812.82 341.42l-2.5-.2M813.02 343.02l-.2-1.6M813.92 344.02l-.9-1M815.22 344.72l-1.3-.7M816.72 344.92l-1.6-.2M817.92 344.92h-1.2M819.02 344.62l-1.1.3M820.12 342.62l-.3 1.2M819.82 341.62l.3 1M818.92 340.72l.9.9M817.62 339.92l1.3.8M816.12 339.22l1.5.7M814.72 338.32l1.4.9M813.42 337.32l1.3 1M812.52 336.02l.9 1.3M812.12 334.32l.4 1.7M812.22 333.22l-.1 1.1M812.62 332.32l-.4.9M813.92 330.92l-1.3 1.4M815.72 330.12l-1.8.8M817.82 330.02l-2.1.1M819.82 330.42l-2-.4M821.72 331.42l-1.9-1M822.42 332.22l-.7-.8M823.02 333.22l-.6-1M823.32 334.32l-.3-1.1M823.52 335.72l-.2-1.4M824.92 335.32l-1.4.4M816.32 332.82l-1.4.4M816.02 333.82l-1.4.5M816.32 334.92l-1.4.4M820.02 346.82l-1.4.4M811.72 340.82l-1.4.4M814.22 341.02l-1.4.4M814.42 342.52l-1.4.5M817.12 329.72l-1.4.4M681.02 293.73l.6-2.5-11.8-.91 1.4-7.39M682.22 283.23l.4-2.5-10.8-.91 1.3-6.69M684.82 273.52l.5-2.5-14.4-1.2M687.62 291.62l3.3-17.1M694.42 291.93l-2 .09-4.8-.39M697.12 293.93l2-1 1.7-1.5 1.4-2 1-2.3.6-2.81.2-3.09-.1-1.91-.4-1.8-.6-1.5-.9-1.39-1.1-1.11-1.3-.89-1.7-.5-1.8-.31-7.3-.59M723.52 287.73l2.6-13.6-2.8-.2M716.12 294.23h-1.8l-1.4-.21-1.2-.39-1-.61-.7-.7-.6-1-.2-1.19-.1-1.4.3-1.5 2.7-14.21-2.8-.2M716.92 296.73l2.3-.8 1.9-1.5.8-1 .6-1.3.5-1.81.5-2.59M745.32 290.92l-2.8-.2M737.72 295.82l-1.7.11-1.4-.2-1.3-.5-1.1-.8-.8-.91-.7-1.2-.5-1.3-.3-3.09.1-2.11.4-2 .7-1.89.9-1.7 1.3-1.3 1.4-1.11.6-.19M746.52 283.13l-.1-1.9-.5-1.6-.7-1.5-1-1.2-1.1-.91-1.4-.7-1.5-.5-1.6-.3-2.6.11-2.2.69M739.52 298.23l1.5-.6 1.2-.9 1.1-1.1.8-1.4.7-1.5.5-1.8M748.62 298.92l3.4-6.1M764.92 300.23l-3.7-23.41-3.1-.19M753.52 289.82l4.5-8.4M759.32 290.22l-5.8-.4M785.32 281.23l.5-2.5-16.9-1.3M774.32 300.92l3.8-19.7M786.52 301.82l4.4-22.69-2.8-.2M795.02 292.93l.1-2.11.4-2 .7-1.89.9-1.61 1.3-1.39 1.5-1.11.5-.19M802.92 300.82l-1.7.11-1.5-.2-1.3-.5-1-.8-.9-.91-.7-1.2-.4-1.3-.4-3.09" class="cls-5"/><path d="m805.92 302.73 1.9-1.21 1.6-1.59 1.3-2 .9-2.3.6-2.5.2-2.7-.1-2.11-.5-1.89-.7-1.8-1-1.61-1.3-1.29-1.5-1.1-1.7-.7-1.9-.41-2.6.11-2.2.69M816.22 304.12l3.1-16M830.22 305.23l4.5-22.71-2.7-.2M827.62 298.93l-6.7-17.5-2.9-.2M845.82 306.42l2.7-13.5M851.52 292.63l.4-2.4-2.9-.3.4-1.41.4-1.39.6-.7M853.12 286.23l.5-2.3-1.1-.3-1-.11h-1.4M845.32 289.72l-1.3-.1M860.12 307.63l1.7-.5 1.4-.9 1.2-1.21.9-1.5.7-1.79.4-1.91.2-2-.1-1.59-.3-1.41-.5-1.19-.7-1.11-.9-.79-1.1-.6-1.3-.5-1.4-.2-1.9.09M854.32 300.43l.4-2.7.4-1.3.7-1.2.8-1 1-.8.2-.11M859.32 305.32h-.8l-1.8-.39-1.3-1.11-.8-1.5-.3-1.89M870.52 308.32l1.4-7.3.5-2 .8-1.79 1.4-1.6.7-.5M878.62 294.82l.6-2.89-.4-.11h-.5l-1.7.2M873.12 293.73l.4-1.91-2.3-.19M889.02 309.72l1.9-9.8M900.72 300.13l.5-2.61-9.7-.7 1.3-6.69M903.92 290.43l.5-2.61-13.8-1M914.92 311.73l3.2-16.41-2.5-.19M909.22 309.23h-.8l-1-.21-.8-.5-.6-.79-.2-1v-.6l.1-.7.1-.7.2-.6 1.9-9.61-2.5-.2M910.62 311.02l.8-.5M925.62 295.82l1-4.8-2.5-.2M921.92 295.62l-1.3-.1M925.72 312.63l.4-2.5-.7.1-.7.09-1-.39-.4-.3-.1-.61.1-.5v-.59l1.8-9.11M928.22 298.52l.5-2.39-3.1-.31M940.42 313.73l3.2-16.5-2.4-.21M934.82 311.13l-.8.1-1.1-.3-.8-.41-.6-.79-.2-1.1.1-.5v-.7l.2-.7.1-.6 1.9-9.61-2.5-.2M936.12 313.02l.8-.5M947.12 314.23l1.4-7.3.4-2 .8-1.8 1.4-1.61.8-.5M955.22 300.73l.6-2.91-.5-.09h-.4l-1.8.2M949.72 299.63l.4-1.9-2.4-.21M968.72 308.43l.2-1 .1-1.2-.1-1.71-.3-1.5-.5-1.29-.7-1.1-.8-.9-1.2-.71-1.3-.5-1.5-.2-1.6.11M963.52 315.52l2-.89 1.6-1.61.5-1.09.4-1.3-2.5-.2M962.32 313.23l-1.1.09-1.5-.39-1.3-.91-.8-1.29-.3-1.8v-.91M965.12 305.63l-7.4-.5.7-1.81 1.1-1.39.9-.61M669.52 270.32l-4.4 22.7M683.92 271.42l-14.4-1.1M683.42 273.92l.5-2.5M670.42 280.32l1.4-7.3M681.22 281.12l-10.8-.8M680.82 283.72l.4-2.6M668.42 290.72l1.5-7.9M680.22 291.62l-11.8-.9M679.62 294.12l.6-2.5M665.12 293.02l14.5 1.1M670.92 269.82l-1.4.5M685.32 271.02l-1.4.4M684.82 273.52l-1.4.4M671.82 279.82l-1.4.5M682.62 280.72l-1.4.4M682.22 283.22l-1.4.5M669.82 290.32l-1.4.4M681.62 291.22l-1.4.4M681.02 293.72l-1.4.4M687.42 271.72l-4.4 22.7M694.72 272.22l-7.3-.5M696.62 272.52l-1.9-.3M698.12 273.12l-1.5-.6M699.52 273.92l-1.4-.8M700.62 275.02l-1.1-1.1M701.52 276.42l-.9-1.4M702.12 278.02l-.6-1.6M702.52 279.72l-.4-1.7M702.62 281.72l-.1-2M702.42 284.82l.2-3.1M701.82 287.52l.6-2.7M700.82 289.92l1-2.4M699.42 291.82l1.4-1.9M697.72 293.32l1.7-1.5M695.82 294.42l1.9-1.1M693.52 295.02l2.3-.6M691.02 295.02h2.5M683.02 294.42l8 .6M686.22 292.12l3.4-17.7M691.02 292.42l-4.8-.3M693.12 292.32l-2.1.1M696.42 290.72l-1.5 1M697.72 289.42l-1.3 1.3M698.62 287.72l-.9 1.7M699.32 285.92l-.7 1.8M699.72 283.82l-.4 2.1M699.92 281.82l-.2 2M699.62 279.32l.3 2.5M699.32 278.12l.3 1.2M698.72 277.12l.6 1M697.92 276.22l.8.9M696.92 275.52l1 .7M695.72 275.02l1.2.5M694.12 274.82l1.6.2M688.82 271.22l-1.4.5M697.12 293.92l-1.3.5M687.62 291.62l-1.4.5M722.12 288.22l2.6-13.7M721.62 290.72l.5-2.5M721.12 292.52l.5-1.8M720.52 293.82l.6-1.3M719.72 294.92l.8-1.1M717.82 296.42l1.9-1.5M715.52 297.12l2.3-.7M712.92 297.22l2.6-.1M710.82 296.92l2.1.3M708.92 296.32l1.9.6M707.52 295.42l1.4.9M706.32 294.12l1.2 1.3M705.62 292.72l.7 1.4M705.12 290.92l.5 1.8M705.12 288.92v2M705.32 286.62l-.2 2.3M707.92 273.22l-2.6 13.4M710.72 273.52l-2.8-.3M708.02 287.62l2.7-14.1M707.82 289.22l.2-1.6M707.82 290.52v-1.3M708.02 291.72l-.2-1.2M708.62 292.72l-.6-1M709.32 293.52l-.7-.8M710.32 294.12l-1-.6M711.52 294.52l-1.2-.4M712.92 294.72l-1.4-.2M714.52 294.72h-1.6M715.72 294.42l-1.2.3M717.52 293.02l-.8.8M718.62 290.82l-1.1 2.2M719.32 288.02l-.7 2.8M722.02 274.32l-2.7 13.7M724.72 274.52l-2.7-.2M726.12 274.12l-1.4.4M716.92 296.72l-1.4.4M709.32 272.82l-1.4.4M712.12 273.02l-1.4.5M723.32 273.92l-1.3.4M743.92 291.32l-2.8-.2M743.42 293.12l.5-1.8M742.72 294.72l.7-1.6M741.92 296.02l.8-1.3M740.82 297.22l1.1-1.2M739.62 298.02l1.2-.8M738.12 298.62l1.5-.6M736.52 298.92l1.6-.3M734.62 298.92h1.9M732.62 298.62l2 .3M730.82 297.92l1.8.7M729.32 297.02l1.5.9M728.02 295.82l1.3 1.2M727.02 294.22l1 1.6M726.32 292.42l.7 1.8M725.82 290.42l.5 2M725.72 288.12l.1 2.3M725.92 285.42l-.2 2.7M726.52 282.82l-.6 2.6M727.42 280.52l-.9 2.3M728.72 278.52l-1.3 2M730.42 276.92l-1.7 1.6M732.42 275.72l-2 1.2M734.62 275.02l-2.2.7M737.22 274.92l-2.6.1M738.82 275.22l-1.6-.3M740.32 275.72l-1.5-.5M741.72 276.42l-1.4-.7M742.82 277.42l-1.1-1M743.82 278.62l-1-1.2M744.52 280.02l-.7-1.4M745.02 281.72l-.5-1.7M745.12 283.52l-.1-1.8M742.42 283.32l2.7.2M742.02 280.92l.4 2.4M741.52 280.02l.5.9M740.92 279.22l.6.8M739.32 278.02l1.6 1.2M737.22 277.52l2.1.5M733.32 278.32l1.8-.7M731.92 279.32l1.4-1M730.62 280.72l1.3-1.4M729.72 282.32l.9-1.6M729.02 284.22l.7-1.9M728.62 286.32l.4-2.1M728.52 288.32l.1-2M728.82 291.42l-.3-3.1M729.32 292.82l-.4-1.4M730.02 293.92l-.7-1.1M730.92 294.82l-.9-.9M731.92 295.62l-1-.8M733.22 296.12l-1.3-.5M734.62 296.32l-1.4-.2M737.02 296.22l-2.4.1M740.22 293.52l-1.4 1.7M741.12 291.12l-.9 2.4M745.32 290.92l-1.4.4M742.52 290.72l-1.4.4M739.52 298.22l-1.4.4M733.82 275.32l-1.4.4M746.52 283.12l-1.4.4M756.72 277.02l-12.6 22.1M759.82 277.22l-3.1-.2M763.62 300.62l-3.8-23.4M760.72 300.42l2.9.2M759.72 293.42l1 7M747.22 299.42l3.7-6.7M744.12 299.12l3.1.3M752.12 290.22l5.6-10.4M759.42 290.82l-7.3-.6M758.12 276.62l-1.4.4M761.22 276.82l-1.4.4M764.92 300.22l-1.3.4M748.62 298.92l-1.4.5M753.52 289.82l-1.4.4M783.92 281.72l.5-2.6M772.92 301.32l4-20.2M770.12 301.12l2.8.2M774.12 280.92l-4 20.2M767.02 280.42l7.1.5M767.52 277.82l-.5 2.6M784.42 279.12l-16.9-1.3M785.32 281.22l-1.4.5M785.82 278.72l-1.4.4M774.32 300.92l-1.4.4M768.92 277.42l-1.4.4M786.72 279.32l-4.4 22.8M789.52 279.52l-2.8-.2M785.12 302.32l4.4-22.8M782.32 302.12l2.8.2M788.12 278.92l-1.4.4M790.92 279.12l-1.4.4M786.52 301.82l-1.4.5M790.82 293.12l.1 2.3M791.02 290.42l-.2 2.7M791.62 287.92l-.6 2.5M792.62 285.52l-1 2.4M793.92 283.62l-1.3 1.9M795.52 281.92l-1.6 1.7M797.52 280.72l-2 1.2M799.82 280.12l-2.3.6M802.32 280.02l-2.5.1M804.22 280.32l-1.9-.3M805.92 281.02l-1.7-.7M807.42 282.12l-1.5-1.1M808.72 283.42l-1.3-1.3M809.72 285.02l-1-1.6M810.42 286.82l-.7-1.8M810.92 288.82l-.5-2M811.02 290.92l-.1-2.1M810.82 293.52l.2-2.6M810.32 296.02l.5-2.5M809.32 298.32l1-2.3M808.02 300.32l1.3-2M806.42 301.92l1.6-1.6M804.52 303.12l1.9-1.2M802.32 303.82l2.2-.7M799.82 303.92l2.5-.1M797.82 303.62l2 .3M796.02 303.02l1.8.6M794.42 302.02l1.6 1M793.12 300.82l1.3 1.2M792.12 299.22l1 1.6M791.42 297.52l.7 1.7M790.92 295.42l.5 2.1M793.62 293.42l.1-2.1M794.02 296.52l-.4-3.1M794.42 297.82l-.4-1.3M795.12 298.92l-.7-1.1M796.02 299.92l-.9-1M797.02 300.62l-1-.7M798.32 301.12l-1.3-.5M799.82 301.42l-1.5-.3M801.72 301.32l-1.9.1M804.92 299.62l-1.5 1M806.12 298.22l-1.2 1.4M807.02 296.62l-.9 1.6M807.72 294.72l-.7 1.9M808.12 292.72l-.4 2M808.32 290.62l-.2 2.1M807.92 287.62l.4 3M807.42 286.32l.5 1.3M806.72 285.12l.7 1.2M805.92 284.12l.8 1M804.92 283.32l1 .8M803.72 282.82l1.2.5M802.32 282.62l1.4.2M798.52 283.32l1.7-.7M797.02 284.32l1.5-1M795.82 285.72l1.2-1.4M794.82 287.42l1-1.7M794.12 289.22l.7-1.8M793.72 291.32l.4-2.1M798.92 280.32l-1.4.4M805.92 302.72l-1.4.4M816.62 281.62l-4.5 22.8M819.62 281.82l-3-.2M827.02 301.52l-7.4-19.7M827.12 301.52h-.1M833.32 282.92l-2.7-.2M828.92 305.62l4.4-22.7M825.92 305.42l3 .2M814.82 304.62l3.6-18.7M812.12 304.42l2.7.2M818.02 281.22l-1.4.4M820.92 281.42l-1.3.4M827.12 301.52h-.1M832.02 282.32l-1.4.4M834.72 282.52l-1.4.4M830.32 305.22l-1.4.4M816.22 304.12l-1.4.5M844.72 292.62l-2.8 14.1M842.22 292.42l2.5.2M842.62 290.02l-.4 2.4M845.22 290.22l-2.6-.2M846.42 285.72l-.7 2.1M847.02 284.92l-.6.8M847.72 284.32l-.7.6M848.72 284.02l-1 .3M850.12 283.92l-1.4.1M851.12 284.12l-1-.2M852.12 284.42l-1-.3M851.72 286.72l.4-2.3M851.12 286.52l.6.2M850.62 286.42l.5.1M849.22 286.72l.6-.3M848.42 287.62l.8-.9M848.02 288.92l.4-1.3M847.62 290.42l.4-1.5M850.52 290.62l-2.9-.2M850.12 293.02l.4-2.4M844.42 306.82l2.8-14M841.92 306.72l2.5.1M844.02 289.62l-1.4.4M850.12 283.52l-1.4.5M853.62 283.92l-1.5.5M853.12 286.22l-1.4.5M849.02 289.92l-1.4.5M851.92 290.22l-1.4.4M851.52 292.62l-1.4.4M845.82 306.42l-1.4.4M850.42 300.72l.1 1.5M850.62 298.72l-.2 2M851.02 296.82l-.4 1.9M851.72 295.12l-.7 1.7M852.72 293.62l-1 1.5M853.92 292.42l-1.2 1.2M855.32 291.52l-1.4.9M857.02 290.92l-1.7.6M858.92 290.92h-1.9M860.32 291.12l-1.4-.2M861.62 291.52l-1.3-.4M862.72 292.12l-1.1-.6M863.62 293.02l-.9-.9M864.32 294.02l-.7-1M864.82 295.22l-.5-1.2M865.12 296.72l-.3-1.5M865.22 298.32l-.1-1.6M865.12 300.32l.1-2M864.62 302.22l.5-1.9M863.92 303.92l.7-1.7M863.02 305.42l.9-1.5M861.82 306.62l1.2-1.2M860.42 307.62l1.4-1M858.72 308.12l1.7-.5M856.82 308.22l1.9-.1M855.42 307.92l1.4.3M854.12 307.42l1.3.5M853.02 306.72l1.1.7M852.12 305.82l.9.9M851.42 304.82l.7 1M850.92 303.52l.5 1.3M850.52 302.22l.4 1.3M852.92 300.92l.4-2.7M853.22 302.82l-.3-1.9M854.02 304.32l-.8-1.5M855.32 305.32l-1.3-1M857.12 305.82l-1.8-.5M858.42 305.72l-1.3.1M860.52 304.42l-1 .8M861.32 303.42l-.8 1M862.32 300.92l-1 2.5M862.72 298.32l-.4 2.6M862.52 296.42l.2 1.9M861.72 294.92l.8 1.5M860.52 293.82l1.2 1.1M858.72 293.32l1.8.5M856.22 293.92l1.2-.5M855.22 294.72l1-.8M854.42 295.72l.8-1M853.72 296.92l.7-1.2M853.32 298.22l.4-1.3M858.42 290.52l-1.4.4M860.12 307.62l-1.4.5M869.82 292.12l-3.2 16.5M872.12 292.32l-2.3-.2M871.42 295.82l.7-3.5M875.22 292.42l-1.5.7M876.92 292.32l-1.7.1M877.42 292.32l-.5-.1M877.82 292.32h-.4M877.22 295.22l.6-2.9M876.92 295.22h.3M876.52 295.12l.4.1M875.82 295.12h.7M874.12 295.52l.9-.3M873.22 296.02l.9-.5M871.82 297.62l1.4-1.6M871.02 299.52l.8-1.9M870.52 301.52l.5-2M869.12 308.72l1.4-7.2M866.62 308.62l2.5.1M871.22 291.62l-1.4.5M873.52 291.82l-1.4.5M871.52 295.82h-.1M876.62 292.02l-1.4.4M879.22 291.92l-1.4.4M878.62 294.82l-1.4.4M870.52 308.32l-1.4.4M889.22 287.22l-4.3 22.8M903.02 288.32l-13.8-1.1M902.52 290.82l.5-2.5M890.12 297.22l1.4-7.2M899.82 298.02l-9.7-.8M899.32 300.52l.5-2.5M887.62 310.22l2-10.4M884.92 310.02l2.7.2M890.62 286.82l-1.4.4M904.42 287.82l-1.4.5M903.92 290.42l-1.4.4M891.52 296.82l-1.4.4M901.22 297.52l-1.4.5M900.72 300.12l-1.4.4M889.02 309.72l-1.4.5M913.52 312.22l3.2-16.5M911.12 312.02l2.4.2M911.52 309.52h.1M910.52 310.72l1-1.2M909.22 311.52l1.3-.8M907.72 311.92l1.5-.4M906.12 312.02l1.6-.1M904.32 311.62l1.8.4M903.02 310.72l1.3.9M902.22 309.32l.8 1.4M901.92 307.42l.3 1.9M902.02 306.02l-.1 1.4M902.42 304.12l-.4 1.9M904.22 294.72l-1.8 9.4M906.72 294.92l-2.5-.2M904.82 304.52l1.9-9.6M904.62 305.12l.2-.6M904.52 305.82l.1-.7M904.42 306.52l.1-.7M904.42 307.12v-.6M904.62 308.22l-.2-1.1M905.22 308.92l-.6-.7M906.02 309.42l-.8-.5M907.12 309.62l-1.1-.2M908.12 309.62h-1M909.02 309.32l-.9.3M911.82 306.62l-1.2 1.6M912.52 304.62l-.7 2M914.22 295.52l-1.7 9.1M916.72 295.72l-2.5-.2M914.92 311.72l-1.4.5M918.12 295.32l-1.4.4M910.62 311.02l-1.4.5M905.62 294.32l-1.4.4M908.12 294.52l-1.4.4M915.62 295.12l-1.4.4M924.32 296.32l.9-4.9M927.32 296.52l-3-.2M926.82 298.92l.5-2.4M921.92 308.42l1.9-9.7M921.92 308.92v-.5M921.82 309.42l.1-.5M921.92 310.02l-.1-.6M922.32 310.42l-.4-.4M923.32 310.72l-1-.3M924.12 310.72h-.8M924.82 310.52l-.7.2M924.32 313.02l.5-2.5M923.42 313.02h.9M922.62 313.02h.8M921.22 312.82l1.4.2M920.22 312.32l1 .5M919.42 311.42l.8.9M919.22 310.12l.2 1.3M919.22 309.42v.7M919.32 308.72l-.1.7M921.32 298.52l-2 10.2M918.82 298.32l2.5.2M919.22 295.92l-.4 2.4M921.82 296.12l-2.6-.2M925.22 291.42l-2.5-.2M925.62 295.82l-1.3.5M926.62 291.02l-1.4.4M928.72 296.12l-1.4.4M928.22 298.52l-1.4.4M923.32 309.62l-1.4.4M923.72 309.92l-1.4.5M926.12 310.12l-1.3.4M925.72 312.62l-1.4.4M920.62 295.52l-1.4.4M924.12 290.82l-1.4.4M939.12 314.12l3.2-16.4M936.72 314.02l2.4.1M936.02 312.72l1.1-1.2M934.72 313.42l1.3-.7M933.22 313.92l1.5-.5M931.72 313.92h1.5M929.82 313.52l1.9.4M928.52 312.72l1.3.8M927.72 311.32l.8 1.4M927.42 309.32l.3 2M927.62 307.92l-.2 1.4M927.92 306.12l-.3 1.8M929.72 296.72l-1.8 9.4M932.22 296.92l-2.5-.2M930.32 306.52l1.9-9.6M930.22 307.12l.1-.6M930.12 307.82l.1-.7M930.02 308.52l.1-.7M929.92 309.12l.1-.6M930.12 310.12l-.2-1M930.72 310.92l-.6-.8M931.62 311.42l-.9-.5M932.62 311.62l-1-.2M933.62 311.62h-1M934.52 311.32l-.9.3M937.32 308.62l-1.2 1.6M938.02 306.62l-.7 2M939.82 297.52l-1.8 9.1M942.32 297.72l-2.5-.2M940.42 313.72l-1.3.4M943.62 297.22l-1.3.5M936.12 313.02l-1.4.4M931.12 296.32l-1.4.4M933.62 296.52l-1.4.4M941.22 297.02l-1.4.5M946.32 298.02l-3.1 16.5M948.72 298.22l-2.4-.2M947.92 301.72l.8-3.5M948.02 301.72h-.1M951.72 298.32l-1.5.7M953.52 298.22l-1.8.1M953.92 298.22h-.4M954.42 298.22h-.5M953.82 301.12l.6-2.9M953.42 301.12h.4M953.12 301.02l.3.1M952.32 301.02h.8M950.62 301.42l1-.3M949.72 301.92l.9-.5M948.32 303.52l1.4-1.6M947.62 305.42l.7-1.9M947.12 307.42l.5-2M945.72 314.62l1.4-7.2M943.22 314.52l2.5.1M947.72 297.62l-1.4.4M950.12 297.72l-1.4.5M948.02 301.72h-.1M953.12 297.92l-1.4.4M955.82 297.82l-1.4.4M955.22 300.72l-1.4.4M947.12 314.22l-1.5.4M955.92 309.42v-1.5M956.22 311.12l-.3-1.7M957.12 312.42l-.9-1.3M958.32 313.32l-1.2-.9M959.82 313.72l-1.5-.4M961.32 313.62l-1.5.1M963.52 312.22l-1 .9M964.12 310.82l-.6 1.4M966.62 311.02l-2.5-.2M966.32 312.32l.3-1.3M965.72 313.42l.6-1.1M964.12 315.02l1.6-1.6M962.12 315.92l2-.9M959.82 316.12l2.3-.2M958.12 315.82l1.7.3M956.72 315.22l1.4.6M955.52 314.42l1.2.8M954.72 313.52l.8.9M954.12 312.42l.6 1.1M953.72 311.22l.4 1.2M953.42 308.92l.3 2.3M953.52 306.62l-.1 2.3M954.02 304.62l-.5 2M954.72 302.82l-.7 1.8M955.72 301.32l-1 1.5M956.92 300.12l-1.2 1.2M958.22 299.32l-1.3.8M959.62 298.82l-1.4.5M961.22 298.72l-1.6.1M962.72 299.02l-1.5-.3M964.12 299.42l-1.4-.4M965.22 300.12l-1.1-.7M966.02 301.12l-.8-1M966.72 302.22l-.7-1.1M967.22 303.52l-.5-1.3M967.52 305.02l-.3-1.5M967.62 306.62l-.1-1.6M967.52 307.92l.1-1.3M967.32 308.82l.2-.9M965.12 306.22l-8.8-.7M964.42 302.92l.6 1.5M963.32 301.72l1.1 1.2M962.52 301.42l.8.3M961.52 301.22l1 .2M958.12 302.32l1.5-.9M957.02 303.72l1.1-1.4M956.32 305.52l.7-1.8M968.72 308.42l-1.4.4M965.52 310.42l-1.4.4M968.02 310.62l-1.4.4M963.52 315.52l-1.4.4M961.02 298.42l-1.4.4M957.72 305.12l-1.4.4M601.92 326.82l-.6.2-1.2.41M596.62 309.52l1.3.11 3.1.3M617.32 311.13l1.3.1 10.3.79M615.42 320.93l1.3.09 9.6.71M637.12 312.32h.1l1.5-.09M640.62 330.32l-.6.31-1 .39M671.22 333.52v.71l.1 1.59M665.42 314.52h.2l1.8-.09M669.02 332.32l-.7.41-.5.2M695.72 314.62l-3 16.1M683.62 317.73l.8 2.2 6.6 17.39M710.92 319.63l-.5 1.89-.1.61M715.62 318.32h.1M712.32 324.63l1.3.1 1.7.2M724.62 337.13l-.2.1-.9.4M722.52 325.23h.4l1-.1M737.62 326.23l-1 1.4v.1M738.82 325.02l-.5.5-.7.71M740.52 327.02h.4M763.12 339.73l-.6.29-.4.21M777.12 329.32h1.1M780.22 340.82l-.7.61-.1.09M787.92 337.23l1.4.09 10 .81M794.52 342.43l-.2.09-1 .41M797.02 333.82l.1 1.2v.5M791.62 330.73l.8-.1 1.1-.11M806.52 331.52l-1 1.5M807.72 330.32l-.5.5-.7.7M809.42 332.32h.4M816.72 332.43h1.1M819.82 343.82l-.7.7h-.1M671.82 273.02l1.3.11 10.3.8M669.92 282.82l1.3.11 9.6.8M694.92 291.73l-.5.2-1.3.39M689.62 274.43l1.3.09 3.2.3M716.72 293.82l-.6.41-.4.2M735.12 277.63h.2l1.9-.11M738.82 295.23l-1.1.59-.7.41M750.92 292.73l1.1.09 7.7.61M759.32 290.22l.1.6M776.92 281.13l1.2.1 5.8.5M803.42 300.63l-.5.19-1.2.5M800.22 282.63h2.1M830.62 282.72l-3 16.2M818.42 285.93l.9 2.2 6.6 17.3M845.72 287.82l-.4 1.91-.1.5M850.42 286.42h.2M847.22 292.82l1.3.11 1.6.09" class="cls-5"/><path d="m859.52 305.23-.2.09-.9.41M857.42 293.43l.4-.11h.9M872.42 294.32l-.9 1.5h-.1M873.72 293.13l-.6.6-.7.59M875.32 295.12h.5M891.52 290.02l1.3.11 9.7.69M889.62 299.82l1.3.11 8.4.59M911.42 310.52l-.3 1.5M910.62 308.22l-1.4 1M923.82 298.73l1.3.09 1.7.11M922.72 291.23l-.8 4.4-.1.5M936.92 312.52l-.2 1.5M936.12 310.22l-1.3.9M949.02 300.23l-1 1.5M950.22 299.02l-.5.61-.7.6M951.92 301.02h.4M955.92 307.93l1.4.09 10 .8M962.52 313.13l-.2.1-1 .4M965.02 304.52l.1 1.11v.6M959.62 301.43l.8-.11 1.1-.09M692.72 330.73l-.4 2.7h-.1M714.92 318.32h.7M740.22 327.02H740.52M809.12 332.43l.1-.11h.2M757.82 279.82l.2 1.61 1.3 8.8M827.62 298.93l-.5 2.59M849.82 286.43h.6M875.02 295.23h.1l.2-.1M911.62 309.52l-.2.91v.09M909.22 309.23l-.1.09h-.1M937.12 311.52l-.1.91-.1.09M934.82 311.13l-.2.19h-.1M951.62 301.13h.1l.2-.11" class="cls-5"/><path d="m589.92 329.52-27.7-36.7h-12M825.92 305.43l43 49h12" class="cls-85"/><path d="m827.82 310.63-1.9-5.2 4.9 2.59z" style="fill:#3f3f3f"/><text class="cls-87" transform="translate(66.18 288.75)">2015 - 2016: Interaction Design for the whole process of DiDi Hitch, DiDi Chuxing Group</text><text class="cls-87" transform="translate(66.18 307.75)">2014 - 2015: Interaction Design for Weishi Mobile APP, Tencent Online Media Group</text><text class="cls-88" transform="translate(886.57 333.43)">2020: Paper published in 336th &quot;BAN ZHU REN&quot;, Beijing Academy of Educational Sciences</text><text class="cls-88" transform="translate(886.57 350.86)">2019 - 2020: Chinese teacher, Tsinghua University High School</text><text class="cls-88" transform="translate(886.57 368.3)">2021 - 2024: Chinese teacher, Beijing AIDI School</text><text class="cls-88" transform="translate(886.57 385.74)">2021 - 2022: Coursebook Compilation: &quot;FIRST LANGUAGE CHINESE (IGCSE 0509)&quot;</text><text class="cls-89" transform="translate(886.57 403.18)">2025 - Present: Chinese teacher, Harrow School Hengqin</text><text class="cls-89" transform="translate(886.57 420.61)">2025: Outstanding Instructor Award, Harrow Schools Huasheng Championships </text></svg>