<svg xmlns="http://www.w3.org/2000/svg" id="图层_1" style="enable-background:new 0 0 1437.3 647.7" viewBox="0 0 1437.3 647.7"><style>.st0{fill:#b7b7b7}.st1{fill:#7b7b7b}.st2{fill:#858585}.st3{fill:#757575}.st4{fill:#898989}.st5{fill:#9b9b9b}.st6{fill:#aaa}.st7{fill:#b5b5b5}.st8{fill:#bcbcbc}.st9{fill:#c1c1c1}.st10{fill:#c4c4c4}.st11{fill:silver}.st12{fill:#a9a9a9}.st13{fill:#9a9a9a}.st14{fill:#8c8c8c}.st15{fill:#fff}.st16{fill:#b6b6b6}.st17{fill:#c2c2c2}.st18{fill:#bbb}.st19{fill:#b0b0b0}.st20{fill:#a3a3a3}.st22{fill:#797979}.st23{fill:#7a7a7a}.st24{fill:#8f8f8f}.st26{fill:#afafaf}.st27{fill:#c3c3c3}.st29{fill:#989898}.st30{fill:#ababab}.st31{fill:#bebebe}.st32{fill:#a1a1a1}.st33{fill:#bababa}.st34{fill:#a8a8a8}.st36{fill:#6c6c6c}.st37{fill:#7e7e7e}.st38{fill:#8d8d8d}.st39{fill:#9d9d9d}.st40{fill:#adadad}.st41{fill:#bdbdbd}.st42{fill:#aeaeae}.st43{fill:#a2a2a2}.st44{fill:#929292}.st45{fill:gray}.st46{fill:#696969}.st47{fill:#c5c5c5}.st48{fill:#969696}.st49{fill:#8b8b8b}.st50{fill:#7c7c7c}.st53{fill:#b8b8b8}.st54{fill:#949494}.st55{fill:#959595}.st56{fill:#6b6b6b}.st57{fill:#8e8e8e}.st58{fill:#9f9f9f}.st59{fill:#acacac}.st60{fill:#bfbfbf}.st61{fill:#999}.st62{fill:#b9b9b9}.st63{fill:#a4a4a4}.st64{fill:#6d6d6d}.st65{fill:#939393}.st66{fill:#b1b1b1}.st67{fill:#b4b4b4}.st68{fill:#7f7f7f}.st69{fill:#787878}.st70{fill:#848484}.st71{fill:#a7a7a7}.st72{fill:#b2b2b2}.st73{fill:#909090}.st74{fill:#7d7d7d}.st75{fill:#6a6a6a}.st76{fill:#6f6f6f}.st77{fill:#a5a5a5}.st78{fill:#9e9e9e}.st81,.st82{fill:none;stroke:#000;stroke-width:.5;stroke-miterlimit:10}.st82{stroke:#3f3f3f}.st83{fill:#3f3f3f}.st84{font-family:georgia-italic}.st85{font-size:12.96px}.st86{font-size:12.46px}</style><path d="m544.8 302.8-3.4 17.1-1.4.5 3.5-17.7z" class="st0"/><path d="m546.3 320.3 1.9-.1-1.2.4-2.1.1z" class="st1"/><path d="m541.4 319.9 4.9.4-1.4.4-4.9-.3z" class="st2"/><path d="m553 321.2-2 1-1.4.5 2-1.1z" class="st3"/><path d="m554.7 319.7-1.7 1.5-1.4.4 1.7-1.5z" class="st4"/><path d="m556 317.7-1.3 2-1.4.4 1.3-1.9z" class="st5"/><path d="m557 315.4-1 2.3-1.4.5 1-2.4z" class="st6"/><path d="m557.7 312.6-.7 2.8-1.4.4.7-2.8z" class="st7"/><path d="m557.9 309.5-.2 3.1-1.4.4.2-3z" class="st8"/><path d="m557.8 307.6.1 1.9-1.4.5-.1-2z" class="st9"/><path d="m557.4 305.8.4 1.8-1.4.4-.4-1.8z" class="st10"/><path d="m556.8 304.3.6 1.5-1.4.4-.6-1.5z" class="st10"/><path d="m555.9 302.9.9 1.4-1.4.4-.9-1.4z" class="st11"/><path d="m554.8 301.8 1.1 1.1-1.4.4-1.1-1.1z" class="st0"/><path d="m553.4 300.9 1.4.9-1.4.4-1.4-.8z" class="st12"/><path d="m551.8 300.4 1.6.5-1.4.5-1.6-.6z" class="st13"/><path d="m550 300.1 1.8.3-1.4.4-1.8-.3z" class="st14"/><path d="m542.6 299.5 7.4.6-1.4.4-7.4-.5z" class="st2"/><path d="m543.5 302.7-3.4 17.6 4.8.4 2.1-.1 1.3-.4.5-.2 1.5-1 1.2-1.4 1-1.6.7-1.9.4-2 .1-2.1-.2-2.5-.3-1.1-.5-1-.8-.9-1-.7-1.3-.5-1.6-.3-3.2-.2zm-6.6 20 4.4-22.7 7.3.6 1.8.3 1.6.6 1.4.9 1.1 1.1.9 1.4.6 1.6.4 1.8.1 2-.2 3.1-.6 2.7-1 2.4-1.4 2-1.7 1.4-2 1.1-2.3.6h-2.5z" class="st15"/><path d="m573.9 322.4-.5 2.6-1.4.4.5-2.5z" class="st16"/><path d="m562.2 321.5 11.7.9-1.4.5-11.7-.9z" class="st2"/><path d="m563.6 314.2-1.4 7.3-1.4.5 1.5-7.9zM575 311.9l-.5 2.6-1.3.4.4-2.5z" class="st0"/><path d="m564.2 311.1 10.8.8-1.4.5-10.8-.9z" class="st2"/><path d="m565.5 304.4-1.3 6.7-1.4.4 1.4-7.2zM577.7 302.2l-.5 2.6-1.4.4.5-2.5z" class="st0"/><path d="m563.3 301.1 14.4 1.1-1.4.5-14.4-1.2z" class="st2"/><path d="m557.5 324.3 4.4-22.8 14.4 1.2-.5 2.5-10.3-.8-1.3-.1-1.4 7.2 10.8.9-.4 2.5-9.6-.7-1.3-.1-1.5 7.9 11.7.9-.5 2.5z" class="st15"/><path d="m594.4 308.5.1 1.8-1.3.5-.2-1.8z" class="st9"/><path d="m594 307 .4 1.5-1.4.5-.4-1.6z" class="st10"/><path d="m593.3 305.7.7 1.3-1.4.4-.7-1.3z" class="st17"/><path d="m592.3 304.6 1 1.1-1.4.4-.9-1.1z" class="st18"/><path d="m591.2 303.7 1.1.9-1.3.4-1.2-.9z" class="st19"/><path d="m589.9 303 1.3.7-1.4.4-1.3-.6z" class="st20"/><path d="m587 302.4 2.9.6-1.4.5-2.9-.7z" style="fill:#919191"/><path d="m584.2 302.6 2.8-.2-1.4.4-2.8.2z" class="st22"/><path d="m585.3 323.9 1.6-.1-1 .4-1.9.1z" class="st23"/><path d="m583 323.4 2.3.5-1.3.4-2.4-.5z" class="st24"/><path d="m582 323 1 .4-1.4.4-.9-.4z" style="fill:#a0a0a0"/><path d="m581.2 322.3.8.7-1.3.4-.9-.6z" class="st26"/><path d="m580.6 321.5.6.8-1.4.5-.6-.8z" class="st8"/><path d="m580.1 320.5.5 1-1.4.5-.5-1z" class="st27"/><path d="m579.8 319.3.3 1.2-1.4.5-.3-1.2z" class="st10"/><path d="M579.8 317.9v1.4l-1.4.5v-1.5z" class="st11"/><path d="m577 317.7 2.8.2-1.4.4-2.8-.2z" class="st2"/><path d="m590.7 325.1-1.2.7-1.4.4 1.2-.6z" class="st3"/><path d="m591.8 324.2-1.1.9-1.4.5 1.1-.9z" style="fill:#868686"/><path d="m592.6 323.1-.8 1.1-1.4.5.8-1.2z" class="st29"/><path d="m593.2 321.7-.6 1.4-1.4.4.6-1.3z" class="st30"/><path d="m593.4 320-.2 1.7-1.4.5.2-1.7z" class="st18"/><path d="m593.3 318.6.1 1.4-1.4.5-.1-1.5z" class="st9"/><path d="m593 317.4.3 1.2-1.4.4-.4-1.2z" class="st10"/><path d="m592.5 316.4.5 1-1.5.4-.4-1z" class="st27"/><path d="m591.8 315.5.7.9-1.4.4-.7-.8z" class="st31"/><path d="m590.2 314.3 1.6 1.2-1.4.5-1.6-1.3z" class="st19"/><path d="m588.3 313.4 1.9.9-1.4.4-1.9-.8z" class="st32"/><path d="m585.5 312.4 2.8 1-1.4.5-2.8-1.1z" class="st5"/><path d="m584.2 311.7 1.3.7-1.4.4-1.3-.6z" class="st32"/><path d="m583.1 310.9 1.1.8-1.4.5-1.1-.8z" class="st26"/><path d="m582.4 309.8.7 1.1-1.4.5-.7-1.1z" class="st11"/><path d="m582.1 308.4.3 1.4-1.4.5-.3-1.5z" class="st10"/><path d="m582.2 307.4-.1 1-1.4.4.1-.9z" class="st33"/><path d="m582.6 306.7-.4.7-1.4.5.4-.8z" class="st34"/><path d="m583.8 305.6-1.2 1.1-1.4.4 1.2-1.1z" class="st4"/><path d="m584.1 305.5-.3.1-1.4.4 1.6-.5z" style="fill:#686868"/><path d="m593.2 310.8-2.8-.2-.3-2.3-.4-.9-.6-.7-1.6-.9-1.9-.4-1.5.1h-.1l-1.6.5-1.2 1.1-.4.8-.1.9.3 1.5.7 1.1 1.1.8 1.3.6 2.8 1.1 1.9.8 1.6 1.3.7.8.5 1 .3 1.2.1 1.5-.2 1.7-.6 1.3-.8 1.2-1.1.9-1.2.6-1.4.4-2.9.2-1.8-.2-1.6-.5-1.5-.7-1.2-.9-1-1.2-.7-1.5-.4-1.7v-2l2.8.2v1.5l.3 1.2.5 1 .6.8.9.6.9.4 2.4.5 1.9-.1 1-.4.6-.3 1.2-1.3.4-.9.1-1-.3-1.6-.8-1.1-1.2-.8-1.4-.6-2.9-1.1-1.8-.9-1.5-1.3-1-1.7-.3-1.1-.1-1.2.2-1.5.5-1.3.8-1.1 1-.9 1.1-.6 1.3-.5 2.8-.2 2.9.7 1.3.6 1.2.9.9 1.1.7 1.3.4 1.6z" class="st15"/><path d="m602.9 304.2-4.4 22.7-1.4.4 4.4-22.7z" class="st0"/><path d="m600.1 304 2.8.2-1.4.4-2.7-.2z" class="st2"/><path d="m594.3 327.1 4.5-22.7 2.7.2-4.4 22.7z" class="st15"/><path d="m623.7 316.7-2.3 12-1.4.4 2.3-12z" class="st0"/><path d="m614.6 316 9.1.7-1.4.4-9.1-.7z" class="st2"/><path d="m614.8 326 .4-.1-.5.2-1.3.3z" class="st36"/><path d="M613.2 326h1.6l-1.4.4h-1.6z" class="st37"/><path d="m611.7 325.8 1.5.2-1.4.4-1.5-.2z" class="st38"/><path d="m610.5 325.2 1.2.6-1.4.4-1.2-.5z" class="st39"/><path d="m609.4 324.5 1.1.7-1.4.5-1.1-.8z" class="st40"/><path d="m608.6 323.6.8.9-1.4.4-.8-.9z" class="st33"/><path d="m607.9 322.4.7 1.2-1.4.4-.7-1.1z" class="st9"/><path d="m607.4 321.1.5 1.3-1.4.5-.5-1.4z" class="st10"/><path d="m607 318 .4 3.1-1.4.4-.4-3.1z" class="st27"/><path d="m607.2 315.9-.2 2.1-1.4.4.2-2z" class="st41"/><path d="m607.6 313.9-.4 2-1.4.5.4-2.1z" class="st16"/><path d="m608.2 312-.6 1.9-1.4.4.7-1.9z" class="st42"/><path d="m609.2 310.3-1 1.7-1.3.4.9-1.6z" class="st43"/><path d="m610.4 309-1.2 1.3-1.4.5 1.2-1.4z" class="st44"/><path d="m611.9 307.9-1.5 1.1-1.4.4 1.5-1.1z" class="st45"/><path d="m612.5 307.7-.6.2-1.4.4 1.8-.6z" class="st46"/><path d="m624 311.1.2 1.9-1.4.4-.2-1.9z" class="st17"/><path d="m623.5 309.5.5 1.6-1.4.4-.5-1.6z" class="st47"/><path d="m622.7 308.1.8 1.4-1.4.4-.8-1.4z" class="st17"/><path d="m621.7 306.9 1 1.2-1.4.4-1-1.1z" class="st33"/><path d="m620.5 306 1.2.9-1.4.5-1.3-1z" class="st26"/><path d="m619 305.3 1.5.7-1.5.4-1.4-.7z" class="st43"/><path d="m617.4 304.8 1.6.5-1.4.4-1.6-.4z" class="st48"/><path d="m615.7 304.6 1.7.2-1.4.5-1.7-.3z" class="st49"/><path d="m613.2 304.7 2.5-.1-1.4.4-2.5.1z" class="st50"/><path d="m610.9 305.4 2.3-.7-1.4.4-2.3.7z" class="st15"/><path d="m618.1 327.4-1.5.7-1.4.5 1.5-.8z" style="fill:#727272"/><path d="m616.7 327.8-1.5.8-1.7.4h-1.7l-2-.3-1.8-.7-1.5-.9-1.3-1.3-1-1.5-.8-1.8-.4-2-.2-2.3.2-2.7.7-2.6.9-2.3 1.3-2 1.7-1.6 1.9-1.2 2.3-.7 2.5-.1 1.7.3 1.6.4 1.4.7 1.3 1 1 1.1.8 1.4.5 1.6.2 1.9-2.8-.2-.1-1.2-.4-1.1-.5-1-.7-.7-1.8-1.1-2.2-.5-1.8.1h-.2l-1.8.6-1.5 1.1-1.2 1.4-.9 1.6-.7 1.9-.4 2.1-.2 2 .4 3.1.5 1.4.7 1.1.8.9 1.1.8 1.2.5 1.5.2h1.6l1.3-.3.5-.2.7-.4 1-.8.8-1 .7-1.2 1-3-6.7-.5.5-2.6 9.1.7-2.3 12-1.8-.1-.1-1.6v-.7z" class="st15"/><path d="m616.7 327.8 1.4-1.1v.7z" style="fill:#888"/><path d="m631.3 313.1-3 16.1-1.4.4 3.5-18.7h.1zM646.7 307.5l-4.4 22.8-1.4.4 4.4-22.7z" class="st0"/><path d="m644 307.3 2.7.2-1.4.5-2.7-.2z" class="st2"/><path d="m633 306.5 6.6 17.4-.4 2.7h-.1l-7.5-19.7z" class="st10"/><path d="m630 306.3 3 .2-1.4.4-3-.2z" class="st2"/><path d="m624.2 329.4 4.4-22.7 3 .2 7.5 19.7h.1l.4-2.7 3-16.1 2.7.2-4.4 22.7-3-.2-6.6-17.4-.8-2.2h-.1l-3.5 18.7z" class="st15"/><path d="m660.5 317.9-2.6 13.6-1.4.4 2.7-14.1z" class="st16"/><path d="m664 315.2-.4 2.4-1.4.5.4-2.4z" class="st53"/><path d="m661.1 315 2.9.2-1.4.5-2.9-.2z" class="st2"/><path d="m661.4 313.5-.3 1.5-1.4.5.3-1.5z" class="st7"/><path d="m661.8 312.2-.4 1.3-1.4.5.4-1.3z" class="st19"/><path d="m662.5 311.5-.7.7-1.4.4.8-.9.8-.2z" class="st54"/><path d="m665.6 309-.4 2.3-1.4.4.4-2.3z" class="st0"/><path d="m664.6 308.7 1 .3-1.4.4-1-.3z" class="st55"/><path d="m663.5 308.6 1.1.1-1.4.4-1.1-.1z" class="st4"/><path d="M662.2 308.6h1.3l-1.4.4-1.3.1z" class="st50"/><path d="m656 314.6 1.3.1-.1.6-2.5-.2z" class="st2"/><path d="m654 331.7 2.8-14-2.6-.2.5-2.4 2.5.2.1-.6.5-1.9.7-2 .5-.8.8-.6 1-.3 1.3-.1 1.1.1 1 .3-.4 2.3-.6-.1-.6-.1h-.8l-.6.2-.8.9-.4 1.4-.3 1.5 2.9.2-.4 2.4-1.7-.2-1.3-.1-2.7 14.1z" class="st15"/><path d="m661.2 311.7.6-.2h.2z" class="st56"/><path d="m675.2 331.3-1.4.9-1.4.4 1.4-.9z" class="st1"/><path d="m676.4 330.1-1.2 1.2-1.4.4 1.2-1.2z" class="st57"/><path d="m677.4 328.5-1 1.6-1.4.4 1-1.5z" class="st58"/><path d="m678.1 326.8-.7 1.7-1.4.5.7-1.8z" class="st59"/><path d="m678.5 324.9-.4 1.9-1.4.4.4-1.9z" class="st7"/><path d="m678.6 322.9-.1 2-1.4.4.1-2z" class="st8"/><path d="m678.5 321.3.1 1.6-1.4.4-.1-1.6z" class="st9"/><path d="m678.2 319.9.3 1.4-1.4.4-.3-1.4z" class="st10"/><path d="m677.7 318.7.5 1.2-1.4.4-.5-1.2z" class="st10"/><path d="m677 317.6.7 1.1-1.4.4-.7-1z" class="st60"/><path d="m676.1 316.8.9.8-1.4.5-.9-.9z" class="st16"/><path d="m675 316.1 1.1.7-1.4.4-1-.6z" class="st34"/><path d="m673.8 315.7 1.2.4-1.3.5-1.3-.4z" class="st61"/><path d="m672.3 315.5 1.5.2-1.4.5-1.5-.3z" class="st49"/><path d="m670.5 315.6 1.8-.1-1.4.4-1.8.1z" class="st50"/><path d="m665.3 323.3-.4 2.7.3 1.9.8 1.5 1.3 1 1.8.5 1.3-.1.9-.4.2-.1 1-.8.8-1 1.1-2.5.4-2.6-.2-1.9-.7-1.6-1.2-1.1-1.8-.5-.9.1h-.4l-1.2.5-1 .8-.8 1-.6 1.2zm-2.7 4-.1-1.5.1-2 .4-1.9.7-1.7 1-1.5 1.2-1.2 1.5-.9 1.7-.5 1.9-.1 1.4.2 1.3.4 1.1.6.9.8.7 1 .5 1.2.3 1.4.1 1.6-.1 2-.4 1.9-.7 1.7-1 1.5-1.2 1.2-1.4.9-1.7.5-1.9.1-1.4-.2-1.3-.5-1.1-.7-.9-.9-.7-1.1-.5-1.2z" class="st15"/><path d="m666.7 322.8-.3 2.7-1.4.4.3-2.6z" class="st62"/><path d="m667.2 321.5-.5 1.3-1.4.5.5-1.4z" class="st26"/><path d="m667.8 320.3-.6 1.2-1.4.4.6-1.2z" class="st63"/><path d="m668.6 319.3-.8 1-1.4.4.8-1z" class="st48"/><path d="m669.6 318.5-1 .8-1.4.4 1-.8z" class="st2"/><path d="m669.8 318.4-.2.1-1.4.4 1.2-.5z" class="st64"/><path d="M670.5 330.4h.8l-.9.4-1.3.1z" class="st22"/><path d="m668.7 330 1.8.4-1.4.5-1.8-.5z" class="st65"/><path d="m667.4 328.9 1.3 1.1-1.4.4-1.3-1z" class="st66"/><path d="m666.6 327.4.8 1.5-1.4.5-.8-1.6z" class="st27"/><path d="m666.4 325.5.2 1.9-1.4.4-.2-1.9z" class="st27"/><path d="m684 326.1-1.5 7.3-1.4.4 1.5-7.3z" class="st16"/><path d="m684.4 324.1-.4 2-1.4.4.4-2z" class="st67"/><path d="m685.2 322.3-.8 1.8-1.4.4.8-1.8z" class="st6"/><path d="m686.6 320.7-1.4 1.6-1.4.4 1.4-1.6z" class="st65"/><path d="m687.4 320.2-.8.5-1.4.4.9-.5 1.1-.4z" class="st1"/><path d="m691.3 317-.6 2.9-1.4.4.6-2.9z" class="st16"/><path d="m690.8 316.9.5.1-1.4.4-.5-.1z" class="st49"/><path d="M690.4 316.9h.4l-1.4.4h-.4z" class="st68"/><path d="m688.6 317 1.8-.1-1.4.4-1.8.2z" class="st69"/><path d="m685.5 316.9-.3 1.8-.7.7-1 1.4-.1.1.8-3.6z" class="st16"/><path d="m683.2 316.7 2.3.2-1.3.4-2.4-.1z" class="st2"/><path d="m678.7 333.6 3.1-16.4 2.4.1-.8 3.6h.1v-.1l1-1.4.7-.7.5-.5 1.5-.7 1.8-.2h.4l.5.1-.6 2.9-.4-.1h-1.8l-1 .4-.9.5-1.4 1.6-.8 1.8-.4 2-1.5 7.3z" class="st15"/><path d="m686.1 320.6 1-.4h.1z" class="st15"/><path d="m719.4 313.1-2.6 13.7-1.4.4 2.6-13.6z" class="st0"/><path d="m716.7 312.9 2.7.2-1.4.5-2.7-.2z" class="st2"/><path d="m709.2 333.3.2-.1-.4.2-1.2.3z" class="st36"/><path d="M707.6 333.3h1.6l-1.4.4h-1.6z" class="st37"/><path d="m706.2 333.1 1.4.2-1.4.4-1.4-.2z" class="st49"/><path d="m705 332.7 1.2.4-1.4.4-1.2-.4z" class="st61"/><path d="m704 332.1 1 .6-1.4.4-1-.6z" class="st12"/><path d="m703.3 331.3.7.8-1.4.4-.7-.8z" class="st53"/><path d="m702.7 330.3.6 1-1.4.4-.6-.9z" class="st17"/><path d="m702.5 329.2.2 1.1-1.4.5-.2-1.2z" class="st10"/><path d="M702.5 327.8v1.4l-1.4.4-.1-1.4z" class="st11"/><path d="m702.7 326.2-.2 1.6-1.5.4.3-1.6z" class="st62"/><path d="m705.4 312.1-2.7 14.1-1.4.4 2.7-14.1z" class="st0"/><path d="m702.6 311.9 2.8.2-1.4.4-2.8-.2z" class="st2"/><path d="m714.4 333.5-1.9 1.5-1.4.4 1.9-1.5z" class="st70"/><path d="m715.2 332.4-.8 1.1-1.4.4.8-1.1z" class="st13"/><path d="m715.8 331.1-.6 1.3-1.4.4.6-1.2z" class="st71"/><path d="m716.3 329.3-.5 1.8-1.4.5.5-1.9z" class="st72"/><path d="m716.8 326.8-.5 2.5-1.4.4.5-2.5z" class="st16"/><path d="m718 313.6-2.6 13.6-.5 2.5-.5 1.9-.6 1.2-.8 1.1-1.9 1.5-2.3.8-2.6.1-2.1-.4-1.8-.6-1.5-.9-1.1-1.2-.8-1.5-.5-1.7v-2.1l.2-2.2 2.6-13.4 2.8.2-2.7 14.1-.3 1.6.1 1.4.2 1.2.6.9.7.8 1 .6 1.2.4 1.4.2h1.6l1.2-.3.4-.2.6-.3.8-.8 1.1-2.2.7-2.9 2.7-13.6z" class="st15"/><path d="m732 324.1.2 1.3-1.4.4-.2-1.3z" class="st17"/><path d="m731.7 322.9.3 1.2-1.4.4-.3-1.2z" class="st47"/><path d="m731.1 321.9.6 1-1.4.4-.6-.9z" class="st9"/><path d="m730.4 321.1.7.8-1.4.5-.7-.8z" class="st62"/><path d="m728.5 320.1 1.9 1-1.4.5-1.9-1.1z" class="st71"/><path d="m726.4 319.7 2.1.4-1.4.4-2.1-.4z" class="st73"/><path d="m724.4 319.8 2-.1-1.4.4-2 .2z" class="st69"/><path d="M725.4 334.6h1l-.1.1-1.1.3-1.2.1z" class="st74"/><path d="m723.8 334.4 1.6.2-1.4.5-1.5-.3z" class="st57"/><path d="m722.6 333.7 1.2.7-1.3.4-1.3-.6z" class="st20"/><path d="m721.7 332.7.9 1-1.4.5-.9-1.1z" class="st41"/><path d="m721.5 331.1.2 1.6-1.4.4-.2-1.5z" class="st27"/><path d="m719 330.9 2.5.2-1.4.5-2.5-.2z" class="st2"/><path d="m729.3 336.2-2 .7-1.4.5 2-.8z" class="st75"/><path d="m730.1 335.5-.8.7-1.4.4.8-.6z" class="st2"/><path d="m730.8 334.7-.7.8-1.4.5.7-.9z" class="st29"/><path d="m731.2 333.6-.4 1.1-1.4.4.4-1z" class="st59"/><path d="m731.3 332.4-.1 1.2-1.4.5.1-1.3z" class="st18"/><path d="m731 330.6.3 1.8-1.4.4-.3-1.7z" class="st10"/><path d="m730 329.3 1 1.3-1.4.5-.9-1.4z" class="st60"/><path d="m728.8 328.3 1.2 1-1.3.4-1.3-1z" class="st72"/><path d="m727.3 327.4 1.5.9-1.4.4-1.5-.9z" class="st12"/><path d="m725.8 326.6 1.5.8-1.4.4-1.4-.7z" class="st63"/><path d="m724.5 325.9 1.3.7-1.3.5-1.3-.8z" class="st34"/><path d="m723.6 325 .9.9-1.3.4-1-.9z" class="st7"/><path d="m723.3 324 .3 1-1.4.4-.3-1z" class="st47"/><path d="m723.6 323-.3 1-1.4.4.3-1z" class="st72"/><path d="m724.1 322.5-.5.5-1.4.4.8-.6 1-.3z" class="st70"/><path d="m730.8 325.8-2.5-.1-.2-1.3-.7-1-1-.6-1.3-.3H724l-1 .3-.8.6-.3 1 .3 1 1 .9 1.3.8 1.4.7 1.5.9 1.3 1 .9 1.4.3 1.7-.1 1.3-.4 1-.7.9-.8.6-2 .8-2.2.1-2.4-.5-1-.5-.9-.6-.7-.8-.6-1-.3-1.2-.2-1.5 2.5.2.2 1.5.9 1.1 1.3.6 1.5.3 1.2-.1 1.1-.3.1-.1.7-.6.3-1.2-.3-1.1-.9-.8-1.3-.8-1.5-.8-1.4-.8-1.3-1-.9-1.3-.4-1.7.1-1.1.4-.9 1.3-1.5 1.8-.7 2-.2 2.1.4 1.9 1.1.7.8.6.9.3 1.2z" class="st15"/><path d="m747.8 329.9-.2 1-1.4.4.2-.9z" class="st53"/><path d="m747.9 328.7-.1 1.2-1.4.5.1-1.2z" class="st8"/><path d="m747.8 327.1.1 1.6-1.4.5-.1-1.7z" class="st9"/><path d="m747.5 325.6.3 1.5-1.4.4-.3-1.5z" class="st10"/><path d="m747 324.3.5 1.3-1.4.4-.5-1.3z" class="st10"/><path d="m746.3 323.1.7 1.2-1.4.4-.7-1.1z" class="st9"/><path d="m745.5 322.2.8.9-1.4.5-.9-.9z" class="st53"/><path d="m744.3 321.5 1.2.7-1.4.5-1.1-.7z" class="st6"/><path d="m743 321.1 1.3.4-1.3.5-1.4-.5z" class="st13"/><path d="m741.5 320.8 1.5.3-1.4.4-1.5-.2z" class="st49"/><path d="m739.9 320.9 1.6-.1-1.4.5h-1.6z" class="st1"/><path d="m744.4 337.1-2 .9-1.4.4 2-.9z" class="st76"/><path d="m746 335.5-1.6 1.6-1.4.4 1.6-1.6z" class="st24"/><path d="m746.5 334.4-.5 1.1-1.4.4.6-1.1z" class="st77"/><path d="m746.9 333.1-.4 1.3-1.3.4.3-1.3z" class="st66"/><path d="m744.4 332.9 2.5.2-1.4.4-2.5-.1z" class="st2"/><path d="m740.1 335.8 1.1-.1-1 .4-1.5.1z" class="st23"/><path d="m738.6 335.4 1.5.4-1.4.4-1.5-.4z" class="st54"/><path d="m737.3 334.5 1.3.9-1.4.4-1.2-.8z" class="st40"/><path d="m736.5 333.2.8 1.3-1.3.5-.9-1.4z" class="st11"/><path d="m736.1 331.4.4 1.8-1.4.4-.3-1.7z" class="st10"/><path d="m736.2 330.5-.1.9-1.3.5v-1.5z" class="st41"/><path d="m735.2 328 8.8.7v-.5l-.1-1.2-.6-1.6-1.1-1.1-.8-.4-1-.2-1.1.1-.8.1-1.5.9-1.1 1.4zm-.4 2.4-.1 1.4.3 1.8.9 1.3 1.3.9 1.5.4 1.5-.1 1-.4.3-.1.9-.9.7-1.3 2.5.2-.4 1.3-.5 1.1-1.6 1.6-2 .9-2.3.2-1.8-.4-1.4-.6-1.1-.8-.9-1-.6-1.1-.4-1.2-.3-2.3.2-2.3.5-2 .7-1.8 1-1.5 1.2-1.2 1.3-.8 1.5-.5 1.5-.1 1.6.2 1.3.5 1.1.7.9.9.7 1.1.5 1.3.3 1.5.1 1.7-.1 1.2-.1.9-10-.8z" class="st15"/><path d="m736.6 327.6 7.4.6v.5l-8.8-.7z" class="st2"/><path d="m737.3 325.8-.7 1.8-1.4.4.7-1.7z" class="st59"/><path d="m738.4 324.4-1.1 1.4-1.4.5 1.1-1.5z" class="st29"/><path d="m739.3 323.8-.9.6-1.4.4 1.5-.9z" class="st22"/><path d="m752.9 331.4-1.4 7.3-1.5.4 1.5-7.3z" class="st16"/><path d="m753.3 329.4-.4 2-1.4.4.5-1.9z" class="st67"/><path d="m754.1 327.6-.8 1.8-1.3.5.8-1.9z" class="st6"/><path d="m755.5 326-1.4 1.6-1.3.4 1.3-1.6z" class="st65"/><path d="m756.3 325.5-.8.5-1.4.4.9-.5 1.1-.4z" class="st1"/><path d="m760.2 322.3-.6 2.9-1.4.4.6-2.9z" class="st16"/><path d="m759.7 322.2.5.1-1.4.4-.5-.1z" class="st49"/><path d="M759.3 322.2h.4l-1.4.4h-.4z" class="st68"/><path d="m757.5 322.3 1.8-.1-1.4.4-1.8.2z" class="st69"/><path d="m754.5 322.2-.4 1.8-.7.7-1 1.5h-.1l.8-3.5z" class="st16"/><path d="m752.1 322 2.4.2-1.4.5-2.4-.2z" class="st2"/><path d="m747.6 338.9 3.1-16.4 2.4.2-.8 3.5h.1l1-1.5.7-.7.5-.5 1.5-.7 1.8-.2h.4l.5.1-.6 2.9-.4-.1h-1.7l-.1.1-1 .3-.9.5-1.3 1.6-.8 1.9-.5 1.9-1.5 7.3z" class="st15"/><path d="m755 325.9 1-.3.1-.1z" class="st15"/><path d="m771.6 327.1.2 1.4-1.4.4-.2-1.4z" class="st17"/><path d="m771.3 325.9.3 1.2-1.4.4-.3-1.1z" class="st47"/><path d="m770.7 325 .6.9-1.4.5-.6-1z" class="st9"/><path d="m770 324.2.7.8-1.4.4-.7-.8z" class="st62"/><path d="m768.1 323.2 1.9 1-1.4.4-1.9-1z" class="st71"/><path d="m766 322.7 2.1.5-1.4.4-2-.4z" class="st73"/><path d="m764 322.9 2-.2-1.3.5-2.1.1z" class="st69"/><path d="M765 337.7h1-.1l-1.1.4h-1.2z" class="st74"/><path d="m763.5 337.4 1.5.3-1.4.4-1.6-.2z" class="st57"/><path d="m762.2 336.8 1.3.6-1.5.5-1.2-.7z" class="st20"/><path d="m761.3 335.7.9 1.1-1.4.4-.9-1z" class="st41"/><path d="m761.1 334.2.2 1.5-1.3.5-.3-1.6z" class="st27"/><path d="m758.6 334 2.5.2-1.4.4-2.5-.2z" class="st2"/><path d="m768.9 339.2-2 .8-1.4.4 2-.7z" class="st75"/><path d="m769.7 338.6-.8.6-1.4.5.8-.7z" class="st2"/><path d="m770.3 337.7-.6.9-1.4.4.7-.8z" class="st29"/><path d="m770.8 336.7-.5 1-1.3.5.4-1.1z" class="st59"/><path d="m770.9 335.4-.1 1.3-1.4.4.1-1.3z" class="st18"/><path d="m770.5 333.7.4 1.7-1.4.4-.3-1.7z" class="st10"/><path d="m769.7 332.4.9 1.3-1.4.4-1-1.3z" class="st60"/><path d="m768.4 331.3 1.3 1.1-1.5.4-1.2-1.1z" class="st72"/><path d="m766.9 330.4 1.5.9-1.4.4-1.5-.9z" class="st12"/><path d="m765.4 329.7 1.5.7-1.4.4-1.5-.7z" class="st63"/><path d="m764.2 328.9 1.2.8-1.4.4-1.2-.8z" class="st34"/><path d="m763.2 328.1 1 .8-1.4.4-1-.8z" class="st7"/><path d="m762.9 327 .3 1.1-1.4.4-.3-1z" class="st47"/><path d="m763.2 326-.3 1-1.4.5.3-1.1z" class="st72"/><path d="m763.7 325.6-.5.4-1.4.4.7-.5 1.1-.3z" class="st70"/><path d="m770.4 328.9-2.5-.2-.2-1.3-.7-.9-1-.6-1.3-.3h-1.1l-1.1.3-.7.5-.3 1.1.3 1 1 .8 1.2.8 1.5.7 1.5.9 1.2 1.1 1 1.3.3 1.7-.1 1.3-.4 1.1-.7.8-.8.7-2 .7-2.2.1-2.4-.5-1-.4-.9-.6-.7-.8-.6-1-.4-1.3-.1-1.5 2.5.2.3 1.6.8 1 1.2.7 1.6.2h1.2l1.1-.4h.1l.7-.7.3-1.2-.3-1-.9-.9-1.3-.8-1.5-.7-1.4-.9-1.3-1-.9-1.3-.4-1.7.1-1.1.4-.9 1.3-1.4 1.8-.8 2.1-.1 2 .4 1.9 1 .7.8.6 1 .3 1.1z" class="st15"/><path d="m628.5 284.4-.6 2.5-1.4.4.6-2.5z" class="st16"/><path d="m616.7 283.5 11.8.9-1.4.4-11.8-.9z" class="st2"/><path d="m618.1 276.1-1.4 7.4-1.4.4 1.5-7.9zM629.5 273.9l-.4 2.5-1.4.5.4-2.6z" class="st0"/><path d="m618.7 273 10.8.9-1.4.4-10.8-.8z" class="st2"/><path d="m620 266.3-1.3 6.7-1.4.5 1.4-7.3zM632.2 264.2l-.5 2.5-1.4.4.5-2.5z" class="st0"/><path d="m617.8 263 14.4 1.2-1.4.4-14.4-1.1z" class="st2"/><path d="m612 286.2 4.4-22.7 14.4 1.1-.5 2.5-10.3-.8-1.3-.1-1.4 7.3 10.8.8-.4 2.6-9.6-.8-1.3-.1-1.5 7.9 11.8.9-.6 2.5z" class="st15"/><path d="m637.8 267.7-3.3 17.1-1.4.5 3.4-17.7z" class="st0"/><path d="m639.3 285.2 2-.1-1.3.4-2.1.1z" class="st1"/><path d="m634.5 284.8 4.8.4-1.4.4-4.8-.3z" class="st2"/><path d="m646 286.1-2 1-1.3.5 1.9-1.1z" class="st3"/><path d="m647.7 284.6-1.7 1.5-1.4.4 1.7-1.5z" class="st4"/><path d="m649.1 282.6-1.4 2-1.4.4 1.4-1.9z" class="st5"/><path d="m650.1 280.3-1 2.3-1.4.5 1-2.4z" class="st6"/><path d="m650.7 277.5-.6 2.8-1.4.4.6-2.7z" class="st7"/><path d="m650.9 274.4-.2 3.1-1.4.5.2-3.1z" class="st8"/><path d="m650.8 272.5.1 1.9-1.4.5-.1-2z" class="st9"/><path d="m650.4 270.7.4 1.8-1.4.4-.4-1.7z" class="st10"/><path d="m649.8 269.2.6 1.5-1.4.5-.6-1.6z" class="st10"/><path d="m648.9 267.8.9 1.4-1.4.4-.9-1.4z" class="st11"/><path d="m647.8 266.7 1.1 1.1-1.4.4-1.1-1.1z" class="st0"/><path d="m646.5 265.8 1.3.9-1.4.4-1.4-.8z" class="st12"/><path d="m644.8 265.3 1.7.5-1.5.5-1.5-.6z" class="st13"/><path d="m643 265 1.8.3-1.3.4-1.9-.3z" class="st14"/><path d="m635.7 264.4 7.3.6-1.4.4-7.3-.5z" class="st2"/><path d="m636.5 267.6-3.4 17.6 4.8.4 2.1-.1 1.3-.4.5-.2 1.5-1 1.2-1.4 1-1.6.7-1.9.4-2 .1-2.1-.2-2.5-.3-1.1-.5-1-.8-.9-1-.7-1.3-.5-1.6-.3-3.2-.2zm-6.6 20 4.4-22.7 7.3.6 1.8.3 1.6.6 1.4.8 1.1 1.1.9 1.4.6 1.5.4 1.8.1 2-.2 3.1-.6 2.7-1 2.4-1.4 1.9-1.7 1.5-2 1.1-2.3.6-2.5.1z" class="st15"/><path d="m673 267.3-2.6 13.6-1.4.5 2.6-13.7z" class="st0"/><path d="m670.2 267.1 2.8.2-1.4.4-2.7-.2z" class="st2"/><path d="M662.8 287.4h.2l-.4.2-1.2.3z" class="st36"/><path d="M661.2 287.4h1.6l-1.4.5h-1.6z" class="st37"/><path d="m659.8 287.2 1.4.2-1.4.5-1.4-.2z" class="st49"/><path d="m658.6 286.8 1.2.4-1.4.5-1.2-.4z" class="st61"/><path d="m657.6 286.2 1 .6-1.4.5-1-.6z" class="st12"/><path d="m656.8 285.5.8.7-1.4.5-.7-.8z" class="st53"/><path d="m656.3 284.5.5 1-1.3.4-.6-1z" class="st17"/><path d="m656.1 283.3.2 1.2-1.4.4-.2-1.2z" class="st10"/><path d="m656 281.9.1 1.4-1.4.4v-1.3z" class="st11"/><path d="m656.3 280.4-.3 1.5-1.3.5.2-1.6z" class="st62"/><path d="m659 266.2-2.7 14.2-1.4.4 2.7-14.1z" class="st0"/><path d="m656.2 266 2.8.2-1.4.5-2.8-.3z" class="st2"/><path d="m668 287.6-1.9 1.5-1.4.5 1.9-1.5z" class="st70"/><path d="m668.8 286.6-.8 1-1.4.5.8-1.1z" class="st13"/><path d="m669.4 285.3-.6 1.3-1.4.4.6-1.3z" class="st71"/><path d="m669.9 283.5-.5 1.8-1.4.4.5-1.8z" class="st72"/><path d="m670.4 280.9-.5 2.6-1.4.4.5-2.5z" class="st16"/><path d="m671.6 267.7-2.6 13.7-.5 2.5-.5 1.8-.6 1.3-.8 1.1-1.9 1.5-2.3.7-2.6.1-2.1-.3-1.9-.6-1.4-.9-1.2-1.3-.7-1.4-.5-1.8v-2l.2-2.3 2.6-13.4 2.8.3-2.7 14.1-.2 1.6v1.3l.2 1.2.6 1 .7.8 1 .6 1.2.4 1.4.2h1.6l1.2-.3.4-.2.6-.4.8-.8 1.1-2.2.7-2.8 2.7-13.7z" class="st15"/><path d="m689.4 283.9 2.8.2-1.4.4-2.8-.2z" class="st2"/><path d="m682.9 289.1 1.7-.1-.7.4-2.4.1z" class="st69"/><path d="m681.5 288.9 1.4.2-1.4.4-1.4-.2z" class="st38"/><path d="m680.2 288.4 1.3.5-1.4.4-1.3-.5z" class="st39"/><path d="m679.1 287.6 1.1.8-1.4.4-1-.8z" class="st40"/><path d="m678.3 286.7.8.9-1.3.4-.9-.9z" class="st33"/><path d="m677.6 285.5.7 1.2-1.4.4-.7-1.1z" class="st9"/><path d="m677.1 284.2.5 1.3-1.4.5-.5-1.4z" class="st10"/><path d="m676.8 281.1.3 3.1-1.4.4-.3-3.1z" class="st27"/><path d="m676.9 279-.1 2.1-1.4.4.1-2z" class="st41"/><path d="m677.3 277-.4 2-1.4.5.4-2.1z" class="st16"/><path d="m678 275.1-.7 1.9-1.4.4.7-1.9z" class="st42"/><path d="m678.9 273.4-.9 1.7-1.4.4.9-1.6z" class="st43"/><path d="m680.1 272.1-1.2 1.3-1.4.5 1.3-1.4z" class="st44"/><path d="m681.6 271-1.4 1.1-1.4.4 1.4-1z" class="st45"/><path d="m682.2 270.8-.6.2-1.4.5 1.8-.7z" class="st46"/><path d="m693.3 274.4.1 1.9-1.4.4-.1-1.8z" class="st17"/><path d="m692.8 272.8.5 1.6-1.4.5-.5-1.7z" class="st10"/><path d="m692.1 271.3.7 1.5-1.4.4-.7-1.4z" class="st27"/><path d="m691.1 270.1 1 1.2-1.4.5-1-1.2z" class="st8"/><path d="m690 269.2 1.1.9-1.4.5-1.1-1z" class="st72"/><path d="m688.6 268.5 1.4.7-1.4.4-1.4-.7z" class="st77"/><path d="m687.1 268 1.5.5-1.4.4-1.5-.5z" class="st29"/><path d="m685.5 267.7 1.6.3-1.4.4-1.6-.3z" class="st49"/><path d="m682.9 267.8 2.6-.1-1.4.4-2.6.1z" class="st50"/><path d="m680.7 268.5 2.2-.7-1.4.4-2.2.7z" class="st15"/><path d="m687.9 290.8-1.5.6-1.4.4 1.5-.6z" class="st36"/><path d="m689.1 289.9-1.2.9-1.4.4 1.2-.8z" class="st68"/><path d="m690.2 288.8-1.1 1.1-1.4.5 1.1-1.2z" class="st73"/><path d="m691 287.4-.8 1.4-1.4.4.8-1.3z" class="st78"/><path d="m691.7 285.9-.7 1.5-1.4.5.7-1.6z" class="st6"/><path d="m692.2 284.1-.5 1.8-1.4.4.5-1.8z" style="fill:#b3b3b3"/><path d="m688 284.3 2.8.2-.5 1.8-.7 1.6-.8 1.3-1.1 1.2-1.2.8-1.5.6-1.6.3h-1.9l-2-.3-1.8-.7-1.5-.9-1.3-1.2-1-1.6-.7-1.8-.5-2-.1-2.3.2-2.7.6-2.6.9-2.3 1.3-2 1.7-1.6 2-1.2 2.2-.7 2.6-.1 1.6.3 1.5.5 1.4.7 1.1 1 1 1.2.7 1.4.5 1.7.1 1.8-2.7-.2-.4-2.4-.5-.9-.6-.8-1.6-1.2-2.1-.5-1.9.1h-.2l-1.8.7-1.4 1-1.3 1.4-.9 1.6-.7 1.9-.4 2.1-.1 2 .4 3.1.4 1.4.7 1.1.9.9 1 .8 1.3.5 1.4.2 2.4-.1.7-.4 1.1-.6 1.4-1.7z" class="st15"/><path d="m698.9 286-3.4 6.1-1.4.5 3.7-6.7z" class="st20"/><path d="m708.1 270 3.7 23.4-1.3.4-3.8-23.4z" class="st27"/><path d="m705 269.8 3.1.2-1.4.4-3.1-.2z" class="st2"/><path d="m704.7 273-5.6 10.4 7.2.5-.1-.5-1.2-8.8zm-13.6 19.3 12.6-22.1 3 .2 3.8 23.4-2.9-.2-1-7-7.7-.6-1.1-.1-3.7 6.7z" class="st15"/><path d="m704.9 274.6-4.5 8.4-1.4.4 5.7-10.4z" class="st63"/><path d="m700.4 283 5.8.4.1.6-7.3-.6z" class="st2"/><path d="m732.7 271.9-.5 2.5-1.4.5.5-2.6z" class="st16"/><path d="m715.8 270.6 16.9 1.3-1.4.4-16.9-1.3z" class="st2"/><path d="m725 274.4-3.8 19.7-1.4.4 4-20.2z" class="st0"/><path d="m731.3 272.3-.5 2.6-5.8-.5-1.2-.1-4 20.2-2.8-.2 4-20.2-7.1-.5.5-2.6z" class="st15"/><path d="m737.8 272.3-4.4 22.7-1.4.5 4.4-22.8z" class="st0"/><path d="m735 272.1 2.8.2-1.4.4-2.8-.2z" class="st2"/><path d="m729.2 295.3 4.4-22.8 2.8.2-4.4 22.8z" class="st15"/><path d="m742 284-.1 2.1-1.4.5.1-2.1z" class="st41"/><path d="m742.4 282-.4 2-1.4.5.4-2.1z" class="st16"/><path d="m743.1 280.1-.7 1.9-1.4.4.7-1.8z" class="st42"/><path d="m744 278.5-.9 1.6-1.4.5 1-1.7z" class="st43"/><path d="m745.3 277.1-1.3 1.4-1.3.4 1.2-1.4z" class="st44"/><path d="m746.8 276-1.5 1.1-1.4.4 1.5-1z" class="st45"/><path d="m747.3 275.8-.5.2-1.4.5 1.7-.7z" class="st46"/><path d="m748.1 294.1 1.7-.1-1.2.5-1.9.1z" class="st1"/><path d="m746.6 293.9 1.5.2-1.4.5-1.5-.3z" class="st38"/><path d="m745.3 293.4 1.3.5-1.4.4-1.3-.5z" class="st39"/><path d="m744.3 292.6 1 .8-1.4.4-1-.7z" class="st40"/><path d="m743.4 291.7.9.9-1.4.5-.9-1z" class="st33"/><path d="m742.7 290.5.7 1.2-1.4.4-.7-1.1z" class="st9"/><path d="m742.3 289.2.4 1.3-1.4.5-.4-1.3z" class="st10"/><path d="m741.9 286.1.4 3.1-1.4.5-.4-3.1z" class="st27"/><path d="m754.7 294.7-1.9 1.2-1.4.4 1.9-1.2z" class="st1"/><path d="m756.3 293.1-1.6 1.6-1.4.4 1.6-1.6z" class="st57"/><path d="m757.6 291.1-1.3 2-1.4.4 1.3-2z" class="st78"/><path d="m758.5 288.8-.9 2.3-1.4.4 1-2.3z" class="st30"/><path d="m759.1 286.3-.6 2.5-1.3.4.5-2.5z" class="st7"/><path d="m759.3 283.6-.2 2.7-1.4.4.2-2.6z" class="st8"/><path d="m759.2 281.5.1 2.1-1.4.5-.1-2.1z" class="st9"/><path d="m758.7 279.6.5 1.9-1.4.5-.5-2z" class="st10"/><path d="m758 277.8.7 1.8-1.4.4-.7-1.8z" class="st10"/><path d="m757 276.2 1 1.6-1.4.4-1-1.6z" class="st11"/><path d="m755.7 274.9 1.3 1.3-1.4.4-1.3-1.3z" class="st62"/><path d="m754.2 273.8 1.5 1.1-1.4.4-1.5-1.1z" class="st40"/><path d="m752.5 273.1 1.7.7-1.4.4-1.7-.7z" class="st78"/><path d="m750.6 272.7 1.9.4-1.4.4-1.9-.3z" class="st38"/><path d="m748 272.8 2.6-.1-1.4.5-2.5.1z" class="st50"/><path d="m745.8 273.5 2.2-.7-1.3.5-2.3.6z" class="st15"/><path d="m740.6 284.5-.1 2.1.4 3.1.5 1.3.7 1.1.9 1 1.1.7 1.3.5 1.5.2 2-.1 1.2-.4.5-.2 1.5-1 1.2-1.4.9-1.6.7-1.9.4-2 .1-2-.4-3-.5-1.3-.7-1.2-.8-1-1-.8-1.2-.5-1.4-.3-1.9.1h-.2l-1.8.6-1.5 1-1.2 1.4-1 1.6-.7 1.9zm-2.7 4.1-.2-2.3.2-2.7.6-2.6 1-2.3 1.3-2 1.7-1.6 2-1.2 2.3-.7 2.5-.1 1.9.3 1.7.7 1.5 1 1.3 1.3 1 1.6.7 1.8.5 2 .2 2.1-.2 2.6-.6 2.5-1 2.3-1.3 2-1.6 1.6-1.9 1.2-2.2.7-2.5.1-2-.3-1.8-.6-1.5-.9-1.3-1.3-1-1.5-.7-1.8z" class="st15"/><path d="m766.2 281.3-3.1 16-1.4.5 3.6-18.7zM781.6 275.7l-4.5 22.7-1.3.4 4.4-22.7z" class="st0"/><path d="m778.9 275.5 2.7.2-1.4.4-2.7-.2z" class="st2"/><path d="m767.8 274.6 6.7 17.5-.5 2.6h-.1l-7.4-19.7z" class="st10"/><path d="m764.9 274.4 2.9.2-1.3.4-3-.2z" class="st2"/><path d="m759 297.6 4.5-22.8 3 .2 7.4 19.7h.1l.5-2.6 3-16.2 2.7.2-4.4 22.7-3-.2-6.6-17.3-.9-2.2-3.6 18.7z" class="st15"/><path d="m795.4 286.1-2.7 13.5-1.4.4 2.8-14z" class="st16"/><path d="m798.8 283.4-.4 2.4-1.4.4.4-2.4z" class="st53"/><path d="m795.9 283.1 2.9.3-1.4.4-2.9-.2z" class="st2"/><path d="m796.3 281.7-.4 1.4-1.4.5.4-1.5z" class="st7"/><path d="m796.7 280.3-.4 1.4-1.4.4.4-1.3z" class="st19"/><path d="m797.3 279.6-.6.7-1.4.5.8-.9.7-.3z" class="st54"/><path d="m800.5 277.1-.5 2.3-1.4.5.4-2.3z" class="st0"/><path d="m799.4 276.8 1.1.3-1.5.5-1-.3z" class="st55"/><path d="m798.4 276.7 1 .1-1.4.5-1-.2z" class="st4"/><path d="M797 276.7h1.4l-1.4.4-1.4.1z" class="st50"/><path d="m790.9 282.8 1.3.1-.1.5-2.6-.2z" class="st2"/><path d="m788.8 299.9 2.8-14.1-2.5-.2.4-2.4 2.6.2.1-.5.4-1.9.7-2.1.6-.8.7-.6 1-.3 1.4-.1 1 .2 1 .3-.4 2.3-.6-.2-.5-.1H796.7l-.6.3-.8.9-.4 1.3-.4 1.5 2.9.2-.4 2.4-1.6-.1-1.3-.1-2.8 14z" class="st15"/><path d="m796.1 279.9.6-.3h.1z" class="st56"/><path d="m810.1 299.4-1.4.9-1.4.5 1.4-1z" class="st1"/><path d="m811.3 298.2-1.2 1.2-1.4.4 1.2-1.2z" class="st57"/><path d="m812.2 296.7-.9 1.5-1.4.4.9-1.5z" class="st58"/><path d="m812.9 294.9-.7 1.8-1.4.4.7-1.7z" class="st59"/><path d="m813.3 293-.4 1.9-1.4.5.5-1.9z" class="st7"/><path d="m813.5 291-.2 2-1.3.5.1-2z" class="st8"/><path d="m813.4 289.4.1 1.6-1.4.5-.1-1.6z" class="st9"/><path d="m813.1 288 .3 1.4-1.4.5-.3-1.5z" class="st10"/><path d="m812.6 286.8.5 1.2-1.4.4-.5-1.2z" class="st10"/><path d="m811.9 285.7.7 1.1-1.4.4-.7-1z" class="st60"/><path d="m811 284.9.9.8-1.4.5-.9-.9z" class="st16"/><path d="m809.9 284.3 1.1.6-1.4.4-1.1-.6z" class="st34"/><path d="m808.6 283.8 1.3.5-1.4.4-1.3-.4z" class="st61"/><path d="m807.2 283.6 1.4.2-1.4.5-1.4-.2z" class="st49"/><path d="m805.3 283.7 1.9-.1-1.4.5h-1.9z" class="st50"/><path d="m800.2 291.4-.4 2.7.3 1.9.8 1.5 1.3 1 1.8.5 1.3-.1.9-.4.2-.1 1-.8.8-1 1.1-2.5.4-2.6-.2-1.9-.7-1.6-1.2-1.1-1.8-.5-.9.1h-.4l-1.2.5-1 .8-.8 1-.6 1.2zm-2.8 4-.1-1.5.1-2 .4-1.9.7-1.7 1-1.5 1.2-1.2 1.5-.9 1.7-.5 1.9-.1 1.5.2 1.3.4 1.1.6.9.8.7 1 .5 1.2.3 1.4.1 1.6-.1 2-.4 1.9-.7 1.8-1 1.5-1.2 1.2-1.4.9-1.7.5-1.9.1-1.4-.2-1.3-.5-1.1-.7-.9-.9-.7-1.1-.5-1.2z" class="st15"/><path d="m801.6 290.9-.4 2.7-1.4.5.4-2.7z" class="st62"/><path d="m802 289.6-.4 1.3-1.4.5.4-1.3z" class="st26"/><path d="m802.7 288.4-.7 1.2-1.4.5.7-1.2z" class="st63"/><path d="m803.5 287.4-.8 1-1.4.5.8-1z" class="st48"/><path d="m804.5 286.6-1 .8-1.4.5 1-.8z" class="st2"/><path d="m804.7 286.5-.2.1-1.4.5 1.2-.5z" class="st64"/><path d="M805.4 298.5h.8l-.9.4-1.3.1z" class="st22"/><path d="m803.6 298.1 1.8.4-1.4.5-1.8-.5z" class="st65"/><path d="m802.3 297 1.3 1.1-1.4.4-1.3-1z" class="st66"/><path d="m801.5 295.5.8 1.5-1.4.5-.8-1.5z" class="st27"/><path d="m801.2 293.6.3 1.9-1.4.5-.3-1.9z" class="st27"/><path d="m818.8 294.2-1.4 7.3-1.4.4 1.4-7.2z" class="st16"/><path d="m819.3 292.2-.5 2-1.4.5.5-2z" class="st67"/><path d="m820.1 290.4-.8 1.8-1.4.5.8-1.9z" class="st6"/><path d="m821.5 288.8-1.4 1.6-1.4.4 1.4-1.6z" class="st65"/><path d="m822.2 288.3-.7.5-1.4.4.9-.5 1-.3z" class="st1"/><path d="m826.1 285.1-.6 2.9-1.4.4.6-2.9z" class="st16"/><path d="m825.7 285 .4.1-1.4.4h-.4z" class="st49"/><path d="M825.2 285h.5l-1.4.5h-.5z" class="st68"/><path d="m823.5 285.2 1.7-.2-1.4.4-1.7.2z" class="st69"/><path d="m820.4 285-.4 1.9-.7.6-.9 1.5h-.1l.7-3.5z" class="st16"/><path d="m818.1 284.8 2.3.2-1.4.5-2.3-.2z" class="st2"/><path d="m813.5 301.8 3.2-16.5 2.3.2-.7 3.5h.1l.9-1.5.7-.6.6-.6 1.5-.7 1.7-.2.5.1h.4l-.6 2.9h-.3l-.4-.1h-1.2l-.2.1h-.1l-.9.3-.9.5-1.4 1.6-.8 1.9-.5 2-1.4 7.2z" class="st15"/><path d="m821 288.7.9-.3h.1z" class="st15"/><path d="m837.8 293.1-1.9 9.8-1.4.5 2-10.4zM848.1 290.7l-.5 2.6-1.4.4.5-2.5z" class="st0"/><path d="m838.4 290 9.7.7-1.4.5-9.7-.8z" class="st2"/><path d="m839.7 283.3-1.3 6.7-1.4.4 1.4-7.2zM851.3 281l-.5 2.6-1.4.4.5-2.5z" class="st0"/><path d="m837.5 280 13.8 1-1.4.5-13.8-1.1z" class="st2"/><path d="m831.8 303.2 4.3-22.8 13.8 1.1-.5 2.5-9.7-.7-1.3-.1-1.4 7.2 9.7.8-.5 2.5-8.4-.6-1.3-.1-2 10.4z" class="st15"/><path d="m865 288.5-3.2 16.4-1.4.5 3.2-16.5z" class="st0"/><path d="m862.5 288.3 2.5.2-1.4.4-2.5-.2z" class="st2"/><path d="M855.3 302.4h.8l-.1.1-1 .3h-1z" class="st50"/><path d="m854.3 302.2 1 .2-1.3.4-1.1-.2z" class="st73"/><path d="m853.5 301.7.8.5-1.4.4-.8-.5z" class="st71"/><path d="m852.9 300.9.6.8-1.4.4-.6-.7z" class="st31"/><path d="m852.7 299.9.2 1-1.4.5-.2-1.1z" class="st10"/><path d="M852.7 299.3v.6l-1.4.4v-.6z" class="st41"/><path d="m852.8 298.6-.1.7-1.4.4.1-.7z" class="st33"/><path d="m852.9 297.9-.1.7-1.4.4.1-.7z" class="st53"/><path d="m853.1 297.3-.2.6-1.4.4.2-.6z" class="st16"/><path d="m855 287.7-1.9 9.6-1.4.4 1.9-9.6z" class="st16"/><path d="m852.5 287.5 2.5.2-1.4.4-2.5-.2z" class="st2"/><path d="m858.3 303.7-.8.5-1.4.5 1.3-.8.9-.3z" class="st23"/><path d="m863.6 288.9-3.2 16.5-2.4-.2.3-1.5v-.1l.2-.9h-.1l-1 1.2-1.3.8-1.5.4-1.6.1-1.8-.4-1.3-.9-.8-1.4-.3-1.9.1-1.4.4-1.9 1.8-9.4 2.5.2-1.9 9.6-.2.6-.1.7-.1.7v.6l.2 1.1.6.7.8.5 1.1.2h1l.9-.3h.1l.1-.1 1.4-1 1.2-1.6.7-2 1.7-9.1z" class="st15"/><path d="M858.4 302.7h.1l-.2.9-.9.3z" class="st44"/><path d="m855.9 302.5-.9.3 1-.3z" class="st15"/><path d="m873.5 284.2-1 4.8-1.3.5.9-4.9z" class="st0"/><path d="m871 284 2.5.2-1.4.4-2.5-.2zM867.5 288.7l1.3.1-.1.5-2.6-.2z" class="st2"/><path d="m873 303.3-.4 2.5-1.4.4.5-2.5z" class="st53"/><path d="m872.3 303.4.7-.1-1.3.4-.7.2z" class="st64"/><path d="m871.6 303.5.7-.1-1.3.5h-.8z" class="st50"/><path d="m870.6 303.1 1 .4-1.4.4-1-.3z" style="fill:#979797"/><path d="m870.2 302.8.4.3-1.4.5-.4-.4z" class="st62"/><path d="m870.1 302.2.1.6-1.4.4-.1-.6z" class="st10"/><path d="m870.2 301.7-.1.5-1.4.4.1-.5z" class="st41"/><path d="M870.2 301.1v.6l-1.4.4v-.5z" class="st18"/><path d="m872 292-1.8 9.1-1.4.5 1.9-9.7zM875.6 289.3l-.5 2.4-1.4.4.5-2.4z" class="st0"/><path d="m872.5 289 3.1.3-1.4.4-3-.2z" class="st2"/><path d="m872.1 284.6-.9 4.9 3 .2-.5 2.4-1.7-.1-1.3-.1-1.9 9.7v.5l-.1.5.1.6.4.4 1 .3h.8l.7-.2-.5 2.5H869.5l-1.4-.2-1-.5-.8-.9-.2-1.3v-.7l.1-.7 2-10.2-2.5-.2.4-2.4 2.6.2.1-.5.8-4.4z" class="st15"/><path d="m890.5 290.4-3.2 16.5-1.3.4 3.2-16.4z" class="st0"/><path d="m888.1 290.2 2.4.2-1.3.5-2.5-.2z" class="st2"/><path d="m880.9 304.4.8-.1-.2.2-1 .3h-1z" class="st50"/><path d="m879.8 304.1 1.1.3-1.4.4-1-.2z" class="st73"/><path d="m879 303.7.8.4-1.3.5-.9-.5z" class="st71"/><path d="m878.4 302.9.6.8-1.4.4-.6-.8z" class="st31"/><path d="m878.2 301.8.2 1.1-1.4.4-.2-1z" class="st10"/><path d="m878.3 301.3-.1.5-1.4.5.1-.6z" class="st41"/><path d="m878.4 300.6-.1.7-1.4.4.1-.7z" class="st33"/><path d="m878.5 299.9-.1.7-1.4.4.1-.7z" class="st53"/><path d="m878.6 299.3-.1.6-1.4.4.1-.6z" class="st16"/><path d="m880.5 289.7-1.9 9.6-1.4.4 1.9-9.6z" class="st16"/><path d="m878 289.5 2.5.2-1.4.4-2.5-.2z" class="st2"/><path d="m883.8 305.7-.8.5-1.4.4 1.3-.7 1-.3z" class="st23"/><path d="m889.2 290.9-3.2 16.4-2.4-.1.2-1.5.1-.1.1-.9-1.1 1.2-1.3.7-1.5.5h-1.5l-1.9-.4-1.3-.8-.8-1.4-.3-2 .2-1.4.3-1.8 1.8-9.4 2.5.2-1.9 9.6-.1.6-.1.7-.1.7-.1.6.2 1 .6.8.9.5 1 .2h1l.9-.3h.1l.2-.2 1.3-.9 1.2-1.6.7-2 1.8-9.1z" class="st15"/><path d="m884 304.7-.1.9-1 .3z" class="st44"/><path d="m881.4 304.5-.9.3 1-.3z" class="st15"/><path d="m895.4 300.1-1.4 7.3-1.5.4 1.5-7.2z" class="st16"/><path d="m895.8 298.1-.4 2-1.4.5.5-2z" class="st67"/><path d="m896.6 296.3-.8 1.8-1.3.5.7-1.9z" class="st6"/><path d="m898 294.7-1.4 1.6-1.4.4 1.4-1.6z" class="st65"/><path d="m898.8 294.2-.8.5-1.4.4.9-.5 1.1-.3z" class="st1"/><path d="m902.7 291-.6 2.9-1.4.4.6-2.9z" class="st16"/><path d="m902.2 290.9.5.1-1.4.4h-.5z" class="st49"/><path d="M901.8 290.9h.4l-1.4.5h-.4z" class="st68"/><path d="m900 291.1 1.8-.2-1.4.5-1.8.1z" class="st69"/><path d="m897 290.9-.4 1.9-.7.6-1 1.5h-.1l.8-3.5z" class="st16"/><path d="m894.6 290.7 2.4.2-1.4.5-2.4-.2z" class="st2"/><path d="m890.1 307.7 3.1-16.5 2.4.2-.8 3.5h.1l1-1.5.7-.6.5-.6 1.5-.7 1.8-.1h.9l-.6 2.9h-.4l-.3-.1H898.8l-.2.1h-.1l-1 .3-.9.5-1.4 1.6-.7 1.9-.5 2-1.5 7.2z" class="st15"/><path d="m897.5 294.6 1-.3h.1z" class="st15"/><path d="m915.8 300.6-.2 1-1.4.4.2-.9z" class="st53"/><path d="m915.9 299.4-.1 1.2-1.4.5.1-1.3z" class="st8"/><path d="m915.8 297.7.1 1.7-1.4.4-.1-1.6z" class="st9"/><path d="m915.5 296.2.3 1.5-1.4.5-.3-1.5z" class="st10"/><path d="m915 294.9.5 1.3-1.4.5-.5-1.3z" class="st10"/><path d="m914.3 293.8.7 1.1-1.4.5-.7-1.1z" class="st9"/><path d="m913.5 292.9.8.9-1.4.5-.8-1z" class="st53"/><path d="m912.3 292.2 1.2.7-1.4.4-1.1-.7z" class="st6"/><path d="m911 291.7 1.3.5-1.3.4-1.4-.4z" class="st13"/><path d="m909.5 291.5 1.5.2-1.4.5-1.5-.3z" class="st49"/><path d="m907.9 291.6 1.6-.1-1.4.4-1.6.1z" class="st1"/><path d="m912.4 307.8-2 .9-1.4.4 2-.9z" class="st76"/><path d="m914 306.2-1.6 1.6-1.4.4 1.6-1.6z" class="st24"/><path d="m914.5 305.1-.5 1.1-1.4.4.6-1.1z" class="st77"/><path d="m914.9 303.8-.4 1.3-1.3.4.3-1.3z" class="st66"/><path d="m912.4 303.6 2.5.2-1.4.4-2.5-.2z" class="st2"/><path d="m908.1 306.5 1.1-.1-1 .4-1.5.1z" class="st23"/><path d="m906.6 306.1 1.5.4-1.4.4-1.5-.4z" class="st54"/><path d="m905.3 305.2 1.3.9-1.4.4-1.2-.9z" class="st40"/><path d="m904.5 303.9.8 1.3-1.3.4-.9-1.3z" class="st11"/><path d="m904.2 302.1.3 1.8-1.4.4-.3-1.7z" class="st10"/><path d="M904.2 301.2v.9l-1.4.5v-1.5z" class="st41"/><path d="m903.2 298.7 8.8.7v-.5l-.1-1.2-.6-1.6-1.1-1.2-.8-.4-.9-.2-1.1.1-.8.1-1.5.9-1.1 1.4zm-.3 2.4-.1 1.5.3 1.8.9 1.3 1.3.9 1.5.4 1.5-.1 1-.4.3-.1 1-.9.7-1.3 2.5.2-.4 1.3-.5 1.1-1.6 1.6-2 .9-2.3.2-1.7-.3-1.4-.6-1.1-.8-.9-1-.6-1.1-.4-1.2-.3-2.3.2-2.3.5-2.1.7-1.8 1-1.5 1.2-1.2 1.3-.8 1.5-.5 1.5-.1 1.6.2 1.3.5 1.1.7.9.9.7 1.1.5 1.3.3 1.5.1 1.7-.1 1.2-.2.9-10-.8z" class="st15"/><path d="m904.6 298.3 7.4.5v.6l-8.8-.7z" class="st2"/><path d="m905.3 296.5-.7 1.8-1.4.4.7-1.8z" class="st59"/><path d="m906.4 295.1-1.1 1.4-1.4.4 1.1-1.4z" class="st29"/><path d="m907.3 294.5-.9.6-1.4.4 1.5-.9z" class="st22"/><path d="m541.4 319.9 3.4-17.1M548.2 320.2l-1.9.1-4.9-.4M551 322.2l2-1 1.7-1.5 1.3-2 1-2.3.7-2.8.2-3.1-.1-1.9-.4-1.8-.6-1.5-.9-1.4-1.1-1.1-1.4-.9-1.6-.5-1.8-.3-7.4-.6M573.4 325l.5-2.6-11.7-.9 1.4-7.3M574.5 314.5l.5-2.6-10.8-.8 1.3-6.7M577.2 304.8l.5-2.6-14.4-1.1M594.5 310.3l-.1-1.8-.4-1.5-.7-1.3-1-1.1-1.1-.9-1.3-.7-2.9-.6-2.8.2M586.9 323.8l-1.6.1-2.3-.5-1-.4-.8-.7-.6-.8-.5-1-.3-1.2v-1.4l-2.8-.2M589.5 325.8l1.2-.7 1.1-.9.8-1.1.6-1.4.2-1.7-.1-1.4-.3-1.2-.5-1-.7-.9-1.6-1.2-1.9-.9-2.8-1-1.3-.7-1.1-.8-.7-1.1-.3-1.4.1-1 .4-.7 1.2-1.1.3-.1M598.5 326.9l4.4-22.7-2.8-.2M621.4 328.7l2.3-12-9.1-.7M615.2 325.9l-.4.1h-1.6l-1.5-.2-1.2-.6-1.1-.7-.8-.9-.7-1.2-.5-1.3-.4-3.1.2-2.1.4-2 .6-1.9 1-1.7 1.2-1.3 1.5-1.1.6-.2M624.2 313l-.2-1.9-.5-1.6-.8-1.4-1-1.2-1.2-.9-1.5-.7-1.6-.5-1.7-.2-2.5.1-2.3.7M616.6 328.1l1.5-.7M628.3 329.2l3-16.1M642.3 330.3l4.4-22.8-2.7-.2M639.6 323.9l-6.6-17.4-3-.2M657.9 331.5l2.6-13.6M663.6 317.6l.4-2.4-2.9-.2.3-1.5.4-1.3.7-.7M665.2 311.3l.4-2.3-1-.3-1.1-.1h-1.3M657.3 314.7l-1.3-.1M672.1 332.7l1.7-.5 1.4-.9 1.2-1.2 1-1.6.7-1.7.4-1.9.1-2-.1-1.6-.3-1.4-.5-1.2-.7-1.1-.9-.8-1.1-.7-1.2-.4-1.5-.2-1.8.1M666.4 325.5l.3-2.7.5-1.3.6-1.2.8-1 1-.8.2-.1M671.3 330.4h-.8l-1.8-.4-1.3-1.1-.8-1.5-.2-1.9M682.5 333.4l1.5-7.3.4-2 .8-1.8 1.4-1.6.8-.5M690.7 319.9l.6-2.9-.5-.1h-.4l-1.8.1M685.2 318.7l.3-1.8-2.3-.2M716.8 326.8l2.6-13.7-2.7-.2M709.4 333.2l-.2.1h-1.6l-1.4-.2-1.2-.4-1-.6-.7-.8-.6-1-.2-1.1v-1.4l.2-1.6 2.7-14.1-2.8-.2" class="st81"/><path d="m710.2 335.7 2.3-.7 1.9-1.5.8-1.1.6-1.3.5-1.8.5-2.5M732.2 325.4l-.2-1.3-.3-1.2-.6-1-.7-.8-1.9-1-2.1-.4-2 .1M726.4 334.6h-1l-1.6-.2-1.2-.7-.9-1-.2-1.6-2.5-.2M727.3 336.9l2-.7.8-.7.7-.8.4-1.1.1-1.2-.3-1.8-1-1.3-1.2-1-1.5-.9-1.5-.8-1.3-.7-.9-.9-.3-1 .3-1 .5-.5M747.6 330.9l.2-1 .1-1.2-.1-1.6-.3-1.5-.5-1.3-.7-1.2-.8-.9-1.2-.7-1.3-.4-1.5-.3-1.6.1M742.4 338l2-.9 1.6-1.6.5-1.1.4-1.3-2.5-.2M741.2 335.7l-1.1.1-1.5-.4-1.3-.9-.8-1.3-.4-1.8.1-.9M744 328.2l-7.4-.6.7-1.8 1.1-1.4.9-.6M751.5 338.7l1.4-7.3.4-2 .8-1.8 1.4-1.6.8-.5M759.6 325.2l.6-2.9-.5-.1h-.4l-1.8.1M754.1 324l.4-1.8-2.4-.2M771.8 328.5l-.2-1.4-.3-1.2-.6-.9-.7-.8-1.9-1-2.1-.5-2 .2M766 337.7h-1l-1.5-.3-1.3-.6-.9-1.1-.2-1.5-2.5-.2M766.9 340l2-.8.8-.6.6-.9.5-1 .1-1.3-.3-1.7-.9-1.3-1.3-1.1-1.5-.9-1.5-.7-1.2-.8-1-.8-.3-1.1.3-1 .5-.4M541.2 300l-4.4 22.7M548.6 300.5l-7.4-.5M550.4 300.8l-1.8-.3M552 301.4l-1.6-.6M553.4 302.2l-1.4-.8M554.5 303.3l-1.1-1.1M555.4 304.7l-.9-1.4M556 306.2l-.6-1.5M556.4 308l-.4-1.8M556.5 310l-.1-2M556.3 313l.2-3M555.6 315.8l.7-2.8M554.6 318.2l1-2.4M553.3 320.1l1.3-1.9M551.6 321.6l1.7-1.5M549.6 322.7l2-1.1M547.3 323.3l2.3-.6M544.8 323.3h2.5M536.8 322.7l8 .6M540 320.4l3.5-17.7M544.9 320.7l-4.9-.3M547 320.6l-2.1.1M550.3 319l-1.5 1M551.5 317.7l-1.2 1.3M552.5 316l-1 1.7M553.2 314.2l-.7 1.8M553.6 312.1l-.4 2.1M553.7 310.1l-.1 2M553.5 307.6l.2 2.5M553.1 306.4l.4 1.2M552.6 305.4l.5 1M551.8 304.5l.8.9M550.8 303.8l1 .7M549.5 303.3l1.3.5M547.9 303.1l1.6.2M542.6 299.5l-1.4.5M551 322.2l-1.4.5M541.4 319.9l-1.4.5M561.9 301.5l-4.4 22.8M576.3 302.7l-14.4-1.2M575.8 305.2l.5-2.5M562.8 311.5l1.4-7.2M573.6 312.4l-10.8-.9M573.2 314.9l.4-2.5M560.8 322l1.5-7.9M572.5 322.9l-11.7-.9M572 325.4l.5-2.5M557.5 324.3l14.5 1.1M563.3 301.1l-1.4.4M577.7 302.2l-1.4.5M577.2 304.8l-1.4.4M564.2 311.1l-1.4.4M575 311.9l-1.4.5M574.6 314.5l-1.4.4M562.2 321.5l-1.4.5M573.9 322.4l-1.4.5M573.4 325l-1.4.4M590.4 310.6l2.8.2M590.1 308.3l.3 2.3M589.7 307.4l.4.9M589.1 306.7l.6.7M587.5 305.8l1.6.9M585.6 305.4l1.9.4M582.4 306l1.6-.5M581.2 307.1l1.2-1.1M580.8 307.9l.4-.8M580.7 308.8l.1-.9M581 310.3l-.3-1.5M581.7 311.4l-.7-1.1M582.8 312.2l-1.1-.8M584.1 312.8l-1.3-.6M586.9 313.9l-2.8-1.1M588.8 314.7l-1.9-.8M590.4 316l-1.6-1.3M591.1 316.8l-.7-.8M591.6 317.8l-.5-1M591.9 319l-.3-1.2M592 320.5l-.1-1.5M591.8 322.2l.2-1.7M591.2 323.5l.6-1.3M590.4 324.7l.8-1.2M589.3 325.6l1.1-.9M588.1 326.2l1.2-.6M586.7 326.6l1.4-.4M583.8 326.8l2.9-.2M582 326.6l1.8.2M580.4 326.1l1.6.5M578.9 325.4l1.5.7M577.7 324.5l1.2.9M576.7 323.3l1 1.2M576 321.8l.7 1.5M575.6 320.1l.4 1.7M575.6 318.1v2M578.4 318.3l-2.8-.2M578.4 319.8v-1.5M578.7 321l-.3-1.2M579.2 322l-.5-1M579.8 322.8l-.6-.8M580.7 323.4l-.9-.6M581.6 323.8l-.9-.4M584 324.3l-2.4-.5M585.9 324.2l-1.9.1M588.7 322.2l-1.2 1.3M589.1 321.3l-.4.9M589.2 320.3l-.1 1M588.9 318.7l.3 1.6M588.1 317.6l.8 1.1M586.9 316.8l1.2.8M585.5 316.2l1.4.6M582.6 315.1l2.9 1.1M580.8 314.2l1.8.9M579.3 312.9l1.5 1.3M578.3 311.2l1 1.7M578 310.1l.3 1.1M577.9 308.9l.1 1.2M578.1 307.4l-.2 1.5M578.6 306.1l-.5 1.3M579.4 305l-.8 1.1M580.4 304.1l-1 .9M581.5 303.5l-1.1.6M582.8 303l-1.3.5M585.6 302.8l-2.8.2M588.5 303.5l-2.9-.7M589.8 304.1l-1.3-.6M591 305l-1.2-.9M591.9 306.1l-.9-1.1M592.6 307.4l-.7-1.3M593 309l-.4-1.6M593.2 310.8l-.2-1.8M594.5 310.3l-1.3.5M589.5 325.8l-1.4.4M577 317.7l-1.4.4M579.8 317.9l-1.4.4M584.2 302.6l-1.4.4M598.8 304.4l-4.5 22.7M601.5 304.6l-2.7-.2M597.1 327.3l4.4-22.7M594.3 327.1l2.8.2M600.1 304l-1.3.4M602.9 304.2l-1.4.4M598.5 326.9l-1.4.4M616.7 327.8l1.4-1.1M615.2 328.6l1.5-.8M613.5 329l1.7-.4M611.8 329h1.7M609.8 328.7l2 .3M608 328l1.8.7M606.5 327.1l1.5.9M605.2 325.8l1.3 1.3M604.2 324.3l1 1.5M603.4 322.5l.8 1.8M603 320.5l.4 2M602.8 318.2l.2 2.3M603 315.5l-.2 2.7M603.7 312.9l-.7 2.6M604.6 310.6l-.9 2.3M605.9 308.6l-1.3 2M607.6 307l-1.7 1.6M609.5 305.8l-1.9 1.2M611.8 305.1l-2.3.7M614.3 305l-2.5.1M616 305.3l-1.7-.3M617.6 305.7l-1.6-.4M619 306.4l-1.4-.7M620.3 307.4l-1.3-1M621.3 308.5l-1-1.1M622.1 309.9l-.8-1.4M622.6 311.5l-.5-1.6M622.8 313.4l-.2-1.9M620 313.2l2.8.2M619.9 312l.1 1.2M619.5 310.9l.4 1.1M619 309.9l.5 1M618.3 309.2l.7.7M616.5 308.1l1.8 1.1M614.3 307.6l2.2.5M610.5 308.3l1.8-.6M609 309.4l1.5-1.1M607.8 310.8l1.2-1.4M606.9 312.4l.9-1.6M606.2 314.3l.7-1.9M605.8 316.4l.4-2.1M605.6 318.4l.2-2M606 321.5l-.4-3.1M606.5 322.9l-.5-1.4M607.2 324l-.7-1.1M608 324.9l-.8-.9M609.1 325.7l-1.1-.8M610.3 326.2l-1.2-.5M611.8 326.4l-1.5-.2M613.4 326.4h-1.6M614.7 326.1l-1.3.3M616.9 324.7l-1 .8M617.7 323.7l-.8 1M618.4 322.5l-.7 1.2M619.4 319.5l-1 3M612.7 319l6.7.5M613.2 316.4l-.5 2.6M622.3 317.1l-9.1-.7M620 329.1l2.3-12M618.2 329l1.8.1M616.6 328.1l-1.4.5M610.9 305.4l-1.4.4M624.2 313l-1.4.4M614.6 316l-1.4.4M623.7 316.7l-1.4.4M621.4 328.7l-1.4.4M628.6 306.7l-4.4 22.7M631.6 306.9l-3-.2M639.1 326.6l-7.5-19.7M645.3 308l-2.7-.2M640.9 330.7l4.4-22.7M637.9 330.5l3 .2M630.4 310.9h.1M626.9 329.6l3.5-18.7M624.2 329.4l2.7.2M630 306.3l-1.4.4M633 306.5l-1.4.4M639.2 326.6h-.1M644 307.3l-1.4.5M646.7 307.5l-1.4.5M642.3 330.3l-1.4.4M628.3 329.2l-1.4.4M656.8 317.7l-2.8 14M654.2 317.5l2.6.2M654.7 315.1l-.5 2.4M657.2 315.3l-2.5-.2M658.5 310.8l-.7 2M659 310l-.5.8M659.8 309.4l-.8.6M660.8 309.1l-1 .3M662.1 309l-1.3.1M663.2 309.1l-1.1-.1M664.2 309.4l-1-.3M663.8 311.7l.4-2.3M663.2 311.6l.6.1M662.6 311.5l.6.1M661.2 311.7l.6-.2M660.4 312.6l.8-.9M660 314l.4-1.4M659.7 315.5l.3-1.5M662.6 315.7l-2.9-.2M662.2 318.1l.4-2.4M656.5 331.9l2.7-14.1M654 331.7l2.5.2M656 314.6l-1.3.5M662.2 308.6l-1.4.5M665.6 309l-1.4.4M665.2 311.3l-1.4.4M661.1 315l-1.4.5M664 315.2l-1.4.5M663.6 317.6l-1.4.5M657.9 331.5l-1.4.4M662.5 325.8l.1 1.5M662.6 323.8l-.1 2M663 321.9l-.4 1.9M663.8 320.1l-.8 1.8M664.7 318.7l-.9 1.4M665.9 317.4l-1.2 1.3M667.4 316.5l-1.5.9M669.1 316l-1.7.5M670.9 315.9l-1.8.1M672.4 316.2l-1.5-.3M673.7 316.6l-1.3-.4M674.7 317.2l-1-.6M675.6 318.1l-.9-.9M676.3 319.1l-.7-1M676.8 320.3l-.5-1.2M677.1 321.7l-.3-1.4M677.2 323.3l-.1-1.6M677.1 325.3l.1-2M676.7 327.2l.4-1.9M676 329l.7-1.8M675 330.5l1-1.5M673.8 331.7l1.2-1.2M672.4 332.6l1.4-.9M670.8 333.2l1.6-.6M668.9 333.2h1.9M667.4 333l1.5.2M666.2 332.5l1.2.5M665.1 331.8l1.1.7M664.2 330.9l.9.9M663.5 329.8l.7 1.1M662.9 328.6l.6 1.2M662.6 327.3l.3 1.3M665 325.9l.3-2.6M665.2 327.8l-.2-1.9M666 329.4l-.8-1.6M667.3 330.4l-1.3-1M669.1 330.9l-1.8-.5M670.4 330.8l-1.3.1M672.5 329.5l-1 .8M673.3 328.4l-.8 1.1M674.4 326l-1.1 2.4M674.8 323.4l-.4 2.6M674.5 321.5l.3 1.9M673.8 319.9l.7 1.6M672.5 318.9l1.3 1M670.8 318.3l1.7.6M668.2 318.9l1.2-.5M667.2 319.7l1-.8M666.4 320.7l.8-1M665.8 321.9l.6-1.2M665.3 323.3l.5-1.4M670.5 315.6l-1.4.4M672.1 332.7l-1.3.5M681.8 317.2l-3.1 16.4M684.2 317.3l-2.4-.1M683.4 320.9l.8-3.6M683.5 320.9h-.1M687.2 317.5l-1.5.7M689 317.3l-1.8.2M689.4 317.3h-.4M689.9 317.4l-.5-.1M689.3 320.3l.6-2.9M688.9 320.2l.4.1M688.6 320.2h.3M687.8 320.2h.8M686.1 320.6l1-.4M685.2 321.1l.9-.5M683.8 322.7l1.4-1.6M683 324.5l.8-1.8M682.6 326.5l.4-2M681.1 333.8l1.5-7.3M678.7 333.6l2.4.2M683.2 316.7l-1.4.5M685.5 316.9l-1.3.4M683.5 320.8l-.1.1M688.6 317l-1.4.5M691.3 317l-1.4.4M690.7 319.9l-1.4.4M682.5 333.4l-1.4.4M715.4 327.2l2.6-13.6M714.9 329.7l.5-2.5M714.4 331.6l.5-1.9M713.8 332.8l.6-1.2M713 333.9l.8-1.1M711.1 335.4l1.9-1.5M708.8 336.2l2.3-.8M706.2 336.3l2.6-.1M704.1 335.9l2.1.4M702.3 335.3l1.8.6M700.8 334.4l1.5.9M699.7 333.2l1.1 1.2M698.9 331.7l.8 1.5M698.4 330l.5 1.7M698.4 327.9v2.1M698.6 325.7l-.2 2.2M701.2 312.3l-2.6 13.4M704 312.5l-2.8-.2M701.3 326.6l2.7-14.1M701 328.2l.3-1.6M701.1 329.6l-.1-1.4M701.3 330.8l-.2-1.2M701.9 331.7l-.6-.9M702.6 332.5l-.7-.8M703.6 333.1l-1-.6M704.8 333.5l-1.2-.4M706.2 333.7l-1.4-.2M707.8 333.7h-1.6M709 333.4l-1.2.3M710.8 332.1l-.8.8M711.9 329.9l-1.1 2.2M712.6 327l-.7 2.9M715.3 313.4l-2.7 13.6M718 313.6l-2.7-.2M719.4 313.1l-1.4.5M710.2 335.7l-1.4.5M702.6 311.9l-1.4.4M705.4 312.1l-1.4.4M716.7 312.9l-1.4.5M728.3 325.7l2.5.1M728.1 324.4l.2 1.3M727.4 323.4l.7 1M726.4 322.8l1 .6M725.1 322.5l1.3.3M723 322.8l1-.3M722.2 323.4l.8-.6M721.9 324.4l.3-1M722.2 325.4l-.3-1M723.2 326.3l-1-.9M724.5 327.1l-1.3-.8M725.9 327.8l-1.4-.7M727.4 328.7l-1.5-.9M728.7 329.7l-1.3-1M729.6 331.1l-.9-1.4M729.9 332.8l-.3-1.7M729.8 334.1l.1-1.3M729.4 335.1l.4-1M728.7 336l.7-.9M727.9 336.6l.8-.6M725.9 337.4l2-.8M723.7 337.5l2.2-.1M721.3 337l2.4.5M720.3 336.5l1 .5M719.4 335.9l.9.6M718.7 335.1l.7.8M718.1 334.1l.6 1M717.8 332.9l.3 1.2M717.6 331.4l.2 1.5M720.1 331.6l-2.5-.2M720.3 333.1l-.2-1.5M721.2 334.2l-.9-1.1M722.5 334.8l-1.3-.6M724 335.1l-1.5-.3M725.2 335l-1.2.1M726.3 334.7l-1.1.3M727.4 332.8l-.3 1.2M727.1 331.7l.3 1.1M726.2 330.9l.9.8M724.9 330.1l1.3.8M723.4 329.3l1.5.8M722 328.5l1.4.8M720.7 327.5l1.3 1M719.8 326.2l.9 1.3M719.4 324.5l.4 1.7M719.5 323.4l-.1 1.1M719.9 322.5l-.4.9M721.2 321l-1.3 1.5M723 320.3l-1.8.7M725 320.1l-2 .2M727.1 320.5l-2.1-.4M729 321.6l-1.9-1.1M729.7 322.4l-.7-.8M730.3 323.3l-.6-.9M730.6 324.5l-.3-1.2M730.8 325.8l-.2-1.3M732.2 325.4l-1.4.4M723.6 323l-1.4.4M723.3 324l-1.4.4M723.6 325l-1.4.4M727.3 336.9l-1.4.5M719 330.9l-1.4.5M721.5 331.1l-1.4.5M721.7 332.7l-1.4.4M724.4 319.8l-1.4.5M734.8 331.9v-1.5M735.1 333.6l-.3-1.7M736 335l-.9-1.4M737.2 335.8l-1.2-.8M738.7 336.2l-1.5-.4M740.2 336.1l-1.5.1M742.4 334.7l-1 .9M743 333.4l-.6 1.3M745.5 333.5l-2.5-.1M745.2 334.8l.3-1.3M744.6 335.9l.6-1.1M743 337.5l1.6-1.6M741 338.4l2-.9M738.7 338.6l2.3-.2M737 338.3l1.7.3M735.6 337.7l1.4.6M734.4 336.9l1.2.8M733.6 336l.8.9M733 334.9l.6 1.1M732.5 333.7l.5 1.2M732.3 331.4l.2 2.3M732.4 329.1l-.1 2.3M732.9 327.1l-.5 2M733.6 325.3l-.7 1.8M734.6 323.8l-1 1.5M735.8 322.6l-1.2 1.2M737.1 321.8l-1.3.8M738.5 321.3l-1.4.5M740.1 321.3h-1.6M741.6 321.5l-1.5-.2M743 322l-1.4-.5M744.1 322.7l-1.1-.7M744.9 323.6l-.8-.9M745.6 324.7l-.7-1.1M746.1 326l-.5-1.3M746.4 327.5l-.3-1.5M746.5 329.2l-.1-1.7M746.4 330.4l.1-1.2M746.2 331.3l.2-.9M744 328.7l-8.8-.7M743.3 325.4l.6 1.6M742.2 324.3l1.1 1.1M741.4 323.9l.8.3M740.4 323.7l1 .2M737 324.8l1.5-.9M735.9 326.3l1.1-1.5M735.2 328l.7-1.7M747.6 330.9l-1.4.4M744.4 332.9l-1.4.5M746.9 333.1l-1.4.4M742.4 338l-1.4.4M739.9 320.9l-1.4.4M736.6 327.6l-1.4.4M750.7 322.5l-3.1 16.4M753.1 322.7l-2.4-.2M752.3 326.2l.8-3.6M752.4 326.2h-.1M756.1 322.8l-1.5.7M757.9 322.6l-1.8.2M758.3 322.6h-.4M758.8 322.7l-.5-.1M758.2 325.6l.6-2.9M757.8 325.5l.4.1M757.5 325.5h.3M756.7 325.5h.8M755 325.9l1-.3M754.1 326.4l.9-.5M752.8 328l1.3-1.6M752 329.9l.8-1.9M751.5 331.8l.5-1.9M750 339.1l1.5-7.3M747.6 338.9l2.4.2M752.1 322l-1.4.5M754.5 322.2l-1.4.4M752.4 326.2h-.1M757.5 322.3l-1.4.5M760.2 322.3l-1.4.4M759.6 325.2l-1.4.4M751.4 338.7l-1.4.4M767.9 328.7l2.5.2M767.7 327.4l.2 1.3M767 326.5l.7.9M766 325.9l1 .6M764.7 325.6l1.3.3M762.5 325.9l1.1-.3M761.8 326.4l.7-.5M761.5 327.5l.3-1.1M761.8 328.5l-.3-1M762.8 329.3l-1-.8M764 330.1l-1.2-.8M765.5 330.8l-1.5-.7M767 331.7l-1.5-.9M768.2 332.8l-1.2-1.1M769.2 334.1l-1-1.3M769.5 335.8l-.3-1.7M769.4 337.1l.1-1.3M769 338.2l.4-1.1M768.3 339l.7-.8M767.5 339.7l.8-.7M765.5 340.4l2-.7M763.3 340.5l2.2-.1M760.9 340l2.4.5M759.9 339.6l1 .4M759 339l.9.6M758.3 338.2l.7.8M757.7 337.1l.6 1.1M757.3 335.9l.4 1.2M757.2 334.4l.1 1.5M759.7 334.6l-2.5-.2M759.9 336.2l-.2-1.6M760.8 337.2l-.9-1M762.1 337.9l-1.3-.7M763.6 338.1l-1.6-.2M764.8 338.1h-1.2M765.9 337.8l-1.1.3M767 335.8l-.3 1.2M766.7 334.8l.3 1M765.8 333.9l.9.9M764.5 333.1l1.3.8M763 332.4l1.5.7M761.6 331.5l1.4.9M760.3 330.5l1.3 1M759.4 329.2l.9 1.3M759 327.5l.4 1.7M759.1 326.4l-.1 1.1M759.5 325.5l-.4.9M760.8 324.1l-1.3 1.4M762.6 323.3l-1.8.8M764.7 323.2l-2.1.1M766.7 323.6l-2-.4M768.6 324.6l-1.9-1M769.3 325.4l-.7-.8M769.9 326.4l-.6-1M770.2 327.5l-.3-1.1M770.4 328.9l-.2-1.4M771.8 328.5l-1.4.4M763.2 326l-1.4.4M762.9 327l-1.4.5M763.2 328.1l-1.4.4M766.9 340l-1.4.4M758.6 334l-1.4.4M761.1 334.2l-1.4.4M761.3 335.7l-1.4.5M764 322.9l-1.4.4M627.9 286.9l.6-2.5-11.8-.9 1.4-7.4M629.1 276.4l.4-2.5-10.8-.9 1.3-6.7M631.7 266.7l.5-2.5-14.4-1.2M634.5 284.8l3.3-17.1M641.3 285.1l-2 .1-4.8-.4M644 287.1l2-1 1.7-1.5 1.4-2 1-2.3.6-2.8.2-3.1-.1-1.9-.4-1.8-.6-1.5-.9-1.4-1.1-1.1-1.3-.9-1.7-.5-1.8-.3-7.3-.6M670.4 280.9l2.6-13.6-2.8-.2M663 287.4h-1.8l-1.4-.2-1.2-.4-1-.6-.7-.7-.6-1-.2-1.2-.1-1.4.3-1.5 2.7-14.2-2.8-.2M663.8 289.9l2.3-.8 1.9-1.5.8-1 .6-1.3.5-1.8.5-2.6M692.2 284.1l-2.8-.2M684.6 289l-1.7.1-1.4-.2-1.3-.5-1.1-.8-.8-.9-.7-1.2-.5-1.3-.3-3.1.1-2.1.4-2 .7-1.9.9-1.7 1.3-1.3 1.4-1.1.6-.2M693.4 276.3l-.1-1.9-.5-1.6-.7-1.5-1-1.2-1.1-.9-1.4-.7-1.5-.5-1.6-.3-2.6.1-2.2.7M686.4 291.4l1.5-.6 1.2-.9 1.1-1.1.8-1.4.7-1.5.5-1.8M695.5 292.1l3.4-6.1M711.8 293.4l-3.7-23.4-3.1-.2M700.4 283l4.5-8.4M706.2 283.4l-5.8-.4M732.2 274.4l.5-2.5-16.9-1.3M721.2 294.1l3.8-19.7M733.4 295l4.4-22.7-2.8-.2M741.9 286.1l.1-2.1.4-2 .7-1.9.9-1.6 1.3-1.4 1.5-1.1.5-.2M749.8 294l-1.7.1-1.5-.2-1.3-.5-1-.8-.9-.9-.7-1.2-.4-1.3-.4-3.1" class="st81"/><path d="m752.8 295.9 1.9-1.2 1.6-1.6 1.3-2 .9-2.3.6-2.5.2-2.7-.1-2.1-.5-1.9-.7-1.8-1-1.6-1.3-1.3-1.5-1.1-1.7-.7-1.9-.4-2.6.1-2.2.7M763.1 297.3l3.1-16M777.1 298.4l4.5-22.7-2.7-.2M774.5 292.1l-6.7-17.5-2.9-.2M792.7 299.6l2.7-13.5M798.4 285.8l.4-2.4-2.9-.3.4-1.4.4-1.4.6-.7M800 279.4l.5-2.3-1.1-.3-1-.1H797M792.2 282.9l-1.3-.1M807 300.8l1.7-.5 1.4-.9 1.2-1.2.9-1.5.7-1.8.4-1.9.2-2-.1-1.6-.3-1.4-.5-1.2-.7-1.1-.9-.8-1.1-.6-1.3-.5-1.4-.2-1.9.1M801.2 293.6l.4-2.7.4-1.3.7-1.2.8-1 1-.8.2-.1M806.2 298.5h-.8l-1.8-.4-1.3-1.1-.8-1.5-.3-1.9M817.4 301.5l1.4-7.3.5-2 .8-1.8 1.4-1.6.7-.5M825.5 288l.6-2.9-.4-.1h-.5l-1.7.2M820 286.9l.4-1.9-2.3-.2M835.9 302.9l1.9-9.8M847.6 293.3l.5-2.6-9.7-.7 1.3-6.7M850.8 283.6l.5-2.6-13.8-1M861.8 304.9l3.2-16.4-2.5-.2M856.1 302.4h-.8l-1-.2-.8-.5-.6-.8-.2-1v-.6l.1-.7.1-.7.2-.6 1.9-9.6-2.5-.2M857.5 304.2l.8-.5M872.5 289l1-4.8-2.5-.2M868.8 288.8l-1.3-.1M872.6 305.8l.4-2.5-.7.1-.7.1-1-.4-.4-.3-.1-.6.1-.5v-.6l1.8-9.1M875.1 291.7l.5-2.4-3.1-.3M887.3 306.9l3.2-16.5-2.4-.2M881.7 304.3l-.8.1-1.1-.3-.8-.4-.6-.8-.2-1.1.1-.5v-.7l.2-.7.1-.6 1.9-9.6-2.5-.2M883 306.2l.8-.5M894 307.4l1.4-7.3.4-2 .8-1.8 1.4-1.6.8-.5M902.1 293.9l.6-2.9-.5-.1h-.4l-1.8.2M896.6 292.8l.4-1.9-2.4-.2M915.6 301.6l.2-1 .1-1.2-.1-1.7-.3-1.5-.5-1.3-.7-1.1-.8-.9-1.2-.7-1.3-.5-1.5-.2-1.6.1M910.4 308.7l2-.9 1.6-1.6.5-1.1.4-1.3-2.5-.2M909.2 306.4l-1.1.1-1.5-.4-1.3-.9-.8-1.3-.3-1.8v-.9M912 298.8l-7.4-.5.7-1.8 1.1-1.4.9-.6M616.4 263.5l-4.4 22.7M630.8 264.6l-14.4-1.1M630.3 267.1l.5-2.5M617.3 273.5l1.4-7.3M628.1 274.3l-10.8-.8M627.7 276.9l.4-2.6M615.3 283.9l1.5-7.9M627.1 284.8l-11.8-.9M626.5 287.3l.6-2.5M612 286.2l14.5 1.1M617.8 263l-1.4.5M632.2 264.2l-1.4.4M631.7 266.7l-1.4.4M618.7 273l-1.4.5M629.5 273.9l-1.4.4M629.1 276.4l-1.4.5M616.7 283.5l-1.4.4M628.5 284.4l-1.4.4M627.9 286.9l-1.4.4M634.3 264.9l-4.4 22.7M641.6 265.4l-7.3-.5M643.5 265.7l-1.9-.3M645 266.3l-1.5-.6M646.4 267.1l-1.4-.8M647.5 268.2l-1.1-1.1M648.4 269.6l-.9-1.4M649 271.2l-.6-1.6M649.4 272.9l-.4-1.7M649.5 274.9l-.1-2M649.3 278l.2-3.1M648.7 280.7l.6-2.7M647.7 283.1l1-2.4M646.3 285l1.4-1.9M644.6 286.5l1.7-1.5M642.7 287.6l1.9-1.1M640.4 288.2l2.3-.6M637.9 288.2h2.5M629.9 287.6l8 .6M633.1 285.3l3.4-17.7M637.9 285.6l-4.8-.3M640 285.5l-2.1.1M643.3 283.9l-1.5 1M644.6 282.6l-1.3 1.3M645.5 280.9l-.9 1.7M646.2 279.1l-.7 1.8M646.6 277l-.4 2.1M646.8 275l-.2 2M646.5 272.5l.3 2.5M646.2 271.3l.3 1.2M645.6 270.3l.6 1M644.8 269.4l.8.9M643.8 268.7l1 .7M642.6 268.2l1.2.5M641 268l1.6.2M635.7 264.4l-1.4.5M644 287.1l-1.3.5M634.5 284.8l-1.4.5M669 281.4l2.6-13.7M668.5 283.9l.5-2.5M668 285.7l.5-1.8M667.4 287l.6-1.3M666.6 288.1l.8-1.1M664.7 289.6l1.9-1.5M662.4 290.3l2.3-.7M659.8 290.4l2.6-.1M657.7 290.1l2.1.3M655.8 289.5l1.9.6M654.4 288.6l1.4.9M653.2 287.3l1.2 1.3M652.5 285.9l.7 1.4M652 284.1l.5 1.8M652 282.1v2M652.2 279.8l-.2 2.3M654.8 266.4l-2.6 13.4M657.6 266.7l-2.8-.3M654.9 280.8l2.7-14.1M654.7 282.4l.2-1.6M654.7 283.7v-1.3M654.9 284.9l-.2-1.2M655.5 285.9l-.6-1M656.2 286.7l-.7-.8M657.2 287.3l-1-.6M658.4 287.7l-1.2-.4M659.8 287.9l-1.4-.2M661.4 287.9h-1.6M662.6 287.6l-1.2.3M664.4 286.2l-.8.8M665.5 284l-1.1 2.2M666.2 281.2l-.7 2.8M668.9 267.5l-2.7 13.7M671.6 267.7l-2.7-.2M673 267.3l-1.4.4M663.8 289.9l-1.4.4M656.2 266l-1.4.4M659 266.2l-1.4.5M670.2 267.1l-1.3.4M690.8 284.5l-2.8-.2M690.3 286.3l.5-1.8M689.6 287.9l.7-1.6M688.8 289.2l.8-1.3M687.7 290.4l1.1-1.2M686.5 291.2l1.2-.8M685 291.8l1.5-.6M683.4 292.1l1.6-.3M681.5 292.1h1.9M679.5 291.8l2 .3M677.7 291.1l1.8.7M676.2 290.2l1.5.9M674.9 289l1.3 1.2M673.9 287.4l1 1.6M673.2 285.6l.7 1.8M672.7 283.6l.5 2M672.6 281.3l.1 2.3M672.8 278.6l-.2 2.7M673.4 276l-.6 2.6M674.3 273.7l-.9 2.3M675.6 271.7l-1.3 2M677.3 270.1l-1.7 1.6M679.3 268.9l-2 1.2M681.5 268.2l-2.2.7M684.1 268.1l-2.6.1M685.7 268.4l-1.6-.3M687.2 268.9l-1.5-.5M688.6 269.6l-1.4-.7M689.7 270.6l-1.1-1M690.7 271.8l-1-1.2M691.4 273.2l-.7-1.4M691.9 274.9l-.5-1.7M692 276.7l-.1-1.8M689.3 276.5l2.7.2M688.9 274.1l.4 2.4M688.4 273.2l.5.9M687.8 272.4l.6.8M686.2 271.2l1.6 1.2M684.1 270.7l2.1.5M680.2 271.5l1.8-.7M678.8 272.5l1.4-1M677.5 273.9l1.3-1.4M676.6 275.5l.9-1.6M675.9 277.4l.7-1.9M675.5 279.5l.4-2.1M675.4 281.5l.1-2M675.7 284.6l-.3-3.1M676.2 286l-.4-1.4M676.9 287.1l-.7-1.1M677.8 288l-.9-.9M678.8 288.8l-1-.8M680.1 289.3l-1.3-.5M681.5 289.5l-1.4-.2M683.9 289.4l-2.4.1M687.1 286.7l-1.4 1.7M688 284.3l-.9 2.4M692.2 284.1l-1.4.4M689.4 283.9l-1.4.4M686.4 291.4l-1.4.4M680.7 268.5l-1.4.4M693.4 276.3l-1.4.4M703.6 270.2 691 292.3M706.7 270.4l-3.1-.2M710.5 293.8l-3.8-23.4M707.6 293.6l2.9.2M706.6 286.6l1 7M694.1 292.6l3.7-6.7M691 292.3l3.1.3M699 283.4l5.6-10.4M706.3 284l-7.3-.6M705 269.8l-1.4.4M708.1 270l-1.4.4M711.8 293.4l-1.3.4M695.5 292.1l-1.4.5M700.4 283l-1.4.4M730.8 274.9l.5-2.6M719.8 294.5l4-20.2M717 294.3l2.8.2M721 274.1l-4 20.2M713.9 273.6l7.1.5M714.4 271l-.5 2.6M731.3 272.3l-16.9-1.3M732.2 274.4l-1.4.5M732.7 271.9l-1.4.4M721.2 294.1l-1.4.4M715.8 270.6l-1.4.4M733.6 272.5l-4.4 22.8M736.4 272.7l-2.8-.2M732 295.5l4.4-22.8M729.2 295.3l2.8.2M735 272.1l-1.4.4M737.8 272.3l-1.4.4M733.4 295l-1.4.5M737.7 286.3l.1 2.3M737.9 283.6l-.2 2.7M738.5 281.1l-.6 2.5M739.5 278.7l-1 2.4M740.8 276.8l-1.3 1.9M742.4 275.1l-1.6 1.7M744.4 273.9l-2 1.2M746.7 273.3l-2.3.6M749.2 273.2l-2.5.1M751.1 273.5l-1.9-.3M752.8 274.2l-1.7-.7M754.3 275.3l-1.5-1.1M755.6 276.6l-1.3-1.3M756.6 278.2l-1-1.6M757.3 280l-.7-1.8M757.8 282l-.5-2M757.9 284.1l-.1-2.1M757.7 286.7l.2-2.6M757.2 289.2l.5-2.5M756.2 291.5l1-2.3M754.9 293.5l1.3-2M753.3 295.1l1.6-1.6M751.4 296.3l1.9-1.2M749.2 297l2.2-.7M746.7 297.1l2.5-.1M744.7 296.8l2 .3M742.9 296.2l1.8.6M741.3 295.2l1.6 1M740 294l1.3 1.2M739 292.4l1 1.6M738.3 290.7l.7 1.7M737.8 288.6l.5 2.1M740.5 286.6l.1-2.1M740.9 289.7l-.4-3.1M741.3 291l-.4-1.3M742 292.1l-.7-1.1M742.9 293.1l-.9-1M743.9 293.8l-1-.7M745.2 294.3l-1.3-.5M746.7 294.6l-1.5-.3M748.6 294.5l-1.9.1M751.8 292.8l-1.5 1M753 291.4l-1.2 1.4M753.9 289.8l-.9 1.6M754.6 287.9l-.7 1.9M755 285.9l-.4 2M755.2 283.8l-.2 2.1M754.8 280.8l.4 3M754.3 279.5l.5 1.3M753.6 278.3l.7 1.2M752.8 277.3l.8 1M751.8 276.5l1 .8M750.6 276l1.2.5M749.2 275.8l1.4.2M745.4 276.5l1.7-.7M743.9 277.5l1.5-1M742.7 278.9l1.2-1.4M741.7 280.6l1-1.7M741 282.4l.7-1.8M740.6 284.5l.4-2.1M745.8 273.5l-1.4.4M752.8 295.9l-1.4.4M763.5 274.8l-4.5 22.8M766.5 275l-3-.2M773.9 294.7l-7.4-19.7M774 294.7h-.1M780.2 276.1l-2.7-.2M775.8 298.8l4.4-22.7M772.8 298.6l3 .2M761.7 297.8l3.6-18.7M759 297.6l2.7.2M764.9 274.4l-1.4.4M767.8 274.6l-1.3.4M774 294.7h-.1M778.9 275.5l-1.4.4M781.6 275.7l-1.4.4M777.2 298.4l-1.4.4M763.1 297.3l-1.4.5M791.6 285.8l-2.8 14.1M789.1 285.6l2.5.2M789.5 283.2l-.4 2.4M792.1 283.4l-2.6-.2M793.3 278.9l-.7 2.1M793.9 278.1l-.6.8M794.6 277.5l-.7.6M795.6 277.2l-1 .3M797 277.1l-1.4.1M798 277.3l-1-.2M799 277.6l-1-.3M798.6 279.9l.4-2.3M798 279.7l.6.2M797.5 279.6l.5.1M796.1 279.9l.6-.3M795.3 280.8l.8-.9M794.9 282.1l.4-1.3M794.5 283.6l.4-1.5M797.4 283.8l-2.9-.2M797 286.2l.4-2.4M791.3 300l2.8-14M788.8 299.9l2.5.1M790.9 282.8l-1.4.4M797 276.7l-1.4.5M800.5 277.1l-1.5.5M800 279.4l-1.4.5M795.9 283.1l-1.4.5M798.8 283.4l-1.4.4M798.4 285.8l-1.4.4M792.7 299.6l-1.4.4M797.3 293.9l.1 1.5M797.5 291.9l-.2 2M797.9 290l-.4 1.9M798.6 288.3l-.7 1.7M799.6 286.8l-1 1.5M800.8 285.6l-1.2 1.2M802.2 284.7l-1.4.9M803.9 284.1l-1.7.6M805.8 284.1h-1.9M807.2 284.3l-1.4-.2M808.5 284.7l-1.3-.4M809.6 285.3l-1.1-.6M810.5 286.2l-.9-.9M811.2 287.2l-.7-1M811.7 288.4l-.5-1.2M812 289.9l-.3-1.5M812.1 291.5l-.1-1.6M812 293.5l.1-2M811.5 295.4l.5-1.9M810.8 297.1l.7-1.7M809.9 298.6l.9-1.5M808.7 299.8l1.2-1.2M807.3 300.8l1.4-1M805.6 301.3l1.7-.5M803.7 301.4l1.9-.1M802.3 301.1l1.4.3M801 300.6l1.3.5M799.9 299.9l1.1.7M799 299l.9.9M798.3 298l.7 1M797.8 296.7l.5 1.3M797.4 295.4l.4 1.3M799.8 294.1l.4-2.7M800.1 296l-.3-1.9M800.9 297.5l-.8-1.5M802.2 298.5l-1.3-1M804 299l-1.8-.5M805.3 298.9l-1.3.1M807.4 297.6l-1 .8M808.2 296.6l-.8 1M809.2 294.1l-1 2.5M809.6 291.5l-.4 2.6M809.4 289.6l.2 1.9M808.6 288.1l.8 1.5M807.4 287l1.2 1.1M805.6 286.5l1.8.5M803.1 287.1l1.2-.5M802.1 287.9l1-.8M801.3 288.9l.8-1M800.6 290.1l.7-1.2M800.2 291.4l.4-1.3M805.3 283.7l-1.4.4M807 300.8l-1.4.5M816.7 285.3l-3.2 16.5M819 285.5l-2.3-.2M818.3 289l.7-3.5M822.1 285.6l-1.5.7M823.8 285.5l-1.7.1M824.3 285.5l-.5-.1M824.7 285.5h-.4M824.1 288.4l.6-2.9M823.8 288.4h.3M823.4 288.3l.4.1M822.7 288.3h.7M821 288.7l.9-.3M820.1 289.2l.9-.5M818.7 290.8l1.4-1.6M817.9 292.7l.8-1.9M817.4 294.7l.5-2M816 301.9l1.4-7.2M813.5 301.8l2.5.1M818.1 284.8l-1.4.5M820.4 285l-1.4.5M818.4 289h-.1M823.5 285.2l-1.4.4M826.1 285.1l-1.4.4M825.5 288l-1.4.4M817.4 301.5l-1.4.4M836.1 280.4l-4.3 22.8M849.9 281.5l-13.8-1.1M849.4 284l.5-2.5M837 290.4l1.4-7.2M846.7 291.2l-9.7-.8M846.2 293.7l.5-2.5M834.5 303.4l2-10.4M831.8 303.2l2.7.2M837.5 280l-1.4.4M851.3 281l-1.4.5M850.8 283.6l-1.4.4M838.4 290l-1.4.4M848.1 290.7l-1.4.5M847.6 293.3l-1.4.4M835.9 302.9l-1.4.5M860.4 305.4l3.2-16.5M858 305.2l2.4.2M858.4 302.7h.1M857.4 303.9l1-1.2M856.1 304.7l1.3-.8M854.6 305.1l1.5-.4M853 305.2l1.6-.1M851.2 304.8l1.8.4M849.9 303.9l1.3.9M849.1 302.5l.8 1.4M848.8 300.6l.3 1.9M848.9 299.2l-.1 1.4M849.3 297.3l-.4 1.9M851.1 287.9l-1.8 9.4M853.6 288.1l-2.5-.2M851.7 297.7l1.9-9.6M851.5 298.3l.2-.6M851.4 299l.1-.7M851.3 299.7l.1-.7M851.3 300.3v-.6M851.5 301.4l-.2-1.1M852.1 302.1l-.6-.7M852.9 302.6l-.8-.5M854 302.8l-1.1-.2M855 302.8h-1M855.9 302.5l-.9.3M858.7 299.8l-1.2 1.6M859.4 297.8l-.7 2M861.1 288.7l-1.7 9.1M863.6 288.9l-2.5-.2M861.8 304.9l-1.4.5M865 288.5l-1.4.4M857.5 304.2l-1.4.5M852.5 287.5l-1.4.4M855 287.7l-1.4.4M862.5 288.3l-1.4.4M871.2 289.5l.9-4.9M874.2 289.7l-3-.2M873.7 292.1l.5-2.4M868.8 301.6l1.9-9.7M868.8 302.1v-.5M868.7 302.6l.1-.5M868.8 303.2l-.1-.6M869.2 303.6l-.4-.4M870.2 303.9l-1-.3M871 303.9h-.8M871.7 303.7l-.7.2M871.2 306.2l.5-2.5M870.3 306.2h.9M869.5 306.2h.8M868.1 306l1.4.2M867.1 305.5l1 .5M866.3 304.6l.8.9M866.1 303.3l.2 1.3M866.1 302.6v.7M866.2 301.9l-.1.7M868.2 291.7l-2 10.2M865.7 291.5l2.5.2M866.1 289.1l-.4 2.4M868.7 289.3l-2.6-.2M872.1 284.6l-2.5-.2M872.5 289l-1.3.5M873.5 284.2l-1.4.4M875.6 289.3l-1.4.4M875.1 291.7l-1.4.4M870.2 302.8l-1.4.4M870.6 303.1l-1.4.5M873 303.3l-1.3.4M872.6 305.8l-1.4.4M867.5 288.7l-1.4.4M871 284l-1.4.4M886 307.3l3.2-16.4M883.6 307.2l2.4.1M882.9 305.9l1.1-1.2M881.6 306.6l1.3-.7M880.1 307.1l1.5-.5M878.6 307.1h1.5M876.7 306.7l1.9.4M875.4 305.9l1.3.8M874.6 304.5l.8 1.4M874.3 302.5l.3 2M874.5 301.1l-.2 1.4M874.8 299.3l-.3 1.8M876.6 289.9l-1.8 9.4M879.1 290.1l-2.5-.2M877.2 299.7l1.9-9.6M877.1 300.3l.1-.6M877 301l.1-.7M876.9 301.7l.1-.7M876.8 302.3l.1-.6M877 303.3l-.2-1M877.6 304.1l-.6-.8M878.5 304.6l-.9-.5M879.5 304.8l-1-.2M880.5 304.8h-1M881.4 304.5l-.9.3M884.2 301.8l-1.2 1.6M884.9 299.8l-.7 2M886.7 290.7l-1.8 9.1M889.2 290.9l-2.5-.2M887.3 306.9l-1.3.4M890.5 290.4l-1.3.5M883 306.2l-1.4.4M878 289.5l-1.4.4M880.5 289.7l-1.4.4M888.1 290.2l-1.4.5M893.2 291.2l-3.1 16.5M895.6 291.4l-2.4-.2M894.8 294.9l.8-3.5M894.9 294.9h-.1M898.6 291.5l-1.5.7M900.4 291.4l-1.8.1M900.8 291.4h-.4M901.3 291.4h-.5M900.7 294.3l.6-2.9M900.3 294.3h.4M900 294.2l.3.1M899.2 294.2h.8M897.5 294.6l1-.3M896.6 295.1l.9-.5M895.2 296.7l1.4-1.6M894.5 298.6l.7-1.9M894 300.6l.5-2M892.6 307.8l1.4-7.2M890.1 307.7l2.5.1M894.6 290.8l-1.4.4M897 290.9l-1.4.5M894.9 294.9h-.1M900 291.1l-1.4.4M902.7 291l-1.4.4M902.1 293.9l-1.4.4M894 307.4l-1.5.4M902.8 302.6v-1.5M903.1 304.3l-.3-1.7M904 305.6l-.9-1.3M905.2 306.5l-1.2-.9M906.7 306.9l-1.5-.4M908.2 306.8l-1.5.1M910.4 305.4l-1 .9M911 304l-.6 1.4M913.5 304.2l-2.5-.2M913.2 305.5l.3-1.3M912.6 306.6l.6-1.1M911 308.2l1.6-1.6M909 309.1l2-.9M906.7 309.3l2.3-.2M905 309l1.7.3M903.6 308.4l1.4.6M902.4 307.6l1.2.8M901.6 306.7l.8.9M901 305.6l.6 1.1M900.6 304.4l.4 1.2M900.3 302.1l.3 2.3M900.4 299.8l-.1 2.3M900.9 297.8l-.5 2M901.6 296l-.7 1.8M902.6 294.5l-1 1.5M903.8 293.3l-1.2 1.2M905.1 292.5l-1.3.8M906.5 292l-1.4.5M908.1 291.9l-1.6.1M909.6 292.2l-1.5-.3M911 292.6l-1.4-.4M912.1 293.3l-1.1-.7M912.9 294.3l-.8-1M913.6 295.4l-.7-1.1M914.1 296.7l-.5-1.3M914.4 298.2l-.3-1.5M914.5 299.8l-.1-1.6M914.4 301.1l.1-1.3M914.2 302l.2-.9M912 299.4l-8.8-.7M911.3 296.1l.6 1.5M910.2 294.9l1.1 1.2M909.4 294.6l.8.3M908.4 294.4l1 .2M905 295.5l1.5-.9M903.9 296.9l1.1-1.4M903.2 298.7l.7-1.8M915.6 301.6l-1.4.4M912.4 303.6l-1.4.4M914.9 303.8l-1.4.4M910.4 308.7l-1.4.4M907.9 291.6l-1.4.4M904.6 298.3l-1.4.4M548.8 320l-.6.2-1.2.4M543.5 302.7l1.3.1 3.1.3M564.2 304.3l1.3.1 10.3.8M562.3 314.1l1.3.1 9.6.7M584 305.5h.1l1.5-.1M587.5 323.5l-.6.3-1 .4M618.1 326.7v.7l.1 1.6M612.3 307.7h.2l1.8-.1M615.9 325.5l-.7.4-.5.2M642.6 307.8l-3 16.1M630.5 310.9l.8 2.2 6.6 17.4M657.8 312.8l-.5 1.9-.1.6M662.5 311.5h.1M659.2 317.8l1.3.1 1.7.2M671.5 330.3l-.2.1-.9.4M669.4 318.4h.4l1-.1M684.5 319.4l-1 1.4v.1M685.7 318.2l-.5.5-.7.7M687.4 320.2h.4M710 332.9l-.6.3-.4.2M724 322.5h1.1M727.1 334l-.7.6-.1.1M734.8 330.4l1.4.1 10 .8M741.4 335.6l-.2.1-1 .4M743.9 327l.1 1.2v.5M738.5 323.9l.8-.1 1.1-.1M753.4 324.7l-1 1.5M754.6 323.5l-.5.5-.7.7M756.3 325.5h.4M763.6 325.6h1.1M766.7 337l-.7.7h-.1M618.7 266.2l1.3.1 10.3.8M616.8 276l1.3.1 9.6.8M641.8 284.9l-.5.2-1.3.4M636.5 267.6l1.3.1 3.2.3M663.6 287l-.6.4-.4.2M682 270.8h.2l1.9-.1M685.7 288.4l-1.1.6-.7.4M697.8 285.9l1.1.1 7.7.6M706.2 283.4l.1.6M723.8 274.3l1.2.1 5.8.5M750.3 293.8l-.5.2-1.2.5M747.1 275.8h2.1M777.5 275.9l-3 16.2M765.3 279.1l.9 2.2 6.6 17.3M792.6 281l-.4 1.9-.1.5M797.3 279.6h.2M794.1 286l1.3.1 1.6.1" class="st81"/><path d="m806.4 298.4-.2.1-.9.4M804.3 286.6l.4-.1h.9M819.3 287.5l-.9 1.5h-.1M820.6 286.3l-.6.6-.7.6M822.2 288.3h.5M838.4 283.2l1.3.1 9.7.7M836.5 293l1.3.1 8.4.6M858.3 303.7l-.3 1.5M857.5 301.4l-1.4 1M870.7 291.9l1.3.1 1.7.1M869.6 284.4l-.8 4.4-.1.5M883.8 305.7l-.2 1.5M883 303.4l-1.3.9M895.9 293.4l-1 1.5M897.1 292.2l-.5.6-.7.6M898.8 294.2h.4M902.8 301.1l1.4.1 10 .8M909.4 306.3l-.2.1-1 .4M911.9 297.7l.1 1.1v.6M906.5 294.6l.8-.1 1.1-.1M639.6 323.9l-.4 2.7h-.1M661.8 311.5h.7M687.1 320.2H687.4M756 325.6l.1-.1h.2M704.7 273l.2 1.6 1.3 8.8M774.5 292.1l-.5 2.6M796.7 279.6h.6M821.9 288.4h.1l.2-.1M858.5 302.7l-.2.9v.1M856.1 302.4l-.1.1h-.1M884 304.7l-.1.9-.1.1M881.7 304.3l-.2.2h-.1M898.5 294.3h.1l.2-.1" class="st81"/><path d="M536.8 322.7 509.1 286h-12M772.8 298.6l43 49h12" class="st82"/><path d="m774.7 303.8-1.9-5.2 4.9 2.6z" class="st83"/><text class="st83 st84 st85" transform="translate(13.06 281.92)">2015 - 2016: Interaction Design for the whole process of DiDi Hitch, DiDi Chuxing Group</text><text class="st83 st84 st85" transform="translate(13.06 300.92)">2014 - 2015: Interaction Design for Weishi Mobile APP, Tencent Online Media Group</text><text class="st83 st84 st86" transform="translate(833.76 353.6)">2020: Paper published in 336th &quot;BAN ZHU REN&quot;, Beijing Academy of Educational Sciences</text><text class="st83 st84 st86" transform="translate(833.76 371.73)">2019 - 2020: Chinese teacher, Tsinghua University High School</text><text class="st83 st84 st86" transform="translate(833.76 389.86)">2021 - Present: Chinese teacher, Beijing AIDI School</text><text class="st83 st84 st86" transform="translate(833.76 407.991)">2021 - 2022: Coursebook Compilation: &quot;FIRST LANGUAGE CHINESE (IGCSE 0509)&quot;</text></svg>