<svg xmlns="http://www.w3.org/2000/svg" xmlns:xlink="http://www.w3.org/1999/xlink" viewBox="0 0 395.43 611.75"><defs><style>.a,.dy,.dz{fill:none;}.b{isolation:isolate;}.c{clip-path:url(#a);}.d{clip-path:url(#b);}.e{fill:url(#c);}.f{clip-path:url(#d);}.g{fill:url(#e);}.h{clip-path:url(#f);}.i{fill:url(#g);}.j{clip-path:url(#h);}.k{fill:url(#i);}.l{clip-path:url(#j);}.m{fill:url(#k);}.n{clip-path:url(#l);}.o{fill:url(#m);}.p{clip-path:url(#n);}.q{fill:url(#o);}.r{clip-path:url(#p);}.s{fill:url(#q);}.t{clip-path:url(#r);}.u{opacity:0.2;mix-blend-mode:multiply;}.v{clip-path:url(#s);}.w{fill:#231815;}.x{clip-path:url(#u);}.y{clip-path:url(#w);}.z{fill:url(#x);}.aa{clip-path:url(#y);}.ab{fill:url(#z);}.ac{clip-path:url(#aa);}.ad{fill:url(#ab);}.ae{clip-path:url(#ac);}.af{fill:url(#ad);}.ag{clip-path:url(#ae);}.ah{fill:url(#af);}.ai{clip-path:url(#ag);}.aj{fill:url(#ah);}.ak{clip-path:url(#ai);}.al{fill:url(#aj);}.am{clip-path:url(#ak);}.an{fill:url(#al);}.ao{clip-path:url(#am);}.ap{fill:url(#an);}.aq{clip-path:url(#ao);}.ar{fill:url(#ap);}.as{clip-path:url(#aq);}.at{fill:url(#ar);}.au{clip-path:url(#as);}.av{fill:url(#at);}.aw{clip-path:url(#au);}.ax{fill:url(#av);}.ay{clip-path:url(#aw);}.az{fill:url(#ax);}.ba{clip-path:url(#ay);}.bb{fill:url(#az);}.bc{clip-path:url(#ba);}.bd{fill:url(#bb);}.be{clip-path:url(#bc);}.bf{fill:url(#bd);}.bg{clip-path:url(#be);}.bh{fill:url(#bf);}.bi{clip-path:url(#bg);}.bj{fill:url(#bh);}.bk{clip-path:url(#bi);}.bl{fill:url(#bj);}.bm{clip-path:url(#bk);}.bn{fill:url(#bl);}.bo{clip-path:url(#bm);}.bp{fill:url(#bn);}.bq{clip-path:url(#bo);}.br{fill:url(#bp);}.bs{clip-path:url(#bq);}.bt{fill:url(#br);}.bu{clip-path:url(#bs);}.bv{fill:url(#bt);}.bw{clip-path:url(#bu);}.bx{fill:url(#bv);}.by{clip-path:url(#bw);}.bz{fill:url(#bx);}.ca{clip-path:url(#by);}.cb{fill:url(#bz);}.cc{clip-path:url(#ca);}.cd{fill:url(#cb);}.ce{clip-path:url(#cc);}.cf{fill:url(#cd);}.cg{clip-path:url(#ce);}.ch{fill:url(#cf);}.ci{clip-path:url(#cg);}.cj{fill:url(#ch);}.ck{clip-path:url(#ci);}.cl{fill:url(#cj);}.cm{clip-path:url(#ck);}.cn{fill:url(#cl);}.co{clip-path:url(#cn);}.cp{clip-path:url(#cp);}.cq{fill:url(#cq);}.cr{clip-path:url(#cr);}.cs{fill:url(#cs);}.ct{fill:#fdfeff;}.cu{clip-path:url(#cu);}.cv{fill:url(#cv);}.cw{clip-path:url(#cx);}.cx{fill:url(#cy);}.cy{fill:#318d59;}.cz{clip-path:url(#db);}.da{clip-path:url(#dd);}.db{fill:url(#de);}.dc{clip-path:url(#df);}.dd{fill:url(#dg);}.de{clip-path:url(#dh);}.df{fill:url(#di);}.dg{clip-path:url(#dj);}.dh{fill:url(#dk);}.di{clip-path:url(#dl);}.dj{fill:url(#dm);}.dk{clip-path:url(#dn);}.dl{fill:url(#do);}.dm{clip-path:url(#dp);}.dn{fill:url(#dq);}.do{clip-path:url(#dr);}.dp{fill:url(#ds);}.dq{clip-path:url(#dt);}.dr{fill:url(#du);}.ds{clip-path:url(#dv);}.dt{fill:url(#dw);}.du{clip-path:url(#dx);}.dv{fill:url(#dy);}.dw{fill:#006470;}.dx{fill:#89c122;}.dy{stroke:#fff;stroke-width:1.25px;}.dy,.dz{stroke-miterlimit:10;}.dz{stroke:#000;stroke-width:0.25px;}</style><clipPath id="a"><rect class="a" x="-26.81" y="-27.16" width="450" height="666"/></clipPath><clipPath id="b"><path class="a" d="M291.1,435.28a87.54,87.54,0,0,0,105.09,14.23v0l.51-.31c2.72-1.57,5.91-4.18,8.49-6.07V390.33a70.68,70.68,0,0,1-8.77,15.46c-23.86,31.66-66.76,30.75-91,6.5a45.26,45.26,0,0,1,0-64l-14.29-12a70,70,0,0,0,0,99"/></clipPath><linearGradient id="c" x1="-26.81" y1="638.84" x2="-25.81" y2="638.84" gradientTransform="matrix(0, -119.57, -119.57, 0, 76721, -2746.03)" gradientUnits="userSpaceOnUse"><stop offset="0" stop-color="#00858b"/><stop offset="0.16" stop-color="#0d949a"/><stop offset="0.44" stop-color="#1fa8ae"/><stop offset="0.72" stop-color="#2ab4ba"/><stop offset="1" stop-color="#2eb8be"/></linearGradient><clipPath id="d"><path class="a" d="M291.1,336.27c-16.19,17.52-13.23,60.54,14.27,76l0,0a45.27,45.27,0,0,1,0-64,36.21,36.21,0,0,1,51.21,0,29,29,0,0,1,0,41l13.71,10.39a44.81,44.81,0,0,0,0-63.37A57.19,57.19,0,0,0,330,319.54a52.43,52.43,0,0,0-38.87,16.73"/></clipPath><linearGradient id="e" x1="-26.81" y1="638.84" x2="-25.81" y2="638.84" gradientTransform="matrix(-74.54, 0, 0, 74.54, -1632.65, -47250.34)" gradientUnits="userSpaceOnUse"><stop offset="0" stop-color="#a1cc56"/><stop offset="0.29" stop-color="#75bf5b"/><stop offset="0.95" stop-color="#089e66"/><stop offset="1" stop-color="#009c67"/></linearGradient><clipPath id="f"><path class="a" d="M329.75,337.68l-.26,0a36.13,36.13,0,0,1,27.11,10.58,29,29,0,0,1,0,41,23.17,23.17,0,0,1-32.77,0,18.54,18.54,0,0,1,0-26.22l-4.21-3.95a28.68,28.68,0,0,0,0,40.56,35.79,35.79,0,0,0,50.69,0l.3-.32a34.73,34.73,0,0,0,9.3-23.36c0-21.26-20.3-38.5-45.33-38.5-1.64,0-3.25.07-4.83.22"/></clipPath><linearGradient id="g" x1="-26.81" y1="638.86" x2="-25.81" y2="638.86" gradientTransform="matrix(0, -60.46, -60.46, 0, 38971.34, -1222.56)" gradientUnits="userSpaceOnUse"><stop offset="0" stop-color="#f18d00"/><stop offset="0.64" stop-color="#ffec00"/><stop offset="1" stop-color="#a8cc07"/></linearGradient><clipPath id="h"><path class="a" d="M319.62,359.08a28.68,28.68,0,0,0,0,40.56,35.79,35.79,0,0,0,50.69,0l.1-.1c-11.64,9.55-33,11.11-46.1-4.76-7.84-9.52-7.72-24.51-.48-31.75a14.81,14.81,0,0,1,21,0s6.61,2.28,7.16,22a18.3,18.3,0,0,0,.1-25.92,22.94,22.94,0,0,0-32.44,0"/></clipPath><linearGradient id="i" x1="-26.81" y1="638.87" x2="-25.81" y2="638.87" gradientTransform="matrix(0, 46.76, 46.76, 0, -29536.12, 1607.54)" gradientUnits="userSpaceOnUse"><stop offset="0" stop-color="#f18d00"/><stop offset="1" stop-color="#e94d3c"/></linearGradient><clipPath id="j"><path class="a" d="M323.79,363h0a14.81,14.81,0,0,1,21,0,11.85,11.85,0,0,1,0,16.78,9.48,9.48,0,0,1-13.42,0c-3-3-2.42-8.57,0-11.23l-.06-.11.06-.07,0,0a11.75,11.75,0,0,0,0,16.62,14.59,14.59,0,0,0,20.76,0c6.82-7.06,6.82-17.31-.65-24.16a19,19,0,0,0-12.75-4.77A19.29,19.29,0,0,0,323.79,363"/></clipPath><linearGradient id="k" x1="-26.81" y1="638.74" x2="-25.81" y2="638.74" gradientTransform="matrix(22.45, 0, 0, -22.45, 937.31, 14715.4)" gradientUnits="userSpaceOnUse"><stop offset="0" stop-color="#e62579"/><stop offset="1" stop-color="#e94d3c"/></linearGradient><clipPath id="l"><path class="a" d="M331.3,385a14.59,14.59,0,0,0,20.76,0,18.22,18.22,0,0,0,4.09-6.47v0c-2,4.86-7.63,8.2-14,7.58-7.58-.74-13.23-6.54-12.61-12.94a10.27,10.27,0,0,1,1.6-4.53,11.74,11.74,0,0,0,.21,16.4m-.21-16.4.21-.22,0,0,0-.07-.21.31"/></clipPath><linearGradient id="m" x1="-26.81" y1="638.85" x2="-25.81" y2="638.85" gradientTransform="matrix(0, 16.1, 16.1, 0, -9942.7, 800.12)" gradientUnits="userSpaceOnUse"><stop offset="0" stop-color="#e62579"/><stop offset="0.57" stop-color="#c14a93"/><stop offset="1" stop-color="#aa61a3"/></linearGradient><clipPath id="n"><path class="a" d="M336.75,200.85l-66,65.71c-4.77,4.23-7.94,9.81-16.23,10.89,6,1.09,12,7.16,12,7.16h9.36l79.89-64.77a13.43,13.43,0,0,0-19-19"/></clipPath><linearGradient id="o" x1="-26.81" y1="638.87" x2="-25.81" y2="638.87" gradientTransform="matrix(0, 24.78, 24.78, 0, -15522.95, 903.19)" gradientUnits="userSpaceOnUse"><stop offset="0" stop-color="#4fb233"/><stop offset="0.19" stop-color="#3db051"/><stop offset="0.57" stop-color="#1cad85"/><stop offset="0.85" stop-color="#08aca6"/><stop offset="1" stop-color="#00abb2"/></linearGradient><clipPath id="p"><path class="a" d="M245.06,284.61a12.27,12.27,0,0,0,0,24.54H405.19V284.61Z"/></clipPath><linearGradient id="q" x1="-26.81" y1="638.84" x2="-25.81" y2="638.84" gradientTransform="matrix(0, -24.54, -24.54, 0, 15995.48, -348.75)" gradientUnits="userSpaceOnUse"><stop offset="0" stop-color="#413b1e"/><stop offset="0.51" stop-color="#646149"/><stop offset="1" stop-color="#7d734b"/></linearGradient><clipPath id="r"><rect class="a" x="27.2" y="87.44" width="377.99" height="504.91"/></clipPath><clipPath id="s"><rect class="a" x="263.84" y="196.92" width="95.83" height="82.46"/></clipPath><clipPath id="u"><rect class="a" x="301.52" y="284.61" width="103.67" height="9.54"/></clipPath><clipPath id="w"><path class="a" d="M265.16,191l-90,22.12a341.77,341.77,0,0,0,207,69.42c4.13,0,8.25-.09,23-.24V126.09c-21.74-1.6-32.13-2.45-42.81-2.45-27.31,0-52.68,5.52-73.72,15l-.12.06a10,10,0,0,1-14-9.22v-9Z"/></clipPath><linearGradient id="x" x1="-26.81" y1="638.84" x2="-25.81" y2="638.84" gradientTransform="matrix(0, 59.58, 59.58, 0, -37773.87, 1837.44)" gradientUnits="userSpaceOnUse"><stop offset="0" stop-color="#7cbd27"/><stop offset="0.17" stop-color="#64b842"/><stop offset="0.56" stop-color="#2ead7e"/><stop offset="0.85" stop-color="#0da7a4"/><stop offset="1" stop-color="#00a4b2"/></linearGradient><clipPath id="y"><path class="a" d="M283.15,184.66l15.55,15.55,34.15-34.15-49.7-49.7a48.3,48.3,0,0,0,0,68.3"/></clipPath><linearGradient id="z" x1="-26.81" y1="638.84" x2="-25.81" y2="638.84" gradientTransform="matrix(32.63, 0, 0, -32.63, 1180.83, 21004.11)" gradientUnits="userSpaceOnUse"><stop offset="0" stop-color="#e94d3c"/><stop offset="0.02" stop-color="#ea513b"/><stop offset="0.7" stop-color="#f9c011"/><stop offset="1" stop-color="#ffec00"/></linearGradient><clipPath id="aa"><path class="a" d="M301.29,173.41,316.84,189,351,154.81l-49.69-49.7a48.3,48.3,0,0,0,0,68.3"/></clipPath><linearGradient id="ab" x1="-26.81" y1="638.83" x2="-25.81" y2="638.83" gradientTransform="translate(-40379.65 -1557.34) rotate(-90) scale(63.7)" gradientUnits="userSpaceOnUse"><stop offset="0" stop-color="#c0dc96"/><stop offset="0.46" stop-color="#60c198"/><stop offset="0.83" stop-color="#1bae99"/><stop offset="1" stop-color="#00a69a"/></linearGradient><clipPath id="ac"><path class="a" d="M318,163.07l15.55,15.54,34.15-34.14L318,94.77a48.3,48.3,0,0,0,0,68.3"/></clipPath><linearGradient id="ad" x1="-26.81" y1="638.83" x2="-25.81" y2="638.83" gradientTransform="translate(-40362.94 -1567.69) rotate(-90) scale(63.7)" gradientUnits="userSpaceOnUse"><stop offset="0" stop-color="#a8cc07"/><stop offset="1" stop-color="#d3df51"/></linearGradient><clipPath id="ae"><path class="a" d="M334.38,155.74l15.55,15.55,34.15-34.15-49.7-49.7a48.3,48.3,0,0,0,0,68.3"/></clipPath><linearGradient id="af" x1="-26.81" y1="638.83" x2="-25.81" y2="638.83" gradientTransform="translate(-40346.72 -1575.01) rotate(-90) scale(63.7)" gradientUnits="userSpaceOnUse"><stop offset="0" stop-color="#66427d"/><stop offset="0.62" stop-color="#935696"/><stop offset="1" stop-color="#aa61a3"/></linearGradient><clipPath id="ag"><path class="a" d="M350.63,157l15.55,15.55,34.15-34.15-49.7-49.7a48.3,48.3,0,0,0,0,68.3"/></clipPath><linearGradient id="ah" x1="-26.81" y1="638.84" x2="-25.81" y2="638.84" gradientTransform="matrix(63.84, 0, 0, -63.84, 2048.14, 40916.21)" xlink:href="#c"/><clipPath id="ai"><path class="a" d="M362.69,160l15.56,15.55,26.94-26.94V134.23l-42.5-42.49a48.3,48.3,0,0,0,0,68.3"/></clipPath><linearGradient id="aj" x1="-26.81" y1="638.84" x2="-25.81" y2="638.84" gradientTransform="matrix(71.49, 0, 0, -71.49, 2275.12, 45806.49)" xlink:href="#z"/><clipPath id="ak"><path class="a" d="M377.19,162l15.55,15.55,12.45-12.45V121.65l-28-28a48.3,48.3,0,0,0,0,68.3"/></clipPath><linearGradient id="al" x1="-26.81" y1="638.88" x2="-25.81" y2="638.88" gradientTransform="matrix(0, -51.53, -51.53, 0, 33303.91, -1223.12)" xlink:href="#ad"/><clipPath id="am"><path class="a" d="M392.44,168.67l12.75,12.75v-68.3l-12.75-12.75a48.3,48.3,0,0,0,0,68.3"/></clipPath><linearGradient id="an" x1="-26.81" y1="638.97" x2="-25.81" y2="638.97" gradientTransform="matrix(0, -63.85, -63.85, 0, 41187.99, -1536.75)" xlink:href="#ab"/><clipPath id="ao"><path class="a" d="M283.63,205l15.55,15.55,34.15-34.14-49.7-49.7a48.28,48.28,0,0,0,0,68.29"/></clipPath><linearGradient id="ap" x1="-26.81" y1="638.83" x2="-25.81" y2="638.83" gradientTransform="translate(-40397.36 -1525.75) rotate(-90) scale(63.7)" xlink:href="#z"/><clipPath id="aq"><path class="a" d="M298.79,196.58l15.55,15.55L348.49,178l-49.7-49.71a48.3,48.3,0,0,0,0,68.3"/></clipPath><linearGradient id="ar" x1="-26.81" y1="638.84" x2="-25.81" y2="638.84" gradientTransform="matrix(63.84, 0, 0, -63.84, 1996.32, 40956.31)" xlink:href="#c"/><clipPath id="as"><path class="a" d="M313.77,191.09l15.55,15.55,34.15-34.15-49.7-49.7a48.3,48.3,0,0,0,0,68.3"/></clipPath><linearGradient id="at" x1="-26.81" y1="638.84" x2="-25.81" y2="638.84" gradientTransform="matrix(71.49, 0, 0, -71.49, 2226.2, 45837.54)" xlink:href="#ad"/><clipPath id="au"><path class="a" d="M327.44,180.77,343,196.32l34.15-34.15-49.7-49.7a48.3,48.3,0,0,0,0,68.3"/></clipPath><linearGradient id="av" x1="-26.81" y1="638.87" x2="-25.81" y2="638.87" gradientTransform="matrix(0, 53.96, 53.96, 0, -34128.05, 1548.4)" xlink:href="#z"/><clipPath id="aw"><path class="a" d="M342.9,181.16l15.55,15.55,34.15-34.15-49.7-49.7a48.3,48.3,0,0,0,0,68.3"/></clipPath><linearGradient id="ax" x1="-26.81" y1="638.87" x2="-25.81" y2="638.87" gradientTransform="matrix(0, 84.05, 84.05, 0, -53340.62, 2355.95)" xlink:href="#e"/><clipPath id="ay"><path class="a" d="M357.66,182l15.56,15.55,32-32v-4.35l-47.53-47.52a48.3,48.3,0,0,0,0,68.3"/></clipPath><linearGradient id="az" x1="-26.81" y1="638.85" x2="-25.81" y2="638.85" gradientTransform="matrix(0, -54.56, -54.56, 0, 35228.79, -1290.91)" xlink:href="#ab"/><clipPath id="ba"><path class="a" d="M372.66,191.18l15.55,15.55,17-17V155.41l-32.53-32.53a48.3,48.3,0,0,0,0,68.3"/></clipPath><linearGradient id="bb" x1="-26.81" y1="638.85" x2="-25.81" y2="638.85" gradientTransform="matrix(0, -51.53, -51.53, 0, 33299.97, -1195.49)" xlink:href="#af"/><clipPath id="bc"><path class="a" d="M387.24,199.69l15.55,15.55,2.4-2.4v-63.5l-17.95-18a48.3,48.3,0,0,0,0,68.3"/></clipPath><linearGradient id="bd" x1="-26.81" y1="638.96" x2="-25.81" y2="638.96" gradientTransform="matrix(0, -63.85, -63.85, 0, 41183.61, -1517.74)" gradientUnits="userSpaceOnUse"><stop offset="0" stop-color="#ffec00"/><stop offset="0.3" stop-color="#f9c011"/><stop offset="0.98" stop-color="#ea513b"/><stop offset="1" stop-color="#e94d3c"/></linearGradient><clipPath id="be"><path class="a" d="M286.87,227.83l15.55,15.55,34.15-34.15-49.7-49.7a48.3,48.3,0,0,0,0,68.3"/></clipPath><linearGradient id="bf" x1="-26.81" y1="638.84" x2="-25.81" y2="638.84" gradientTransform="matrix(32.63, 0, 0, -32.63, 1184.56, 21047.35)" xlink:href="#z"/><clipPath id="bg"><path class="a" d="M302,218.83l15.55,15.55,34.15-34.15L302,150.53a48.3,48.3,0,0,0,0,68.3"/></clipPath><linearGradient id="bh" x1="-26.81" y1="638.83" x2="-25.81" y2="638.83" gradientTransform="translate(-40379.03 -1511.92) rotate(-90) scale(63.7)" xlink:href="#ab"/><clipPath id="bi"><path class="a" d="M318.7,208l15.55,15.55,34.15-34.15-49.7-49.7a48.3,48.3,0,0,0,0,68.3"/></clipPath><linearGradient id="bj" x1="-26.81" y1="638.83" x2="-25.81" y2="638.83" gradientTransform="translate(-40362.28 -1526.31) rotate(-90) scale(63.7)" xlink:href="#k"/><clipPath id="bk"><path class="a" d="M334.3,207.47,349.85,223,384,188.87l-49.7-49.7a48.3,48.3,0,0,0,0,68.3"/></clipPath><linearGradient id="bl" x1="-26.81" y1="638.83" x2="-25.81" y2="638.83" gradientTransform="matrix(0, -63.7, 63.7, 0, -40346.87, -1523.28)" xlink:href="#bd"/><clipPath id="bm"><path class="a" d="M350.63,207.38l15.55,15.55,34.15-34.15-49.7-49.7a48.3,48.3,0,0,0,0,68.3"/></clipPath><linearGradient id="bn" x1="-26.81" y1="638.84" x2="-25.81" y2="638.84" gradientTransform="matrix(63.84, 0, 0, -63.84, 2048.14, 40966.57)" xlink:href="#z"/><clipPath id="bo"><path class="a" d="M365.28,210.47,380.83,226l24.36-24.36V182.08l-39.91-39.91a48.3,48.3,0,0,0,0,68.3"/></clipPath><linearGradient id="bp" x1="-26.81" y1="638.84" x2="-25.81" y2="638.84" gradientTransform="matrix(71.49, 0, 0, -71.49, 2277.7, 45856.92)" xlink:href="#e"/><clipPath id="bq"><path class="a" d="M378.74,217.39l15.56,15.55L405.19,222V175.53l-26.45-26.44a48.3,48.3,0,0,0,0,68.3"/></clipPath><linearGradient id="br" x1="-26.81" y1="638.76" x2="-25.81" y2="638.76" gradientTransform="matrix(0, 33.68, 33.68, 0, -21130.02, 1061.9)" xlink:href="#af"/><clipPath id="bs"><path class="a" d="M392.44,224.75l12.75,12.75V169.2l-12.75-12.75a48.3,48.3,0,0,0,0,68.3"/></clipPath><linearGradient id="bt" x1="-26.81" y1="638.97" x2="-25.81" y2="638.97" gradientTransform="matrix(0, -63.85, -63.85, 0, 41187.62, -1480.65)" xlink:href="#ab"/><clipPath id="bu"><path class="a" d="M283.86,241.71a11.23,11.23,0,0,0,1.57,1.67,11.89,11.89,0,0,0,17.34-16.08h0l-4-37.43-13.09-14.54c-18.87,17.92-19.33,47.43-1.85,66.38"/></clipPath><linearGradient id="bv" x1="-26.81" y1="638.82" x2="-25.81" y2="638.82" gradientTransform="matrix(33.99, 0, 0, -33.99, 1182.3, 21922.04)" xlink:href="#af"/><clipPath id="bw"><path class="a" d="M299.86,242.61a12.3,12.3,0,0,0,1.57,1.67,11.89,11.89,0,0,0,17.34-16.08h0l-4-37.43-13.09-14.54c-18.87,17.92-19.33,47.43-1.85,66.38"/></clipPath><linearGradient id="bx" x1="-26.81" y1="638.88" x2="-25.81" y2="638.88" gradientTransform="matrix(0, -39.98, -39.98, 0, 25841.81, -832.41)" xlink:href="#c"/><clipPath id="by"><path class="a" d="M312.77,241.75a11.89,11.89,0,0,0,18.91-14.42h0l-4-37.42-13.09-14.54c-18.87,17.91-19.33,47.43-1.85,66.38"/></clipPath><linearGradient id="bz" x1="-26.81" y1="638.83" x2="-25.81" y2="638.83" gradientTransform="matrix(0, 146.54, 146.54, 0, -93297.48, 4066.2)" xlink:href="#bd"/><clipPath id="ca"><path class="a" d="M328,239.65a11.3,11.3,0,0,0,1.58,1.67A11.88,11.88,0,0,0,347,225.25h0l-4-37.42-13.1-14.54C311,191.19,310.57,220.71,328,239.65"/></clipPath><linearGradient id="cb" x1="-26.81" y1="638.87" x2="-25.81" y2="638.87" gradientTransform="matrix(0, -52.97, -52.97, 0, 34171.06, -1204.35)" xlink:href="#ad"/><clipPath id="cc"><path class="a" d="M341,241.09a11.3,11.3,0,0,0,1.58,1.67,11.89,11.89,0,0,0,17.33-16.08h0l-4-37.42-13.1-14.54c-18.87,17.91-19.33,47.43-1.85,66.37"/></clipPath><linearGradient id="cd" x1="-26.81" y1="638.81" x2="-25.81" y2="638.81" gradientTransform="matrix(25.9, 0, 0, -25.9, 1037.01, 16755.95)" xlink:href="#c"/><clipPath id="ce"><path class="a" d="M355.39,239.45a11.3,11.3,0,0,0,1.58,1.67A11.89,11.89,0,0,0,374.3,225h0l-4-37.43-13.09-14.54c-18.87,17.92-19.33,47.44-1.85,66.38"/></clipPath><linearGradient id="cf" x1="-26.81" y1="638.87" x2="-25.81" y2="638.87" gradientTransform="matrix(0, -52.97, -52.97, 0, 34198.5, -1204.55)" xlink:href="#k"/><clipPath id="cg"><path class="a" d="M370.1,238.22a13,13,0,0,0,1.58,1.67A11.89,11.89,0,0,0,389,223.81h0l-4-37.42L372,171.84c-18.86,17.92-19.32,47.43-1.85,66.38"/></clipPath><linearGradient id="ch" x1="-26.81" y1="638.87" x2="-25.81" y2="638.87" gradientTransform="matrix(0, -52.97, -52.97, 0, 34213.28, -1205.79)" xlink:href="#ab"/><clipPath id="ci"><path class="a" d="M385.41,242.73a12.49,12.49,0,0,0,1.58,1.68,11.89,11.89,0,0,0,18.2-3.21V229.66a11.61,11.61,0,0,0-.86-1.33h0l-4-37.42-13.1-14.54c-18.86,17.91-19.32,47.43-1.85,66.37"/></clipPath><linearGradient id="cj" x1="-26.81" y1="638.89" x2="-25.81" y2="638.89" gradientTransform="matrix(0, -52.97, -52.97, 0, 34227.89, -1200.79)" xlink:href="#e"/><clipPath id="ck"><path class="a" d="M400.74,239.45a10.8,10.8,0,0,0,1.58,1.67,11.61,11.61,0,0,0,2.87,1.85V176l-2.6-2.89c-18.87,17.92-19.33,47.44-1.85,66.38"/></clipPath><linearGradient id="cl" x1="-26.81" y1="639.01" x2="-25.81" y2="639.01" gradientTransform="matrix(0, -52.97, -52.97, 0, 34242.75, -1201.32)" xlink:href="#k"/><clipPath id="cn"><rect class="a" x="208.13" y="112.05" width="90.56" height="130.64"/></clipPath><clipPath id="cp"><path class="a" d="M219.79,119.41c-36.75,3.52-74.38,24.59-79,45.52,2.68,2.94,41.53,4.91,68.41,10.31C223.94,178.2,232,184,232,184s-72.78,1.17-92.49,3.7c6.88,22.94,38.18,41.91,80.34,50.15a60.77,60.77,0,0,0,10.2.86c19.57,0,36.44-9.15,44.18-22.36,7.69-14.55,12-34.45,12-55.22,0-26.48-1.86-71.61-11.64-72h-.12a64.41,64.41,0,0,0-54.64,30.26"/></clipPath><linearGradient id="cq" x1="-26.81" y1="638.84" x2="-25.81" y2="638.84" gradientTransform="matrix(146.71, 0, 0, -146.71, 4072.75, 93886.61)" gradientUnits="userSpaceOnUse"><stop offset="0" stop-color="#00a68c"/><stop offset="0.26" stop-color="#31b38b"/><stop offset="0.74" stop-color="#58b431"/><stop offset="1" stop-color="#84c251"/></linearGradient><clipPath id="cr"><path class="a" d="M177.76,140.17a22.71,22.71,0,1,0,22.71-22.71,22.71,22.71,0,0,0-22.71,22.71"/></clipPath><linearGradient id="cs" x1="-26.81" y1="638.84" x2="-25.81" y2="638.84" gradientTransform="matrix(0, 35.39, 35.39, 0, -22405.33, 1060.53)" xlink:href="#ad"/><clipPath id="cu"><path class="a" d="M189.34,139.91a11.22,11.22,0,1,0,11.22-11.22,11.22,11.22,0,0,0-11.22,11.22"/></clipPath><linearGradient id="cv" x1="-26.81" y1="638.84" x2="-25.81" y2="638.84" gradientTransform="matrix(0, 15.63, 15.63, 0, -9784.48, 551.5)" gradientUnits="userSpaceOnUse"><stop offset="0" stop-color="#0e8fa3"/><stop offset="1" stop-color="#005962"/></linearGradient><clipPath id="cx"><path class="a" d="M137.47,186.57a4.28,4.28,0,0,0,4.69,3.65s74.59-3.76,90-6l.12-.69-90.7-1.09a4.11,4.11,0,0,0-4.13,4.14"/></clipPath><linearGradient id="cy" x1="-26.81" y1="638.84" x2="-25.81" y2="638.84" gradientTransform="matrix(94.84, 0, 0, -94.84, 2628.55, 60771.39)" gradientUnits="userSpaceOnUse"><stop offset="0" stop-color="#58b431"/><stop offset="1" stop-color="#84c251"/></linearGradient><clipPath id="db"><rect class="a" x="282.16" y="209.22" width="97.02" height="68.91"/></clipPath><clipPath id="dd"><path class="a" d="M292.13,199.7a13.43,13.43,0,0,0,0,26.86H362a13.43,13.43,0,0,0,0-26.86Z"/></clipPath><linearGradient id="de" x1="-26.81" y1="638.84" x2="-25.81" y2="638.84" gradientTransform="matrix(0, 34.5, 34.5, 0, -21712.81, 1136.28)" xlink:href="#x"/><clipPath id="df"><path class="a" d="M352.8,203.44l-62.39,67c-6.64,6.65-17.5,5-17.5,14.15h8.58c-3.85,2.62-6.49,9.69-6.49,18.75h7.79a10.91,10.91,0,0,1,1.27-2.44s0,1.37,0,2.44h7.81c0-9.21,5.09-17.2,13.29-18.75,1-.2,66.63-62.19,66.63-62.19a13.42,13.42,0,1,0-19-19"/></clipPath><linearGradient id="dg" x1="-26.81" y1="638.91" x2="-25.81" y2="638.91" gradientTransform="matrix(0, 34.42, 34.42, 0, -21669.04, 1166.79)" xlink:href="#x"/><clipPath id="dh"><polygon class="a" points="275 303.36 278.91 311.84 282.82 303.36 275 303.36"/></clipPath><linearGradient id="di" x1="-26.81" y1="638.77" x2="-25.81" y2="638.77" gradientTransform="matrix(9.96, 0, 0, -9.96, 547.5, 6667.61)" xlink:href="#ad"/><clipPath id="dj"><polygon class="a" points="284.06 303.36 287.96 311.84 291.87 303.36 284.06 303.36"/></clipPath><linearGradient id="dk" x1="-26.81" y1="638.77" x2="-25.81" y2="638.77" gradientTransform="matrix(9.96, 0, 0, -9.96, 556.54, 6667.53)" xlink:href="#ad"/><clipPath id="dl"><polygon class="a" points="243.1 290.88 246.68 299.36 250.25 290.88 243.1 290.88"/></clipPath><linearGradient id="dm" x1="-26.81" y1="638.77" x2="-25.81" y2="638.77" gradientTransform="matrix(9.12, 0, 0, -9.12, 492.72, 6118.35)" xlink:href="#ad"/><clipPath id="dn"><polygon class="a" points="260.03 290.88 263.6 299.36 267.18 290.88 260.03 290.88"/></clipPath><linearGradient id="do" x1="-26.81" y1="638.77" x2="-25.81" y2="638.77" gradientTransform="matrix(9.12, 0, 0, -9.12, 509.66, 6118.43)" xlink:href="#ad"/><clipPath id="dp"><polygon class="a" points="251.59 290.88 255.16 299.36 258.74 290.88 251.59 290.88"/></clipPath><linearGradient id="dq" x1="-26.81" y1="638.77" x2="-25.81" y2="638.77" gradientTransform="matrix(9.12, 0, 0, -9.12, 501.22, 6118.35)" xlink:href="#ad"/><clipPath id="dr"><path class="a" d="M243.09,290.88h7.16c.11-5.39.66-5.31.66-5.31s.57-.08.68,5.31h7.13c.11-5.39.66-5.31.66-5.31s.57-.08.68,5.31h7.13c0-6.18-1-13.48-11.33-13.48s-12.77,7.67-12.77,13.48"/></clipPath><linearGradient id="ds" x1="-26.81" y1="638.75" x2="-25.81" y2="638.75" gradientTransform="translate(12709.59 805.5) rotate(90) scale(19.5)" gradientUnits="userSpaceOnUse"><stop offset="0" stop-color="#79bd28"/><stop offset="0.03" stop-color="#75bd2e"/><stop offset="0.22" stop-color="#61ba52"/><stop offset="0.42" stop-color="#51b86f"/><stop offset="0.61" stop-color="#45b783"/><stop offset="0.81" stop-color="#3eb68f"/><stop offset="1" stop-color="#3cb693"/></linearGradient><clipPath id="dt"><polygon class="a" points="246.62 308.84 246.62 308.84 254.43 308.84 250.53 300.36 246.62 308.84"/></clipPath><linearGradient id="du" x1="-26.81" y1="638.77" x2="-25.81" y2="638.77" gradientTransform="translate(6610.46 573.18) rotate(90) scale(9.96)" xlink:href="#ad"/><clipPath id="dv"><polygon class="a" points="255.89 308.84 255.89 308.84 263.7 308.84 259.79 300.36 255.89 308.84"/></clipPath><linearGradient id="dw" x1="-26.81" y1="638.77" x2="-25.81" y2="638.77" gradientTransform="translate(6619.73 573.18) rotate(90) scale(9.96)" xlink:href="#ad"/><clipPath id="dx"><path class="a" d="M255.87,308.84s-.14.26-.71.26-.74-.26-.74-.26h-7.81v.36c0,1.86,3.83,3.37,8.55,3.37s8.55-1.51,8.55-3.37v-.36Z"/></clipPath><linearGradient id="dy" x1="-26.81" y1="638.91" x2="-25.81" y2="638.91" gradientTransform="matrix(-8.98, 0, 0, 8.98, 16.89, -5426.17)" xlink:href="#ds"/></defs><title>Pages from 原书</title><g class="b"><g class="c"><g class="d"><rect class="e" x="238.24" y="305.66" width="192.47" height="193.44" transform="translate(-188.69 393.56) rotate(-49.3)"/></g><g class="f"><rect class="g" x="260.13" y="299.19" width="142.47" height="133.47" transform="translate(-128.66 186.82) rotate(-26.57)"/></g><g class="h"><rect class="i" x="308.42" y="337.3" width="71.49" height="76.39"/></g><g class="j"><rect class="k" x="299.89" y="343.7" width="79.05" height="78.65" transform="translate(-109.33 136.98) rotate(-19.72)"/></g><g class="l"><rect class="m" x="316.67" y="348.82" width="49.33" height="49.35" transform="translate(-164.64 374.32) rotate(-47.67)"/></g><g class="n"><rect class="o" x="323.33" y="361.08" width="36.19" height="37.04" transform="translate(-168.84 396.88) rotate(-49.97)"/></g><g class="p"><rect class="q" x="239.06" y="172.14" width="137.37" height="137.24" transform="translate(-80.33 286.32) rotate(-44.73)"/></g><g class="r"><rect class="s" x="232.79" y="284.61" width="172.4" height="24.54"/></g><g class="t"><g class="u"><g class="v"><g class="v"><path class="w" d="M282.29,279.38l73.45-59.54a13.43,13.43,0,0,0-19-19l-66,65.72c-2.6,2.3-4.61,4.81-6.88,6.69,6.13,2.26,12.16,4.21,18.45,6.12"/></g></g></g><g class="u"><g class="x"><g class="x"><path class="w" d="M382.17,294.15c4.66,0,9.3-.11,23-.29v-9.25H301.52a344.07,344.07,0,0,0,80.65,9.54"/></g></g></g></g><g class="y"><rect class="z" x="175.15" y="120.5" width="230.04" height="162.05"/></g><g class="aa"><rect class="ab" x="264.29" y="116.36" width="68.56" height="83.85"/></g><g class="ac"><rect class="ad" x="269.26" y="95.34" width="94.9" height="103.38" transform="translate(-31.99 128.83) rotate(-21.92)"/></g><g class="ae"><rect class="af" x="286.01" y="85" width="94.9" height="103.38" transform="translate(-26.92 134.34) rotate(-21.92)"/></g><g class="ag"><rect class="ah" x="302.35" y="77.67" width="94.9" height="103.38" transform="translate(-23 139.91) rotate(-21.92)"/></g><g class="ai"><rect class="aj" x="331.77" y="88.66" width="68.56" height="83.85"/></g><g class="ak"><rect class="al" x="343.83" y="91.74" width="61.36" height="83.85"/></g><g class="am"><rect class="an" x="335.63" y="89.29" width="92.27" height="92.58" transform="translate(14.92 307.49) rotate(-44.66)"/></g><g class="ao"><rect class="ap" x="350.72" y="100.06" width="77.34" height="81.68" transform="translate(4.24 292.99) rotate(-41.44)"/></g><g class="aq"><rect class="ar" x="251.6" y="126.94" width="94.9" height="103.38" transform="matrix(0.93, -0.37, 0.37, 0.93, -45.06, 124.52)"/></g><g class="as"><rect class="at" x="279.93" y="128.28" width="68.56" height="83.85"/></g><g class="au"><rect class="av" x="294.91" y="122.79" width="68.56" height="83.85"/></g><g class="aw"><rect class="ax" x="291.42" y="100.62" width="102.88" height="107.56" transform="translate(-29.25 208.47) rotate(-32.51)"/></g><g class="ay"><rect class="az" x="306.23" y="100.79" width="104.17" height="107.99" transform="matrix(0.82, -0.57, 0.57, 0.82, -24.22, 232.34)"/></g><g class="ba"><rect class="bb" x="323.75" y="103.33" width="96.5" height="104.5" transform="translate(-30.52 179.49) rotate(-26.1)"/></g><g class="bc"><rect class="bd" x="331.75" y="116.93" width="95.49" height="95.76" transform="translate(-6.27 314.34) rotate(-44.66)"/></g><g class="be"><rect class="bf" x="345.24" y="129.71" width="83.09" height="87.22" transform="translate(-17.87 299.38) rotate(-41.44)"/></g><g class="bg"><rect class="bh" x="268.01" y="159.53" width="68.56" height="83.85"/></g><g class="bi"><rect class="bj" x="269.92" y="140.77" width="94.9" height="103.38" transform="translate(-48.9 132.36) rotate(-21.92)"/></g><g class="bk"><rect class="bl" x="286.67" y="129.9" width="94.9" height="103.38" transform="translate(-43.63 137.83) rotate(-21.92)"/></g><g class="bm"><rect class="bn" x="302.27" y="129.4" width="94.9" height="103.38" transform="translate(-42.32 143.61) rotate(-21.92)"/></g><g class="bo"><rect class="bp" x="331.77" y="139.08" width="68.56" height="83.85"/></g><g class="bq"><rect class="br" x="346.42" y="142.17" width="58.77" height="83.85"/></g><g class="bs"><rect class="bt" x="335.99" y="146.47" width="93.08" height="89.08" transform="translate(-11.98 355.88) rotate(-49.21)"/></g><g class="bu"><rect class="bv" x="350.72" y="156.14" width="77.34" height="81.68" transform="translate(-32.88 307.03) rotate(-41.44)"/></g><g class="bw"><rect class="bx" x="266.38" y="175.33" width="39.66" height="72.36"/></g><g class="by"><rect class="bz" x="266.98" y="171.16" width="70.46" height="82.5" transform="translate(-65.66 178.96) rotate(-29.91)"/></g><g class="ca"><rect class="cb" x="291.02" y="173.21" width="48.22" height="76.67" transform="translate(-23.52 40.15) rotate(-7.03)"/></g><g class="cc"><rect class="cd" x="298.5" y="168.49" width="63.8" height="81.93" transform="translate(-54.3 138.45) rotate(-21.92)"/></g><g class="ce"><rect class="cf" x="323.48" y="174.72" width="39.66" height="72.36"/></g><g class="cg"><rect class="ch" x="325.84" y="168.29" width="63.8" height="81.93" transform="translate(-52.25 148.64) rotate(-21.92)"/></g><g class="ci"><rect class="cj" x="340.56" y="167.05" width="63.8" height="81.93" transform="translate(-50.72 154.05) rotate(-21.92)"/></g><g class="ck"><rect class="cl" x="355.78" y="172.02" width="61.57" height="81.03" transform="translate(-51.39 159.64) rotate(-21.92)"/></g><g class="cm"><rect class="cn" x="371.01" y="171.51" width="46.43" height="73.03" transform="translate(-49.15 162.17) rotate(-21.92)"/></g><g class="t"><g class="u"><g class="co"><g class="co"><path class="w" d="M242.54,242.69c19.48,0,36.28-9.07,44.07-22.17,7.75-14.57,12.08-34.54,12.08-55.39,0-15.54-.64-37.51-3.15-53.08a48.14,48.14,0,0,0-5.63,11.07l-6.76-6.76s-44.4-3.23-50.85,7c16.11,27.72,11.38,48.35-24.17,111.81,16.11,6.11,29.36,7.47,34.41,7.47"/></g></g></g></g><g class="cp"><rect class="cq" x="139.48" y="89.15" width="146.71" height="149.57"/></g><g class="cr"><rect class="cs" x="177.76" y="117.46" width="45.41" height="45.41"/></g><g class="t"><path class="ct" d="M218.62,140.08a18.24,18.24,0,1,1-18.24-18.23,18.24,18.24,0,0,1,18.24,18.23"/></g><g class="cu"><rect class="cv" x="184.72" y="124.07" width="31.68" height="31.68" transform="translate(-37.19 197.14) rotate(-48.43)"/></g><g class="t"><path class="ct" d="M212.65,134.47a5.79,5.79,0,1,1-5.78-5.78,5.78,5.78,0,0,1,5.78,5.78"/></g><g class="cw"><rect class="cx" x="137.32" y="182.43" width="94.98" height="7.92"/></g><g class="t"><path class="cy" d="M232.37,182.44c-1.91-1.53-8.58-4.75-18.86-6.94s-70.42-11.87-70.42-11.87a3.7,3.7,0,1,0-1,7.33s58.65,5.65,70,7.57a99.68,99.68,0,0,1,20.09,5.68Z"/><path class="cy" d="M243.51,176.48a8.5,8.5,0,0,1-5.77,14.77,9.42,9.42,0,0,1-1.51-.15,8.51,8.51,0,1,0,7.28-14.62"/><path class="cy" d="M163.46,157.24a2,2,0,1,1-2.05-2.05,2.05,2.05,0,0,1,2.05,2.05"/></g><g class="t"><g class="u"><g class="cz"><g class="cz"><path class="w" d="M295.58,236.26h37.65l-35.64,35.79c10.27,2.6,18.87,4.43,29.49,6.08l48.16-46a13.41,13.41,0,0,0-11.72-22.72H295.58a13.43,13.43,0,0,0,0,26.85"/></g></g></g></g><g class="da"><rect class="db" x="278.71" y="199.7" width="96.74" height="26.85"/></g><g class="dc"><rect class="dd" x="251.96" y="178.4" width="146.03" height="146.07" transform="translate(-73.71 350.82) rotate(-51.73)"/></g><g class="de"><rect class="df" x="273.74" y="302.24" width="10.33" height="10.72" transform="translate(-91.68 120.33) rotate(-20.99)"/></g><g class="dg"><rect class="dh" x="282.8" y="302.24" width="10.33" height="10.72" transform="translate(-91.08 123.57) rotate(-20.99)"/></g><g class="di"><rect class="dj" x="241.82" y="289.88" width="9.72" height="10.48" transform="translate(-89.35 107.95) rotate(-20.99)"/></g><g class="dk"><rect class="dl" x="258.74" y="289.88" width="9.72" height="10.48" transform="translate(-88.23 114.02) rotate(-20.99)"/></g><g class="dm"><rect class="dn" x="250.31" y="289.88" width="9.72" height="10.48" transform="translate(-88.79 110.99) rotate(-20.99)"/></g><g class="do"><rect class="dp" x="241.39" y="273.08" width="27.5" height="22.12" transform="translate(-93.54 128.39) rotate(-24.01)"/></g><g class="dq"><rect class="dr" x="245.17" y="299.43" width="10.72" height="10.33" transform="translate(-123.6 429.38) rotate(-69.01)"/></g><g class="ds"><rect class="dt" x="254.43" y="299.43" width="10.72" height="10.33" transform="translate(-117.66 438.03) rotate(-69.01)"/></g><g class="du"><rect class="dv" x="249.98" y="302.14" width="10.36" height="17.14" transform="translate(-132.48 417.37) rotate(-65.99)"/></g><g class="t"><path class="dw" d="M36,394c-.21-2.36-1-3.35-2.22-3.35-1.88,0-2.71,1.65-2.71,6.31s.83,6.31,2.71,6.31c1.51,0,2.38-1,2.42-3.81h1.62c0,3.31-1.49,5.17-4,5.17s-4.32-2-4.32-7.67,1.65-7.68,4.32-7.68c2.22,0,3.58,1.53,3.83,4.72Z"/><path class="dw" d="M40.21,393.69H41.7V395h0a2.76,2.76,0,0,1,2.73-1.51v1.41c-1.11,0-2,.37-2.77,1.9v7.66H40.21Z"/><path class="dw" d="M45.88,396.63c.29-1.7,1.29-3.15,3.19-3.15a2.8,2.8,0,0,1,3.08,3.06v6a4.56,4.56,0,0,0,.27,1.91H50.87l-.19-.91a3.91,3.91,0,0,1-2.29,1.11,2.61,2.61,0,0,1-2.8-2.77c0-2.65,2.92-4,5.07-4.47v-.76c0-1.18-.6-1.93-1.55-1.93-1.14,0-1.7,1.14-1.86,2.11Zm4.78,2c-1.36.42-3.58,1.41-3.58,3.11,0,1,.46,1.65,1.53,1.65a3.07,3.07,0,0,0,2-1.11Z"/><path class="dw" d="M54.16,393.69h1.66v-2.2c0-1.45.58-2.19,2.19-2.19a6.15,6.15,0,0,1,1.16.13v1.15a2,2,0,0,0-.81-.16c-.72,0-1,.45-1,1.14v2.13h1.74v1.24H57.31v9.52H55.82v-9.52H54.16Z"/><path class="dw" d="M59.71,393.69h1.45v-3.6h1.49v3.6h2v1.24h-2v7.53a1,1,0,0,0,1.07,1.08,3.27,3.27,0,0,0,.91-.21v1.12a4.47,4.47,0,0,1-1.4.2c-1.41,0-2.07-.66-2.07-2.31v-7.41H59.71Z"/><path class="dw" d="M66.85,389.51h1.49v1.74H66.85Zm0,4.18h1.49v10.76H66.85Z"/><path class="dw" d="M71.38,393.69h1.41v1.18a4.23,4.23,0,0,1,2.44-1.39c1.49,0,2.36.83,2.36,2.81v8.16H76.1V396.5c0-1.24-.37-1.78-1.18-1.78a2.83,2.83,0,0,0-2,1.33v8.4H71.38Z"/><path class="dw" d="M87.52,394.85a1.37,1.37,0,0,0-1.36.37,6.11,6.11,0,0,1,.33,2.07c0,2.69-1.24,3.85-2.9,3.85-.33,0-.66-.09-1-.09s-.74.29-.74.71c0,.76,1.22.8,2.6,1.09,1.55.34,2.94.83,2.94,2.59,0,1.41-1.37,2.52-3.64,2.52-2.44,0-3.68-.91-3.68-2.31a2.37,2.37,0,0,1,1.57-2.16,1.45,1.45,0,0,1,.25-2.87,4,4,0,0,1-1.29-3.08c0-2.57,1.25-4.06,3.13-4.06a2.24,2.24,0,0,1,2,1,2,2,0,0,1,1.82-1Zm-4.63,9c-.87.37-1.45.87-1.45,1.47,0,.89.75,1.51,2.36,1.51s2.23-.66,2.23-1.53-1.86-1.16-3.14-1.45m.66-3.85c.87,0,1.57-.66,1.57-2.71s-.7-2.71-1.57-2.71-1.57.66-1.57,2.71.7,2.71,1.57,2.71"/><path class="dw" d="M94.23,389.51h3.6c2.4,0,4.1,1.4,4.1,3.87a3.6,3.6,0,0,1-2.4,3.66l2.52,7.41h-1.69L98,397.37l-2.11.08v7H94.23Zm1.62,6.54h1.4c2.32,0,3.07-.91,3.07-2.59s-.75-2.59-3.07-2.59h-1.4Z"/><path class="dw" d="M104.77,389.51h1.49v1.74h-1.49Zm0,4.18h1.49v10.76h-1.49Z"/><path class="dw" d="M113.52,396.87c-.15-1.61-.79-2.15-1.7-2.15-1.26,0-1.8.79-1.8,4.35s.54,4.34,1.8,4.34c1,0,1.49-.49,1.74-2.36H115c-.25,2.11-1.24,3.6-3.19,3.6-2.25,0-3.29-1.69-3.29-5.58s1-5.59,3.29-5.59c2,0,2.86,1.28,3.15,3.39Z"/><path class="dw" d="M117.35,389.51h1.49v5.36a3.84,3.84,0,0,1,2.36-1.39c1.49,0,2.36.83,2.36,2.82v8.15h-1.49V396.5c0-1.24-.37-1.78-1.18-1.78a2.81,2.81,0,0,0-2,1.33v8.4h-1.49Z"/><polygon class="dw" points="137.84 389.51 137.84 390.87 132.62 390.87 132.62 395.96 136.47 395.96 136.47 397.33 132.62 397.33 132.62 403.08 138.09 403.08 138.09 404.45 131.01 404.45 131.01 389.51 137.84 389.51"/><polygon class="dw" points="138.85 393.69 140.39 393.69 142.17 397.45 143.74 393.69 145.27 393.69 142.95 398.86 145.68 404.45 144.15 404.45 142.21 400.23 140.39 404.45 138.85 404.45 141.34 398.86 138.85 393.69"/><path class="dw" d="M148.58,394.72h0a2.57,2.57,0,0,1,2.2-1.24c1.69,0,3.1,1.45,3.1,5.59s-1.41,5.58-3.1,5.58a2.92,2.92,0,0,1-2-1V408h-1.49V393.69h1.24Zm.25,7.74a2.47,2.47,0,0,0,1.61,1c1.27,0,2-1,2-4.34s-.79-4.35-2-4.35a2.37,2.37,0,0,0-1.57,1Z"/><path class="dw" d="M157.13,399.31v.61c0,2.62.6,3.49,2,3.49,1.14,0,1.61-1.05,1.8-2l1.4.16a3.43,3.43,0,0,1-3.41,3.1c-2.26,0-3.29-1.69-3.29-5.58s1-5.59,3.29-5.59,3.29,2,3.29,5.13v.7Zm3.6-1.24c0-2.31-.45-3.35-1.8-3.35-1.08,0-1.78.79-1.8,3.35Z"/><path class="dw" d="M164.33,393.69h1.49V395h0a2.77,2.77,0,0,1,2.74-1.51v1.41c-1.12,0-2,.37-2.78,1.9v7.66h-1.49Z"/><path class="dw" d="M170.27,389.51h1.49v1.74h-1.49Zm0,4.18h1.49v10.76h-1.49Z"/><path class="dw" d="M175.53,399.31v.61c0,2.62.6,3.49,2,3.49,1.14,0,1.61-1.05,1.8-2l1.4.16a3.43,3.43,0,0,1-3.41,3.1c-2.25,0-3.29-1.69-3.29-5.58s1-5.59,3.29-5.59,3.29,2,3.29,5.13v.7Zm3.6-1.24c0-2.31-.45-3.35-1.8-3.35-1.07,0-1.78.79-1.8,3.35Z"/><path class="dw" d="M182.86,393.69h1.4v1.18a4.25,4.25,0,0,1,2.45-1.39c1.49,0,2.35.83,2.35,2.81v8.16h-1.49V396.5c0-1.24-.37-1.78-1.17-1.78a2.81,2.81,0,0,0-2.05,1.33v8.4h-1.49Z"/><path class="dw" d="M196.27,396.87c-.15-1.61-.79-2.15-1.7-2.15-1.26,0-1.8.79-1.8,4.35s.54,4.34,1.8,4.34c1,0,1.49-.49,1.74-2.36h1.45c-.25,2.11-1.24,3.6-3.19,3.6-2.25,0-3.29-1.69-3.29-5.58s1-5.59,3.29-5.59c2,0,2.86,1.28,3.15,3.39Z"/><path class="dw" d="M200.82,399.31v.61c0,2.62.6,3.49,2,3.49,1.14,0,1.61-1.05,1.8-2l1.41.16a3.45,3.45,0,0,1-3.42,3.1c-2.25,0-3.29-1.69-3.29-5.58s1-5.59,3.29-5.59,3.29,2,3.29,5.13v.7Zm3.6-1.24c0-2.31-.45-3.35-1.8-3.35-1.07,0-1.78.79-1.8,3.35Z"/><path class="dw" d="M212.33,396.42c-.27-.93-.66-1.7-1.86-1.7a1.2,1.2,0,0,0-1.2,1.28c0,2.2,4.55,2.32,4.55,5.67a2.88,2.88,0,0,1-2.94,3c-1.94,0-2.92-1-3.43-2.85l1.36-.29c.31.95.87,1.9,2,1.9a1.64,1.64,0,0,0,1.55-1.63c0-2.48-4.55-2.53-4.55-5.69a2.67,2.67,0,0,1,2.79-2.61,2.89,2.89,0,0,1,3,2.57Z"/><polygon class="dw" points="30.28 416.49 31.81 424.39 31.85 424.39 33.59 416.49 34.99 416.49 36.77 424.39 36.81 424.39 38.22 416.49 39.63 416.49 37.4 427.25 36.15 427.25 34.29 418.89 34.25 418.89 32.39 427.25 31.15 427.25 28.87 416.49 30.28 416.49"/><path class="dw" d="M41.56,412.31h1.49v1.74H41.56Zm0,4.18h1.49v10.76H41.56Z"/><path class="dw" d="M44.77,416.49h1.44v-3.6H47.7v3.6h2v1.24h-2v7.53a1,1,0,0,0,1.08,1.08,3.36,3.36,0,0,0,.91-.21v1.12a4.54,4.54,0,0,1-1.41.2c-1.4,0-2.07-.66-2.07-2.31v-7.41H44.77Z"/><path class="dw" d="M51.84,412.31h1.49v5.36a3.84,3.84,0,0,1,2.36-1.39c1.49,0,2.36.83,2.36,2.81v8.16H56.56V419.3c0-1.24-.37-1.78-1.18-1.78a2.85,2.85,0,0,0-2.05,1.33v8.4H51.84Z"/><path class="dw" d="M65.3,412.31h3.51a4.1,4.1,0,0,1,0,8.19h-1.9v6.75H65.3Zm1.61,6.83h1.7c1.61,0,2.56-.87,2.56-2.73s-1-2.74-2.56-2.74h-1.7Z"/><path class="dw" d="M74.69,416.49h1.49v1.3h0A2.77,2.77,0,0,1,79,416.28v1.41c-1.12,0-2,.37-2.78,1.9v7.66H74.69Z"/><path class="dw" d="M83.1,416.28c2.25,0,3.29,1.7,3.29,5.59s-1,5.58-3.29,5.58-3.29-1.69-3.29-5.58,1-5.59,3.29-5.59m0,9.93c1.26,0,1.8-.78,1.8-4.34s-.54-4.35-1.8-4.35-1.8.79-1.8,4.35.53,4.34,1.8,4.34"/><path class="dw" d="M95.57,417.65a1.6,1.6,0,0,0-.43,0,1.29,1.29,0,0,0-.93.41,6.11,6.11,0,0,1,.33,2.07c0,2.69-1.24,3.85-2.9,3.85-.33,0-.66-.09-1-.09s-.74.29-.74.71c0,.76,1.22.8,2.6,1.09,1.55.33,2.94.83,2.94,2.59,0,1.41-1.37,2.52-3.64,2.52-2.44,0-3.68-.91-3.68-2.31a2.34,2.34,0,0,1,1.57-2.15,1.46,1.46,0,0,1,.25-2.88,4,4,0,0,1-1.29-3.08c0-2.57,1.25-4.06,3.13-4.06a2.24,2.24,0,0,1,2,1,2,2,0,0,1,1.82-1Zm-4.63,9c-.87.37-1.45.87-1.45,1.47,0,.89.75,1.51,2.36,1.51s2.23-.67,2.23-1.53-1.86-1.16-3.14-1.45m.66-3.85c.87,0,1.57-.66,1.57-2.71s-.7-2.71-1.57-2.71-1.57.66-1.57,2.71.7,2.71,1.57,2.71"/><path class="dw" d="M97.69,416.49h1.49v1.3h0a2.76,2.76,0,0,1,2.73-1.51v1.41c-1.12,0-2,.37-2.77,1.9v7.66H97.69Z"/><path class="dw" d="M104.29,422.12v.6c0,2.62.6,3.49,2,3.49,1.14,0,1.61-1,1.8-2l1.4.17a3.43,3.43,0,0,1-3.41,3.1c-2.26,0-3.29-1.69-3.29-5.58s1-5.59,3.29-5.59,3.29,2,3.29,5.13v.71Zm3.6-1.25c0-2.31-.45-3.35-1.8-3.35-1.07,0-1.78.79-1.8,3.35Z"/><path class="dw" d="M115.8,419.22c-.27-.93-.66-1.7-1.86-1.7a1.21,1.21,0,0,0-1.2,1.29c0,2.19,4.55,2.31,4.55,5.67a2.88,2.88,0,0,1-2.94,3c-1.95,0-2.92-1.05-3.44-2.85l1.37-.29c.31.95.87,1.9,2,1.9a1.64,1.64,0,0,0,1.55-1.63c0-2.49-4.55-2.53-4.55-5.69a2.66,2.66,0,0,1,2.79-2.61,2.89,2.89,0,0,1,3,2.57Z"/><path class="dw" d="M123.85,419.22c-.27-.93-.66-1.7-1.86-1.7a1.21,1.21,0,0,0-1.2,1.29c0,2.19,4.55,2.31,4.55,5.67a2.88,2.88,0,0,1-2.94,3c-1.94,0-2.92-1.05-3.44-2.85l1.37-.29c.31.95.87,1.9,2,1.9a1.64,1.64,0,0,0,1.55-1.63c0-2.49-4.55-2.53-4.55-5.69a2.67,2.67,0,0,1,2.79-2.61,2.89,2.89,0,0,1,3,2.57Z"/><path class="dw" d="M127.78,412.31h1.49v1.74h-1.49Zm0,4.18h1.49v10.76h-1.49Z"/><polygon class="dw" points="132.69 416.49 134.84 425.76 134.88 425.76 136.99 416.49 138.48 416.49 135.83 427.25 133.84 427.25 131.2 416.49 132.69 416.49"/><path class="dw" d="M141.09,422.12v.6c0,2.62.6,3.49,2,3.49,1.14,0,1.61-1,1.8-2l1.4.17a3.43,3.43,0,0,1-3.41,3.1c-2.26,0-3.29-1.69-3.29-5.58s1-5.59,3.29-5.59,3.29,2,3.29,5.13v.71Zm3.6-1.25c0-2.31-.45-3.35-1.8-3.35-1.08,0-1.78.79-1.8,3.35Z"/><polygon class="dw" points="159.72 412.31 159.72 413.67 154.5 413.67 154.5 418.76 158.35 418.76 158.35 420.13 154.5 420.13 154.5 425.88 159.96 425.88 159.96 427.25 152.89 427.25 152.89 412.31 159.72 412.31"/><path class="dw" d="M162.2,416.49h1.41v1.18a4.23,4.23,0,0,1,2.44-1.39c1.49,0,2.36.83,2.36,2.81v8.16h-1.49V419.3c0-1.24-.37-1.78-1.18-1.78a2.81,2.81,0,0,0-2.05,1.33v8.4H162.2Z"/><path class="dw" d="M171.39,412.31h1.49v5.36a3.84,3.84,0,0,1,2.36-1.39c1.49,0,2.36.83,2.36,2.81v8.16h-1.49V419.3c0-1.24-.37-1.78-1.18-1.78a2.83,2.83,0,0,0-2.05,1.33v8.4h-1.49Z"/><path class="dw" d="M180.37,419.43c.29-1.7,1.29-3.15,3.19-3.15a2.8,2.8,0,0,1,3.08,3.06v6a4.53,4.53,0,0,0,.27,1.91h-1.55l-.19-.91a3.91,3.91,0,0,1-2.29,1.11,2.61,2.61,0,0,1-2.8-2.77c0-2.65,2.92-4,5.07-4.47v-.76c0-1.18-.6-1.93-1.55-1.93-1.14,0-1.7,1.14-1.86,2.11Zm4.78,2c-1.36.42-3.58,1.41-3.58,3.11,0,1,.46,1.65,1.53,1.65a3,3,0,0,0,2.05-1.12Z"/><path class="dw" d="M189.77,416.49h1.41v1.18a4.23,4.23,0,0,1,2.44-1.39c1.49,0,2.36.83,2.36,2.81v8.16h-1.49V419.3c0-1.24-.37-1.78-1.18-1.78a2.81,2.81,0,0,0-2.05,1.33v8.4h-1.49Z"/><path class="dw" d="M203.18,419.67c-.15-1.61-.79-2.15-1.7-2.15-1.26,0-1.8.79-1.8,4.35s.54,4.34,1.8,4.34c1,0,1.49-.49,1.74-2.36h1.45c-.25,2.11-1.24,3.6-3.19,3.6-2.25,0-3.29-1.69-3.29-5.58s1-5.59,3.29-5.59c2,0,2.86,1.28,3.15,3.39Z"/><path class="dw" d="M207.73,422.12v.6c0,2.62.6,3.49,2,3.49,1.14,0,1.62-1,1.8-2l1.41.17a3.45,3.45,0,0,1-3.42,3.1c-2.25,0-3.28-1.69-3.28-5.58s1-5.59,3.28-5.59,3.29,2,3.29,5.13v.71Zm3.61-1.25c-.05-2.31-.46-3.35-1.81-3.35-1.07,0-1.77.79-1.8,3.35Z"/><path class="dw" d="M215.23,427.25V416.49h1.36v1.18a3.47,3.47,0,0,1,2.51-1.39,2,2,0,0,1,1.92,1.37,3.52,3.52,0,0,1,2.5-1.37c1.41,0,2.18,1,2.18,2.48v8.49h-1.49V419c0-1.12-.33-1.45-1.12-1.45a2.58,2.58,0,0,0-1.88,1.12v8.61h-1.49V419c0-1.12-.4-1.45-1.18-1.45a2.35,2.35,0,0,0-1.82,1.12v8.61Z"/><path class="dw" d="M229.59,422.12v.6c0,2.62.6,3.49,2,3.49,1.14,0,1.61-1,1.8-2l1.4.17a3.43,3.43,0,0,1-3.41,3.1c-2.25,0-3.29-1.69-3.29-5.58s1-5.59,3.29-5.59,3.29,2,3.29,5.13v.71Zm3.6-1.25c0-2.31-.45-3.35-1.8-3.35-1.07,0-1.78.79-1.8,3.35Z"/><path class="dw" d="M236.92,416.49h1.41v1.18a4.2,4.2,0,0,1,2.44-1.39c1.49,0,2.36.83,2.36,2.81v8.16h-1.49V419.3c0-1.24-.38-1.78-1.18-1.78a2.81,2.81,0,0,0-2.05,1.33v8.4h-1.49Z"/><path class="dw" d="M244.78,416.49h1.45v-3.6h1.49v3.6h2v1.24h-2v7.53a1,1,0,0,0,1.08,1.08,3.36,3.36,0,0,0,.91-.21v1.12a4.59,4.59,0,0,1-1.41.2c-1.41,0-2.07-.66-2.07-2.31v-7.41h-1.45Z"/><path class="dx" d="M153.05,584.16c-.09-1.11-.54-1.95-1.67-1.95a1.38,1.38,0,0,0-1.48,1.42c0,2.45,4.35,2.48,4.35,6a2.53,2.53,0,0,1-2.78,2.76c-1.69,0-2.71-1.25-2.74-3.06h1.08c0,1.27.63,2.07,1.78,2.07,1,0,1.61-.63,1.61-1.79,0-2.46-4.35-2.74-4.35-5.83a2.42,2.42,0,0,1,2.61-2.52c1.56,0,2.58,1,2.67,2.94Z"/><polygon class="dx" points="161.69 581.37 161.69 582.36 157.91 582.36 157.91 586.05 160.7 586.05 160.7 587.04 157.91 587.04 157.91 591.21 161.87 591.21 161.87 592.2 156.74 592.2 156.74 581.37 161.69 581.37"/><path class="dx" d="M168.74,584.64c-.15-1.71-.69-2.43-1.61-2.43-1.36,0-2,1.2-2,4.57s.6,4.58,2,4.58c1.1,0,1.73-.75,1.76-2.76h1.17c0,2.4-1.08,3.75-2.93,3.75s-3.13-1.47-3.13-5.57,1.2-5.56,3.13-5.56c1.61,0,2.6,1.11,2.78,3.42Z"/><path class="dx" d="M175.46,592.35c-1.83,0-3.06-1.53-3.06-5.57s1.23-5.56,3.06-5.56,3.06,1.53,3.06,5.56-1.23,5.57-3.06,5.57m0-10.14c-1.05,0-1.89.9-1.89,4.57s.84,4.58,1.89,4.58,1.89-.9,1.89-4.58-.84-4.57-1.89-4.57"/><polygon class="dx" points="182.78 581.37 185.57 589.35 185.6 589.35 185.6 581.37 186.77 581.37 186.77 592.2 185.51 592.2 182.15 582.78 182.12 582.78 182.12 592.2 180.95 592.2 180.95 581.37 182.78 581.37"/><path class="dx" d="M189.5,581.37h2c2.28,0,3.66,1.26,3.66,5.41s-1.38,5.42-3.66,5.42h-2Zm1.17,9.84h.63c1.71,0,2.7-.72,2.7-4.43s-1-4.42-2.7-4.42h-.63Z"/><polygon class="dx" points="207.08 581.37 207.08 582.36 203.3 582.36 203.3 586.05 206.09 586.05 206.09 587.04 203.3 587.04 203.3 591.21 207.26 591.21 207.26 592.2 202.13 592.2 202.13 581.37 207.08 581.37"/><path class="dx" d="M209.69,581.37h2c2.28,0,3.66,1.26,3.66,5.41s-1.38,5.42-3.66,5.42h-2Zm1.17,9.84h.63c1.71,0,2.7-.72,2.7-4.43s-1-4.42-2.7-4.42h-.63Z"/><rect class="dx" x="218.18" y="581.37" width="1.17" height="10.83"/><polygon class="dx" points="227.04 581.37 227.04 582.36 224.82 582.36 224.82 592.2 223.65 592.2 223.65 582.36 221.43 582.36 221.43 581.37 227.04 581.37"/><rect class="dx" x="229.14" y="581.37" width="1.17" height="10.83"/><path class="dx" d="M236,592.35c-1.83,0-3.06-1.53-3.06-5.57s1.23-5.56,3.06-5.56,3.06,1.53,3.06,5.56-1.23,5.57-3.06,5.57m0-10.14c-1,0-1.89.9-1.89,4.57s.84,4.58,1.89,4.58,1.89-.9,1.89-4.58-.84-4.57-1.89-4.57"/><polygon class="dx" points="243.36 581.37 246.15 589.35 246.18 589.35 246.18 581.37 247.35 581.37 247.35 592.2 246.09 592.2 242.73 582.78 242.7 582.78 242.7 592.2 241.53 592.2 241.53 581.37 243.36 581.37"/><path class="dw" d="M34.2,323.18H27.84l7.05-38.26h8.16l7.05,38.26H43.74l-1.17-8.48H35.36ZM36.32,309h5.3L39,292.55h-.1Z"/><path class="dw" d="M52.86,284.92h9.75c6.78,0,10.38,3.71,10.38,11.55v15.16c0,7.84-3.6,11.55-10.38,11.55H52.86Zm6.57,32.86H61.7c3.5,0,4.72-1.33,4.72-5.36V295.68c0-4-1.22-5.35-4.72-5.35H59.43Z"/><path class="dw" d="M82.11,323.18H75.75l7-38.26H91L98,323.18H91.65l-1.17-8.48h-7.2ZM84.23,309h5.3l-2.6-16.43h-.1Z"/><path class="dw" d="M100.77,323.18V284.92h9.43c8.11,0,11.87,3.13,11.87,11.29s-3.76,11.29-11.87,11.29h-2.86v15.68Zm6.57-21.09h2.54c4.29,0,5.62-1.32,5.62-5.88s-1.33-5.88-5.62-5.88h-2.54Z"/><polygon class="dw" points="130.02 290.64 123.66 290.64 123.66 284.92 142.95 284.92 142.95 290.64 136.59 290.64 136.59 323.18 130.02 323.18 130.02 290.64"/><rect class="dw" x="146.66" y="284.92" width="6.57" height="38.26"/><polygon class="dw" points="172.84 284.92 179.31 284.92 171.31 323.18 164.74 323.18 156.73 284.92 163.2 284.92 167.97 311.47 168.07 311.47 172.84 284.92"/><polygon class="dw" points="181.91 323.18 181.91 284.92 199.5 284.92 199.5 290.64 188.48 290.64 188.48 300.5 196.96 300.5 196.96 306.23 188.48 306.23 188.48 317.46 200.24 317.46 200.24 323.18 181.91 323.18"/><polygon class="dw" points="41.78 333.74 47.18 333.74 51.63 358.11 51.74 358.11 55.4 333.74 61.54 333.74 54.81 372 49.3 372 44.53 346.72 44.43 346.72 39.98 372 34.46 372 27.2 333.74 33.35 333.74 37.38 358.11 37.48 358.11 41.78 333.74"/><polygon class="dw" points="63.88 372 63.88 333.74 81.47 333.74 81.47 339.46 70.45 339.46 70.45 349.32 78.93 349.32 78.93 355.04 70.45 355.04 70.45 366.27 82.21 366.27 82.21 372 63.88 372"/><path class="dw" d="M85.56,333.74h9.75c7,0,10.17,3.6,10.17,10.12,0,3.28-1.38,6.73-4.56,8,3.34,1.48,5.3,4.13,5.3,9.06,0,6.31-2.81,11.08-10.28,11.08H85.56Zm6.57,15.68h2.38c2.49,0,4.4-1.69,4.4-4.87,0-3.55-1.38-5.41-4.29-5.41H92.13Zm0,17.17h2.75c3.5,0,4.77-2,4.77-5.88s-1.48-5.88-5.4-5.88H92.13Z"/><path class="dw" d="M120.11,333.74h9.75c6.78,0,10.39,3.71,10.39,11.55v15.16c0,7.84-3.61,11.55-10.39,11.55h-9.75Zm6.57,32.85H129c3.5,0,4.72-1.32,4.72-5.35V344.49c0-4-1.22-5.35-4.72-5.35h-2.28Z"/><polygon class="dw" points="144.75 372 144.75 333.74 162.35 333.74 162.35 339.46 151.33 339.46 151.33 349.32 159.81 349.32 159.81 355.04 151.33 355.04 151.33 366.27 163.09 366.27 163.09 372 144.75 372"/><path class="dw" d="M178.41,343.17c-.27-3.29-2-4.24-3.5-4.24-2.12,0-3.29,1.38-3.29,3.76,0,6.52,13.36,9.65,13.36,20,0,6.3-4.24,9.8-10.39,9.8s-9.59-4.88-9.86-10.6L171,361c.26,3.87,1.8,5.78,3.92,5.78,2.28,0,3.82-1.22,3.82-3.5,0-7.58-13.36-9.59-13.36-20.56,0-6.1,3.71-9.54,10.18-9.54,5.35,0,8.53,3.86,9.11,9.27Z"/><rect class="dw" x="189.01" y="333.74" width="6.57" height="38.26"/><path class="dw" d="M210.05,352.6h10.76V372h-3.18l-1.22-2.86c-2,2.33-3.55,3.39-6.63,3.39-5.19,0-8.79-3.71-8.79-9.81V343c0-5.41,3.18-9.8,9.64-9.8s9.86,4.77,9.86,10.49v2.44h-6.25c0-5.73-1.17-7.21-3.77-7.21-1.59,0-2.91.95-2.91,4.19v19.66c0,2.43.79,4,3.07,4,2.65,0,3.61-1.48,3.61-5.3v-3.71h-4.19Z"/><polygon class="dw" points="225.63 372 225.63 333.74 231.72 333.74 239.73 355.62 239.83 355.62 239.83 333.74 245.77 333.74 245.77 372 240.04 372 231.67 348.1 231.57 348.1 231.57 372 225.63 372"/><path class="dw" d="M236,497.13h-1.17a12.37,12.37,0,0,0,.25-2.94V482h1.51v5a3,3,0,0,1,2-1c1.72,0,3.15,1.47,3.15,5.67s-1.43,5.67-3.15,5.67a2.71,2.71,0,0,1-2.27-1.26Zm.59-2.1a2.36,2.36,0,0,0,1.6,1.05c1.26,0,2.05-1.05,2.05-4.41s-.73-4.41-2-4.41a2.52,2.52,0,0,0-1.64,1Z"/><path class="dw" d="M244.37,486.21l2.06,8.35h0l1.68-8.35h1.55l-2.49,10.69c-.57,2.39-1.62,3.8-3.45,3.8H243v-1.26h.47c1.19,0,2-.87,2.26-2.4l-2.89-10.83Z"/><path class="dw" d="M260.22,482l3.34,15.16h-1.63l-.91-4.5h-3.86l-.9,4.5h-1.64L258,482Zm-2.83,9.28h3.4l-1.68-8.15h0Z"/><path class="dw" d="M265.05,489.19c.3-1.72,1.31-3.19,3.24-3.19a2.85,2.85,0,0,1,3.13,3.11v6.08a4.53,4.53,0,0,0,.27,1.94h-1.57l-.19-.93a4,4,0,0,1-2.33,1.14,2.66,2.66,0,0,1-2.84-2.82c0-2.69,3-4,5.14-4.53v-.78c0-1.2-.6-1.95-1.57-1.95-1.15,0-1.72,1.15-1.89,2.14Zm4.85,2.06c-1.38.42-3.63,1.42-3.63,3.15,0,1,.46,1.68,1.56,1.68a3.07,3.07,0,0,0,2.07-1.14Z"/><path class="dw" d="M274.46,486.21H276v1.32h0a2.79,2.79,0,0,1,2.77-1.53v1.43c-1.14,0-2,.37-2.81,1.93v7.77h-1.52Z"/><path class="dw" d="M283,486c2.29,0,3.34,1.72,3.34,5.67s-1.05,5.67-3.34,5.67-3.34-1.73-3.34-5.67S280.7,486,283,486m0,10.08c1.28,0,1.82-.8,1.82-4.41s-.54-4.41-1.82-4.41-1.83.8-1.83,4.41.55,4.41,1.83,4.41"/><path class="dw" d="M288.6,486.21H290v1.19a4.37,4.37,0,0,1,2.48-1.4c1.51,0,2.4.84,2.4,2.85v8.28h-1.52v-8.07c0-1.26-.37-1.8-1.19-1.8a2.85,2.85,0,0,0-2.08,1.34v8.53H288.6Z"/><path class="dw" d="M308.75,486.63c-.12-2-.71-3.49-2.37-3.49-1.82,0-2.71,1.64-2.71,6.41s.89,6.4,2.71,6.4a2.14,2.14,0,0,0,2.37-2.39v-2.15H306.7V490h3.69v7.1h-1.05l-.21-1.14a3.25,3.25,0,0,1-2.75,1.35c-2.66,0-4.34-2.06-4.34-7.79s1.68-7.79,4.34-7.79,3.8,2.43,4,4.87Z"/><path class="dw" d="M319.38,497.13H318v-1.2a4.34,4.34,0,0,1-2.47,1.41c-1.52,0-2.4-.84-2.4-2.86v-8.27h1.51v8.06c0,1.26.38,1.81,1.2,1.81a2.86,2.86,0,0,0,2.08-1.35v-8.52h1.51Z"/><path class="dw" d="M326.65,489c-.28-1-.68-1.72-1.89-1.72a1.22,1.22,0,0,0-1.22,1.3c0,2.23,4.62,2.35,4.62,5.75a2.93,2.93,0,0,1-3,3c-2,0-3-1.08-3.49-2.9l1.39-.3c.31,1,.88,1.94,2,1.94a1.67,1.67,0,0,0,1.58-1.66c0-2.52-4.62-2.56-4.62-5.78a2.7,2.7,0,0,1,2.83-2.64,2.94,2.94,0,0,1,3.05,2.6Z"/><path class="dw" d="M329.23,486.21h1.47v-3.65h1.51v3.65h2v1.26h-2v7.64a1,1,0,0,0,1.09,1.09,3.15,3.15,0,0,0,.93-.21v1.14a4.65,4.65,0,0,1-1.43.21c-1.43,0-2.1-.68-2.1-2.36v-7.51h-1.47Z"/><path class="dw" d="M336.2,489.19c.3-1.72,1.3-3.19,3.24-3.19a2.84,2.84,0,0,1,3.12,3.11v6.08a4.49,4.49,0,0,0,.28,1.94h-1.58l-.19-.93a4,4,0,0,1-2.33,1.14,2.65,2.65,0,0,1-2.83-2.82c0-2.69,3-4,5.14-4.53v-.78c0-1.2-.61-1.95-1.57-1.95-1.16,0-1.72,1.15-1.89,2.14Zm4.85,2.06c-1.38.42-3.63,1.42-3.63,3.15,0,1,.46,1.68,1.55,1.68a3.07,3.07,0,0,0,2.08-1.14Z"/><path class="dw" d="M344.6,486.21h1.68V484c0-1.47.59-2.22,2.23-2.22a7.12,7.12,0,0,1,1.17.12v1.18a1.83,1.83,0,0,0-.82-.17c-.73,0-1.07.46-1.07,1.16v2.16h1.77v1.26h-1.77v9.66h-1.51v-9.66H344.6Z"/><path class="dw" d="M355.81,489c-.27-1-.67-1.72-1.89-1.72a1.22,1.22,0,0,0-1.21,1.3c0,2.23,4.62,2.35,4.62,5.75a2.93,2.93,0,0,1-3,3c-2,0-3-1.08-3.48-2.9l1.39-.3c.31,1,.88,1.94,2,1.94a1.66,1.66,0,0,0,1.57-1.66c0-2.52-4.61-2.56-4.61-5.78A2.7,2.7,0,0,1,354,486a2.92,2.92,0,0,1,3,2.6Z"/><path class="dw" d="M362.3,486c2.29,0,3.34,1.72,3.34,5.67s-1.05,5.67-3.34,5.67-3.33-1.73-3.33-5.67,1-5.67,3.33-5.67m0,10.08c1.28,0,1.83-.8,1.83-4.41s-.55-4.41-1.83-4.41-1.82.8-1.82,4.41.54,4.41,1.82,4.41"/><path class="dw" d="M367.91,486.21h1.43v1.19a4.31,4.31,0,0,1,2.48-1.4c1.51,0,2.39.84,2.39,2.85v8.28H372.7v-8.07c0-1.26-.38-1.8-1.2-1.8a2.86,2.86,0,0,0-2.08,1.34v8.53h-1.51Z"/><polygon class="dw" points="246.73 504.8 251.38 504.8 251.38 505.79 247.9 505.79 247.9 509.48 250.5 509.48 250.5 510.46 247.9 510.46 247.9 515.63 246.73 515.63 246.73 504.8"/><path class="dw" d="M254.48,507.68c1.64,0,2.39,1.23,2.39,4.05s-.75,4-2.39,4-2.38-1.23-2.38-4,.75-4.05,2.38-4.05m0,7.2c.92,0,1.31-.57,1.31-3.15s-.39-3.15-1.31-3.15-1.31.57-1.31,3.15.4,3.15,1.31,3.15"/><path class="dw" d="M258.4,507.83h1.08v.94h0a2,2,0,0,1,2-1.09v1a2.06,2.06,0,0,0-2,1.38v5.55H258.4Z"/><path class="dw" d="M263.18,511.91v.43c0,1.91.44,2.54,1.46,2.54.82,0,1.17-.77,1.3-1.47l1,.12a2.49,2.49,0,0,1-2.47,2.25c-1.64,0-2.39-1.23-2.39-4s.75-4.05,2.39-4.05,2.38,1.47,2.38,3.72v.51Zm2.61-.9c0-1.68-.33-2.43-1.3-2.43-.78,0-1.29.57-1.31,2.43Z"/><polygon class="dw" points="268.7 507.83 269.81 513.56 269.84 513.56 271.1 507.83 272.12 507.83 273.41 513.56 273.44 513.56 274.46 507.83 275.48 507.83 273.86 515.63 272.96 515.63 271.61 509.57 271.58 509.57 270.23 515.63 269.33 515.63 267.68 507.83 268.7 507.83"/><path class="dw" d="M278.66,507.68c1.64,0,2.39,1.23,2.39,4.05s-.75,4-2.39,4-2.38-1.23-2.38-4,.75-4.05,2.38-4.05m0,7.2c.92,0,1.31-.57,1.31-3.15s-.39-3.15-1.31-3.15-1.31.57-1.31,3.15.4,3.15,1.31,3.15"/><path class="dw" d="M282.58,507.83h1.08v.94h0a2,2,0,0,1,2-1.09v1a2.06,2.06,0,0,0-2,1.38v5.55h-1.08Z"/><path class="dw" d="M290.36,514.87h0a1.87,1.87,0,0,1-1.6.91c-1.23,0-2.25-1.06-2.25-4s1-4.05,2.25-4.05a2.13,2.13,0,0,1,1.44.72v-3.6h1.08v8.73a8.4,8.4,0,0,0,.18,2.09h-1Zm-.19-5.6a1.79,1.79,0,0,0-1.17-.69c-.92,0-1.44.75-1.44,3.15s.57,3.14,1.46,3.14a1.67,1.67,0,0,0,1.15-.75Z"/><path class="dw" d="M297.57,515.63h-.84a8.49,8.49,0,0,0,.18-2.1V504.8H298v3.6a2.13,2.13,0,0,1,1.44-.72c1.23,0,2.25,1.05,2.25,4.05s-1,4-2.25,4a1.94,1.94,0,0,1-1.62-.9Zm.42-1.5a1.69,1.69,0,0,0,1.14.75c.9,0,1.47-.75,1.47-3.15s-.52-3.15-1.44-3.15a1.79,1.79,0,0,0-1.17.69Z"/><path class="dw" d="M303.54,507.83l1.48,6h0l1.2-6h1.12l-1.79,7.63c-.41,1.71-1.16,2.72-2.46,2.72h-.55v-.9h.33c.85,0,1.4-.62,1.61-1.71l-2.06-7.74Z"/><path class="dw" d="M313.91,504.8v8.13c0,2.22-.75,2.85-2.67,2.85a4.18,4.18,0,0,1-.6-.09l.09-1a2.09,2.09,0,0,0,.67.12c1,0,1.34-.41,1.34-1.59v-8.4Z"/><path class="dw" d="M316.5,511.91v.43c0,1.91.44,2.54,1.46,2.54.82,0,1.17-.77,1.3-1.47l1,.12a2.49,2.49,0,0,1-2.47,2.25c-1.64,0-2.39-1.23-2.39-4s.75-4.05,2.39-4.05,2.38,1.47,2.38,3.72v.51Zm2.61-.9c0-1.68-.33-2.43-1.3-2.43-.78,0-1.29.57-1.31,2.43Z"/><path class="dw" d="M321.72,507.83h1.08v.94h0a2,2,0,0,1,2-1.09v1a2.07,2.07,0,0,0-2,1.38v5.55h-1.08Z"/><path class="dw" d="M326.51,511.91v.43c0,1.91.43,2.54,1.45,2.54.83,0,1.17-.77,1.31-1.47l1,.12a2.5,2.5,0,0,1-2.48,2.25c-1.63,0-2.38-1.23-2.38-4s.75-4.05,2.38-4.05,2.39,1.47,2.39,3.72v.51Zm2.61-.9c0-1.68-.33-2.43-1.31-2.43-.78,0-1.29.57-1.3,2.43Z"/><path class="dw" d="M331.94,515.63v-7.8h1v.85a2.53,2.53,0,0,1,1.81-1,1.49,1.49,0,0,1,1.4,1,2.56,2.56,0,0,1,1.81-1c1,0,1.58.69,1.58,1.8v6.15h-1.08v-6c0-.81-.24-1.05-.81-1.05a1.88,1.88,0,0,0-1.37.81v6.24h-1.08v-6c0-.81-.28-1.05-.85-1.05a1.7,1.7,0,0,0-1.32.81v6.24Z"/><path class="dw" d="M341.88,507.83l1.47,6h0l1.2-6h1.11l-1.78,7.63c-.41,1.71-1.16,2.72-2.46,2.72h-.56v-.9h.33c.86,0,1.41-.62,1.62-1.71l-2.07-7.74Z"/><polygon class="dw" points="351.08 504.8 351.08 510.32 351.11 510.32 354.14 504.8 355.4 504.8 353.3 508.58 355.79 515.63 354.53 515.63 352.52 509.78 352.49 509.78 351.08 512.29 351.08 515.63 349.91 515.63 349.91 504.8 351.08 504.8"/><path class="dw" d="M357.33,511.91v.43c0,1.91.44,2.54,1.46,2.54.82,0,1.17-.77,1.3-1.47l1,.12a2.49,2.49,0,0,1-2.47,2.25c-1.64,0-2.39-1.23-2.39-4s.75-4.05,2.39-4.05,2.38,1.47,2.38,3.72v.51Zm2.61-.9c0-1.68-.33-2.43-1.3-2.43-.78,0-1.29.57-1.31,2.43Z"/><path class="dw" d="M362.69,504.8h1.08v1.26h-1.08Zm0,3h1.08v7.8h-1.08Z"/><path class="dw" d="M365,507.83h1.05v-2.61h1.08v2.61h1.44v.9h-1.44v5.46a.71.71,0,0,0,.78.78,2.36,2.36,0,0,0,.66-.15v.81a3.19,3.19,0,0,1-1,.15c-1,0-1.5-.48-1.5-1.68v-5.37H365Z"/><path class="dw" d="M370.14,504.8h1.08v3.88a2.8,2.8,0,0,1,1.71-1c1.08,0,1.71.6,1.71,2v5.91h-1.08v-5.76c0-.9-.27-1.29-.85-1.29a2,2,0,0,0-1.49,1v6.09h-1.08Z"/></g><g class="c"><path class="dy" d="M396.19,623.84v15m0-651v-15m-396,651v15m0-651v-15m408,639h15m-435,0h-15m435-612h15m-435,0h-15"/><path class="dz" d="M396.19,623.84v15m0-651v-15m-396,651v15m0-651v-15m408,639h15m-435,0h-15m435-612h15m-435,0h-15"/></g></g></g></svg>