<svg xmlns="http://www.w3.org/2000/svg" viewBox="0 0 2223.49 1226.01"><defs><style>.a{fill:#fff;}.ac,.af,.ag,.ah,.b,.c,.d,.s,.v,.x{fill:#231815;}.c{font-size:32px;}.c,.d{font-family:HelveticaNeue-BoldItalic, Helvetica Neue;}.ai,.c,.d{font-weight:700;}.ac,.c,.d,.e,.s,.v,.x{font-style:italic;}.ai,.d{font-size:28px;}.ac,.e,.s,.v,.x{font-size:20px;font-family:HelveticaNeue-LightItalic, Helvetica Neue;}.ai,.e,.q{fill:#040000;}.f{letter-spacing:-0.09em;}.af,.g{letter-spacing:-0.02em;}.h{letter-spacing:0.02em;}.i{letter-spacing:-0.02em;}.j{letter-spacing:0.01em;}.k{letter-spacing:0em;}.ah,.l{letter-spacing:0em;}.m{letter-spacing:-0.11em;}.n{letter-spacing:-0.11em;}.ag,.o{letter-spacing:-0.02em;}.p,.r{fill:none;}.p{stroke:#040000;stroke-miterlimit:10;stroke-width:2px;}.t{letter-spacing:-0.15em;}.u{letter-spacing:-0.09em;}.aa,.v{letter-spacing:-0.01em;}.w{letter-spacing:-0.03em;}.x{letter-spacing:-0.01em;}.y{letter-spacing:-0.01em;}.z{letter-spacing:-0.1em;}.ab{letter-spacing:-0.03em;}.ac{letter-spacing:0em;}.ad{letter-spacing:-0.09em;}.ae{letter-spacing:-0.06em;}.ai{font-family:Helvetica-Bold, Helvetica;}</style></defs><title>cdm</title><rect class="a" x="1.2" y="991.64" width="765.28" height="66.03"/><path class="b" d="M765.48,992.64v64H2.2v-64H765.48m2-2H.2v68H767.48v-68Z"/><text class="c" transform="translate(171.33 1036.71)">DEVELOPMENT for Devices</text><rect class="a" x="1457.21" y="991.64" width="765.28" height="66.03"/><path class="b" d="M2221.49,992.64v64H1458.21v-64h763.28m2-2H1456.21v68h767.28v-68Z"/><text class="c" transform="translate(1548.05 1036.71)">LINGUISTICS for Content and Context</text><path class="a" d="M885,1057.67a33,33,0,1,1,0-66h462a33,33,0,0,1,0,66Z"/><path class="b" d="M1347,992.64a32,32,0,0,1,0,64H885a32,32,0,1,1,0-64h462m0-2H885a34.12,34.12,0,0,0-34,34h0a34.11,34.11,0,0,0,34,34h462a34.1,34.1,0,0,0,34-34h0a34.11,34.11,0,0,0-34-34Z"/><text class="d" transform="translate(1057.88 1034.7)">Semantic</text><path class="a" d="M339.37,822.48a33,33,0,0,1,0-66h711.74a33,33,0,1,1,0,66Z"/><path class="b" d="M1051.11,757.45a32,32,0,1,1,0,64H339.37a32,32,0,0,1,0-64h711.74m0-2H339.37a34.11,34.11,0,0,0-34,34h0a34.11,34.11,0,0,0,34,34h711.74a34.12,34.12,0,0,0,34-34h0a34.12,34.12,0,0,0-34-34Z"/><text class="d" transform="translate(586.1 799.51)">Adaptive Design</text><text class="e" transform="translate(305.36 856.23)">2017: <tspan class="f" x="55.6" y="0">T</tspan><tspan x="64.88" y="0">ranslate: “Adaptive </tspan><tspan class="g" x="231.58" y="0">W</tspan><tspan x="249.36" y="0">eb Design”</tspan><tspan class="b"><tspan x="0" y="24">2016: Speak: “The Overview of </tspan><tspan class="g" x="272.36" y="24">W</tspan><tspan x="290.14" y="24">eb Design”</tspan><tspan x="0" y="48">2015: Redesign and launch the inte</tspan><tspan class="h" x="305.28" y="48">r</tspan><tspan x="311.94" y="48">national o</tspan><tspan class="i" x="395.29" y="48">f</tspan><tspan x="400.12" y="48">ficial website for Peking University</tspan><tspan x="0" y="72">2013: Speak: “Responsive </tspan><tspan class="g" x="233.04" y="72">W</tspan><tspan x="250.82" y="72">eb Design: Rebuild as Design”</tspan></tspan></text><path class="a" d="M1180.94,822.48a33,33,0,1,1,0-66h711.73a33,33,0,1,1,0,66Z"/><path class="b" d="M1892.68,757.45a32,32,0,0,1,0,64H1180.94a32,32,0,1,1,0-64h711.74m0-2H1180.94a34.12,34.12,0,0,0-34,34h0a34.12,34.12,0,0,0,34,34h711.74a34.12,34.12,0,0,0,34-34h0a34.12,34.12,0,0,0-34-34Z"/><text class="d" transform="translate(1453.58 799.51)">Accessibility</text><text class="e" transform="translate(0.2 1091.14)">2017: <tspan class="f" x="55.6" y="0">T</tspan><tspan x="64.88" y="0">ranslate: “Data </tspan><tspan class="j" x="196.76" y="0">V</tspan><tspan class="k" x="208.74" y="0">isualization with JavaScript”</tspan><tspan x="0" y="24">2016: C</tspan><tspan class="g" x="69.68" y="24">r</tspan><tspan class="l" x="75.62" y="24">eate “UFO Animate, A CSS Animation </tspan><tspan class="m" x="406.46" y="24">T</tspan><tspan x="415.36" y="24">ool”</tspan><tspan x="0" y="48">2011 - 2014: UI Development for </tspan><tspan class="n" x="290.12" y="48">T</tspan><tspan x="299.02" y="48">encent </tspan><tspan class="g" x="363.12" y="48">W</tspan><tspan x="380.9" y="48">eibo, </tspan><tspan class="n" x="428.7" y="48">T</tspan><tspan x="437.6" y="48">encent Online Media G</tspan><tspan class="o" x="634.7" y="48">r</tspan><tspan x="640.63" y="48">oup</tspan><tspan x="0" y="72">2010 - 2011: F</tspan><tspan class="o" x="129.34" y="72">r</tspan><tspan x="135.28" y="72">ont-end Develope</tspan><tspan class="f" x="289.02" y="72">r</tspan><tspan x="293.48" y="72">, Beijing Rising Co., Ltd.</tspan></text><path class="p" d="M1101.23,691.59a36.91,36.91,0,0,1-34.93,25H733.48a38.23,38.23,0,0,0-38.24,38.24v.64"/><path class="q" d="M1103.19,679.67c-3.1,5.21-7.91,11.49-12.44,15.1l10-1.67,8.73,5.1C1106.5,693.22,1104.24,685.64,1103.19,679.67Z"/><line class="p" x1="1444.14" y1="1024.56" x2="1381.02" y2="1024.56"/><path class="q" d="M1456.21,1024.56c-5.68-2.11-12.73-5.7-17.1-9.51l3.44,9.51-3.44,9.51C1443.48,1030.26,1450.53,1026.66,1456.21,1024.56Z"/><line class="p" x1="779.55" y1="1024.31" x2="851.02" y2="1024.31"/><path class="q" d="M767.48,1024.31c5.68,2.1,12.73,5.7,17.1,9.51l-3.44-9.51,3.44-9.51C780.21,1018.61,773.16,1022.2,767.48,1024.31Z"/><path class="p" d="M695.24,942.62a19.77,19.77,0,0,1-19.77,19.77H411.26A27.43,27.43,0,0,0,386.5,978"/><path class="q" d="M383.84,989.81c-.68-6-2.47-13.73-5.12-18.88l8.41,5.63,10.05-1.06C392.44,978.83,387.25,984.8,383.84,989.81Z"/><path class="r" d="M383.84,989.81"/><path class="r" d="M695.24,931.21"/><path class="r" d="M1536.81,891.78"/><path class="p" d="M1130.82,691.59a36.91,36.91,0,0,0,34.93,25h332.81a38.24,38.24,0,0,1,38.25,38.24v.64"/><path class="q" d="M1128.85,679.67c-1,6-3.3,13.55-6.26,18.54l8.73-5.11,10,1.67C1136.76,691.16,1132,684.88,1128.85,679.67Z"/><rect class="a" x="739.52" y="535.95" width="763.35" height="66.03"/><path class="b" d="M1501.87,537v64H740.52V537h761.35m2-2H738.52v68h765.35V535Z"/><text class="c" transform="translate(985.45 581.01)">DESIGN for Users</text><text class="s" transform="translate(738.52 635.58)">2015 - 2016: Interaction Design for the whole p<tspan class="g" x="407.56" y="0">r</tspan><tspan x="413.5" y="0">ocess of DiDi Hitch, DiDi Chuxing G</tspan><tspan class="o" x="719.45" y="0">r</tspan><tspan x="725.39" y="0">oup</tspan><tspan x="0" y="24">2014 - 2015: Interaction Design for </tspan><tspan class="o" x="307.16" y="24">W</tspan><tspan x="324.94" y="24">eishi Mobile AP</tspan><tspan class="t" x="456.82" y="24">P</tspan><tspan class="k" x="466.36" y="24">, </tspan><tspan class="n" x="477.48" y="24">T</tspan><tspan x="486.38" y="24">encent Online Media G</tspan><tspan class="o" x="683.47" y="24">r</tspan><tspan x="689.41" y="24">oup</tspan></text><rect class="a" x="1.2" y="49.83" width="765.28" height="66.03"/><path class="b" d="M765.48,50.83v64H2.2v-64H765.48m2-2H.2v68H767.48v-68Z"/><text class="c" transform="translate(176.94 94.89)">MANAGEMENT for Systems</text><text class="s" transform="translate(0.2 152.48)">2012 - 2016: Hold design-tech sharing meeting, <tspan class="m" x="420.14" y="0">T</tspan><tspan x="429.04" y="0">encent, DiDi Chuxing</tspan><tspan x="0" y="24">2008 - 2010: P</tspan><tspan class="g" x="131.2" y="24">r</tspan><tspan x="137.14" y="24">oject Management, Vchoice Era Design Consultant Co., Ltd.</tspan><tspan x="0" y="48">2006 - 2008: ISO9000 Quality Management System Certification Assistant, CCIC G</tspan><tspan class="o" x="717.23" y="48">r</tspan><tspan x="723.17" y="48">oup.</tspan></text><rect class="a" x="1457.21" y="55.08" width="765.29" height="66.03"/><path class="b" d="M2221.49,56.08v64H1458.21v-64h763.28m2-2H1456.21v68h767.28v-68Z"/><text class="c" transform="translate(1661.39 100.14)">LITER<tspan class="u" x="91.84" y="0">A</tspan><tspan x="110.81" y="0">TURE for Human</tspan></text><text class="v" transform="translate(1456.21 152.48)">2019: <tspan class="w" x="54.4" y="0">W</tspan><tspan x="71.98" y="0">on the 45</tspan></text><text class="x" transform="translate(1608.65 145.82) scale(0.58)">th</text><text class="s" transform="translate(1618.13 152.48)"><tspan class="y"> </tspan><tspan class="z" x="5.36" y="0">Y</tspan><tspan class="aa" x="14.8" y="0">outh Literary </tspan><tspan class="ab" x="124.62" y="0">A</tspan><tspan class="y" x="136.66" y="0">wa</tspan><tspan class="w" x="161.46" y="0">r</tspan><tspan class="y" x="167.2" y="0">d for Merit, by HKU &amp; CUHK</tspan><tspan x="-161.92" y="24">2018: Published thesis at the 37</tspan></text><text class="ac" transform="translate(1734.04 169.82) scale(0.58)">th</text><text class="s" transform="translate(1743.76 176.48)"><tspan class="k" xml:space="preserve"> “Studies in Chinese Literatu</tspan><tspan class="g" x="242.24" y="0">r</tspan><tspan x="248.18" y="0">e” seminar held by </tspan><tspan x="-287.55" y="24">National </tspan><tspan class="n" x="-211.97" y="24">T</tspan><tspan x="-203.07" y="24">aiwan Universit</tspan><tspan class="ad" x="-73.79" y="24">y</tspan><tspan x="-66.37" y="24">.</tspan></text><path class="a" d="M1180.94,355.29a33,33,0,1,1,0-66h711.74a33,33,0,0,1,0,66Z"/><path class="b" d="M1892.68,290.26a32,32,0,0,1,0,64H1180.94a32,32,0,1,1,0-64h711.74m0-2H1180.94a34,34,0,1,0,0,68h711.74a34,34,0,0,0,0-68Z"/><text class="d" transform="translate(1421.97 332.32)">Content Strategy</text><text class="e" transform="translate(1146.92 389.04)">2016: Speak: “F<tspan class="g" x="138.96" y="0">r</tspan><tspan x="144.9" y="0">om </tspan><tspan class="ae" x="178.24" y="0">V</tspan><tspan x="189" y="0">oice &amp; </tspan><tspan class="m" x="247.92" y="0">T</tspan><tspan x="256.82" y="0">one to Content Strategy”</tspan></text><path class="a" d="M339.37,355.29a33,33,0,0,1,0-66h711.74a33,33,0,1,1,0,66Z"/><path class="b" d="M1051.11,290.26a32,32,0,1,1,0,64H339.37a32,32,0,0,1,0-64h711.74m0-2H339.37a34,34,0,0,0,0,68h711.74a34,34,0,1,0,0-68Z"/><text class="d" transform="translate(595.42 332.32)">Design System</text><text class="s" transform="translate(305.36 389.04)">2016: C<tspan class="g" x="69.68" y="0">r</tspan><tspan class="l" x="75.62" y="0">eate DiDi Hitch&apos;s Design System</tspan><tspan class="q"><tspan x="0" y="24">2015: Speak: </tspan><tspan class="b" x="120.82" y="24">“Futu</tspan><tspan class="af" x="166.36" y="24">r</tspan><tspan class="b" x="172.3" y="24">e Friendly </tspan><tspan class="ag" x="260.1" y="24">W</tspan><tspan class="ah" x="277.88" y="24">eb Design”</tspan></tspan><tspan x="0" y="48">2014: C</tspan><tspan class="g" x="69.68" y="48">r</tspan><tspan class="l" x="75.62" y="48">eate the guideline of </tspan><tspan class="g" x="254.2" y="48">W</tspan><tspan x="271.98" y="48">eishi</tspan><tspan class="n" x="310.12" y="48">’</tspan><tspan x="313.46" y="48">s </tspan><tspan class="o" x="328.64" y="48">W</tspan><tspan class="l" x="346.42" y="48">eb design</tspan></text><path class="p" d="M1536.81,823.48v95.59h0a43.33,43.33,0,0,0,43.32,43.32h240.66A27.43,27.43,0,0,1,1845.55,978"/><path class="q" d="M1848.21,989.81c-3.41-5-8.6-11-13.35-14.31l10.06,1.06,8.41-5.63C1850.68,976.09,1848.88,983.79,1848.21,989.81Z"/><path class="p" d="M694.94,288.56h0a32.65,32.65,0,0,0-32.65-32.66H421.63a38.1,38.1,0,0,1-36.18-26.16"/><path class="q" d="M383.54,217.81c3.07,5.23,7.85,11.53,12.36,15.17l-10-1.72-8.76,5.05C380.16,231.34,382.47,223.78,383.54,217.81Z"/><path class="p" d="M1101.23,502a36.91,36.91,0,0,0-34.93-25H716.09a20.86,20.86,0,0,1-20.85-20.85"/><path class="q" d="M1103.19,513.91c1-6,3.31-13.55,6.27-18.53l-8.74,5.1-10-1.66C1095.28,502.42,1100.09,508.71,1103.19,513.91Z"/><path class="r" d="M1536.81,410.93"/><path class="p" d="M1130.82,502a36.91,36.91,0,0,1,34.93-25h305a66.09,66.09,0,0,0,66.09-66.09h0"/><path class="q" d="M1128.85,513.91c3.1-5.2,7.91-11.49,12.45-15.09l-10,1.66-8.73-5.1C1125.55,500.36,1127.81,507.94,1128.85,513.91Z"/><path class="r" d="M1848.21,140.67"/><path class="p" d="M1536.81,288.56h0a32.65,32.65,0,0,1,32.65-32.66h229a49.79,49.79,0,0,0,48.32-37.79"/><path class="q" d="M1848.21,206.12c1.32,5.91,3.92,13.38,7.1,18.23l-9-4.7-9.89,2.12C1840.83,218,1845.35,211.46,1848.21,206.12Z"/><path class="a" d="M885,116.28a33,33,0,1,1,0-66h462a33,33,0,0,1,0,66Z"/><path class="b" d="M1347,51.25a32,32,0,0,1,0,64H885a32,32,0,1,1,0-64h462m0-2H885a34,34,0,1,0,0,68h462a34,34,0,0,0,0-68Z"/><text class="d" transform="translate(954.96 93.31)">Cultural &amp; Media Studies</text><line class="p" x1="1444.14" y1="83.17" x2="1381.02" y2="83.17"/><path class="q" d="M1456.21,83.17c-5.68-2.11-12.73-5.7-17.1-9.51l3.44,9.51-3.44,9.51C1443.48,88.87,1450.53,85.27,1456.21,83.17Z"/><line class="p" x1="779.55" y1="82.92" x2="851.02" y2="82.92"/><path class="q" d="M767.48,82.92c5.68,2.1,12.73,5.7,17.1,9.51l-3.44-9.51,3.44-9.51C780.21,77.22,773.16,80.81,767.48,82.92Z"/><text class="ai" transform="translate(2048.48 581.16)">ACADEMIC +</text><text class="ai" transform="translate(0.2 581.16)">PRACTICE +</text><text class="ai" transform="translate(0.2 1212.54)">ENGINEERING +</text><text class="ai" transform="translate(2123.14 24.08)">ARTS +</text></svg>