<svg xmlns="http://www.w3.org/2000/svg" viewBox="0 0 2223.29 1219.04"><defs><style>.a{fill:#fff;}.b,.c,.d,.i{fill:#231815;}.c{font-size:32px;}.c,.d,.k{font-family:PingFangSC-Semibold-GBpc-EUC-H, PingFang SC;font-weight:700;}.d,.k{font-size:28px;}.e,.i{font-size:20px;font-family:PingFangSC-Thin-GBpc-EUC-H, PingFang SC;}.e,.g,.k{fill:#040000;}.f,.h{fill:none;}.f{stroke:#040000;stroke-miterlimit:10;stroke-width:2px;}.j{letter-spacing:-0.01em;}</style></defs><title>cdm_cn</title><rect class="a" x="1" y="991.65" width="765.28" height="66.03"/><path class="b" d="M765.29,992.65v64H2v-64H765.29m2-2H0v68H767.29v-68Z"/><text class="c" transform="translate(239.64 1036.71)">开发，以设备为中心</text><rect class="a" x="1457.01" y="991.65" width="765.28" height="66.03"/><path class="b" d="M2221.29,992.65v64H1458v-64h763.28m2-2H1456v68h767.28v-68Z"/><text class="c" transform="translate(1695.7 1036.71)">语言，以内容为中心</text><path class="a" d="M884.84,1057.68a33,33,0,1,1,0-66h462a33,33,0,0,1,0,66Z"/><path class="b" d="M1346.81,992.65a32,32,0,0,1,0,64h-462a32,32,0,1,1,0-64h462m0-2h-462a34.11,34.11,0,0,0-34,34h0a34.12,34.12,0,0,0,34,34h462a34.11,34.11,0,0,0,34-34h0a34.1,34.1,0,0,0-34-34Z"/><text class="d" transform="translate(1078.66 1034.71)">语义化</text><path class="a" d="M339.17,822.48a33,33,0,0,1,0-66h711.74a33,33,0,1,1,0,66Z"/><path class="b" d="M1050.91,757.45a32,32,0,1,1,0,64H339.17a32,32,0,0,1,0-64h711.74m0-2H339.17a34.11,34.11,0,0,0-34,34h0a34.1,34.1,0,0,0,34,34h711.74a34.11,34.11,0,0,0,34-34h0a34.12,34.12,0,0,0-34-34Z"/><text class="d" transform="translate(625.04 799.52)">适应性设计</text><text class="e" transform="translate(305.16 856.23)">2017: 翻译《渐进增强：跨平台用户体验设计》<tspan class="b"><tspan x="0" y="24">2016: 分享《Web设计基础》</tspan><tspan x="0" y="48">2015: 改版设计北京大学官方网站（国际版）</tspan><tspan x="0" y="72">2013: 分享《响应式设计》</tspan></tspan></text><path class="a" d="M1180.74,822.48a33,33,0,1,1,0-66h711.74a33,33,0,0,1,0,66Z"/><path class="b" d="M1892.48,757.45a32,32,0,0,1,0,64H1180.74a32,32,0,1,1,0-64h711.74m0-2H1180.74a34.12,34.12,0,0,0-34,34h0a34.11,34.11,0,0,0,34,34h711.74a34.11,34.11,0,0,0,34-34h0a34.12,34.12,0,0,0-34-34Z"/><text class="d" transform="translate(1480.61 799.52)">可访问性</text><text class="e" transform="translate(0 1091.15)">2017: 翻译《JavaScript数据可视化编程》<tspan x="0" y="24">2016: 开发设计工具《UFO Animate》</tspan><tspan x="0" y="48">2011 - 2014: UI开发，腾讯微博</tspan><tspan x="0" y="72">2010 - 2011: 前端开发，瑞星</tspan></text><path class="f" d="M1101,691.59a36.91,36.91,0,0,1-34.93,25H733.28A38.24,38.24,0,0,0,695,754.81v.64"/><path class="g" d="M1103,679.68c-3.1,5.2-7.91,11.48-12.44,15.09l10-1.66,8.74,5.1C1106.3,693.22,1104,685.64,1103,679.68Z"/><line class="f" x1="1443.94" y1="1024.56" x2="1380.82" y2="1024.56"/><path class="g" d="M1456,1024.56c-5.68-2.11-12.73-5.7-17.1-9.51l3.44,9.51-3.44,9.51C1443.28,1030.26,1450.33,1026.67,1456,1024.56Z"/><line class="f" x1="779.36" y1="1024.31" x2="850.82" y2="1024.31"/><path class="g" d="M767.29,1024.31c5.67,2.11,12.72,5.7,17.09,9.51l-3.44-9.51,3.44-9.51C780,1018.61,773,1022.21,767.29,1024.31Z"/><path class="f" d="M695,942.63a19.77,19.77,0,0,1-19.77,19.77H411.06A27.41,27.41,0,0,0,386.3,978"/><path class="g" d="M383.64,989.81c-.68-6-2.47-13.72-5.12-18.88l8.41,5.63,10.05-1C392.24,978.83,387.05,984.81,383.64,989.81Z"/><path class="h" d="M383.64,989.81"/><path class="h" d="M695,931.21"/><path class="h" d="M1536.61,891.79"/><path class="f" d="M1130.62,691.59a36.91,36.91,0,0,0,34.93,25h332.81a38.24,38.24,0,0,1,38.25,38.24v.64"/><path class="g" d="M1128.66,679.68c-1.05,6-3.31,13.54-6.27,18.53l8.73-5.1,10,1.66C1136.56,691.16,1131.75,684.88,1128.66,679.68Z"/><rect class="a" x="739.32" y="535.95" width="763.35" height="66.03"/><path class="b" d="M1501.67,537v64H740.32V537h761.35m2-2H738.32v68h765.35V535Z"/><text class="c" transform="translate(977 581.01)">设计，以用户为中心</text><text class="i" transform="translate(738.32 635.59)">2015 - 2016: 交互设计，滴滴顺风车全流程以及营销H5<tspan x="0" y="24">2014 - 2015: 交互设计，腾讯微视</tspan></text><rect class="a" x="1" y="49.83" width="765.28" height="66.03"/><path class="b" d="M765.28,50.83v64H2v-64H765.28m2-2H0v68H767.28v-68Z"/><text class="c" transform="translate(245.79 94.9)">管理，以系统为中心</text><text class="i" transform="translate(0 152.49)">2012 - 2016: 组织技术分享交流，腾讯、滴滴出行<tspan x="0" y="24">2008 - 2010: 项目管理，维创时代企业策划咨询公司</tspan><tspan x="0" y="48">2006 - 2008: ISO9000 质量管理体系认证主办，中国质量认证中心</tspan></text><rect class="a" x="1457.01" y="55.08" width="765.29" height="66.03"/><path class="b" d="M2221.29,56.08v64H1458v-64h763.28m2-2H1456v68h767.28v-68Z"/><text class="c" transform="translate(1717.8 100.15)">文学，以人为中心</text><text class="i" transform="translate(1456.01 152.49)"><tspan class="j">2019: 第45届青年文学奖小小说优异奖，香港大学暨香港中文大学</tspan><tspan x="0" y="24">2018: 当代作家与媒体场域关系论文，国立台湾大学第37届《中国文学研究》研讨会</tspan></text><path class="a" d="M1180.74,355.29a33,33,0,1,1,0-66h711.74a33,33,0,0,1,0,66Z"/><path class="b" d="M1892.48,290.26a32,32,0,0,1,0,64H1180.74a32,32,0,1,1,0-64h711.74m0-2H1180.74a34,34,0,1,0,0,68h711.74a34,34,0,0,0,0-68Z"/><text class="d" transform="translate(1480.61 332.33)">内容策略</text><text class="e" transform="translate(1146.72 389.04)">2016: 分享《情感化内容策略》</text><path class="a" d="M339.17,355.29a33,33,0,0,1,0-66h711.74a33,33,0,1,1,0,66Z"/><path class="b" d="M1050.91,290.26a32,32,0,1,1,0,64H339.17a32,32,0,0,1,0-64h711.74m0-2H339.17a34,34,0,0,0,0,68h711.74a34,34,0,1,0,0-68Z"/><text class="d" transform="translate(639.04 332.33)">设计体系</text><text class="i" transform="translate(305.16 389.04)">2016: 建立并维护滴滴顺风车设计体系<tspan class="g"><tspan x="0" y="24">2015: 分享《面向未来的友好设计》</tspan></tspan><tspan x="0" y="48">2014: 建立并维护腾讯微视的设计规范</tspan></text><path class="f" d="M1536.61,823.48v95.59h0a43.33,43.33,0,0,0,43.32,43.33h240.66A27.41,27.41,0,0,1,1845.35,978"/><path class="g" d="M1848,989.81c-3.41-5-8.6-11-13.35-14.3l10.06,1,8.41-5.63C1850.48,976.09,1848.69,983.79,1848,989.81Z"/><path class="f" d="M694.74,288.56h0a32.65,32.65,0,0,0-32.65-32.65H421.43a38.09,38.09,0,0,1-36.18-26.17"/><path class="g" d="M383.34,217.82c3.07,5.22,7.85,11.53,12.36,15.16l-10-1.72L377,236.32C380,231.35,382.27,223.78,383.34,217.82Z"/><path class="f" d="M1101,502a36.91,36.91,0,0,0-34.93-25H715.89A20.85,20.85,0,0,1,695,456.17"/><path class="g" d="M1103,513.91c1-6,3.31-13.54,6.27-18.53l-8.74,5.11-10-1.67C1095.08,502.43,1099.9,508.71,1103,513.91Z"/><path class="h" d="M1536.61,410.94"/><path class="f" d="M1130.62,502a36.91,36.91,0,0,1,34.93-25h305a66.09,66.09,0,0,0,66.08-66.08h0"/><path class="g" d="M1128.66,513.91c3.09-5.2,7.91-11.48,12.44-15.09l-10,1.67-8.73-5.11C1125.35,500.37,1127.61,508,1128.66,513.91Z"/><path class="h" d="M1848,140.68"/><path class="f" d="M1536.61,288.56h0a32.65,32.65,0,0,1,32.66-32.65h229a49.82,49.82,0,0,0,48.33-37.8"/><path class="g" d="M1848,206.12c1.32,5.92,3.92,13.39,7.11,18.23l-9-4.7-9.89,2.12C1840.63,218,1845.15,211.47,1848,206.12Z"/><path class="a" d="M884.84,116.29a33,33,0,1,1,0-66h462a33,33,0,0,1,0,66Z"/><path class="b" d="M1346.81,51.26a32,32,0,0,1,0,64h-462a32,32,0,1,1,0-64h462m0-2h-462a34,34,0,1,0,0,68h462a34,34,0,0,0,0-68Z"/><text class="d" transform="translate(1022.66 93.32)">文化、媒体研究</text><line class="f" x1="1443.94" y1="83.17" x2="1380.82" y2="83.17"/><path class="g" d="M1456,83.17c-5.68-2.11-12.73-5.7-17.1-9.51l3.44,9.51-3.44,9.51C1443.28,88.87,1450.33,85.28,1456,83.17Z"/><line class="f" x1="779.35" y1="82.92" x2="850.82" y2="82.92"/><path class="g" d="M767.28,82.92C773,85,780,88.62,784.38,92.43l-3.44-9.51,3.44-9.51C780,77.22,773,80.82,767.28,82.92Z"/><text class="k" transform="translate(2141.03 581.16)">学术 +</text><text class="k" transform="translate(0 581.16)">实践 +</text><text class="k" transform="translate(0 1212.55)">工程 +</text><text class="k" transform="translate(2141.03 24.08)">人文 +</text></svg>