<svg xmlns="http://www.w3.org/2000/svg" xmlns:xlink="http://www.w3.org/1999/xlink" viewBox="0 0 446.9 403.12"><defs><style>.a{fill:none;}.b{clip-path:url(#a);}.c{fill:#fff;}.d{clip-path:url(#b);}.e{fill:#ff8903;}.f{clip-path:url(#c);}.g{fill:#f4f4f4;}.h{clip-path:url(#d);}.i{clip-path:url(#e);}.j{clip-path:url(#f);}.k{clip-path:url(#g);}.l{clip-path:url(#h);}.m{clip-path:url(#i);}.n{clip-path:url(#j);}.o{clip-path:url(#k);}.p{clip-path:url(#l);}.q{fill:#f0f0f0;}.r{fill:#e9e9e9;}.s{clip-path:url(#n);}.t{clip-path:url(#o);}.u{clip-path:url(#p);}.v{clip-path:url(#q);}.w{clip-path:url(#r);}.x{clip-path:url(#s);}.y{clip-path:url(#t);}.z{clip-path:url(#u);}.aa{clip-path:url(#v);}.ab{font-size:5.4px;font-family:Helvetica, Helvetica;}.ab,.ac{fill:#666;}.ac{font-size:9px;font-family:HelveticaNeue, Helvetica Neue;}.ad{clip-path:url(#y);}.ae{fill:#ef8724;}.af{clip-path:url(#z);}.ag{clip-path:url(#aa);}.ah{clip-path:url(#ab);}.ai{clip-path:url(#ac);}.aj{clip-path:url(#ad);}.ak{clip-path:url(#ae);}.al{clip-path:url(#af);}.am{clip-path:url(#ah);}.an{fill:#e68234;}.ao{fill:#292929;}.ap{fill:#4f4f4f;}.aq{clip-path:url(#ai);}.ar{clip-path:url(#aj);}.as{clip-path:url(#ak);}.at{clip-path:url(#al);}.au{clip-path:url(#am);}.av{clip-path:url(#an);}.aw{clip-path:url(#ao);}.ax{clip-path:url(#aq);}.ay{clip-path:url(#ar);}.az{clip-path:url(#as);}.ba{clip-path:url(#at);}.bb{clip-path:url(#au);}.bc{clip-path:url(#av);}.bd{clip-path:url(#aw);}.be{clip-path:url(#ax);}.bf{stroke:#666;stroke-width:0.09px;}.bg{clip-path:url(#ba);}.bh{clip-path:url(#bb);}.bi{clip-path:url(#bc);}.bj{font-size:10.8px;fill:#333;font-family:ArialMT, Arial;}</style><clipPath id="a"><rect class="a" y="-15.18" width="540" height="785.7"/></clipPath><clipPath id="b"><rect class="a" y="22.62" width="540" height="715.05"/></clipPath><clipPath id="c"><rect class="a" x="7.65" y="74.82" width="59.85" height="30.6"/></clipPath><clipPath id="d"><rect class="a" x="67.95" y="74.82" width="45.9" height="30.6"/></clipPath><clipPath id="e"><rect class="a" x="114.3" y="74.82" width="45.9" height="30.6"/></clipPath><clipPath id="f"><rect class="a" x="160.65" y="74.82" width="45.9" height="30.6"/></clipPath><clipPath id="g"><rect class="a" x="207" y="74.82" width="45.9" height="30.6"/></clipPath><clipPath id="h"><rect class="a" x="253.35" y="74.82" width="45.9" height="30.6"/></clipPath><clipPath id="i"><rect class="a" x="299.7" y="74.82" width="45.9" height="30.6"/></clipPath><clipPath id="j"><rect class="a" x="346.05" y="74.82" width="45.9" height="30.6"/></clipPath><clipPath id="k"><rect class="a" x="392.4" y="74.82" width="46.35" height="30.6"/></clipPath><clipPath id="l"><rect class="a" x="7.2" y="74.37" width="432" height="136.8"/></clipPath><clipPath id="n"><rect class="a" x="7.65" y="298.47" width="97.65" height="30.6"/></clipPath><clipPath id="o"><rect class="a" x="105.75" y="298.47" width="130.05" height="30.6"/></clipPath><clipPath id="p"><rect class="a" x="236.25" y="298.47" width="101.25" height="30.6"/></clipPath><clipPath id="q"><rect class="a" x="337.95" y="298.47" width="100.8" height="30.6"/></clipPath><clipPath id="r"><rect class="a" x="7.65" y="364.62" width="97.65" height="30.6"/></clipPath><clipPath id="s"><rect class="a" x="105.75" y="364.62" width="130.05" height="30.6"/></clipPath><clipPath id="t"><rect class="a" x="236.25" y="364.62" width="101.25" height="30.6"/></clipPath><clipPath id="u"><rect class="a" x="337.95" y="364.62" width="100.8" height="30.6"/></clipPath><clipPath id="v"><rect class="a" x="7.2" y="262.92" width="432" height="132.75"/></clipPath><clipPath id="y"><rect class="a" x="88.2" y="119.37" width="5.4" height="5.4"/></clipPath><clipPath id="z"><rect class="a" x="134.1" y="118.92" width="6.3" height="6.3"/></clipPath><clipPath id="aa"><rect class="a" x="180" y="118.47" width="7.2" height="7.2"/></clipPath><clipPath id="ab"><rect class="a" x="225.9" y="117.57" width="8.55" height="8.55"/></clipPath><clipPath id="ac"><rect class="a" x="271.8" y="117.57" width="9" height="9"/></clipPath><clipPath id="ad"><rect class="a" x="317.25" y="116.67" width="10.8" height="10.8"/></clipPath><clipPath id="ae"><rect class="a" x="361.8" y="114.87" width="14.4" height="14.4"/></clipPath><clipPath id="af"><rect class="a" x="406.8" y="113.07" width="18" height="18"/></clipPath><clipPath id="ah"><rect class="a" x="88.2" y="154.47" width="5.4" height="5.4"/></clipPath><clipPath id="ai"><rect class="a" x="134.1" y="154.02" width="6.3" height="6.3"/></clipPath><clipPath id="aj"><rect class="a" x="180" y="153.57" width="7.2" height="7.2"/></clipPath><clipPath id="ak"><rect class="a" x="225.9" y="152.67" width="8.55" height="8.55"/></clipPath><clipPath id="al"><rect class="a" x="271.8" y="152.67" width="9" height="9"/></clipPath><clipPath id="am"><rect class="a" x="317.25" y="151.77" width="10.8" height="10.8"/></clipPath><clipPath id="an"><rect class="a" x="361.8" y="149.97" width="14.4" height="14.4"/></clipPath><clipPath id="ao"><rect class="a" x="406.8" y="148.17" width="18" height="18"/></clipPath><clipPath id="aq"><rect class="a" x="88.2" y="189.57" width="5.4" height="5.4"/></clipPath><clipPath id="ar"><rect class="a" x="134.1" y="189.12" width="6.3" height="6.3"/></clipPath><clipPath id="as"><rect class="a" x="180" y="188.67" width="7.2" height="7.2"/></clipPath><clipPath id="at"><rect class="a" x="225.9" y="187.77" width="8.55" height="8.55"/></clipPath><clipPath id="au"><rect class="a" x="271.8" y="187.77" width="9" height="9"/></clipPath><clipPath id="av"><rect class="a" x="317.25" y="186.87" width="10.8" height="10.8"/></clipPath><clipPath id="aw"><rect class="a" x="361.8" y="185.07" width="14.4" height="14.4"/></clipPath><clipPath id="ax"><rect class="a" x="406.8" y="183.27" width="18" height="18"/></clipPath><clipPath id="ba"><rect class="a" x="7.45" y="8.55" width="18" height="18"/></clipPath><clipPath id="bb"><rect class="a" x="29.95" y="10.35" width="14.4" height="14.4"/></clipPath><clipPath id="bc"><rect class="a" x="-2" y="8.1" width="540" height="785.7"/></clipPath></defs><title>designsystem</title><g class="b"><rect class="c" y="-15.18" width="540" height="785.7"/><rect class="c" y="22.62" width="540" height="715.05"/></g><g class="d"><rect class="e" x="7.2" y="36.12" width="7.2" height="15.75"/></g><g class="f"><rect class="g" x="7.2" y="74.37" width="60.3" height="31.05"/></g><g class="h"><rect class="g" x="67.5" y="74.37" width="46.35" height="31.05"/></g><g class="i"><rect class="g" x="113.85" y="74.37" width="46.35" height="31.05"/></g><g class="j"><rect class="g" x="160.2" y="74.37" width="46.35" height="31.05"/></g><g class="k"><rect class="g" x="206.55" y="74.37" width="46.35" height="31.05"/></g><g class="l"><rect class="g" x="252.9" y="74.37" width="46.35" height="31.05"/></g><g class="m"><rect class="g" x="299.25" y="74.37" width="46.35" height="31.05"/></g><g class="n"><rect class="g" x="345.6" y="74.37" width="46.35" height="31.05"/></g><g class="o"><rect class="g" x="391.95" y="74.37" width="46.8" height="31.05"/></g><g class="p"><rect class="q" x="7.2" y="175.62" width="60.3" height="35.1"/><rect class="q" x="67.5" y="175.62" width="46.35" height="35.1"/><rect class="q" x="113.85" y="175.62" width="46.35" height="35.1"/><rect class="q" x="160.2" y="175.62" width="46.35" height="35.1"/><rect class="q" x="206.55" y="175.62" width="46.35" height="35.1"/><rect class="q" x="252.9" y="175.62" width="46.35" height="35.1"/><rect class="q" x="299.25" y="175.62" width="46.35" height="35.1"/><rect class="q" x="345.6" y="175.62" width="46.35" height="35.1"/><rect class="q" x="391.95" y="175.62" width="46.8" height="35.1"/><rect class="r" x="391.95" y="210.72" width="47.25" height="0.45"/><rect class="r" x="438.75" y="175.62" width="0.45" height="35.55"/><rect class="r" x="345.6" y="210.72" width="46.8" height="0.45"/><rect class="r" x="391.95" y="175.62" width="0.45" height="35.55"/><rect class="r" x="299.25" y="210.72" width="46.8" height="0.45"/><rect class="r" x="345.6" y="175.62" width="0.45" height="35.55"/><rect class="r" x="252.9" y="210.72" width="46.8" height="0.45"/><rect class="r" x="299.25" y="175.62" width="0.45" height="35.55"/><rect class="r" x="206.55" y="210.72" width="46.8" height="0.45"/><rect class="r" x="252.9" y="175.62" width="0.45" height="35.55"/><rect class="r" x="160.2" y="210.72" width="46.8" height="0.45"/><rect class="r" x="206.55" y="175.62" width="0.45" height="35.55"/><rect class="r" x="113.85" y="210.72" width="46.8" height="0.45"/><rect class="r" x="160.2" y="175.62" width="0.45" height="35.55"/><rect class="r" x="67.5" y="210.72" width="46.8" height="0.45"/><rect class="r" x="113.85" y="175.62" width="0.45" height="35.55"/><rect class="r" x="7.2" y="210.72" width="60.75" height="0.45"/><rect class="r" x="7.2" y="175.62" width="0.45" height="35.55"/><rect class="r" x="67.5" y="175.62" width="0.45" height="35.55"/><rect class="r" x="391.95" y="175.62" width="47.25" height="0.45"/><rect class="r" x="438.75" y="140.52" width="0.45" height="35.55"/><rect class="r" x="345.6" y="175.62" width="46.8" height="0.45"/><rect class="r" x="391.95" y="140.52" width="0.45" height="35.55"/><rect class="r" x="299.25" y="175.62" width="46.8" height="0.45"/><rect class="r" x="345.6" y="140.52" width="0.45" height="35.55"/><rect class="r" x="252.9" y="175.62" width="46.8" height="0.45"/><rect class="r" x="299.25" y="140.52" width="0.45" height="35.55"/><rect class="r" x="206.55" y="175.62" width="46.8" height="0.45"/><rect class="r" x="252.9" y="140.52" width="0.45" height="35.55"/><rect class="r" x="160.2" y="175.62" width="46.8" height="0.45"/><rect class="r" x="206.55" y="140.52" width="0.45" height="35.55"/><rect class="r" x="113.85" y="175.62" width="46.8" height="0.45"/><rect class="r" x="160.2" y="140.52" width="0.45" height="35.55"/><rect class="r" x="67.5" y="175.62" width="46.8" height="0.45"/><rect class="r" x="113.85" y="140.52" width="0.45" height="35.55"/><rect class="r" x="7.2" y="175.62" width="60.75" height="0.45"/><rect class="r" x="7.2" y="140.52" width="0.45" height="35.55"/><rect class="r" x="67.5" y="140.52" width="0.45" height="35.55"/><rect class="r" x="391.95" y="140.52" width="47.25" height="0.45"/><rect class="r" x="438.75" y="105.42" width="0.45" height="35.55"/><rect class="r" x="345.6" y="140.52" width="46.8" height="0.45"/><rect class="r" x="391.95" y="105.42" width="0.45" height="35.55"/><rect class="r" x="299.25" y="140.52" width="46.8" height="0.45"/><rect class="r" x="345.6" y="105.42" width="0.45" height="35.55"/><rect class="r" x="252.9" y="140.52" width="46.8" height="0.45"/><rect class="r" x="299.25" y="105.42" width="0.45" height="35.55"/><rect class="r" x="206.55" y="140.52" width="46.8" height="0.45"/><rect class="r" x="252.9" y="105.42" width="0.45" height="35.55"/><rect class="r" x="160.2" y="140.52" width="46.8" height="0.45"/><rect class="r" x="206.55" y="105.42" width="0.45" height="35.55"/><rect class="r" x="113.85" y="140.52" width="46.8" height="0.45"/><rect class="r" x="160.2" y="105.42" width="0.45" height="35.55"/><rect class="r" x="67.5" y="140.52" width="46.8" height="0.45"/><rect class="r" x="113.85" y="105.42" width="0.45" height="35.55"/><rect class="r" x="7.2" y="140.52" width="60.75" height="0.45"/><rect class="r" x="7.2" y="105.42" width="0.45" height="35.55"/><rect class="r" x="67.5" y="105.42" width="0.45" height="35.55"/><rect class="r" x="391.95" y="74.37" width="47.25" height="0.45"/><rect class="r" x="391.95" y="105.42" width="47.25" height="0.45"/><rect class="r" x="438.75" y="74.37" width="0.45" height="31.5"/><rect class="r" x="345.6" y="74.37" width="46.8" height="0.45"/><rect class="r" x="345.6" y="105.42" width="46.8" height="0.45"/><rect class="r" x="391.95" y="74.37" width="0.45" height="31.5"/><rect class="r" x="299.25" y="74.37" width="46.8" height="0.45"/><rect class="r" x="299.25" y="105.42" width="46.8" height="0.45"/><rect class="r" x="345.6" y="74.37" width="0.45" height="31.5"/><rect class="r" x="252.9" y="74.37" width="46.8" height="0.45"/><rect class="r" x="252.9" y="105.42" width="46.8" height="0.45"/><rect class="r" x="299.25" y="74.37" width="0.45" height="31.5"/><rect class="r" x="206.55" y="74.37" width="46.8" height="0.45"/><rect class="r" x="206.55" y="105.42" width="46.8" height="0.45"/><rect class="r" x="252.9" y="74.37" width="0.45" height="31.5"/><rect class="r" x="160.2" y="74.37" width="46.8" height="0.45"/><rect class="r" x="160.2" y="105.42" width="46.8" height="0.45"/><rect class="r" x="206.55" y="74.37" width="0.45" height="31.5"/><rect class="r" x="113.85" y="74.37" width="46.8" height="0.45"/><rect class="r" x="113.85" y="105.42" width="46.8" height="0.45"/><rect class="r" x="160.2" y="74.37" width="0.45" height="31.5"/><rect class="r" x="67.5" y="74.37" width="46.8" height="0.45"/><rect class="r" x="67.5" y="105.42" width="46.8" height="0.45"/><rect class="r" x="113.85" y="74.37" width="0.45" height="31.5"/><rect class="r" x="7.2" y="74.37" width="60.75" height="0.45"/><rect class="r" x="7.2" y="105.42" width="60.75" height="0.45"/><rect class="r" x="7.2" y="74.37" width="0.45" height="31.5"/><rect class="r" x="67.5" y="74.37" width="0.45" height="31.5"/></g><g class="d"><rect class="e" x="7.2" y="224.67" width="7.2" height="15.75"/></g><g class="s"><rect class="g" x="7.2" y="298.02" width="98.1" height="31.05"/></g><g class="t"><rect class="g" x="105.3" y="298.02" width="130.5" height="31.05"/></g><g class="u"><rect class="g" x="235.8" y="298.02" width="101.7" height="31.05"/></g><g class="v"><rect class="g" x="337.5" y="298.02" width="101.25" height="31.05"/></g><g class="w"><rect class="g" x="7.2" y="364.17" width="98.1" height="31.05"/></g><g class="x"><rect class="g" x="105.3" y="364.17" width="130.5" height="31.05"/></g><g class="y"><rect class="g" x="235.8" y="364.17" width="101.7" height="31.05"/></g><g class="z"><rect class="g" x="337.5" y="364.17" width="101.25" height="31.05"/></g><g class="aa"><rect class="r" x="337.5" y="395.22" width="101.7" height="0.45"/><rect class="r" x="438.75" y="364.17" width="0.45" height="31.5"/><rect class="r" x="235.8" y="395.22" width="102.15" height="0.45"/><rect class="r" x="337.5" y="364.17" width="0.45" height="31.5"/><rect class="r" x="105.3" y="395.22" width="130.95" height="0.45"/><rect class="r" x="235.8" y="364.17" width="0.45" height="31.5"/><rect class="r" x="7.2" y="395.22" width="98.55" height="0.45"/><rect class="r" x="7.2" y="364.17" width="0.45" height="31.5"/><rect class="r" x="105.3" y="364.17" width="0.45" height="31.5"/><rect class="r" x="337.5" y="364.17" width="101.7" height="0.45"/><rect class="r" x="438.75" y="329.07" width="0.45" height="35.55"/><rect class="r" x="235.8" y="364.17" width="102.15" height="0.45"/><rect class="r" x="337.5" y="329.07" width="0.45" height="35.55"/><rect class="r" x="105.3" y="364.17" width="130.95" height="0.45"/><rect class="r" x="235.8" y="329.07" width="0.45" height="35.55"/><rect class="r" x="7.2" y="364.17" width="98.55" height="0.45"/><rect class="r" x="7.2" y="329.07" width="0.45" height="35.55"/><rect class="r" x="105.3" y="329.07" width="0.45" height="35.55"/><rect class="r" x="337.5" y="329.07" width="101.7" height="0.45"/><rect class="r" x="438.75" y="298.02" width="0.45" height="31.5"/><rect class="r" x="235.8" y="329.07" width="102.15" height="0.45"/><rect class="r" x="337.5" y="298.02" width="0.45" height="31.5"/><rect class="r" x="105.3" y="329.07" width="130.95" height="0.45"/><rect class="r" x="235.8" y="298.02" width="0.45" height="31.5"/><rect class="r" x="7.2" y="329.07" width="98.55" height="0.45"/><rect class="r" x="7.2" y="298.02" width="0.45" height="31.5"/><rect class="r" x="105.3" y="298.02" width="0.45" height="31.5"/><rect class="r" x="337.5" y="262.92" width="101.7" height="0.45"/><rect class="r" x="337.5" y="298.02" width="101.7" height="0.45"/><rect class="r" x="438.75" y="262.92" width="0.45" height="35.55"/><rect class="r" x="235.8" y="262.92" width="102.15" height="0.45"/><rect class="r" x="235.8" y="298.02" width="102.15" height="0.45"/><rect class="r" x="337.5" y="262.92" width="0.45" height="35.55"/><rect class="r" x="105.3" y="262.92" width="130.95" height="0.45"/><rect class="r" x="105.3" y="298.02" width="130.95" height="0.45"/><rect class="r" x="235.8" y="262.92" width="0.45" height="35.55"/><rect class="r" x="7.2" y="262.92" width="98.55" height="0.45"/><rect class="r" x="7.2" y="298.02" width="98.55" height="0.45"/><rect class="r" x="7.2" y="262.92" width="0.45" height="35.55"/><rect class="r" x="105.3" y="262.92" width="0.45" height="35.55"/></g><g class="d"><rect class="r" x="7.2" y="58.62" width="31.05" height="15.75"/><rect class="r" x="7.2" y="58.62" width="31.05" height="0.45"/><rect class="r" x="37.8" y="58.62" width="0.45" height="15.75"/><rect class="r" x="7.2" y="58.62" width="0.45" height="15.75"/><text class="ab" transform="translate(14.41 68.52)">Design</text><rect class="r" x="38.25" y="58.62" width="27.45" height="0.45"/><rect class="r" x="65.25" y="58.62" width="0.45" height="15.75"/><rect class="r" x="38.25" y="58.62" width="0.45" height="15.75"/><text class="ab" transform="translate(45.65 68.52)">Code</text><rect class="r" x="7.2" y="247.17" width="31.05" height="15.75"/><rect class="r" x="7.2" y="247.17" width="31.05" height="0.45"/><rect class="r" x="37.8" y="247.17" width="0.45" height="15.75"/><rect class="r" x="7.2" y="247.17" width="0.45" height="15.75"/><text class="ab" transform="translate(14.41 257.07)">Design</text><rect class="r" x="38.25" y="247.17" width="27.45" height="0.45"/><rect class="r" x="65.25" y="247.17" width="0.45" height="15.75"/><rect class="r" x="38.25" y="247.17" width="0.45" height="15.75"/><text class="ab" transform="translate(45.65 257.07)">Code</text><text class="ac" transform="translate(23.4 46.02)">I</text><text class="ac" transform="translate(25.73 46.02)">c</text><text class="ac" transform="translate(30.56 46.02)">o</text><text class="ac" transform="translate(35.73 46.02)">n</text><text class="ac" transform="translate(40.73 46.02)"> </text><text class="ac" transform="translate(43.24 46.02)">S</text><text class="ac" transform="translate(49.07 46.02)">V</text><text class="ac" transform="translate(54.57 46.02)">G</text></g><g class="p"><text class="ab" transform="translate(81.44 87.87)">.icon12:</text><text class="ab" transform="translate(85.04 95.97)">24px</text><text class="ab" transform="translate(127.79 87.87)">.icon14:</text><text class="ab" transform="translate(131.39 95.97)">28px</text><text class="ab" transform="translate(174.14 87.87)">.icon16:</text><text class="ab" transform="translate(177.74 95.97)">32px</text><text class="ab" transform="translate(220.49 87.87)">.icon19:</text><text class="ab" transform="translate(224.09 95.97)">38px</text><text class="ab" transform="translate(266.84 87.87)">.icon20:</text><text class="ab" transform="translate(270.44 95.97)">40px</text><text class="ab" transform="translate(313.19 87.87)">.icon24:</text><text class="ab" transform="translate(316.79 95.97)">48px</text><text class="ab" transform="translate(359.54 87.87)">.icon32:</text><text class="ab" transform="translate(363.14 95.97)">64px</text><text class="ab" transform="translate(406.12 87.87)">.icon40:</text><text class="ab" transform="translate(409.72 95.97)">80px</text><text class="ab" transform="translate(16.86 124.77)">iconsvg_s001didi</text></g><g class="ad"><path class="ae" d="M92.59,119.88H88.45a.24.24,0,0,0-.25.27v1.55a2.7,2.7,0,0,0,5.4,0v-.86h-1v.79a1.69,1.69,0,0,1-3.38,0V121a.12.12,0,0,1,.14-.13h3.24Zm-.09.08v.81H89.35a.2.2,0,0,0-.21.2v.65a1.72,1.72,0,0,0,.53,1.24,1.74,1.74,0,0,0,1.25.53,1.78,1.78,0,0,0,1.73-1.76v-.71h.87v.8a2.41,2.41,0,0,1-.8,1.74,2.67,2.67,0,0,1-3.68,0,2.4,2.4,0,0,1-.79-1.75v-1.57a.24.24,0,0,1,0-.14.22.22,0,0,1,.14-.05Z"/><path class="ae" d="M90.92,123.3a1.71,1.71,0,0,0,1.67-1.67v-.79h1v.86a2.7,2.7,0,0,1-5.4,0v-1.55a.24.24,0,0,1,.25-.27h4.14v.94H89.35c-.09,0-.14.07-.14.15v.65a1.72,1.72,0,0,0,1.71,1.68Z"/></g><g class="af"><path class="ae" d="M139.22,119.51H134.4a.29.29,0,0,0-.3.32v1.81a3.15,3.15,0,0,0,6.3,0v-1h-1.18v.93a2,2,0,0,1-1.95,2,2,2,0,0,1-2-2v-.75a.15.15,0,0,1,.16-.16h3.78Zm-.1.1v1h-3.68a.22.22,0,0,0-.24.23v.75a2.05,2.05,0,1,0,4.1,0v-.83h1v.93a2.81,2.81,0,0,1-.92,2,3.14,3.14,0,0,1-4.3,0,2.81,2.81,0,0,1-.92-2v-1.83a.21.21,0,0,1,.22-.22Z"/><path class="ae" d="M137.27,123.51a2,2,0,0,0,1.95-2v-.93h1.18v1a3.15,3.15,0,0,1-6.3,0v-1.81a.29.29,0,0,1,.3-.32h4.82v1.1h-3.78a.18.18,0,0,0-.16.18v.75a2,2,0,0,0,2,2Z"/></g><g class="ag"><path class="ae" d="M185.85,119.15h-5.51a.32.32,0,0,0-.34.36v2.07a3.6,3.6,0,0,0,7.2,0v-1.15h-1.35v1.06a2.26,2.26,0,0,1-2.23,2.22,2.28,2.28,0,0,1-2.27-2.25v-.85a.17.17,0,0,1,.18-.18h4.32Zm-.11.11v1.08h-4.21a.26.26,0,0,0-.27.27v.85a2.39,2.39,0,0,0,2.36,2.37,2.39,2.39,0,0,0,2.32-2.34v-.95h1.15v1.06a3.25,3.25,0,0,1-1.06,2.32,3.56,3.56,0,0,1-4.91,0,3.21,3.21,0,0,1-1.05-2.34v-2.09a.26.26,0,0,1,.06-.18.26.26,0,0,1,.18-.07Z"/><path class="ae" d="M183.62,123.71a2.27,2.27,0,0,0,2.23-2.22v-1.06h1.35v1.15a3.6,3.6,0,0,1-7.2,0v-2.07a.32.32,0,0,1,.34-.36h5.51v1.26h-4.32a.2.2,0,0,0-.18.2v.85a2.3,2.3,0,0,0,2.27,2.25Z"/></g><g class="ah"><path class="ae" d="M232.85,118.37H226.3a.39.39,0,0,0-.4.43v2.46a4.28,4.28,0,0,0,8.55,0V119.9h-1.6v1.25a2.7,2.7,0,0,1-2.65,2.65,2.74,2.74,0,0,1-2.7-2.68v-1a.2.2,0,0,1,.22-.21h5.13Zm-.14.14v1.28h-5a.3.3,0,0,0-.32.32v1a2.82,2.82,0,0,0,2.8,2.81,2.82,2.82,0,0,0,2.75-2.78V120h1.37v1.26a3.82,3.82,0,0,1-1.26,2.75,4.23,4.23,0,0,1-5.82,0,3.74,3.74,0,0,1-1.26-2.77V118.8a.3.3,0,0,1,.08-.21.26.26,0,0,1,.21-.08Z"/><path class="ae" d="M230.2,123.8a2.72,2.72,0,0,0,2.65-2.65V119.9h1.6v1.36a4.28,4.28,0,0,1-8.55,0V118.8a.39.39,0,0,1,.4-.43h6.55v1.5h-5.13a.24.24,0,0,0-.22.24v1a2.75,2.75,0,0,0,2.7,2.68Z"/></g><g class="ai"><path class="ae" d="M279.11,118.42h-6.89a.4.4,0,0,0-.42.45v2.58a4.51,4.51,0,0,0,9,0V120h-1.69v1.32a2.82,2.82,0,0,1-2.78,2.78,2.85,2.85,0,0,1-2.84-2.81v-1.07a.2.2,0,0,1,.22-.22h5.4Zm-.14.14v1.35h-5.26a.33.33,0,0,0-.34.33v1.07a3,3,0,0,0,3,3,3,3,0,0,0,2.89-2.93v-1.18h1.44v1.32a4,4,0,0,1-1.32,2.9,4.45,4.45,0,0,1-6.13,0,4,4,0,0,1-1.33-2.93v-2.61a.32.32,0,0,1,.09-.23.29.29,0,0,1,.22-.08Z"/><path class="ae" d="M276.33,124.12a2.84,2.84,0,0,0,2.78-2.78V120h1.69v1.43a4.51,4.51,0,0,1-9,0v-2.58a.4.4,0,0,1,.42-.45h6.89V120h-5.4a.24.24,0,0,0-.22.25v1.07a2.87,2.87,0,0,0,2.84,2.81Z"/></g><g class="aj"><path class="ae" d="M326,117.68h-8.26a.49.49,0,0,0-.51.54v3.11a5.41,5.41,0,0,0,10.8,0v-1.72h-2v1.58a3.39,3.39,0,0,1-3.34,3.35,3.45,3.45,0,0,1-3.41-3.38v-1.28a.25.25,0,0,1,.27-.27H326Zm-.16.17v1.62h-6.32a.39.39,0,0,0-.4.41v1.28a3.57,3.57,0,0,0,3.54,3.54,3.55,3.55,0,0,0,3.48-3.51v-1.41h1.72v1.58a4.76,4.76,0,0,1-1.59,3.48,5.49,5.49,0,0,1-3.64,1.48,5.57,5.57,0,0,1-3.71-1.45,4.76,4.76,0,0,1-1.59-3.51v-3.14a.38.38,0,0,1,.1-.27.43.43,0,0,1,.27-.1Z"/><path class="ae" d="M322.68,124.54a3.41,3.41,0,0,0,3.34-3.35v-1.58h2v1.72a5.41,5.41,0,0,1-10.8,0v-3.11a.49.49,0,0,1,.51-.54H326v1.89h-6.48a.31.31,0,0,0-.27.31v1.28a3.47,3.47,0,0,0,3.41,3.38Z"/></g><g class="ak"><path class="ae" d="M373.5,116.22h-11a.65.65,0,0,0-.67.72v4.14a7.21,7.21,0,0,0,14.4,0v-2.29h-2.7v2.11a4.5,4.5,0,0,1-9,0v-1.71a.33.33,0,0,1,.36-.36h8.64Zm-.23.23v2.16h-8.41a.51.51,0,0,0-.54.54v1.71a4.75,4.75,0,0,0,4.72,4.72,4.76,4.76,0,0,0,4.64-4.68V119H376v2.12a6.36,6.36,0,0,1-2.11,4.63,7.34,7.34,0,0,1-4.86,2,7.43,7.43,0,0,1-4.95-1.93,6.41,6.41,0,0,1-2.12-4.68v-4.19a.52.52,0,0,1,.14-.36.5.5,0,0,1,.36-.13Z"/><path class="ae" d="M369,125.36a4.56,4.56,0,0,0,4.46-4.46v-2.11h2.7v2.29a7.21,7.21,0,0,1-14.4,0v-4.14a.65.65,0,0,1,.67-.72h11v2.52h-8.64a.39.39,0,0,0-.36.41v1.71a4.61,4.61,0,0,0,4.54,4.5Z"/></g><g class="al"><path class="ae" d="M421.42,114.76H407.64a.82.82,0,0,0-.84.9v5.17a9,9,0,0,0,18,0V118h-3.38v2.64a5.65,5.65,0,0,1-5.56,5.57,5.74,5.74,0,0,1-5.69-5.63v-2.13a.41.41,0,0,1,.45-.45h10.8Zm-.28.28v2.7H410.62a.65.65,0,0,0-.67.68v2.13a5.94,5.94,0,0,0,5.91,5.91,6,6,0,0,0,5.79-5.85v-2.36h2.87v2.64a8,8,0,0,1-2.65,5.79,8.89,8.89,0,0,1-12.26.06,8,8,0,0,1-2.64-5.85v-5.23a.6.6,0,0,1,.17-.45.64.64,0,0,1,.45-.17Z"/><path class="ae" d="M415.86,126.18a5.68,5.68,0,0,0,5.56-5.57V118h3.38v2.86a9,9,0,0,1-18,0v-5.17a.82.82,0,0,1,.84-.9h13.78v3.15h-10.8a.49.49,0,0,0-.45.51v2.13a5.78,5.78,0,0,0,5.69,5.63Z"/></g><g class="p"><text class="ab" transform="translate(15.06 159.87)">iconsvg_s002ridea</text></g><g class="am"><path class="an" d="M92.94,159.41c-.39-.41-1.42-1.73-1.42-1.73a.23.23,0,0,0-.17-.08l-1.72,0a.22.22,0,0,0-.22.22v.34c0,.12.09.18.29.21l.52,0a.21.21,0,0,1,.18.09l1,1.4h1.65a.52.52,0,0,0,.32-.11,1.76,1.76,0,0,1-.44-.35Z"/><path class="ao" d="M90.09,158.74l-.7-.07a.43.43,0,0,1-.37-.41l0-.6a.44.44,0,0,1,.47-.48h1.9a.14.14,0,0,1,0-.06l.67-1.06a.14.14,0,0,0,0-.15l-.1-.19a.16.16,0,0,0-.13-.08h-.7c-.22,0-.24-.4,0-.41h.31a.14.14,0,0,0,.13-.21l-.1-.19a.13.13,0,0,0-.12-.08l-1.21,0a.23.23,0,0,1-.21-.26H88.74a.54.54,0,0,0-.54.54v4.32a.54.54,0,0,0,.54.54h2.12c-.33-.5-.74-1.12-.77-1.13Z"/><path class="ap" d="M92.63,156.07l-.76,1.2s1.06,1.41,1.44,1.78a1.15,1.15,0,0,0,.29.21V155a.54.54,0,0,0-.54-.54H91.87l.75,1.4a.27.27,0,0,1,0,.2Z"/><path class="c" d="M93.6,159.33v-.07a.92.92,0,0,1-.28-.2c-.39-.38-1.45-1.78-1.45-1.78l.77-1.21s0-.15,0-.2l-.75-1.4H90a.23.23,0,0,0,.21.26l1.21,0a.13.13,0,0,1,.12.08l.1.19a.14.14,0,0,1-.13.21H91.2c-.26,0-.24.41,0,.41h.7a.13.13,0,0,1,.13.08l.1.19a.14.14,0,0,1,0,.15l-.68,1.06s0,0,0,.07H89.51a.43.43,0,0,0-.47.47l0,.6a.42.42,0,0,0,.38.41l.7.08a13.45,13.45,0,0,1,.76,1.12h.56l-1-1.39a.21.21,0,0,0-.18-.09l-.51,0c-.21,0-.3-.08-.3-.21v-.33a.23.23,0,0,1,.23-.23l1.71,0a.21.21,0,0,1,.17.08s1,1.32,1.42,1.73a1.76,1.76,0,0,0,.44.35.57.57,0,0,0,.22-.44Z"/></g><g class="aq"><path class="an" d="M139.63,159.79c-.45-.48-1.66-2-1.66-2a.26.26,0,0,0-.2-.1l-2,0a.27.27,0,0,0-.26.27v.38c0,.15.11.22.35.25l.6.05a.26.26,0,0,1,.21.11l1.17,1.63h1.93a.59.59,0,0,0,.37-.13,2.25,2.25,0,0,1-.51-.4Z"/><path class="ao" d="M136.3,159l-.81-.09a.5.5,0,0,1-.44-.48l0-.7a.52.52,0,0,1,.55-.56h2.21a.11.11,0,0,1,0-.07l.79-1.24a.17.17,0,0,0,0-.17l-.12-.22a.16.16,0,0,0-.15-.1h-.81c-.26,0-.29-.46,0-.47H138a.17.17,0,0,0,.15-.25l-.12-.22a.2.2,0,0,0-.15-.1h-1.41a.27.27,0,0,1-.24-.31h-1.47a.64.64,0,0,0-.63.64v5a.64.64,0,0,0,.63.64h2.47a14.87,14.87,0,0,0-.9-1.32Z"/><path class="ap" d="M139.27,155.88l-.89,1.41s1.24,1.64,1.69,2.08a1.3,1.3,0,0,0,.33.24v-5a.64.64,0,0,0-.63-.63h-1.39l.87,1.63s.06.18,0,.23Z"/><path class="c" d="M140.4,159.69v-.08a1.23,1.23,0,0,1-.33-.24c-.45-.44-1.69-2.07-1.69-2.07l.9-1.41a.34.34,0,0,0,0-.24l-.88-1.63H136.2a.27.27,0,0,0,.24.31h1.41a.16.16,0,0,1,.15.1l.12.22a.17.17,0,0,1-.15.25h-.37c-.31,0-.28.48,0,.47h.82a.18.18,0,0,1,.15.1l.12.22a.17.17,0,0,1,0,.17l-.8,1.24a.24.24,0,0,0,0,.08h-2.21a.5.5,0,0,0-.55.55l0,.7a.49.49,0,0,0,.44.48l.81.09s.52.73.89,1.31h.65l-1.17-1.62a.26.26,0,0,0-.21-.11l-.6-.05c-.24,0-.35-.1-.35-.25v-.39a.26.26,0,0,1,.26-.26l2,0a.25.25,0,0,1,.2.09s1.21,1.55,1.66,2a2.25,2.25,0,0,0,.51.4.63.63,0,0,0,.26-.51Z"/></g><g class="ar"><path class="an" d="M186.32,160.16c-.52-.54-1.9-2.31-1.9-2.31a.28.28,0,0,0-.22-.11l-2.29,0a.3.3,0,0,0-.3.3v.44c0,.17.13.25.4.29l.68.05a.3.3,0,0,1,.24.12l1.35,1.87h2.2a.67.67,0,0,0,.42-.15,2.56,2.56,0,0,1-.58-.46Z"/><path class="ao" d="M182.52,159.27l-.93-.1a.57.57,0,0,1-.5-.55l0-.8a.58.58,0,0,1,.63-.63h2.52l0-.09.91-1.42a.19.19,0,0,0,0-.19l-.13-.25a.18.18,0,0,0-.17-.11H184c-.3,0-.33-.53,0-.55h.42a.19.19,0,0,0,.17-.28l-.13-.25a.2.2,0,0,0-.17-.11l-1.62,0a.32.32,0,0,1-.27-.35h-1.68a.73.73,0,0,0-.72.73v5.75a.73.73,0,0,0,.72.73h2.82c-.43-.68-1-1.5-1-1.51Z"/><path class="ap" d="M185.91,155.7l-1,1.61s1.42,1.87,1.93,2.37a1.35,1.35,0,0,0,.38.27V154.3a.73.73,0,0,0-.72-.73h-1.59l1,1.86a.36.36,0,0,1,0,.27Z"/><path class="c" d="M187.2,160.05V160a1.58,1.58,0,0,1-.38-.28c-.51-.5-1.93-2.37-1.93-2.37l1-1.61s0-.2,0-.27l-1-1.86H182.4a.32.32,0,0,0,.28.35l1.61,0a.2.2,0,0,1,.17.11l.13.25a.19.19,0,0,1-.17.28H184c-.35,0-.32.55,0,.55h.93a.19.19,0,0,1,.17.1l.14.26a.19.19,0,0,1,0,.19l-.91,1.42a.32.32,0,0,0,0,.09h-2.53a.58.58,0,0,0-.62.63l0,.81a.57.57,0,0,0,.5.54l.93.1a16.58,16.58,0,0,1,1,1.51h.75l-1.35-1.87a.3.3,0,0,0-.24-.12l-.68-.06c-.27,0-.4-.11-.4-.28V158a.3.3,0,0,1,.3-.3l2.29,0a.27.27,0,0,1,.22.11s1.38,1.76,1.9,2.31a3,3,0,0,0,.58.47.76.76,0,0,0,.3-.59Z"/></g><g class="as"><path class="an" d="M233.41,160.5c-.62-.65-2.26-2.75-2.26-2.75a.32.32,0,0,0-.26-.12l-2.72-.06a.36.36,0,0,0-.36.36v.53c0,.19.15.29.47.33l.82.07a.34.34,0,0,1,.28.14l1.6,2.22h2.61a.89.89,0,0,0,.51-.17,3.05,3.05,0,0,1-.69-.55Z"/><path class="ao" d="M228.89,159.44l-1.11-.12a.68.68,0,0,1-.59-.65l0-1A.7.7,0,0,1,228,157h3a.19.19,0,0,1,0-.1l1.07-1.68a.21.21,0,0,0,0-.23l-.16-.3a.23.23,0,0,0-.2-.13h-1.11c-.35,0-.39-.63,0-.65h.5a.22.22,0,0,0,.2-.33l-.16-.31a.23.23,0,0,0-.2-.12l-1.91,0a.37.37,0,0,1-.33-.41h-2a.87.87,0,0,0-.86.86v6.84a.87.87,0,0,0,.86.86h3.35c-.52-.8-1.16-1.78-1.22-1.79Z"/><path class="ap" d="M232.92,155.2l-1.21,1.91s1.68,2.22,2.29,2.81a1.62,1.62,0,0,0,.44.33v-6.72a.85.85,0,0,0-.85-.86h-1.88l1.18,2.21a.4.4,0,0,1,0,.32Z"/><path class="c" d="M234.45,160.36v-.1a1.71,1.71,0,0,1-.45-.33c-.61-.59-2.29-2.82-2.29-2.82l1.22-1.91a.45.45,0,0,0,0-.32l-1.19-2.21h-3a.37.37,0,0,0,.33.41l1.91,0a.23.23,0,0,1,.2.12l.16.31a.22.22,0,0,1-.2.33h-.5c-.42,0-.38.66,0,.65h1.1a.23.23,0,0,1,.21.13l.16.3a.24.24,0,0,1,0,.23L231,156.86a.49.49,0,0,0,0,.11h-3a.69.69,0,0,0-.74.75l0,.95a.67.67,0,0,0,.59.65l1.11.12c.05,0,.69,1,1.21,1.79H231l-1.6-2.22a.34.34,0,0,0-.28-.14l-.82-.07c-.32,0-.46-.14-.46-.33v-.53a.36.36,0,0,1,.35-.36l2.72.06a.32.32,0,0,1,.26.12s1.64,2.1,2.26,2.75a3.05,3.05,0,0,0,.69.55.91.91,0,0,0,.35-.7Z"/></g><g class="at"><path class="an" d="M279.7,160.91c-.65-.68-2.37-2.89-2.37-2.89a.39.39,0,0,0-.28-.13l-2.86-.06a.37.37,0,0,0-.37.38v.55c0,.21.15.31.49.36l.86.06a.37.37,0,0,1,.3.16l1.67,2.33h2.76a.89.89,0,0,0,.53-.18,3.33,3.33,0,0,1-.73-.58Z"/><path class="ao" d="M275,159.79l-1.17-.12a.72.72,0,0,1-.62-.69l0-1a.73.73,0,0,1,.78-.79h3.16a.49.49,0,0,1,0-.11l1.13-1.77a.23.23,0,0,0,0-.24l-.17-.32a.25.25,0,0,0-.22-.13h-1.16c-.37,0-.41-.67,0-.68h.52a.25.25,0,0,0,.22-.36l-.17-.32a.28.28,0,0,0-.21-.13l-2,0a.4.4,0,0,1-.34-.44h-2.1a.91.91,0,0,0-.9.91v7.19a.91.91,0,0,0,.9.91h3.53c-.55-.84-1.22-1.88-1.28-1.89Z"/><path class="ap" d="M279.19,155.33l-1.28,2s1.77,2.34,2.41,3a2.25,2.25,0,0,0,.47.34v-7.07a.9.9,0,0,0-.9-.91h-2l1.25,2.33a.43.43,0,0,1,0,.33Z"/><path class="c" d="M280.8,160.77v-.11a1.83,1.83,0,0,1-.47-.35c-.65-.62-2.41-3-2.41-3l1.28-2a.5.5,0,0,0,0-.34l-1.26-2.33H274.8a.4.4,0,0,0,.34.44l2,0a.23.23,0,0,1,.21.13l.17.32a.24.24,0,0,1-.22.36h-.52c-.44,0-.4.68,0,.68h1.17a.26.26,0,0,1,.22.13l.16.32a.21.21,0,0,1,0,.24l-1.13,1.77a.3.3,0,0,0,0,.11H274a.73.73,0,0,0-.78.79l0,1a.7.7,0,0,0,.62.68l1.16.13a20.42,20.42,0,0,1,1.28,1.88h.92l-1.67-2.33a.38.38,0,0,0-.3-.16l-.86-.06c-.34,0-.49-.15-.49-.36v-.55a.38.38,0,0,1,.37-.38l2.86.06a.37.37,0,0,1,.28.13s1.72,2.21,2.38,2.89a3.09,3.09,0,0,0,.72.58.94.94,0,0,0,.37-.73Z"/></g><g class="au"><path class="an" d="M326.74,161.66c-.79-.82-2.86-3.47-2.86-3.47a.42.42,0,0,0-.33-.16l-3.43-.07a.45.45,0,0,0-.45.45v.67c0,.25.18.37.59.42l1,.09a.45.45,0,0,1,.36.18l2,2.79H327a1.1,1.1,0,0,0,.65-.21,3.47,3.47,0,0,1-.87-.69Z"/><path class="ao" d="M321,160.32l-1.4-.15a.86.86,0,0,1-.75-.82l.05-1.21a.88.88,0,0,1,.94-.95h3.79a.43.43,0,0,1,0-.13l1.35-2.12a.28.28,0,0,0,0-.29l-.2-.38a.29.29,0,0,0-.26-.16h-1.39c-.45,0-.5-.8,0-.82h.63a.3.3,0,0,0,.26-.43l-.2-.38a.35.35,0,0,0-.26-.16l-2.42,0a.47.47,0,0,1-.41-.52h-2.52a1.09,1.09,0,0,0-1.08,1.09v8.63a1.09,1.09,0,0,0,1.08,1.09h4.23c-.65-1-1.46-2.25-1.53-2.26Z"/><path class="ap" d="M326.12,155l-1.54,2.41s2.13,2.8,2.9,3.55a2.54,2.54,0,0,0,.56.42v-8.49a1.08,1.08,0,0,0-1.08-1.09h-2.38l1.5,2.8a.51.51,0,0,1,0,.4Z"/><path class="c" d="M328.05,161.49v-.14a2.21,2.21,0,0,1-.57-.41c-.77-.75-2.89-3.56-2.89-3.56l1.54-2.41a.59.59,0,0,0,0-.41l-1.51-2.79h-3.73a.47.47,0,0,0,.41.52l2.42,0a.31.31,0,0,1,.26.16l.2.38a.29.29,0,0,1-.26.43h-.63c-.53,0-.48.82,0,.82h1.4a.28.28,0,0,1,.26.16l.2.38a.3.3,0,0,1,0,.29l-1.37,2.13a.33.33,0,0,0,0,.13h-3.79a.87.87,0,0,0-.94,1l-.05,1.2a.85.85,0,0,0,.75.82l1.39.15c.07,0,.88,1.25,1.53,2.26h1.11l-2-2.8a.45.45,0,0,0-.36-.18l-1-.08c-.41-.05-.59-.18-.59-.43v-.67a.45.45,0,0,1,.45-.45l3.43.07a.46.46,0,0,1,.34.16s2.07,2.65,2.85,3.47a3.8,3.8,0,0,0,.87.7,1.15,1.15,0,0,0,.44-.89Z"/></g><g class="av"><path class="an" d="M374.45,163.15c-1-1.09-3.8-4.62-3.8-4.62a.57.57,0,0,0-.45-.21l-4.57-.09a.6.6,0,0,0-.6.6v.89c0,.33.24.49.78.56l1.37.11a.61.61,0,0,1,.49.25l2.68,3.72h4.4a1.44,1.44,0,0,0,.86-.29,4.54,4.54,0,0,1-1.16-.92Z"/><path class="ao" d="M366.84,161.37l-1.87-.21a1.13,1.13,0,0,1-1-1.09l.06-1.61a1.17,1.17,0,0,1,1.26-1.26h5.05a.64.64,0,0,1,.06-.18l1.8-2.82a.37.37,0,0,0,0-.39l-.27-.51a.39.39,0,0,0-.35-.21h-1.85c-.6,0-.66-1.07,0-1.09h.84a.39.39,0,0,0,.34-.57l-.27-.51a.38.38,0,0,0-.33-.21l-3.23,0a.63.63,0,0,1-.55-.7h-3.35a1.45,1.45,0,0,0-1.45,1.45v11.51a1.45,1.45,0,0,0,1.45,1.45h5.63c-.87-1.35-1.95-3-2-3Z"/><path class="ap" d="M373.63,154.23l-2.05,3.22s2.83,3.74,3.86,4.74a3.14,3.14,0,0,0,.75.55V151.42a1.44,1.44,0,0,0-1.44-1.45h-3.17l2,3.73a.75.75,0,0,1,.05.53Z"/><path class="c" d="M376.2,162.92v-.17a2.73,2.73,0,0,1-.75-.55c-1-1-3.86-4.75-3.86-4.75l2.05-3.21a.78.78,0,0,0-.05-.54l-2-3.73h-5a.63.63,0,0,0,.55.7c.86,0,3.23,0,3.23,0a.39.39,0,0,1,.34.21l.27.51a.38.38,0,0,1-.35.56h-.84c-.7,0-.64,1.11,0,1.1h1.86a.37.37,0,0,1,.35.21l.27.51a.37.37,0,0,1,0,.39L370.4,157a.64.64,0,0,0-.06.18h-5a1.15,1.15,0,0,0-1.25,1.26l-.07,1.61a1.13,1.13,0,0,0,1,1.09l1.86.2c.09,0,1.18,1.66,2,3h1.48l-2.68-3.73a.61.61,0,0,0-.48-.24l-1.38-.11c-.54-.07-.78-.24-.78-.57v-.89a.6.6,0,0,1,.6-.6l4.57.09a.56.56,0,0,1,.45.22s2.76,3.53,3.8,4.62a4.84,4.84,0,0,0,1.16.93,1.52,1.52,0,0,0,.59-1.18Z"/></g><g class="aw"><path class="an" d="M422.61,164.65c-1.3-1.37-4.75-5.78-4.75-5.78a.73.73,0,0,0-.56-.26l-5.72-.12a.76.76,0,0,0-.75.75v1.11c0,.41.31.63,1,.71l1.71.14a.73.73,0,0,1,.6.3l3.36,4.66H423a1.81,1.81,0,0,0,1.07-.36,6,6,0,0,1-1.45-1.15Z"/><path class="ao" d="M413.1,162.41l-2.33-.25a1.41,1.41,0,0,1-1.25-1.36l.08-2a1.45,1.45,0,0,1,1.57-1.58h6.32a.57.57,0,0,1,.07-.22l2.26-3.54a.48.48,0,0,0,0-.48l-.34-.64a.51.51,0,0,0-.44-.26h-2.31c-.75,0-.83-1.34.05-1.37h1.05a.49.49,0,0,0,.43-.71l-.34-.63a.49.49,0,0,0-.42-.27l-4-.05a.78.78,0,0,1-.69-.87h-4.19A1.82,1.82,0,0,0,406.8,150v14.39a1.81,1.81,0,0,0,1.81,1.81h7.05c-1.09-1.68-2.45-3.74-2.57-3.76Z"/><path class="ap" d="M421.58,153.49l-2.56,4s3.55,4.67,4.83,5.92a3.83,3.83,0,0,0,.94.69V150a1.81,1.81,0,0,0-1.8-1.81h-4l2.5,4.66a.85.85,0,0,1,.06.66Z"/><path class="c" d="M424.8,164.36v-.22a3.43,3.43,0,0,1-.94-.69c-1.29-1.25-4.83-5.92-4.83-5.92l2.56-4a.88.88,0,0,0,0-.67L419,148.17H412.8a.79.79,0,0,0,.69.87c1.07,0,4,.05,4,.05a.48.48,0,0,1,.42.27l.34.63a.48.48,0,0,1-.43.71H416.8c-.88,0-.8,1.38-.05,1.37h2.33a.46.46,0,0,1,.43.26l.34.63a.5.5,0,0,1,0,.49L417.55,157a.57.57,0,0,0-.07.22h-6.32a1.45,1.45,0,0,0-1.56,1.58l-.09,2a1.41,1.41,0,0,0,1.25,1.36l2.33.25c.11,0,1.47,2.08,2.55,3.76h1.85l-3.36-4.65a.72.72,0,0,0-.6-.31l-1.71-.14c-.68-.08-1-.3-1-.71v-1.11a.76.76,0,0,1,.75-.75l5.72.12a.71.71,0,0,1,.56.26s3.45,4.41,4.75,5.78a6.36,6.36,0,0,0,1.45,1.16,1.9,1.9,0,0,0,.74-1.47Z"/></g><g class="p"><text class="ab" transform="translate(15.06 194.97)">iconsvg_s003ridea</text></g><g class="ax"><path class="an" d="M92.94,194.51c-.39-.41-1.42-1.73-1.42-1.73a.23.23,0,0,0-.17-.08l-1.72,0a.22.22,0,0,0-.22.22v.34c0,.12.09.18.29.21l.52,0a.21.21,0,0,1,.18.09l1,1.4h1.65a.52.52,0,0,0,.32-.11,1.76,1.76,0,0,1-.44-.35Z"/><path class="c" d="M90.09,193.84l-.7-.07a.43.43,0,0,1-.37-.41l0-.6a.44.44,0,0,1,.47-.48h1.9a.14.14,0,0,1,0-.06l.67-1.06a.14.14,0,0,0,0-.15l-.1-.19a.16.16,0,0,0-.13-.08h-.7c-.22,0-.24-.4,0-.41h.31a.14.14,0,0,0,.13-.21l-.1-.19a.13.13,0,0,0-.12-.08l-1.21,0a.23.23,0,0,1-.21-.26H88.74a.54.54,0,0,0-.54.54v4.32a.54.54,0,0,0,.54.54h2.12c-.33-.5-.74-1.12-.77-1.13Z"/><path class="c" d="M92.63,191.17l-.76,1.2s1.06,1.41,1.44,1.78a1.15,1.15,0,0,0,.29.21v-4.25a.54.54,0,0,0-.54-.54H91.87l.75,1.4a.27.27,0,0,1,0,.2Z"/><path d="M93.6,194.43v-.07a.92.92,0,0,1-.28-.2c-.39-.38-1.45-1.78-1.45-1.78l.77-1.21s0-.15,0-.2l-.75-1.4H90a.23.23,0,0,0,.21.26l1.21,0a.13.13,0,0,1,.12.08l.1.19a.14.14,0,0,1-.13.21H91.2c-.26,0-.24.41,0,.41h.7a.13.13,0,0,1,.13.08l.1.19a.14.14,0,0,1,0,.15l-.68,1.06s0,0,0,.07H89.51a.43.43,0,0,0-.47.47l0,.6a.42.42,0,0,0,.38.41l.7.08a13.45,13.45,0,0,1,.76,1.12h.56l-1-1.39a.21.21,0,0,0-.18-.09l-.51-.05c-.21,0-.3-.08-.3-.21v-.33a.23.23,0,0,1,.23-.23l1.71,0a.21.21,0,0,1,.17.08s1,1.32,1.42,1.73a1.76,1.76,0,0,0,.44.35.57.57,0,0,0,.22-.44Z"/></g><g class="ay"><path class="an" d="M139.63,194.89c-.45-.48-1.66-2-1.66-2a.26.26,0,0,0-.2-.1l-2,0a.27.27,0,0,0-.26.27v.38c0,.15.11.22.35.25l.6.05a.26.26,0,0,1,.21.11l1.17,1.63h1.93a.59.59,0,0,0,.37-.13,2.25,2.25,0,0,1-.51-.4Z"/><path class="c" d="M136.3,194.11l-.81-.09a.5.5,0,0,1-.44-.48l0-.7a.52.52,0,0,1,.55-.56h2.21a.11.11,0,0,1,0-.07l.79-1.24a.17.17,0,0,0,0-.17l-.12-.22a.16.16,0,0,0-.15-.1h-.81c-.26,0-.29-.46,0-.47H138a.17.17,0,0,0,.15-.25l-.12-.22a.2.2,0,0,0-.15-.1h-1.41a.27.27,0,0,1-.24-.31h-1.47a.64.64,0,0,0-.63.64v5a.64.64,0,0,0,.63.64h2.47a14.87,14.87,0,0,0-.9-1.32Z"/><path class="c" d="M139.27,191l-.89,1.41s1.24,1.64,1.69,2.08a1.3,1.3,0,0,0,.33.24v-5a.64.64,0,0,0-.63-.63h-1.39l.87,1.63c0,.05.06.18,0,.23Z"/><path d="M140.4,194.79v-.08a1.23,1.23,0,0,1-.33-.24c-.45-.44-1.69-2.07-1.69-2.07l.9-1.41a.34.34,0,0,0,0-.24l-.88-1.63H136.2a.27.27,0,0,0,.24.31h1.41a.16.16,0,0,1,.15.1l.12.22a.17.17,0,0,1-.15.25h-.37c-.31,0-.28.48,0,.47h.82a.18.18,0,0,1,.15.1l.12.22a.17.17,0,0,1,0,.17l-.8,1.24a.24.24,0,0,0,0,.08h-2.21a.5.5,0,0,0-.55.55l0,.7a.49.49,0,0,0,.44.48l.81.09s.52.73.89,1.31h.65l-1.17-1.62a.26.26,0,0,0-.21-.11l-.6-.05c-.24,0-.35-.1-.35-.25V193a.26.26,0,0,1,.26-.26l2,0a.25.25,0,0,1,.2.09s1.21,1.55,1.66,2a2.25,2.25,0,0,0,.51.4.63.63,0,0,0,.26-.51Z"/></g><g class="az"><path class="an" d="M186.32,195.26c-.52-.54-1.9-2.31-1.9-2.31a.28.28,0,0,0-.22-.11l-2.29,0a.3.3,0,0,0-.3.3v.44c0,.17.13.25.4.29l.68,0a.3.3,0,0,1,.24.12l1.35,1.87h2.2a.67.67,0,0,0,.42-.15,2.56,2.56,0,0,1-.58-.46Z"/><path class="c" d="M182.52,194.37l-.93-.1a.57.57,0,0,1-.5-.55l0-.8a.58.58,0,0,1,.63-.63h2.52l0-.09.91-1.42a.19.19,0,0,0,0-.19l-.13-.25a.18.18,0,0,0-.17-.11H184c-.3,0-.33-.53,0-.55h.42a.19.19,0,0,0,.17-.28l-.13-.25a.2.2,0,0,0-.17-.11l-1.62,0a.32.32,0,0,1-.27-.35h-1.68a.73.73,0,0,0-.72.73v5.75a.73.73,0,0,0,.72.73h2.82c-.43-.68-1-1.5-1-1.51Z"/><path class="c" d="M185.91,190.8l-1,1.61s1.42,1.87,1.93,2.37a1.35,1.35,0,0,0,.38.27V189.4a.73.73,0,0,0-.72-.73h-1.59l1,1.86a.36.36,0,0,1,0,.27Z"/><path d="M187.2,195.15v-.09a1.58,1.58,0,0,1-.38-.28c-.51-.5-1.93-2.37-1.93-2.37l1-1.61c0-.05,0-.2,0-.27l-1-1.86H182.4a.32.32,0,0,0,.28.35l1.61,0a.2.2,0,0,1,.17.11l.13.25a.19.19,0,0,1-.17.28H184c-.35,0-.32.55,0,.55h.93a.19.19,0,0,1,.17.1l.14.26a.19.19,0,0,1,0,.19l-.91,1.42a.32.32,0,0,0,0,.09h-2.53a.58.58,0,0,0-.62.63l0,.81a.57.57,0,0,0,.5.54l.93.1a16.58,16.58,0,0,1,1,1.51h.75L182.93,194a.3.3,0,0,0-.24-.12l-.68-.06c-.27,0-.4-.11-.4-.28v-.44a.3.3,0,0,1,.3-.3l2.29,0a.27.27,0,0,1,.22.11s1.38,1.76,1.9,2.31a3,3,0,0,0,.58.47.76.76,0,0,0,.3-.59Z"/></g><g class="ba"><path class="an" d="M233.41,195.6c-.62-.65-2.26-2.75-2.26-2.75a.32.32,0,0,0-.26-.12l-2.72-.06a.36.36,0,0,0-.36.36v.53c0,.19.15.29.47.33l.82.07a.34.34,0,0,1,.28.14l1.6,2.22h2.61a.89.89,0,0,0,.51-.17,3.05,3.05,0,0,1-.69-.55Z"/><path class="c" d="M228.89,194.54l-1.11-.12a.68.68,0,0,1-.59-.65l0-1a.7.7,0,0,1,.75-.75h3a.19.19,0,0,1,0-.1l1.07-1.68a.21.21,0,0,0,0-.23l-.16-.3a.23.23,0,0,0-.2-.13h-1.11c-.35,0-.39-.63,0-.65h.5a.22.22,0,0,0,.2-.33l-.16-.31a.23.23,0,0,0-.2-.12l-1.91,0a.37.37,0,0,1-.33-.41h-2a.87.87,0,0,0-.86.86v6.84a.87.87,0,0,0,.86.86h3.35c-.52-.8-1.16-1.78-1.22-1.79Z"/><path class="c" d="M232.92,190.3l-1.21,1.91s1.68,2.22,2.29,2.81a1.62,1.62,0,0,0,.44.33v-6.72a.85.85,0,0,0-.85-.86h-1.88l1.18,2.21a.4.4,0,0,1,0,.32Z"/><path d="M234.45,195.46v-.1A1.71,1.71,0,0,1,234,195c-.61-.59-2.29-2.82-2.29-2.82l1.22-1.91a.45.45,0,0,0,0-.32l-1.19-2.21h-3a.37.37,0,0,0,.33.41l1.91,0a.23.23,0,0,1,.2.12l.16.31a.22.22,0,0,1-.2.33h-.5c-.42,0-.38.66,0,.65h1.1a.23.23,0,0,1,.21.13l.16.3a.24.24,0,0,1,0,.23L231,192a.49.49,0,0,0,0,.11h-3a.69.69,0,0,0-.74.75l0,1a.67.67,0,0,0,.59.65l1.11.12c.05,0,.69,1,1.21,1.79H231l-1.6-2.22a.34.34,0,0,0-.28-.14l-.82-.07c-.32,0-.46-.14-.46-.33V193a.36.36,0,0,1,.35-.36l2.72.06a.32.32,0,0,1,.26.12s1.64,2.1,2.26,2.75a3.05,3.05,0,0,0,.69.55.91.91,0,0,0,.35-.7Z"/></g><g class="bb"><path class="an" d="M279.7,196c-.65-.68-2.37-2.89-2.37-2.89a.39.39,0,0,0-.28-.13l-2.86-.06a.38.38,0,0,0-.37.38v.55c0,.21.15.31.49.36l.86.06a.37.37,0,0,1,.3.16l1.67,2.33h2.76a.89.89,0,0,0,.53-.18,3.33,3.33,0,0,1-.73-.58Z"/><path class="c" d="M275,194.89l-1.17-.12a.72.72,0,0,1-.62-.69l0-1a.73.73,0,0,1,.79-.79h3.15a.49.49,0,0,1,0-.11l1.13-1.77a.23.23,0,0,0,0-.24l-.17-.32a.25.25,0,0,0-.22-.13h-1.16c-.37,0-.41-.67,0-.68h.52a.25.25,0,0,0,.22-.36l-.17-.32a.28.28,0,0,0-.21-.13l-2,0a.4.4,0,0,1-.34-.44h-2.1a.91.91,0,0,0-.9.91v7.19a.91.91,0,0,0,.9.91h3.53c-.55-.84-1.22-1.88-1.28-1.89Z"/><path class="c" d="M279.19,190.43l-1.28,2s1.77,2.34,2.41,3a2.25,2.25,0,0,0,.47.34v-7.07a.9.9,0,0,0-.9-.91h-2l1.25,2.33a.43.43,0,0,1,0,.33Z"/><path d="M280.8,195.87v-.11a1.83,1.83,0,0,1-.47-.35c-.65-.62-2.41-3-2.41-3l1.28-2a.5.5,0,0,0,0-.34l-1.26-2.33H274.8a.4.4,0,0,0,.34.44l2,0a.23.23,0,0,1,.21.13l.17.32a.24.24,0,0,1-.22.36h-.52c-.44,0-.4.68,0,.68h1.17a.26.26,0,0,1,.22.13l.16.32a.21.21,0,0,1,0,.24l-1.13,1.77a.3.3,0,0,0,0,.11H274a.73.73,0,0,0-.78.79l0,1a.7.7,0,0,0,.62.68l1.16.13a20.42,20.42,0,0,1,1.28,1.88h.92l-1.67-2.33a.38.38,0,0,0-.3-.16l-.86-.06c-.34,0-.49-.15-.49-.36v-.55a.38.38,0,0,1,.37-.38l2.86.06a.37.37,0,0,1,.28.13s1.72,2.21,2.38,2.89a3.09,3.09,0,0,0,.72.58.94.94,0,0,0,.37-.73Z"/></g><g class="bc"><path class="an" d="M326.74,196.76c-.79-.82-2.86-3.47-2.86-3.47a.42.42,0,0,0-.33-.16l-3.43-.07a.45.45,0,0,0-.45.45v.67c0,.25.18.37.59.42l1,.09a.45.45,0,0,1,.36.18l2,2.79H327a1.1,1.1,0,0,0,.65-.21,3.47,3.47,0,0,1-.87-.69Z"/><path class="c" d="M321,195.42l-1.4-.15a.86.86,0,0,1-.75-.82l.05-1.21a.88.88,0,0,1,.94-1h3.79a.43.43,0,0,1,0-.13l1.35-2.12a.28.28,0,0,0,0-.29l-.2-.38a.29.29,0,0,0-.26-.16h-1.39c-.45,0-.5-.8,0-.82h.63a.3.3,0,0,0,.26-.43l-.2-.38a.35.35,0,0,0-.26-.16l-2.42,0a.47.47,0,0,1-.41-.52h-2.52a1.09,1.09,0,0,0-1.08,1.09v8.63a1.09,1.09,0,0,0,1.08,1.09h4.23c-.65-1-1.46-2.25-1.53-2.26Z"/><path class="c" d="M326.12,190.07l-1.54,2.41s2.13,2.8,2.9,3.55a2.54,2.54,0,0,0,.56.42V188a1.08,1.08,0,0,0-1.08-1.09h-2.38l1.5,2.8a.51.51,0,0,1,0,.4Z"/><path d="M328.05,196.59v-.14a2.21,2.21,0,0,1-.57-.41c-.77-.75-2.89-3.56-2.89-3.56l1.54-2.41a.59.59,0,0,0,0-.41l-1.51-2.79h-3.73a.47.47,0,0,0,.41.52l2.42,0a.31.31,0,0,1,.26.16l.2.38a.29.29,0,0,1-.26.43h-.63c-.53,0-.48.82,0,.82h1.4a.28.28,0,0,1,.26.16l.2.38a.3.3,0,0,1,0,.29l-1.37,2.13a.33.33,0,0,0,0,.13h-3.79a.87.87,0,0,0-.94.95l-.05,1.2a.85.85,0,0,0,.75.82l1.39.15c.07,0,.88,1.25,1.53,2.26h1.11l-2-2.8a.45.45,0,0,0-.36-.18l-1-.08c-.41-.05-.59-.18-.59-.43v-.67a.45.45,0,0,1,.45-.45l3.43.07a.46.46,0,0,1,.34.16s2.07,2.65,2.85,3.47a3.8,3.8,0,0,0,.87.7,1.15,1.15,0,0,0,.44-.89Z"/></g><g class="bd"><path class="an" d="M374.45,198.25c-1-1.09-3.8-4.62-3.8-4.62a.57.57,0,0,0-.45-.21l-4.57-.09a.6.6,0,0,0-.6.6v.89c0,.33.24.49.78.56l1.37.11a.61.61,0,0,1,.49.25l2.68,3.72h4.4a1.44,1.44,0,0,0,.86-.29,4.54,4.54,0,0,1-1.16-.92Z"/><path class="c" d="M366.84,196.47l-1.87-.21a1.13,1.13,0,0,1-1-1.09l.06-1.61a1.17,1.17,0,0,1,1.26-1.26h5.05a.64.64,0,0,1,.06-.18l1.8-2.82a.37.37,0,0,0,0-.39l-.27-.51a.39.39,0,0,0-.35-.21h-1.85c-.6,0-.66-1.07,0-1.09h.84a.39.39,0,0,0,.34-.57l-.27-.51a.38.38,0,0,0-.33-.21l-3.23,0a.63.63,0,0,1-.55-.7h-3.35a1.45,1.45,0,0,0-1.45,1.45V198a1.45,1.45,0,0,0,1.45,1.45h5.63c-.87-1.35-1.95-3-2-3Z"/><path class="c" d="M373.63,189.33l-2.05,3.22s2.83,3.74,3.86,4.74a3.14,3.14,0,0,0,.75.55V186.52a1.44,1.44,0,0,0-1.44-1.45h-3.17l2,3.73a.75.75,0,0,1,.05.53Z"/><path d="M376.2,198v-.17a2.73,2.73,0,0,1-.75-.55c-1-1-3.86-4.75-3.86-4.75l2.05-3.21a.78.78,0,0,0-.05-.54l-2-3.73h-5a.63.63,0,0,0,.55.7c.86,0,3.23,0,3.23,0a.39.39,0,0,1,.34.21l.27.51a.38.38,0,0,1-.35.56h-.84c-.7,0-.64,1.11,0,1.1h1.86a.37.37,0,0,1,.35.21l.27.51a.37.37,0,0,1,0,.39l-1.82,2.83a.64.64,0,0,0-.06.18h-5a1.15,1.15,0,0,0-1.25,1.26l-.07,1.61a1.13,1.13,0,0,0,1,1.09l1.86.2c.09,0,1.18,1.66,2,3h1.48l-2.68-3.73a.61.61,0,0,0-.48-.24l-1.38-.11c-.54-.07-.78-.24-.78-.57v-.89a.6.6,0,0,1,.6-.6l4.57.09a.56.56,0,0,1,.45.22s2.76,3.53,3.8,4.62a4.84,4.84,0,0,0,1.16.93,1.52,1.52,0,0,0,.59-1.18Z"/></g><g class="be"><path class="an" d="M422.61,199.75c-1.3-1.37-4.75-5.78-4.75-5.78a.73.73,0,0,0-.56-.26l-5.72-.12a.76.76,0,0,0-.75.75v1.11c0,.41.31.63,1,.71l1.71.14a.73.73,0,0,1,.6.3l3.36,4.66H423a1.81,1.81,0,0,0,1.07-.36,6,6,0,0,1-1.45-1.15Z"/><path class="c" d="M413.1,197.51l-2.33-.25a1.41,1.41,0,0,1-1.25-1.36l.08-2a1.45,1.45,0,0,1,1.57-1.58h6.32a.57.57,0,0,1,.07-.22l2.26-3.54a.48.48,0,0,0,0-.48l-.34-.64a.51.51,0,0,0-.44-.26h-2.31c-.75,0-.83-1.34.05-1.37.26,0,1.05,0,1.05,0a.49.49,0,0,0,.43-.71l-.34-.63a.49.49,0,0,0-.42-.27l-4-.05a.78.78,0,0,1-.69-.87h-4.19a1.82,1.82,0,0,0-1.81,1.81v14.39a1.81,1.81,0,0,0,1.81,1.81h7.05c-1.09-1.68-2.45-3.74-2.57-3.76Z"/><path class="c" d="M421.58,188.59l-2.56,4s3.55,4.67,4.83,5.92a3.83,3.83,0,0,0,.94.69V185.08a1.81,1.81,0,0,0-1.8-1.81h-4l2.5,4.66a.85.85,0,0,1,.06.66Z"/><path d="M424.8,199.46v-.22a3.43,3.43,0,0,1-.94-.69c-1.29-1.25-4.83-5.92-4.83-5.92l2.56-4a.88.88,0,0,0,0-.67L419,183.27H412.8a.79.79,0,0,0,.69.87c1.07,0,4,.05,4,.05a.48.48,0,0,1,.42.27l.34.63a.48.48,0,0,1-.43.71s-.78,0-1.05,0c-.88,0-.8,1.38-.05,1.37h2.33a.46.46,0,0,1,.43.26l.34.63a.5.5,0,0,1,0,.49l-2.28,3.55a.57.57,0,0,0-.07.22h-6.32a1.45,1.45,0,0,0-1.56,1.58l-.09,2a1.41,1.41,0,0,0,1.25,1.36l2.33.25c.11,0,1.47,2.08,2.55,3.76h1.85l-3.36-4.65a.72.72,0,0,0-.6-.31l-1.71-.14c-.68-.08-1-.3-1-.71v-1.11a.76.76,0,0,1,.75-.75l5.72.12a.71.71,0,0,1,.56.26s3.45,4.41,4.75,5.78a6.36,6.36,0,0,0,1.45,1.16,1.9,1.9,0,0,0,.74-1.47Z"/></g><g class="d"><text class="ac" transform="translate(23.4 234.57)">I</text><text class="ac" transform="translate(25.73 234.57)">c</text><text class="ac" transform="translate(30.56 234.57)">o</text><text class="ac" transform="translate(35.73 234.57)">n</text><text class="ac" transform="translate(40.73 234.57)"> </text><text class="ac" transform="translate(43.24 234.57)">F</text><text class="ac" transform="translate(48.4 234.57)">o</text><text class="ac" transform="translate(53.57 234.57)">n</text><text class="ac" transform="translate(58.57 234.57)">t</text></g><g class="aa"><path class="bf" d="M56.51,283.44a4.42,4.42,0,0,0,1.63-.37,4.23,4.23,0,0,0,1.32-.9,4.35,4.35,0,0,0,.89-1.3,4.11,4.11,0,0,0,.34-1.61v-2h2.53v2.17a5.66,5.66,0,0,1-.56,2.47,6.58,6.58,0,0,1-1.46,2,7.14,7.14,0,0,1-2.13,1.37,6.74,6.74,0,0,1-2.56.53,7,7,0,0,1-2.59-.51A6.91,6.91,0,0,1,51.76,284a6.41,6.41,0,0,1-1.47-2,5.87,5.87,0,0,1-.57-2.5v-3.89a.68.68,0,0,1,.18-.5.59.59,0,0,1,.46-.18H60.69v2.36H52.6a.47.47,0,0,0-.25.14.33.33,0,0,0-.09.25v1.61a4,4,0,0,0,.35,1.6,4.13,4.13,0,0,0,.91,1.34,4.3,4.3,0,0,0,1.34.91A4.18,4.18,0,0,0,56.51,283.44Zm4.18-8.57H50.36a.59.59,0,0,0-.46.18.68.68,0,0,0-.18.5v3.89a5.87,5.87,0,0,0,.57,2.5,6.41,6.41,0,0,0,1.47,2,6.91,6.91,0,0,0,2.16,1.37,7,7,0,0,0,2.59.51,6.74,6.74,0,0,0,2.56-.53,7.14,7.14,0,0,0,2.13-1.37,6.58,6.58,0,0,0,1.46-2,5.66,5.66,0,0,0,.56-2.47v-2.17H60.69v2a4.11,4.11,0,0,1-.34,1.61,4.45,4.45,0,0,1-.89,1.32,4.07,4.07,0,0,1-1.32.9,4.21,4.21,0,0,1-1.63.35,4.35,4.35,0,0,1-1.65-.35,4.13,4.13,0,0,1-1.34-.91,4.09,4.09,0,0,1-.91-1.33,4,4,0,0,1-.35-1.62v-1.61a.33.33,0,0,1,.09-.25.3.3,0,0,1,.25-.1h8.09Zm-.21.22v2H52.6a.52.52,0,0,0-.37.13.5.5,0,0,0-.15.37v1.61a4.42,4.42,0,0,0,.34,1.68,4.7,4.7,0,0,0,1,1.43,4.52,4.52,0,0,0,1.44,1,4.21,4.21,0,0,0,1.68.34,4.54,4.54,0,0,0,1.7-.38,4.7,4.7,0,0,0,1.37-.94,4.45,4.45,0,0,0,1.29-3.07v-1.78H63v2a5.49,5.49,0,0,1-.15,1.21,6.74,6.74,0,0,1-.38,1.15,5.31,5.31,0,0,1-.61,1.05,6,6,0,0,1-.83.92,6.58,6.58,0,0,1-1,.77,6.5,6.5,0,0,1-1.11.58,7.24,7.24,0,0,1-1.2.37,7.48,7.48,0,0,1-1.27.14A6.88,6.88,0,0,1,54,285.2a7.09,7.09,0,0,1-1.13-.58,7.43,7.43,0,0,1-1-.75,7.6,7.6,0,0,1-.84-1,5.73,5.73,0,0,1-.62-1.07,6,6,0,0,1-.38-1.15,5.47,5.47,0,0,1-.13-1.21v-3.93a1.23,1.23,0,0,1,0-.19.24.24,0,0,1,.1-.14.31.31,0,0,1,.15-.1l.19,0H60.48Z"/><path class="bf" d="M175.11,277.6l-1.92,3,.43.56,1,1.31,1.2,1.48c.41.49.74.86,1,1.1a4.68,4.68,0,0,0,.37.31l.33.2V275a1.26,1.26,0,0,0-.39-1,1.29,1.29,0,0,0-1-.4h-3l1.87,3.49a.92.92,0,0,1,.08.25A.33.33,0,0,1,175.11,277.6Zm-6.37,6.69L167,284.1a1.24,1.24,0,0,1-.67-.35.94.94,0,0,1-.26-.68l.06-1.5a1.28,1.28,0,0,1,.31-.86,1.08,1.08,0,0,1,.87-.32H172s0-.06,0-.08a1,1,0,0,0,0-.1l1.69-2.65a.28.28,0,0,0,.07-.17.48.48,0,0,0,0-.18l-.27-.48a.25.25,0,0,0-.13-.14.31.31,0,0,0-.18,0h-1.74c-.28,0-.43-.17-.44-.51a.43.43,0,0,1,.48-.52h.77a.35.35,0,0,0,.32-.18.32.32,0,0,0,0-.35l-.25-.49a.44.44,0,0,0-.14-.13.51.51,0,0,0-.17-.07h-1.22l-1,0-.82,0a.5.5,0,0,1-.38-.21.52.52,0,0,1-.13-.43h-3.14a1.3,1.3,0,0,0-1,.39,1.35,1.35,0,0,0-.4,1v10.79a1.35,1.35,0,0,0,.4,1,1.28,1.28,0,0,0,1,.4h5.29l-.63-1c-.22-.34-.43-.64-.61-.91s-.34-.5-.46-.68A1,1,0,0,0,168.74,284.29Zm7.14,1.67c-.24-.25-.56-.62-1-1.11l-1.18-1.44-1-1.25-.42-.52a.53.53,0,0,0-.19-.15.68.68,0,0,0-.23-.05l-4.29-.09a.54.54,0,0,0-.4.16.56.56,0,0,0-.17.4v.84a.43.43,0,0,0,.18.36,1.21,1.21,0,0,0,.56.16l1.29.11a.51.51,0,0,1,.25.06.49.49,0,0,1,.2.18L172,287.1h4.13a1.26,1.26,0,0,0,.43-.08,1.62,1.62,0,0,0,.37-.19,3.54,3.54,0,0,1-.52-.34A5.35,5.35,0,0,1,175.88,286Z"/><path class="bf" d="M291,276.38a.61.61,0,0,0-.33-.56,1.54,1.54,0,0,0-.75-.18h-6.07a1.49,1.49,0,0,0-.74.2.63.63,0,0,0-.34.54l-.54,2.56h9.31Zm-7.62,6.81a1,1,0,0,0,.76-.34,1.17,1.17,0,0,0,0-1.61,1,1,0,0,0-.76-.34,1,1,0,0,0-.77.34,1.2,1.2,0,0,0,0,1.61A1,1,0,0,0,283.37,283.19Zm7,0a1,1,0,0,0,.77-.34,1.2,1.2,0,0,0,0-1.61,1,1,0,0,0-.77-.34,1,1,0,0,0-.76.34,1.17,1.17,0,0,0-.32.81,1.11,1.11,0,0,0,.33.79A1.05,1.05,0,0,0,290.38,283.19Zm2,3.92a1.42,1.42,0,0,1-1-.34,1.22,1.22,0,0,1-.4-.94v-.75H282.7v.75a1.22,1.22,0,0,1-.4.91,1.33,1.33,0,0,1-1,.37,1.06,1.06,0,0,1-.87-.4,1.52,1.52,0,0,1-.35-1v-6.48l.89-3.72a1.82,1.82,0,0,1,.53-1.34,1.73,1.73,0,0,1,1.29-.54h8.09a1.73,1.73,0,0,1,1.29.54,1.82,1.82,0,0,1,.53,1.34l.88,3.72v6.55a1.38,1.38,0,0,1-.32.95A1.12,1.12,0,0,1,292.41,287.11Z"/><path class="bf" d="M390.92,278.28l-3.06,2.88-1.72-1.61-1.05,1,1.66,1.6,1.05,1,4.11-3.86Zm-2.57,8.83L388,287c-.15-.05-.44-.17-.86-.36s-.84-.39-1.23-.59a14.84,14.84,0,0,1-1.27-.8,9.38,9.38,0,0,1-1.22-1,4.6,4.6,0,0,1-.85-1.22,3.08,3.08,0,0,1-.36-1.42v-5.94l6.13-2,6.13,2v5.94a3.25,3.25,0,0,1-.2,1.11,3.74,3.74,0,0,1-.56,1,7.38,7.38,0,0,1-.82.87,7.53,7.53,0,0,1-1,.77c-.35.22-.69.43-1,.62a9,9,0,0,1-1,.5l-.82.36c-.24.1-.43.18-.57.22Z"/><text class="ab" transform="translate(36.06 311.52)">iconfont_f001didi</text><text class="ab" transform="translate(45.06 319.62)">&amp;#xe001;</text><text class="ab" transform="translate(148.56 311.52)">iconfont_f002ridea</text><text class="ab" transform="translate(159.36 319.62)">&amp;#xe002;</text><text class="ab" transform="translate(266.91 311.52)">iconfont_f003car</text><text class="ab" transform="translate(275.46 319.62)">&amp;#xe003;</text><text class="ab" transform="translate(367.03 311.52)">iconfont_f004safe</text><text class="ab" transform="translate(376.94 319.62)">&amp;#xe004;</text><path class="bf" d="M63.22,346.43,63,346.3l-.25-.13a1.86,1.86,0,0,0-.36-.12l-.48-.13a2.53,2.53,0,0,0-.57-.08h-.62a4.06,4.06,0,0,0-.67.06,2.88,2.88,0,0,0-.67.19,1,1,0,0,0-.31.06l-.38.19a.92.92,0,0,0-.32.18l-.26.24a3.61,3.61,0,0,0-.52.51,3.2,3.2,0,0,0-.32.5,2.14,2.14,0,0,0-.2.53c0,.19-.1.41-.14.66l-.06.24c0,.16-.07.38-.11.68a13.56,13.56,0,0,1,1.45-1l1.5-.9a4,4,0,0,1,.68-.35,3.89,3.89,0,0,0,.68-.33l.62-.23a1.19,1.19,0,0,1,.38-.11.63.63,0,0,1,.25-.07h.17l-.17,0L62,347l-.36.18-.56.24c-.26.13-.49.26-.7.39s-.4.25-.57.38-.19.17-.3.25-.21.17-.29.25a3.37,3.37,0,0,0-.34.27l-.34.32a2.83,2.83,0,0,0-.31.26.83.83,0,0,0-.19.25,1.23,1.23,0,0,0-.27.19l-.32.32-.28.26a.23.23,0,0,1-.14.08l.24.05.43.11.39.08a.34.34,0,0,1,.2.09l.45.12a1.83,1.83,0,0,0,.4,0h.75l.51-.13.5-.12a2.91,2.91,0,0,0,.58-.32,4.29,4.29,0,0,0,.52-.45l.09-.07a3.19,3.19,0,0,0,.32-.43l.27-.42c.08-.17.15-.32.2-.45s.09-.27.13-.39a1.39,1.39,0,0,0,.09-.38,1.8,1.8,0,0,1,.08-.39v-1.17Zm-6.67-.94a3,3,0,0,0-.36-.81,3.82,3.82,0,0,0-.56-.7l-.08-.08a5.39,5.39,0,0,0-.56-.5c-.21-.16-.41-.31-.62-.44l-.58-.32-.52-.27a3.33,3.33,0,0,1-.51-.16,3.28,3.28,0,0,0-.58-.17,3.23,3.23,0,0,0-.5-.08h-.94c0,.09-.09.17-.13.25l-.12.17a.85.85,0,0,0-.14.29,3.67,3.67,0,0,1-.2.47,2.75,2.75,0,0,0-.21.51c0,.17-.09.34-.14.51a4.35,4.35,0,0,0-.06.57c0,.21,0,.44,0,.69a4,4,0,0,0,.06.72q0,.35.12.72a1.49,1.49,0,0,0,.06.4,4.4,4.4,0,0,0,.19.52c.08.17.17.32.25.46l.25.39a4.34,4.34,0,0,0,.39.44,2.64,2.64,0,0,0,.37.32l.38.25.39.25a1.68,1.68,0,0,0,.36.21l.31.14.36.12.48.13.58.18,1,.24c-.14-.48-.29-.95-.44-1.39s-.3-.87-.44-1.27-.3-.78-.45-1.14-.29-.7-.44-1l-.26-.51a3.67,3.67,0,0,0-.33-.51c-.12-.17-.23-.31-.32-.45a4.56,4.56,0,0,1-.27-.39,3.34,3.34,0,0,0-.25-.34l-.26-.33a2,2,0,0,1-.2-.25,1.41,1.41,0,0,0-.14-.18.29.29,0,0,0-.08-.08l-.08-.09.06.05a.14.14,0,0,0,.1,0l.19.14a1.92,1.92,0,0,1,.23.19,2.71,2.71,0,0,1,.34.26l.26.26.31.31a4.25,4.25,0,0,1,.36.44c.13.17.26.32.39.46a3.79,3.79,0,0,1,.37.48c.21.33.42.67.62,1a10.31,10.31,0,0,1,.57,1.1,8.1,8.1,0,0,1,.53,1.12l.39,1.06a5.19,5.19,0,0,1,.17-.68l.18-.5a3.13,3.13,0,0,1,.11-.44,1.54,1.54,0,0,1,.14-.31,1.2,1.2,0,0,1,0-.31,2.21,2.21,0,0,0,0-.37v-.84a.92.92,0,0,0,0-.44A2.21,2.21,0,0,0,56.55,345.49Z"/><path class="bf" d="M175.84,352.34a1.49,1.49,0,0,1-.66-.14,1.94,1.94,0,0,1-.53-.38,1.62,1.62,0,0,1-.37-.55,1.5,1.5,0,0,1-.13-.62v-2.28a1.58,1.58,0,0,1,.13-.63,1.56,1.56,0,0,1,.37-.56,1.8,1.8,0,0,1,.57-.37,1.5,1.5,0,0,1,.62-.13,5.45,5.45,0,0,0-.27-1.21,3.6,3.6,0,0,0-.58-1.07,7.07,7.07,0,0,0-.82-.9,7.24,7.24,0,0,0-.94-.71,4.78,4.78,0,0,0-1.16-.45,5.37,5.37,0,0,0-1.22-.13,5.74,5.74,0,0,0-1.24.13,3.76,3.76,0,0,0-1.12.45,5.77,5.77,0,0,0-1,.71,4.32,4.32,0,0,0-.76.9,6.34,6.34,0,0,0-.55,1.07,5,5,0,0,0-.3,1.21,1.5,1.5,0,0,1,.62.13,1.56,1.56,0,0,1,.56.37,1.9,1.9,0,0,1,.39.53,1.62,1.62,0,0,1,.12.66v2.28a1.59,1.59,0,0,1-.12.64,1.9,1.9,0,0,1-.39.53,1.59,1.59,0,0,1-.56.38,1.64,1.64,0,0,1-1.8-.38,1.81,1.81,0,0,1-.38-.55,1.67,1.67,0,0,1-.12-.62v-3.72a8.82,8.82,0,0,1,.21-1.25,4.64,4.64,0,0,1,.46-1.2,5.81,5.81,0,0,1,.62-1.08,7.27,7.27,0,0,1,.82-.94,5,5,0,0,1,.95-.77,7.86,7.86,0,0,1,1.16-.59,7.5,7.5,0,0,1,1.26-.37,6.22,6.22,0,0,1,2.53,0,6.72,6.72,0,0,1,2.41,1,5.47,5.47,0,0,1,1,.77,8,8,0,0,1,.8.94,5.85,5.85,0,0,1,.63,1.08,10.07,10.07,0,0,1,.43,1.2,7.69,7.69,0,0,1,.25,1.25v3.72a1.68,1.68,0,0,1-.13.62,1.55,1.55,0,0,1-.39.55,1.5,1.5,0,0,1-.6.38A2.11,2.11,0,0,1,175.84,352.34Z"/><path class="bf" d="M290.37,346.9a.55.55,0,0,1-.4.18.51.51,0,0,1-.39-.18l-6.2-6.18a.57.57,0,0,1-.16-.39.59.59,0,0,1,.16-.4.58.58,0,0,1,.4-.17.54.54,0,0,1,.39.17l6.2,6.18a.61.61,0,0,1,.16.4A.57.57,0,0,1,290.37,346.9Zm0,0-6.2,6.19a.53.53,0,0,1-.78,0,.58.58,0,0,1-.17-.4.57.57,0,0,1,.16-.39l6.2-6.19a.53.53,0,0,1,.78,0,.58.58,0,0,1,.17.4A.57.57,0,0,1,290.37,346.9Z"/><text class="ab" transform="translate(35.91 377.67)">iconfont_f005leaf</text><text class="ab" transform="translate(45.06 385.77)">&amp;#xe005;</text><text class="ab" transform="translate(141.05 377.67)">iconfont_f006headphone</text><text class="ab" transform="translate(159.36 385.77)">&amp;#xe006;</text><text class="ab" transform="translate(265.41 377.67)">iconfont_f007right</text><text class="ab" transform="translate(275.46 385.77)">&amp;#xe007;</text></g><g class="bg"><path class="ae" d="M22.07,10.23H8.29a.82.82,0,0,0-.84.9v5.18a8.92,8.92,0,0,0,9.06,8.55c4.78-.11,8.88-3.83,8.94-8.55V13.44H22.07v2.64a5.64,5.64,0,0,1-5.56,5.57A5.73,5.73,0,0,1,10.82,16V13.89a.42.42,0,0,1,.45-.45h10.8Zm-.28.28v2.7H11.27a.65.65,0,0,0-.67.68V16a5.94,5.94,0,0,0,5.91,5.9,6,6,0,0,0,5.79-5.85V13.72h2.87v2.64a8,8,0,0,1-2.65,5.8,9.15,9.15,0,0,1-6.07,2.47,9.28,9.28,0,0,1-6.19-2.42,8,8,0,0,1-2.64-5.85V11.13a.62.62,0,0,1,.17-.45.64.64,0,0,1,.45-.17Z"/><path class="ae" d="M16.51,21.65a5.68,5.68,0,0,0,5.56-5.57V13.44h3.38v2.87c-.06,4.72-4.16,8.44-8.94,8.55a8.92,8.92,0,0,1-9.06-8.55V11.13a.82.82,0,0,1,.84-.9H22.07v3.15H11.27a.5.5,0,0,0-.45.51V16a5.77,5.77,0,0,0,5.69,5.62Z"/></g><g class="bh"><path class="an" d="M42.6,23.53c-1-1.1-3.8-4.63-3.8-4.63a.6.6,0,0,0-.45-.21l-4.57-.09a.6.6,0,0,0-.6.6v.89c0,.33.24.5.78.57l1.37.11a.6.6,0,0,1,.49.24l2.68,3.73h4.4a1.44,1.44,0,0,0,.86-.29,4.77,4.77,0,0,1-1.16-.92Z"/><path class="c" d="M35,21.74l-1.87-.2a1.13,1.13,0,0,1-1-1.09l.06-1.61a1.16,1.16,0,0,1,1.26-1.26h5a.64.64,0,0,1,.06-.18l1.8-2.83a.37.37,0,0,0,0-.39l-.27-.51a.41.41,0,0,0-.35-.21H37.91c-.6,0-.66-1.06,0-1.09h.84a.39.39,0,0,0,.34-.57l-.27-.5a.39.39,0,0,0-.33-.22L35.3,11a.62.62,0,0,1-.55-.69H31.4A1.45,1.45,0,0,0,30,11.79V23.31a1.46,1.46,0,0,0,1.45,1.45H37c-.87-1.35-2-3-2-3Z"/><path class="c" d="M41.78,14.6l-2.05,3.22s2.83,3.74,3.86,4.74a3.14,3.14,0,0,0,.75.55V11.79a1.43,1.43,0,0,0-1.44-1.44H39.73l2,3.72a.76.76,0,0,1,.05.53Z"/><path d="M44.35,23.3v-.18a2.73,2.73,0,0,1-.75-.55c-1-1-3.86-4.74-3.86-4.74l2-3.22a.79.79,0,0,0,0-.54l-2-3.72h-5a.62.62,0,0,0,.55.69c.86,0,3.23,0,3.23,0a.41.41,0,0,1,.34.21l.27.51a.39.39,0,0,1-.35.57H38c-.7,0-.64,1.1,0,1.09h1.86a.39.39,0,0,1,.35.21l.27.51a.37.37,0,0,1,0,.39l-1.82,2.84a.58.58,0,0,0-.06.17H33.44a1.17,1.17,0,0,0-1.25,1.27l-.07,1.6a1.14,1.14,0,0,0,1,1.1l1.86.2c.09,0,1.18,1.66,2,3H38.5L35.82,21a.62.62,0,0,0-.48-.25L34,20.67c-.54-.06-.78-.23-.78-.56v-.89a.6.6,0,0,1,.6-.6l4.57.09a.59.59,0,0,1,.45.21s2.76,3.53,3.8,4.62a4.84,4.84,0,0,0,1.16.93,1.51,1.51,0,0,0,.59-1.17Z"/></g><g class="bi"><text class="bj" transform="translate(48.85 21.15)">Design System</text></g></svg>