<svg width="426" height="870" viewBox="0 0 426 870" xmlns="http://www.w3.org/2000/svg" xmlns:xlink="http://www.w3.org/1999/xlink"><title>iPhone 12 Pro Max</title><defs><path d="M5.64285714 3C7.41243946 3 8.84696937 4.37856727 8.84696937 6.07911618L8.84671429 8.11 9 8.11067194c.8284271200000006.0 1.5.6715728700000003 1.5 1.5V14.8636364c0 .828427099999999-.6715728799999994 1.5-1.5 1.5H2.28571429C1.45728716 16.3636364.785714286 15.6920635.785714286 14.8636364V9.61067194c0-.8284271299999997.6715728739999999-1.5 1.5000000039999999-1.5L2.43871429 8.11 2.43874491 6.07911618C2.43874491 4.37856727 3.87327482 3 5.64285714 3zm0 1.02637206c-1.17972154.0-2.13607482.9190448499999997-2.13607482 2.05274412L3.50671429 8.11h4.272L7.77893196 6.07911618C7.77893196 4.94541691 6.82257869 4.02637206 5.64285714 4.02637206z" id="path-1"/><filter id="filter-3"><feColorMatrix in="SourceGraphic" type="matrix" values="0 0 0 0 1.000000 0 0 0 0 1.000000 0 0 0 0 1.000000 0 0 0 1.000000 0"/></filter><filter id="filter-4"><feColorMatrix in="SourceGraphic" type="matrix" values="0 0 0 0 1.000000 0 0 0 0 1.000000 0 0 0 0 1.000000 0 0 0 1.000000 0"/></filter><filter id="filter-5"><feColorMatrix in="SourceGraphic" type="matrix" values="0 0 0 0 0.039216 0 0 0 0 0.517647 0 0 0 0 1.000000 0 0 0 1.000000 0"/></filter><filter id="filter-6"><feColorMatrix in="SourceGraphic" type="matrix" values="0 0 0 0 0.039216 0 0 0 0 0.517647 0 0 0 0 1.000000 0 0 0 1.000000 0"/></filter><filter id="filter-7"><feColorMatrix in="SourceGraphic" type="matrix" values="0 0 0 0 0.039216 0 0 0 0 0.517647 0 0 0 0 1.000000 0 0 0 1.000000 0"/></filter><filter id="filter-8"><feColorMatrix in="SourceGraphic" type="matrix" values="0 0 0 0 0.388235 0 0 0 0 0.388235 0 0 0 0 0.400000 0 0 0 1.000000 0"/></filter><filter id="filter-9"><feColorMatrix in="SourceGraphic" type="matrix" values="0 0 0 0 0.388235 0 0 0 0 0.388235 0 0 0 0 0.400000 0 0 0 1.000000 0"/></filter></defs><g id="iPhone-12-Pro-Max" stroke="none" stroke-width="1" fill="none" fill-rule="evenodd"><g id="Navigation-Bar" transform="translate(26.000000, 25.000000)"><g id="Address" transform="translate(10.000000, 48.000000)"><path d="M12.819426-517920154e-24 342.180574 517920154e-24C346.638168-300926524e-24 348.254599.464128056 349.884229 1.33566352 351.513858 2.20719898 352.792801 3.48614185 353.664336 5.11577148 354.535872 6.74540111 355 8.3618323 355 12.819426V23.180574C355 27.6381677 354.535872 29.2545989 353.664336 30.8842285 352.792801 32.5138581 351.513858 33.792801 349.884229 34.6643365 348.254599 35.5358719 346.638168 36 342.180574 36H12.819426C8.3618323 36 6.74540111 35.5358719 5.11577148 34.6643365 3.48614185 33.792801 2.20719898 32.5138581 1.33566352 30.8842285.464128056 29.2545989 928110282e-24 27.6381677-159735677e-23 23.180574L345280103e-24 12.819426C-200617683e-24 8.3618323.464128056 6.74540111 1.33566352 5.11577148 2.20719898 3.48614185 3.48614185 2.20719898 5.11577148 1.33566352 6.74540111.464128056 8.3618323 300926524e-24 12.819426-517920154e-24z" id="Search-Field" fill-opacity=".36" fill="#787880"/><text id="Icon" font-family="SFProText-Regular, SF Pro Text" font-size="17" font-weight="normal" letter-spacing="-.409999996" fill="#fff"><tspan x="330" y="24">􀅈</tspan></text><g id="Text" transform="translate(103.000000, 8.000000)"><text id="↳-www.didialift.com" font-family="SFProText-Regular, SF Pro Text" font-size="17" font-weight="normal" line-spacing="22" letter-spacing="-.409999996" fill="#fff"><tspan x="17.2249902" y="16">www.didialift.com</tspan></text><mask id="mask-2" fill="#fff"><use xlink:href="#path-1"/></mask><use id="Icon" fill="#fff" xlink:href="#path-1"/></g><text id="Icon" font-family="SFProText-Regular, SF Pro Text" font-size="17" font-weight="normal" letter-spacing="-.409999996" fill="#fff"><tspan x="8.5" y="24">􀅐</tspan></text></g><g id="Status-Bar" filter="url(#filter-3)"><g><g id="Symbols" transform="translate(293.500000, 16.600000)" fill="#000"><g id="Battery" transform="translate(42.500000, 0.000000)"><path d="M3.58943922 1.55999756C2.60246067 1.55999756 2.25790408 1.62653451 1.90401485 1.81579654 1.62198703 1.96662666 1.4066291 2.18198459 1.25579898 2.46401241 1.06653695 2.81790163 1 3.16245823 1 4.14943678V8.47055834C1 9.45753689 1.06653695 9.80209348 1.25579898 10.1559827 1.4066291 10.4380105 1.62198703 10.6533685 1.90401485 10.8041986 2.25790408 10.9934606 2.60246067 11.0599976 3.58943922 11.0599976H18.4105608C19.3975393 11.0599976 19.7420959 10.9934606 20.0959852 10.8041986 20.378013 10.6533685 20.5933709 10.4380105 20.744201 10.1559827 20.9334631 9.80209348 21 9.45753689 21 8.47055834V4.14943678C21 3.16245823 20.9334631 2.81790163 20.744201 2.46401241 20.5933709 2.18198459 20.378013 1.96662666 20.0959852 1.81579654 19.7420959 1.62653451 19.3975393 1.55999756 18.4105608 1.55999756H3.58943922zM18.4105608.559997559C19.658687.559997559 20.1112877.689953412 20.567584.933983338 21.0238803 1.17801326 21.3819843 1.53611726 21.6260142 1.99241355 21.8700441 2.44870984 22 2.90131056 22 4.14943678V8.47055834C22 9.71868455 21.8700441 10.1712853 21.6260142 10.6275816 21.3819843 11.0838779 21.0238803 11.4419819 20.567584 11.6860118 20.1112877 11.9300417 19.658687 12.0599976 18.4105608 12.0599976H3.58943922C2.341313 12.0599976 1.88871228 11.9300417 1.43241599 11.6860118.976119702 11.4419819.618015704 11.0838779.373985779 10.6275816.129955853 10.1712853.0 9.71868455.0 8.47055834V4.14943678C0 2.90131056.129955853 2.44870984.373985779 1.99241355.618015704 1.53611726.976119702 1.17801326 1.43241599.933983338 1.88871228.689953412 2.341313.559997559 3.58943922.559997559H18.4105608zM23 4.25C24 4.75895182 24.5 5.42561849 24.5 6.25 24.5 7.07438151 24 7.74104818 23 8.25v0z" id="Rectangle" fill-opacity=".36" fill-rule="nonzero"/><path d="M4.05110819 2.47666423H17.9488918C18.6621068 2.47666423 18.9207358 2.55092472 19.1814766 2.69037039 19.4422173 2.82981607 19.6468482 3.03444693 19.7862938 3.29518767 19.9257395 3.55592842 20 3.81455741 20 4.52777242V8.0922227C20 8.8054377 19.9257395 9.0640667 19.7862938 9.32480744 19.6468482 9.58554819 19.4422173 9.79017905 19.1814766 9.92962473 18.9207358 10.0690704 18.6621068 10.1433309 17.9488918 10.1433309H4.05110819C3.33789319 10.1433309 3.07926419 10.0690704 2.81852345 9.92962473 2.5577827 9.79017905 2.35315184 9.58554819 2.21370617 9.32480744 2.07426049 9.0640667 2 8.8054377 2 8.0922227V4.52777242C2 3.81455741 2.07426049 3.55592842 2.21370617 3.29518767 2.35315184 3.03444693 2.5577827 2.82981607 2.81852345 2.69037039 3.07926419 2.55092472 3.33789319 2.47666423 4.05110819 2.47666423z" id="Rectangle"/></g><path d="M1.61042911 7.70000458C1.96682803 7.70000458 2.19055183 7.75569995 2.3861074 7.86028421 2.58166296 7.96486847 2.73513611 8.11834162 2.83972037 8.31389718 2.94430463 8.50945274 3 8.73317655 3 9.08957547V10.3104337C3 10.6668326 2.94430463 10.8905564 2.83972037 11.086112 2.73513611 11.2816675 2.58166296 11.4351407 2.3861074 11.5397249 2.19055183 11.6443092 1.96682803 11.7000046 1.61042911 11.7000046H1.38957089C1.03317197 11.7000046.809448166 11.6443092.613892602 11.5397249.418337039 11.4351407.264863888 11.2816675.160279629 11.086112.0556953689 10.8905564 179678739e-23 10.6668326 175314111e-23 10.3104337L179957257e-23 9.08957547C175592629e-23 8.73317655.0556953689 8.50945274.160279629 8.31389718.264863888 8.11834162.418337039 7.96486847.613892602 7.86028421.809448166 7.75569995 1.03317197 7.70000458 1.38957089 7.70000458H1.61042911zm4.79998779-2C6.76681582 5.70000458 6.99053963 5.75569995 7.18609519 5.86028421 7.38165075 5.96486847 7.5351239 6.11834162 7.63970816 6.31389718 7.74429242 6.50945274 7.79998779 6.73317655 7.79998779 7.08957547V10.3104337C7.79998779 10.6668326 7.74429242 10.8905564 7.63970816 11.086112 7.5351239 11.2816675 7.38165075 11.4351407 7.18609519 11.5397249 6.99053963 11.6443092 6.76681582 11.7000046 6.4104169 11.7000046H6.18955869C5.83315977 11.7000046 5.60943596 11.6443092 5.4138804 11.5397249 5.21832483 11.4351407 5.06485168 11.2816675 4.96026742 11.086112 4.85568316 10.8905564 4.79998779 10.6668326 4.79998779 10.3104337V7.08957547C4.79998779 6.73317655 4.85568316 6.50945274 4.96026742 6.31389718 5.06485168 6.11834162 5.21832483 5.96486847 5.4138804 5.86028421 5.60943596 5.75569995 5.83315977 5.70000458 6.18955869 5.70000458H6.4104169zM11.010423 3.40000153C11.3668219 3.40000153 11.5905457 3.45569689 11.7861013 3.56028115 11.9816569 3.66486541 12.13513 3.81833856 12.2397143 4.01389413 12.3442985 4.20944969 12.3999939 4.4331735 12.3999939 4.78957242V10.3104337C12.3999939 10.6668326 12.3442985 10.8905564 12.2397143 11.086112 12.13513 11.2816675 11.9816569 11.4351407 11.7861013 11.5397249 11.5905457 11.6443092 11.3668219 11.7000046 11.010423 11.7000046H10.7895648C10.4331659 11.7000046 10.2094421 11.6443092 10.0138865 11.5397249 9.81833094 11.4351407 9.66485778 11.2816675 9.56027353 11.086112 9.45568927 10.8905564 9.3999939 10.6668326 9.3999939 10.3104337V4.78957242C9.3999939 4.4331735 9.45568927 4.20944969 9.56027353 4.01389413 9.66485778 3.81833856 9.81833094 3.66486541 10.0138865 3.56028115 10.2094421 3.45569689 10.4331659 3.40000153 10.7895648 3.40000153H11.010423zM15.71042 1C16.0668189 1 16.2905427 1.05569537 16.4860982 1.16027963 16.6816538 1.26486389 16.835127 1.41833704 16.9397112 1.6138926 17.0442955 1.80944817 17.0999908 2.03317197 17.0999908 2.38957089V10.3104289C17.0999908 10.6668278 17.0442955 10.8905516 16.9397112 11.0861072 16.835127 11.2816628 16.6816538 11.4351359 16.4860982 11.5397202 16.2905427 11.6443044 16.0668189 11.6999998 15.71042 11.6999998H15.4895617C15.1331628 11.6999998 14.909439 11.6443044 14.7138834 11.5397202 14.5183279 11.4351359 14.3648547 11.2816628 14.2602705 11.0861072 14.1556862 10.8905516 14.0999908 10.6668278 14.0999908 10.3104289V2.38957089C14.0999908 2.03317197 14.1556862 1.80944817 14.2602705 1.6138926 14.3648547 1.41833704 14.5183279 1.26486389 14.7138834 1.16027963 14.909439 1.05569537 15.1331628 1 15.4895617 1H15.71042z" id="Combined-Shape"/><path d="M29.8004303 3.0963595C32.0348378 3.09645731 34.1838073 3.95501054 35.8031778 5.49456857 35.9251184 5.61342761 36.1200237 5.61192819 36.240129 5.49120671L37.4057894 4.31479121C37.4666034 4.25356076 37.5005044 4.17062241 37.5000057 4.08432624 37.499496 3.99803107 37.464627 3.91549405 37.4030971 3.85498054 33.1527727-.218327865 26.4474021-.218327865 22.1970777 3.85498054 22.1355075 3.91544968 22.100578 3.99796149 22.1000061 4.08425666 22.0994385 4.17055284 22.1332891 4.25351639 22.1940527 4.31479121L23.3600559 5.49120671C23.4800705 5.6121107 23.6751371 5.61361113 23.7970071 5.49456857 25.4165792 3.9549097 27.5658008 3.09635445 29.8004303 3.0963595v0zm0 3.8273863299999995C31.0280945 6.9236702 32.2119456 7.3799849 33.1219573 8.20402309 33.2450373 8.3209723 33.4389241 8.31843729 33.5589085 8.19830873L34.7232278 7.02189222C34.7845359 6.96018583 34.8185578 6.87647608 34.8176971 6.78949019 34.8167932 6.7025043 34.7810772 6.61950343 34.7185187 6.55905648 31.9473528 3.98131151 27.6558471 3.98131151 24.8846912 6.55905648 24.8220924 6.61950343 24.7863764 6.70254564 24.785545 6.78955977 24.7847328 6.87657289 24.8188758 6.96027557 24.880315 7.02189222L26.0443015 8.19830873C26.1642757 8.31843729 26.3581727 8.3209723 26.4812527 8.20402309 27.3906594 7.38052941 28.5735727 6.92425404 29.8004303 6.92374583v0zM32.0379738 9.73134673C32.1002398 9.67023426 32.1345341 9.58613529 32.1327493 9.49890538 32.1309645 9.41167546 32.0932721 9.32904668 32.0285558 9.27052771 30.7423262 8.18262777 28.8585242 8.18262777 27.5722947 9.27052771 27.507538 9.3290003 27.469775 9.41160286 27.4679297 9.49883278 27.4660844 9.5860637 27.5003181 9.67018889 27.5625438 9.73134673L29.5769078 11.7638581C29.6359471 11.8235921 29.7164341 11.8572094 29.8004303 11.8572094 29.8844163 11.8572094 29.9649033 11.8235921 30.0239426 11.7638581L32.0379738 9.73134673z" id="Wi-Fi"/></g><g id="编组" transform="translate(0.000000, 12.000000)" fill="#000" font-family="SFProText-Semibold, SF Pro Text" font-size="15" font-weight="500" letter-spacing="-.165"><g id="↳-Time"><text><tspan x="29.5" y="16">9:41</tspan></text></g></g></g></g></g><g id="编组-2" transform="translate(3.000000, 3.332962)" fill-rule="nonzero" stroke="#fff" stroke-width="2"><path d="M358.185782.640313558C391.785099.640313558 419.022727 27.8281831 419.022727 61.3661197v0V801.935445C419.022727 835.473381 391.785099 862.661251 358.185782 862.661251v0H61.8119456C28.2126283 862.661251.975 835.473381.975 801.935445v0V61.3661197C.975 27.8281831 28.2126283.640313558 61.8119456.640313558v0zM358.694522 22.1176189 317.983697 22.1162494C317.477246 22.3712517 316.951966 22.7371892 316.373593 23.258906 314.228836 25.3058928 313.150811 28.259977 313.461851 31.237875 313.52642 33.0504075 313.322692 34.8625115 312.857527 36.6131805 311.693437 40.4587734 309.584919 43.9376137 306.731881 46.7198746 304.239269 49.2868406 301.072558 51.0658419 297.612085 51.8432126 294.044474 52.4311072 290.426363 52.6375344 286.816664 52.459133v0H132.988779C129.379079 52.6375344 125.760968 52.4311072 122.193358 51.8432126 118.732885 51.0658419 115.566174 49.2868406 113.073562 46.7198746 110.220523 43.9376137 108.112005 40.4587734 106.947916 36.6131805 106.48275 34.8625115 106.279022 33.0504075 106.343592 31.237875 106.6679 28.2582929 105.587729 25.298331 103.43185 23.258906 102.853653 22.737349 102.339774 22.371476 101.850531 22.1164838L62.2799526 22.1176189C40.8356266 22.1327601 23.4553527 39.4787671 23.4401816 60.8808136v0V801.44451C23.4553527 822.846556 40.8356266 840.192563 62.2799526 840.207704v0H358.694522C380.138848 840.192563 397.519122 822.846556 397.534293 801.44451v0V60.8808136C397.519122 39.4787671 380.138848 22.1327601 358.694522 22.1176189v0z" id="形状结合"/></g><g id="编组" transform="translate(28.000000, 759.000000)"><g font-family="SFProText-Regular, SF Pro Text" font-size="22" font-weight="normal" id="Toolbar" letter-spacing="-.132"><g filter="url(#filter-4)"><g><g id="编组" transform="translate(187.000000, 6.000000)"><g id="Color" transform="translate(138.000000, 5.680000)" filter="url(#filter-5)"><g transform="translate(0.500000, 1.500000)"><text id="SF-Symbol" fill="#007aff"><tspan x=".461507813" y="21">􀐅</tspan></text></g></g></g><g id="Center" transform="translate(94.000000, 6.000000)"><g id="Color" transform="translate(152.723077, 5.680000)" filter="url(#filter-6)"><g transform="translate(-0.500000, 1.500000)"><text id="SF-Symbol" fill="#007aff"><tspan x=".897542969" y="21">􀉚</tspan></text></g></g><g id="Color" transform="translate(77.000000, 5.680000)" filter="url(#filter-7)"><g transform="translate(2.500000, 1.500000)"><text id="SF-Symbol" fill="#007aff"><tspan x=".293050781" y="21">􀈂</tspan></text></g></g><g id="Color" transform="translate(1.276923, 5.680000)" filter="url(#filter-8)"><g transform="translate(6.500000, 1.500000)"><text id="SF-Symbol" fill="#007aff"><tspan x=".5738125" y="21">􀯻</tspan></text></g></g></g><g id="编组" transform="translate(0.000000, 6.000000)"><g id="Color" transform="translate(15.000000, 6.120000)" filter="url(#filter-9)"><g transform="translate(6.500000, 1.500000)"><text id="SF-Symbol" fill="#007aff"><tspan x=".5738125" y="21">􀆉</tspan></text></g></g></g></g></g></g><g transform="translate(0.000000, 48.114667)" fill="#fff" id="Home-Indicator"><rect id="Line" x="118" y="21" width="135" height="5" rx="2.5"/></g></g></g></svg>