<?xml version="1.0" encoding="UTF-8"?>
<svg version="1.1" viewBox="0 0 422 865" xmlns="http://www.w3.org/2000/svg">
<title>未命名</title>
<g fill="none" fill-rule="evenodd">
<g transform="translate(1.975 1.9733)">
<g transform="translate(32.025 34.027)" fill-rule="nonzero">
<g transform="translate(0 35)">
<path d="m12.819-5.1792e-16h329.36c4.4576 0 6.074 0.46413 7.7037 1.3357 1.6296 0.87154 2.9086 2.1505 3.7801 3.7801 0.87154 1.6296 1.3357 3.2461 1.3357 7.7037v10.361c0 4.4576-0.46413 6.074-1.3357 7.7037-0.87154 1.6296-2.1505 2.9086-3.7801 3.7801-1.6296 0.87154-3.2461 1.3357-7.7037 1.3357h-329.36c-4.4576 0-6.074-0.46413-7.7037-1.3357-1.6296-0.87154-2.9086-2.1505-3.7801-3.7801-0.87154-1.6296-1.3357-3.2461-1.3357-7.7037v-10.361c0-4.4576 0.46413-6.074 1.3357-7.7037 0.87154-1.6296 2.1505-2.9086 3.7801-3.7801 1.6296-0.87154 3.2461-1.3357 7.7037-1.3357z" fill="#787880" fill-opacity=".36"/>
<g transform="translate(103.79 8)" fill="#fff">
<g transform="translate(16.439)" font-family="Helvetica" font-size="17">
<text>
<tspan x="-7.10542736e-15" y="16">www.didialift.com</tspan>
</text>
</g>
<g transform="translate(-0 3)">
<path d="m4.8571 0c1.7696 0 3.2041 1.3786 3.2041 3.0791l-2.5508e-4 2.0309 0.15329 6.7194e-4c0.82843 0 1.5 0.67157 1.5 1.5v5.253c0 0.82843-0.67157 1.5-1.5 1.5h-6.7143c-0.82843 0-1.5-0.67157-1.5-1.5v-5.253c0-0.82843 0.67157-1.5 1.5-1.5l0.153-6.7194e-4 3.062e-5 -2.0309c0-1.7005 1.4345-3.0791 3.2041-3.0791zm0 1.0264c-1.1797 0-2.1361 0.91904-2.1361 2.0527l-6.803e-5 2.0309h4.272l2.1767e-4 -2.0309c0-1.1337-0.95635-2.0527-2.1361-2.0527z"/>
</g>
</g>
</g>
<g transform="translate(19.5)" fill="#000">
<g transform="translate(264 4.16)">
<g transform="translate(42.5)">
<path d="m3.5894 1c-0.98698 0-1.3315 0.066537-1.6854 0.2558-0.28203 0.15083-0.49739 0.36619-0.64822 0.64822-0.18926 0.35389-0.2558 0.69845-0.2558 1.6854v4.3211c0 0.98698 0.066537 1.3315 0.2558 1.6854 0.15083 0.28203 0.36619 0.49739 0.64822 0.64822 0.35389 0.18926 0.69845 0.2558 1.6854 0.2558h14.821c0.98698 0 1.3315-0.066537 1.6854-0.2558 0.28203-0.15083 0.49739-0.36619 0.64822-0.64822 0.18926-0.35389 0.2558-0.69845 0.2558-1.6854v-4.3211c0-0.98698-0.066537-1.3315-0.2558-1.6854-0.15083-0.28203-0.36619-0.49739-0.64822-0.64822-0.35389-0.18926-0.69845-0.2558-1.6854-0.2558h-14.821zm14.821-1c1.2481 0 1.7007 0.12996 2.157 0.37399 0.4563 0.24403 0.8144 0.60213 1.0584 1.0584 0.24403 0.4563 0.37399 0.9089 0.37399 2.157v4.3211c0 1.2481-0.12996 1.7007-0.37399 2.157-0.24403 0.4563-0.60213 0.8144-1.0584 1.0584s-0.9089 0.37399-2.157 0.37399h-14.821c-1.2481 0-1.7007-0.12996-2.157-0.37399-0.4563-0.24403-0.8144-0.60213-1.0584-1.0584-0.24403-0.4563-0.37399-0.9089-0.37399-2.157v-4.3211c0-1.2481 0.12996-1.7007 0.37399-2.157 0.24403-0.4563 0.60213-0.8144 1.0584-1.0584 0.4563-0.24403 0.9089-0.37399 2.157-0.37399h14.821zm4.5894 3.69c1 0.50895 1.5 1.1756 1.5 2s-0.5 1.491-1.5 2v-4z" fill-opacity=".36"/>
<path d="m4.0511 1.9167h13.898c0.71322 0 0.97184 0.07426 1.2326 0.21371 0.26074 0.13945 0.46537 0.34408 0.60482 0.60482 0.13945 0.26074 0.21371 0.51937 0.21371 1.2326v3.5645c0 0.71322-0.07426 0.97184-0.21371 1.2326-0.13945 0.26074-0.34408 0.46537-0.60482 0.60482-0.26074 0.13945-0.51937 0.21371-1.2326 0.21371h-13.898c-0.71322 0-0.97184-0.07426-1.2326-0.21371-0.26074-0.13945-0.46537-0.34408-0.60482-0.60482-0.13945-0.26074-0.21371-0.51937-0.21371-1.2326v-3.5645c0-0.71322 0.07426-0.97184 0.21371-1.2326 0.13945-0.26074 0.34408-0.46537 0.60482-0.60482 0.26074-0.13945 0.51937-0.21371 1.2326-0.21371z"/>
</g>
<path d="m1.6104 7.14c0.3564 0 0.58012 0.055695 0.77568 0.16028 0.19556 0.10458 0.34903 0.25806 0.45361 0.45361s0.16028 0.41928 0.16028 0.77568v1.2209c0 0.3564-0.055695 0.58012-0.16028 0.77568-0.10458 0.19556-0.25806 0.34903-0.45361 0.45361-0.19556 0.10458-0.41928 0.16028-0.77568 0.16028h-0.22086c-0.3564 0-0.58012-0.055695-0.77568-0.16028-0.19556-0.10458-0.34903-0.25806-0.45361-0.45361-0.10458-0.19556-0.16028-0.41928-0.16028-0.77568v-1.2209c0-0.3564 0.055695-0.58012 0.16028-0.77568 0.10458-0.19556 0.25806-0.34903 0.45361-0.45361 0.19556-0.10458 0.41928-0.16028 0.77568-0.16028h0.22086zm4.8-2c0.3564 0 0.58012 0.055695 0.77568 0.16028s0.34903 0.25806 0.45361 0.45361 0.16028 0.41928 0.16028 0.77568v3.2209c0 0.3564-0.055695 0.58012-0.16028 0.77568-0.10458 0.19556-0.25806 0.34903-0.45361 0.45361-0.19556 0.10458-0.41928 0.16028-0.77568 0.16028h-0.22086c-0.3564 0-0.58012-0.055695-0.77568-0.16028-0.19556-0.10458-0.34903-0.25806-0.45361-0.45361-0.10458-0.19556-0.16028-0.41928-0.16028-0.77568v-3.2209c0-0.3564 0.055695-0.58012 0.16028-0.77568s0.25806-0.34903 0.45361-0.45361c0.19556-0.10458 0.41928-0.16028 0.77568-0.16028h0.22086zm4.6-2.3c0.3564 0 0.58012 0.055695 0.77568 0.16028s0.34903 0.25806 0.45361 0.45361c0.10458 0.19556 0.16028 0.41928 0.16028 0.77568v5.5209c0 0.3564-0.055695 0.58012-0.16028 0.77568-0.10458 0.19556-0.25806 0.34903-0.45361 0.45361-0.19556 0.10458-0.41928 0.16028-0.77568 0.16028h-0.22086c-0.3564 0-0.58012-0.055695-0.77568-0.16028-0.19556-0.10458-0.34903-0.25806-0.45361-0.45361-0.10458-0.19556-0.16028-0.41928-0.16028-0.77568v-5.5209c0-0.3564 0.055695-0.58012 0.16028-0.77568 0.10458-0.19556 0.25806-0.34903 0.45361-0.45361 0.19556-0.10458 0.41928-0.16028 0.77568-0.16028h0.22086zm4.7-2.4c0.3564 0 0.58012 0.055695 0.77568 0.16028 0.19556 0.10458 0.34903 0.25806 0.45361 0.45361 0.10458 0.19556 0.16028 0.41928 0.16028 0.77568v7.9209c0 0.3564-0.055695 0.58012-0.16028 0.77568-0.10458 0.19556-0.25806 0.34903-0.45361 0.45361-0.19556 0.10458-0.41928 0.16028-0.77568 0.16028h-0.22086c-0.3564 0-0.58012-0.055695-0.77568-0.16028-0.19556-0.10458-0.34903-0.25806-0.45361-0.45361-0.10458-0.19556-0.16028-0.41928-0.16028-0.77568v-7.9209c0-0.3564 0.055695-0.58012 0.16028-0.77568 0.10458-0.19556 0.25806-0.34903 0.45361-0.45361 0.19556-0.10458 0.41928-0.16028 0.77568-0.16028h0.22086z"/>
<path d="m29.8 2.5364c2.2344 9.781e-5 4.3834 0.85865 6.0027 2.3982 0.12194 0.11886 0.31685 0.11736 0.43695-0.0033619l1.1657-1.1764c0.060814-0.06123 0.094715-0.14417 0.094222-0.23046-5.151e-4 -0.086295-0.035384-0.16883-0.096914-0.22935-4.2503-4.0733-10.956-4.0733-15.206 0-0.06157 0.060469-0.0965 0.14298-0.097079 0.22928-5.606e-4 0.086296 0.03329 0.16926 0.094054 0.23053l1.166 1.1764c0.12001 0.1209 0.31508 0.1224 0.43695 0.0033619 1.6196-1.5397 3.7688-2.3982 6.0034-2.3982zm0 3.8274c1.2277-7.563e-5 2.4115 0.45624 3.3215 1.2803 0.12308 0.11695 0.31697 0.11441 0.43695-0.0057144l1.1643-1.1764c0.061308-0.061706 0.09533-0.14542 0.094485-0.2324-9.198e-4 -0.086986-0.036636-0.16999-0.099194-0.23043-2.7712-2.5777-7.0627-2.5777-9.8338 0-0.062599 0.060447-0.098315 0.14349-0.09916 0.2305-7.98e-4 0.087013 0.033345 0.17072 0.094784 0.23233l1.164 1.1764c0.11997 0.12013 0.31387 0.12266 0.43695 0.0057144 0.90941-0.82349 2.0923-1.2798 3.3192-1.2803zm2.2375 2.8076c0.062266-0.061112 0.09656-0.14521 0.094776-0.23244-0.0017848-0.08723-0.039477-0.16986-0.10419-0.22838-1.2862-1.0879-3.17-1.0879-4.4563 0-0.064757 0.058473-0.10252 0.14108-0.10436 0.22831-0.0018453 0.087231 0.032388 0.17136 0.094614 0.23251l2.0144 2.0325c0.059039 0.059734 0.13953 0.093351 0.22352 0.093351 0.083986 0 0.16447-0.033617 0.22351-0.093351l2.014-2.0325z"/>
</g>
<g font-family="Helvetica" font-size="15">
<text>
<tspan x="0" y="15">9:41</tspan>
</text>
</g>
</g>
</g>
<g stroke="#fff" stroke-width="2">
<path d="m357.21-2.6645e-15c33.599 0 60.837 27.188 60.837 60.726v740.57c0 33.538-27.238 60.726-60.837 60.726h-296.37c-33.599 0-60.837-27.188-60.837-60.726v-740.57c0-33.538 27.238-60.726 60.837-60.726h296.37zm0.50874 21.476h-40.711c-0.50645 0.255-1.0317 0.62094-1.6101 1.1427-2.1448 2.047-3.2228 5.0011-2.9117 7.979 0.064569 1.8125-0.13916 3.6246-0.60432 5.3753-1.1641 3.8456-3.2726 7.3244-6.1256 10.107-2.4926 2.567-5.6593 4.346-9.1198 5.1233-3.5676 0.58789-7.1857 0.79432-10.795 0.61592h-153.83c-3.6097 0.1784-7.2278-0.028026-10.795-0.61592-3.4605-0.77737-6.6272-2.5564-9.1198-5.1233-2.853-2.7823-4.9616-6.2611-6.1256-10.107-0.46517-1.7507-0.66889-3.5628-0.60432-5.3753 0.32431-2.9796-0.75586-5.9395-2.9117-7.979-0.5782-0.52156-1.0921-0.88743-1.5813-1.1427h-39.571c-21.444 0.016511-38.825 17.363-38.84 38.765v740.56c0.015171 21.402 17.395 38.748 38.84 38.763h296.41c21.444-0.015141 38.825-17.361 38.84-38.763v-740.56c-0.015171-21.402-17.395-38.748-38.84-38.765z"/>
</g>
<g transform="translate(142.02 824.14)" fill="#fff" fill-rule="nonzero">
<g transform="translate(0)">
<rect width="135" height="5" rx="2.5"/>
</g>
</g>
</g>
</g>
</svg>
