<svg xmlns="http://www.w3.org/2000/svg" viewBox="0 0 2223.29 1226.01"><defs><style>.a{fill:#fff;}.aa,.ab,.b,.c,.d,.u{fill:#231815;}.c{font-size:32px;}.c,.d{font-family:HelveticaNeue-BoldItalic, Helvetica Neue;}.ad,.c,.d{font-weight:700;}.aa,.ab,.c,.d,.i,.j,.n,.o,.p,.z{font-style:italic;}.ad,.d{font-size:28px;}.e{letter-spacing:-0.06em;}.f,.u{font-size:20px;font-family:HelveticaNeue-Medium, Helvetica Neue;}.ad,.f,.s{fill:#040000;}.g{letter-spacing:-0.09em;}.h{letter-spacing:0em;}.aa,.ab,.i,.j,.n,.o,.p,.z{font-family:HelveticaNeue-MediumItalic, Helvetica Neue;}.ab,.j{letter-spacing:-0.06em;}.k{letter-spacing:0.02em;}.l,.o{letter-spacing:0em;}.m{letter-spacing:-0.02em;}.n{letter-spacing:-0.04em;}.p{letter-spacing:-0.11em;}.q{letter-spacing:-0.11em;}.r,.t{fill:none;}.r{stroke:#040000;stroke-miterlimit:10;stroke-width:2px;}.v{letter-spacing:-0.09em;}.w{letter-spacing:-0.11em;}.x{letter-spacing:-0.02em;}.y{letter-spacing:-0.09em;}.z{letter-spacing:-0.06em;}.ac{letter-spacing:-0.07em;}.ad{font-family:Helvetica-Bold, Helvetica;}</style></defs><title>Knowledge Development Graph</title><rect class="a" x="1" y="991.64" width="765.28" height="66.03"/><path class="b" d="M765.29,992.64v64H2v-64H765.29m2-2H0v68H767.29v-68Z"/><text class="c" transform="translate(150.09 1036.71)">UI DEVELOPMENT for Devices</text><rect class="a" x="1457.01" y="991.64" width="765.28" height="66.03"/><path class="b" d="M2221.29,992.64v64H1458v-64h763.28m2-2H1456v68h767.28v-68Z"/><text class="c" transform="translate(1645.92 1036.71)">LINGUISTICS for Content</text><path class="a" d="M884.84,1057.67a33,33,0,1,1,0-66h462a33,33,0,0,1,0,66Z"/><path class="b" d="M1346.81,992.64a32,32,0,0,1,0,64h-462a32,32,0,1,1,0-64h462m0-2h-462a34.12,34.12,0,0,0-34,34h0a34.11,34.11,0,0,0,34,34h462a34.1,34.1,0,0,0,34-34h0a34.11,34.11,0,0,0-34-34Z"/><text class="d" transform="translate(1024.78 1034.7)">Semantic <tspan class="e" x="133.75" y="0">W</tspan><tspan x="158.59" y="0">eb</tspan></text><path class="a" d="M339.17,822.48a33,33,0,0,1,0-66h711.74a33,33,0,1,1,0,66Z"/><path class="b" d="M1050.91,757.45a32,32,0,1,1,0,64H339.17a32,32,0,0,1,0-64h711.74m0-2H339.17a34.11,34.11,0,0,0-34,34h0a34.11,34.11,0,0,0,34,34h711.74a34.12,34.12,0,0,0,34-34h0a34.12,34.12,0,0,0-34-34Z"/><text class="d" transform="translate(534.83 799.51)">Responsive <tspan class="e" x="161.81" y="0">W</tspan><tspan x="186.65" y="0">eb Design</tspan></text><text class="f" transform="translate(305.16 856.23)">2017: <tspan class="g" x="55.6" y="0">T</tspan><tspan class="h" x="65.62" y="0">ranslate Book: </tspan><tspan class="i" x="204.58" y="0">“Adaptive </tspan><tspan class="j" x="300.88" y="0">W</tspan><tspan class="i" x="318.3" y="0">eb Design”</tspan><tspan class="b"><tspan x="0" y="24">2016: Speak: </tspan><tspan class="i" x="124.88" y="24">“The Overview of </tspan><tspan class="j" x="288.26" y="24">W</tspan><tspan class="i" x="305.68" y="24">eb Design”</tspan><tspan x="0" y="48">2015: Redesign and launch the inte</tspan><tspan class="k" x="324.58" y="48">r</tspan><tspan class="l" x="331.98" y="48">national o</tspan><tspan class="m" x="422.76" y="48">f</tspan><tspan x="428.7" y="48">ficial website for Peking University</tspan><tspan x="0" y="72">2013: Speak: </tspan><tspan class="i" x="124.88" y="72">“Responsive </tspan><tspan class="j" x="246.02" y="72">W</tspan><tspan class="i" x="263.44" y="72">eb Design: Rebuild as Design”</tspan></tspan></text><path class="a" d="M1180.74,822.48a33,33,0,1,1,0-66h711.74a33,33,0,0,1,0,66Z"/><path class="b" d="M1892.48,757.45a32,32,0,0,1,0,64H1180.74a32,32,0,1,1,0-64h711.74m0-2H1180.74a34.12,34.12,0,0,0-34,34h0a34.12,34.12,0,0,0,34,34h711.74a34.12,34.12,0,0,0,34-34h0a34.12,34.12,0,0,0-34-34Z"/><text class="d" transform="translate(1453.38 799.51)">Accessibility</text><text class="f" transform="translate(0 1091.14)">2017: <tspan class="g" x="55.6" y="0">T</tspan><tspan class="h" x="65.62" y="0">ranslate Book: </tspan><tspan class="i" x="204.58" y="0">“Data </tspan><tspan class="n" x="262.36" y="0">V</tspan><tspan class="i" x="273.8" y="0">isualization with JavaScript”</tspan><tspan x="0" y="24">2016: Build </tspan><tspan class="o" x="108.58" y="24">“UFO Animate, A CSS Animation </tspan><tspan class="p" x="417.14" y="24">T</tspan><tspan class="i" x="426.9" y="24">ool”</tspan><tspan x="0" y="48">2011 - 2014: UI Development for </tspan><tspan class="q" x="303.48" y="48">T</tspan><tspan x="313.12" y="48">encent </tspan><tspan class="m" x="381.66" y="48">W</tspan><tspan x="400.18" y="48">eibo, </tspan><tspan class="q" x="451.32" y="48">T</tspan><tspan x="460.96" y="48">encent</tspan><tspan x="0" y="72">2010 - 2011: F</tspan><tspan class="m" x="130.84" y="72">r</tspan><tspan x="137.52" y="72">ont-end Develope</tspan><tspan class="g" x="302.76" y="72">r</tspan><tspan x="307.96" y="72">, Beijing Rising Co., Ltd.</tspan></text><path class="r" d="M1101,691.59a36.91,36.91,0,0,1-34.93,25H733.28A38.23,38.23,0,0,0,695,754.81v.64"/><path class="s" d="M1103,679.67c-3.1,5.21-7.91,11.49-12.44,15.1l10-1.67,8.74,5.1C1106.3,693.22,1104,685.64,1103,679.67Z"/><line class="r" x1="1443.94" y1="1024.56" x2="1380.82" y2="1024.56"/><path class="s" d="M1456,1024.56c-5.68-2.11-12.73-5.7-17.1-9.51l3.44,9.51-3.44,9.51C1443.28,1030.26,1450.33,1026.66,1456,1024.56Z"/><line class="r" x1="779.36" y1="1024.31" x2="850.82" y2="1024.31"/><path class="s" d="M767.29,1024.31c5.67,2.1,12.72,5.7,17.09,9.51l-3.44-9.51,3.44-9.51C780,1018.61,773,1022.2,767.29,1024.31Z"/><path class="r" d="M695,942.62a19.77,19.77,0,0,1-19.77,19.77H411.06A27.43,27.43,0,0,0,386.3,978"/><path class="s" d="M383.64,989.81c-.68-6-2.47-13.73-5.12-18.88l8.41,5.63L397,975.5C392.24,978.83,387.05,984.8,383.64,989.81Z"/><path class="t" d="M383.64,989.81"/><path class="t" d="M695,931.21"/><path class="t" d="M1536.61,891.78"/><path class="r" d="M1130.62,691.59a36.91,36.91,0,0,0,34.93,25h332.81a38.23,38.23,0,0,1,38.25,38.24v.64"/><path class="s" d="M1128.66,679.67c-1.05,6-3.31,13.55-6.27,18.54l8.73-5.11,10,1.67C1136.56,691.16,1131.75,684.88,1128.66,679.67Z"/><rect class="a" x="739.32" y="535.95" width="763.35" height="66.03"/><path class="b" d="M1501.67,537v64H740.32V537h761.35m2-2H738.32v68h765.35V535Z"/><text class="c" transform="translate(870.58 581.01)">INTERACTION DESIGN for Users</text><text class="u" transform="translate(738.32 635.58)">2015 - 2016: Interaction Design for DiDi Hitch, DiDi Chuxing<tspan x="0" y="24">2014 - 2015: Interaction Design for </tspan><tspan class="m" x="323.88" y="24">W</tspan><tspan class="l" x="342.4" y="24">eishi and Ali </tspan><tspan class="v" x="459.5" y="24">Y</tspan><tspan x="470.74" y="24">unOS, </tspan><tspan class="w" x="532.98" y="24">T</tspan><tspan class="l" x="542.62" y="24">encent and Alibaba</tspan></text><rect class="a" x="1" y="49.83" width="765.28" height="66.03"/><path class="b" d="M765.28,50.83v64H2v-64H765.28m2-2H0v68H767.28v-68Z"/><text class="c" transform="translate(185.04 94.89)">MANAGEMENT for System</text><text class="u" transform="translate(0 152.48)">2012 - 2016: Hold design-tech sharing meeting, <tspan class="w" x="442.8" y="0">T</tspan><tspan class="l" x="452.44" y="0">encent, DiDi Chuxing</tspan><tspan x="0" y="24">2008 - 2010: P</tspan><tspan class="m" x="132.32" y="24">r</tspan><tspan x="139" y="24">oject Management, Vchoice Era Design Consultant Co., Ltd.</tspan><tspan x="0" y="48">2006 - 2008: ISO9000 Quality Management System Certification Assistant, CCIC G</tspan><tspan class="x" x="757.71" y="48">r</tspan><tspan x="764.39" y="48">oup.</tspan></text><rect class="a" x="1457.01" y="55.08" width="765.29" height="66.03"/><path class="b" d="M2221.29,56.08v64H1458v-64h763.28m2-2H1456v68h767.28v-68Z"/><text class="c" transform="translate(1661.19 100.14)">LITER<tspan class="y" x="91.84" y="0">A</tspan><tspan x="110.81" y="0">TURE for Human</tspan></text><path class="a" d="M1180.74,355.29a33,33,0,1,1,0-66h711.74a33,33,0,0,1,0,66Z"/><path class="b" d="M1892.48,290.26a32,32,0,0,1,0,64H1180.74a32,32,0,1,1,0-64h711.74m0-2H1180.74a34,34,0,1,0,0,68h711.74a34,34,0,0,0,0-68Z"/><text class="d" transform="translate(1421.77 332.32)">Content Strategy</text><text class="f" transform="translate(1146.72 389.04)">2016: Speak: <tspan class="i" x="124.88" y="0">“From </tspan><tspan class="z" x="188.22" y="0">V</tspan><tspan class="i" x="199.28" y="0">oice &amp; </tspan><tspan class="p" x="262.66" y="0">T</tspan><tspan class="i" x="272.42" y="0">one to Content Strategy”</tspan></text><path class="a" d="M339.17,355.29a33,33,0,0,1,0-66h711.74a33,33,0,1,1,0,66Z"/><path class="b" d="M1050.91,290.26a32,32,0,1,1,0,64H339.17a32,32,0,0,1,0-64h711.74m0-2H339.17a34,34,0,0,0,0,68h711.74a34,34,0,1,0,0-68Z"/><text class="d" transform="translate(595.22 332.32)">Design System</text><text class="u" transform="translate(305.16 389.04)">2016: C<tspan class="m" x="70.04" y="0">r</tspan><tspan x="76.72" y="0">eate DiDi Hitch&apos;s Design System</tspan><tspan class="s"><tspan x="0" y="24">2015: Speak: </tspan><tspan class="aa" x="124.88" y="24">“Future Friendly </tspan><tspan class="ab" x="278.6" y="24">W</tspan><tspan class="aa" x="296.02" y="24">eb Design”</tspan></tspan><tspan x="0" y="48">2014: C</tspan><tspan class="m" x="70.04" y="48">r</tspan><tspan x="76.72" y="48">eate the guideline of </tspan><tspan class="m" x="270.14" y="48">W</tspan><tspan class="l" x="288.66" y="48">eishi</tspan><tspan class="ac" x="331.28" y="48">’</tspan><tspan x="335.36" y="48">s </tspan><tspan class="m" x="351.3" y="48">W</tspan><tspan class="l" x="369.82" y="48">eb design</tspan></text><path class="r" d="M1536.61,823.48v95.59a43.33,43.33,0,0,0,43.32,43.32h240.66A27.43,27.43,0,0,1,1845.35,978"/><path class="s" d="M1848,989.81c-3.41-5-8.6-11-13.35-14.31l10.06,1.06,8.41-5.63C1850.48,976.09,1848.69,983.79,1848,989.81Z"/><path class="r" d="M694.74,288.56h0a43.33,43.33,0,0,0-43.32-43.33H410.76A27.43,27.43,0,0,1,386,229.6"/><path class="s" d="M383.34,217.81c3.41,5,8.6,11,13.35,14.31l-10.06-1.05-8.41,5.62C380.87,231.54,382.67,223.83,383.34,217.81Z"/><path class="r" d="M1101,502a36.91,36.91,0,0,0-34.93-25H715.89A20.86,20.86,0,0,1,695,456.17"/><path class="s" d="M1103,513.91c1-6,3.31-13.55,6.27-18.53l-8.74,5.1-10-1.66C1095.08,502.42,1099.9,508.71,1103,513.91Z"/><path class="t" d="M1536.61,410.93"/><path class="r" d="M1130.62,502a36.91,36.91,0,0,1,34.93-25h305a66.09,66.09,0,0,0,66.08-66.09h0"/><path class="s" d="M1128.66,513.91c3.09-5.2,7.91-11.49,12.44-15.09l-10,1.66-8.73-5.1C1125.35,500.36,1127.61,507.94,1128.66,513.91Z"/><path class="t" d="M1848,140.67"/><path class="r" d="M1536.61,288.56h0a43.33,43.33,0,0,1,43.32-43.33h145a123.13,123.13,0,0,0,122.54-111.06"/><path class="s" d="M1848,122.11c1.8,5.78,5,13,8.58,17.58l-9.31-3.95-9.68,2.93C1841.63,134.51,1845.6,127.67,1848,122.11Z"/><path class="a" d="M884.84,116.28a33,33,0,1,1,0-66h462a33,33,0,0,1,0,66Z"/><path class="b" d="M1346.81,51.25a32,32,0,0,1,0,64h-462a32,32,0,1,1,0-64h462m0-2h-462a34,34,0,1,0,0,68h462a34,34,0,0,0,0-68Z"/><text class="d" transform="translate(1013.09 93.31)">Cultural Studies</text><line class="r" x1="1443.94" y1="83.17" x2="1380.82" y2="83.17"/><path class="s" d="M1456,83.17c-5.68-2.11-12.73-5.7-17.1-9.51l3.44,9.51-3.44,9.51C1443.28,88.87,1450.33,85.27,1456,83.17Z"/><line class="r" x1="779.35" y1="82.92" x2="850.82" y2="82.92"/><path class="s" d="M767.28,82.92c5.68,2.1,12.73,5.7,17.1,9.51l-3.44-9.51,3.44-9.51C780,77.22,773,80.81,767.28,82.92Z"/><text class="f" transform="translate(1456.01 1091.14)">M.A. in Chinese Studies (Language Education), The Education University of HK<tspan x="0" y="24">B.A. in Chinese Language &amp; Literatu</tspan><tspan class="m" x="332.34" y="24">r</tspan><tspan class="l" x="339.02" y="24">e, Beijing Normal University</tspan></text><text class="ad" transform="translate(2048.28 581.16)">ACADEMIC +</text><text class="ad" transform="translate(0 581.16)">PRACTICE +</text><text class="ad" transform="translate(0 1212.54)">ENGINEERING +</text><text class="ad" transform="translate(2122.94 24.08)">ARTS +</text></svg>