<svg xmlns="http://www.w3.org/2000/svg" viewBox="0 0 2223.29 1120.05"><defs><style>.a{fill:#fff;}.b,.c,.d,.g,.n,.o{fill:#231815;}.c{font-size:32px;font-family:HelveticaNeue-BoldItalic, Helvetica Neue;font-weight:700;}.ac,.c,.d,.h,.i,.n,.o,.r,.s,.t{font-style:italic;}.d{font-size:28px;font-family:HelveticaNeue-Italic, Helvetica Neue;}.e{letter-spacing:-0.06em;}.f{letter-spacing:-0.06em;}.g,.m{font-size:20px;font-family:HelveticaNeue-Medium, Helvetica Neue;}.ac,.h,.i,.n,.o,.r,.s,.t{font-family:HelveticaNeue-MediumItalic, Helvetica Neue;}.i,.o{letter-spacing:-0.06em;}.j{letter-spacing:0.02em;}.k,.s{letter-spacing:0em;}.l{letter-spacing:-0.02em;}.m,.w{fill:#040000;}.p{letter-spacing:-0.09em;}.q{letter-spacing:0em;}.r{letter-spacing:-0.04em;}.t{letter-spacing:-0.11em;}.u{letter-spacing:-0.11em;}.v,.x{fill:none;}.v{stroke:#040000;stroke-miterlimit:10;stroke-width:2px;}.y{letter-spacing:-0.09em;}.z{letter-spacing:-0.11em;}.aa{letter-spacing:-0.02em;}.ab{letter-spacing:-0.09em;}.ac{letter-spacing:-0.06em;}.ad{letter-spacing:-0.07em;}</style></defs><title>Knowledge Development Map</title><rect class="a" x="1" y="942.81" width="765.28" height="66.03"/><path class="b" d="M765.29,943.81v64H2v-64H765.29m2-2H0v68H767.29v-68Z"/><text class="c" transform="translate(150.09 987.88)">UI DEVELOPMENT for Devices</text><rect class="a" x="1457.01" y="942.81" width="765.28" height="66.03"/><path class="b" d="M2221.29,943.81v64H1458v-64h763.28m2-2H1456v68h767.28v-68Z"/><text class="c" transform="translate(1645.92 987.88)">LINGUISTICS for Content</text><path class="a" d="M884.84,1008.84a33,33,0,1,1,0-66h462a33,33,0,0,1,0,66Z"/><path class="b" d="M1346.81,943.81a32,32,0,0,1,0,64h-462a32,32,0,1,1,0-64h462m0-2h-462a34.12,34.12,0,0,0-34,34h0a34.11,34.11,0,0,0,34,34h462a34.1,34.1,0,0,0,34-34h0a34.11,34.11,0,0,0-34-34Z"/><text class="d" transform="translate(1030.18 985.88)">Semantic <tspan class="e" x="124.99" y="0">W</tspan><tspan x="149.32" y="0">eb</tspan></text><path class="a" d="M339.17,773.65a33,33,0,0,1,0-66h711.74a33,33,0,1,1,0,66Z"/><path class="b" d="M1050.91,708.62a32,32,0,1,1,0,64H339.17a32,32,0,0,1,0-64h711.74m0-2H339.17a34.11,34.11,0,0,0-34,34h0a34.11,34.11,0,0,0,34,34h711.74a34.12,34.12,0,0,0,34-34h0a34.12,34.12,0,0,0-34-34Z"/><text class="d" transform="translate(544.18 750.68)">Responsive <tspan class="f" x="151.9" y="0">W</tspan><tspan x="176.23" y="0">eb Design</tspan></text><text class="g" transform="translate(305.16 807.4)">2016: Speak: <tspan class="h" x="124.88" y="0">“The Overview of </tspan><tspan class="i" x="288.26" y="0">W</tspan><tspan class="h" x="305.68" y="0">eb Design”</tspan><tspan x="0" y="24">2015: Redesign and launch the inte</tspan><tspan class="j" x="324.58" y="24">r</tspan><tspan class="k" x="331.98" y="24">national o</tspan><tspan class="l" x="422.76" y="24">f</tspan><tspan x="428.7" y="24">ficial website for Peking University</tspan><tspan x="0" y="48">2013: Speak: </tspan><tspan class="h" x="124.88" y="48">“Responsive </tspan><tspan class="i" x="246.02" y="48">W</tspan><tspan class="h" x="263.44" y="48">eb Design: Rebuild as Design”</tspan></text><path class="a" d="M1180.74,773.65a33,33,0,1,1,0-66h711.74a33,33,0,0,1,0,66Z"/><path class="b" d="M1892.48,708.62a32,32,0,0,1,0,64H1180.74a32,32,0,1,1,0-64h711.74m0-2H1180.74a34.12,34.12,0,0,0-34,34h0a34.12,34.12,0,0,0,34,34h711.74a34.12,34.12,0,0,0,34-34h0a34.12,34.12,0,0,0-34-34Z"/><text class="d" transform="translate(1459.37 750.68)">Accessibility</text><text class="m" transform="translate(1146.72 807.4)">2015: Speak: <tspan class="n" x="124.88" y="0">“Future Friendly </tspan><tspan class="o" x="278.6" y="0">W</tspan><tspan class="n" x="296.02" y="0">eb Design”</tspan></text><text class="m" transform="translate(0 1042.31)">2017: <tspan class="p" x="55.6" y="0">T</tspan><tspan class="q" x="65.62" y="0">ranslate Book: </tspan><tspan class="h" x="204.58" y="0">“Data </tspan><tspan class="r" x="262.36" y="0">V</tspan><tspan class="h" x="273.8" y="0">isualization with JavaScript”</tspan><tspan x="0" y="24">2016: Build </tspan><tspan class="s" x="108.58" y="24">“UFO Animate, A CSS Animation </tspan><tspan class="t" x="417.14" y="24">T</tspan><tspan class="h" x="426.9" y="24">ool”</tspan><tspan x="0" y="48">2011 - 2014: UI Development for </tspan><tspan class="u" x="303.48" y="48">T</tspan><tspan x="313.12" y="48">encent </tspan><tspan class="l" x="381.66" y="48">W</tspan><tspan x="400.18" y="48">eibo, </tspan><tspan class="u" x="451.32" y="48">T</tspan><tspan x="460.96" y="48">encent</tspan><tspan x="0" y="72">2010 - 2011: F</tspan><tspan class="l" x="130.84" y="72">r</tspan><tspan x="137.52" y="72">ont-end Develope</tspan><tspan class="p" x="302.76" y="72">r</tspan><tspan x="307.96" y="72">, Beijing Rising Co., Ltd.</tspan></text><text class="m" transform="translate(850.82 1042.31)">2017: <tspan class="p" x="55.6" y="0">T</tspan><tspan class="q" x="65.62" y="0">ranslate Book: </tspan><tspan class="h" x="204.58" y="0">“Adaptive </tspan><tspan class="i" x="300.88" y="0">W</tspan><tspan class="h" x="318.3" y="0">eb Design”</tspan></text><text class="m" transform="translate(1456.01 1042.31)">M.A. in Chinese Studies (Language Education), EdUHK<tspan x="0" y="24">B.A. in Chinese Language &amp; Literatu</tspan><tspan class="l" x="332.34" y="24">r</tspan><tspan class="k" x="339.02" y="24">e, BNU</tspan></text><path class="v" d="M1101,642.76a36.91,36.91,0,0,1-34.93,25H733.28A38.24,38.24,0,0,0,695,706v.64"/><path class="w" d="M1103,630.84c-3.1,5.21-7.91,11.49-12.44,15.1l10-1.67,8.74,5.11C1106.3,644.39,1104,636.81,1103,630.84Z"/><line class="v" x1="1443.94" y1="975.73" x2="1380.82" y2="975.73"/><path class="w" d="M1456,975.73c-5.68-2.11-12.73-5.7-17.1-9.51l3.44,9.51-3.44,9.51C1443.28,981.43,1450.33,977.83,1456,975.73Z"/><line class="v" x1="779.36" y1="975.48" x2="850.82" y2="975.48"/><path class="w" d="M767.29,975.48c5.67,2.11,12.72,5.7,17.09,9.51l-3.44-9.51,3.44-9.51C780,969.78,773,973.37,767.29,975.48Z"/><path class="v" d="M695,870.24h0a43.32,43.32,0,0,1-43.32,43.32H411.06a27.43,27.43,0,0,0-24.76,15.63"/><path class="w" d="M383.64,941c-.68-6-2.47-13.72-5.12-18.88l8.41,5.63L397,926.67C392.24,930,387.05,936,383.64,941Z"/><path class="x" d="M383.64,941"/><path class="x" d="M695,882.38"/><path class="x" d="M1536.61,843"/><path class="v" d="M1130.62,642.76a36.91,36.91,0,0,0,34.93,25h332.81A38.24,38.24,0,0,1,1536.61,706v.64"/><path class="w" d="M1128.66,630.84c-1.05,6-3.31,13.55-6.27,18.54l8.73-5.11,10,1.67C1136.56,642.33,1131.75,636.05,1128.66,630.84Z"/><rect class="a" x="739.32" y="487.12" width="763.35" height="66.03"/><path class="b" d="M1501.68,488.12v64H740.32v-64h761.36m2-2H738.32v68h765.36v-68Z"/><text class="c" transform="translate(870.58 532.18)">INTERACTION DESIGN for Users</text><text class="g" transform="translate(738.32 586.75)">2015 - 2016: Interaction Design for DiDi Hitch, DiDi Chuxing<tspan x="0" y="24">2014 - 2015: Interaction Design for </tspan><tspan class="l" x="323.88" y="24">W</tspan><tspan class="k" x="342.4" y="24">eishi and Ali </tspan><tspan class="y" x="459.5" y="24">Y</tspan><tspan x="470.74" y="24">unOS, </tspan><tspan class="z" x="532.98" y="24">T</tspan><tspan class="k" x="542.62" y="24">encent and Alibaba</tspan></text><rect class="a" x="1" y="1" width="765.28" height="66.03"/><path class="b" d="M765.28,2V66H2V2H765.28m2-2H0V68H767.28V0Z"/><text class="c" transform="translate(173.18 46.06)">MANANGEMENT for System</text><text class="g" transform="translate(0 103.65)">2012 - 2016: Hold design-tech sharing meeting, <tspan class="z" x="442.8" y="0">T</tspan><tspan class="k" x="452.44" y="0">encent, DiDi Chuxing</tspan><tspan x="0" y="24">2008 - 2010: P</tspan><tspan class="l" x="132.32" y="24">r</tspan><tspan x="139" y="24">oject Management, Vchoice Era Design Consultant Co., Ltd.</tspan><tspan x="0" y="48">2006 - 2008: ISO9000 Quality Management System Certification Assistant, CCIC G</tspan><tspan class="aa" x="757.71" y="48">r</tspan><tspan x="764.39" y="48">oup.</tspan></text><rect class="a" x="1457.01" y="6.25" width="765.29" height="66.03"/><path class="b" d="M2221.29,7.25v64H1458v-64h763.28m2-2H1456v68h767.28v-68Z"/><text class="c" transform="translate(1661.19 51.31)">LITER<tspan class="ab" x="91.84" y="0">A</tspan><tspan x="110.81" y="0">TURE for Human</tspan></text><path class="a" d="M1180.74,306.46a33,33,0,1,1,0-66h711.74a33,33,0,0,1,0,66Z"/><path class="b" d="M1892.48,241.43a32,32,0,0,1,0,64H1180.74a32,32,0,1,1,0-64h711.74m0-2H1180.74a34,34,0,1,0,0,68h711.74a34,34,0,0,0,0-68Z"/><text class="d" transform="translate(1430.56 283.49)">Content Strategy</text><text class="m" transform="translate(1146.72 340.21)">2016: Speak: <tspan class="h" x="124.88" y="0">“From </tspan><tspan class="ac" x="188.22" y="0">V</tspan><tspan class="h" x="199.28" y="0">oice &amp; </tspan><tspan class="t" x="262.66" y="0">T</tspan><tspan class="h" x="272.42" y="0">one to Content Strategy”</tspan></text><path class="a" d="M339.17,306.46a33,33,0,0,1,0-66h711.74a33,33,0,1,1,0,66Z"/><path class="b" d="M1050.91,241.43a32,32,0,1,1,0,64H339.17a32,32,0,0,1,0-64h711.74m0-2H339.17a34,34,0,0,0,0,68h711.74a34,34,0,1,0,0-68Z"/><text class="d" transform="translate(601.72 283.49)">Design System</text><text class="g" transform="translate(305.16 340.21)">2016: C<tspan class="l" x="70.04" y="0">r</tspan><tspan x="76.72" y="0">eate DiDi Hitch&apos;s Design System</tspan><tspan x="0" y="24">2014: C</tspan><tspan class="l" x="70.04" y="24">r</tspan><tspan x="76.72" y="24">eate the guideline of </tspan><tspan class="l" x="270.14" y="24">W</tspan><tspan class="k" x="288.66" y="24">eishi</tspan><tspan class="ad" x="331.28" y="24">’</tspan><tspan x="335.36" y="24">s </tspan><tspan class="l" x="351.3" y="24">W</tspan><tspan class="k" x="369.82" y="24">eb design</tspan></text><path class="v" d="M1536.61,824.79v45.45h0a43.32,43.32,0,0,0,43.32,43.32h240.66a27.43,27.43,0,0,1,24.76,15.63"/><path class="w" d="M1848,941c-3.41-5-8.6-11-13.35-14.3l10.06,1.05,8.41-5.63C1850.48,927.26,1848.69,935,1848,941Z"/><path class="v" d="M694.74,239.73h0a43.33,43.33,0,0,0-43.32-43.33H410.76A27.41,27.41,0,0,1,386,180.77"/><path class="w" d="M383.34,169c3.41,5,8.6,11,13.35,14.3l-10.06-1-8.41,5.63C380.87,182.71,382.67,175,383.34,169Z"/><path class="v" d="M1101,453.17a36.91,36.91,0,0,0-34.93-25H733.28A38.24,38.24,0,0,1,695,390v-.64"/><path class="w" d="M1103,465.08c1-6,3.31-13.55,6.27-18.53l-8.74,5.1-10-1.66C1095.09,453.6,1099.9,459.88,1103,465.08Z"/><path class="x" d="M1536.61,362.1"/><path class="v" d="M1130.62,453.17a36.91,36.91,0,0,1,34.93-25h305a66.09,66.09,0,0,0,66.08-66.09h0"/><path class="w" d="M1128.66,465.08c3.1-5.2,7.91-11.48,12.44-15.09l-10,1.66-8.73-5.1C1125.35,451.53,1127.61,459.12,1128.66,465.08Z"/><path class="x" d="M1848,91.84"/><path class="v" d="M1536.61,239.73h0a43.33,43.33,0,0,1,43.32-43.33h163.52a104.57,104.57,0,0,0,103.87-92.5"/><path class="w" d="M1848,91.84c1.73,5.81,4.87,13.07,8.39,17.68l-9.27-4-9.72,2.82C1841.5,104.17,1845.54,97.37,1848,91.84Z"/><line class="v" x1="67.32" y1="181.06" x2="67.32" y2="928.91"/><path class="w" d="M67.32,169c-2.11,5.68-5.7,12.72-9.51,17.09l9.51-3.44,9.51,3.44C73,181.71,69.42,174.67,67.32,169Z"/><path class="w" d="M67.32,941c-2.11-5.68-5.7-12.73-9.51-17.09l9.51,3.44,9.51-3.44C73,928.25,69.42,935.3,67.32,941Z"/><line class="v" x1="2163.24" y1="85.35" x2="2163.24" y2="928.91"/><path class="w" d="M2163.24,73.28c-2.11,5.68-5.7,12.73-9.51,17.1l9.51-3.44,9.51,3.44C2168.94,86,2165.35,79,2163.24,73.28Z"/><path class="w" d="M2163.24,941c-2.11-5.68-5.7-12.73-9.51-17.09l9.51,3.44,9.51-3.44C2168.94,928.25,2165.35,935.3,2163.24,941Z"/><path class="a" d="M884.84,67.45a33,33,0,1,1,0-66h462a33,33,0,0,1,0,66Z"/><path class="b" d="M1346.81,2.42a32,32,0,0,1,0,64h-462a32,32,0,1,1,0-64h462m0-2h-462a34,34,0,1,0,0,68h462a34,34,0,0,0,0-68Z"/><text class="d" transform="translate(1021.61 44.49)">Cultural Studies</text><line class="v" x1="1443.94" y1="34.34" x2="1380.82" y2="34.34"/><path class="w" d="M1456,34.34c-5.68-2.11-12.73-5.7-17.1-9.51l3.44,9.51-3.44,9.51C1443.28,40,1450.33,36.44,1456,34.34Z"/><line class="v" x1="779.35" y1="34.09" x2="850.82" y2="34.09"/><path class="w" d="M767.28,34.09c5.68,2.11,12.73,5.7,17.1,9.51l-3.44-9.51,3.44-9.51C780,28.39,773,32,767.28,34.09Z"/></svg>