<svg xmlns="http://www.w3.org/2000/svg" viewBox="0 0 2000.01 641.44"><defs><style>.a{fill:#fff;}.b,.c,.d,.e,.g{fill:#231815;}.c{font-size:12px;font-family:AdobeSongStd-Light-GBpc-EUC-H, Adobe Song Std;}.d{font-size:32px;font-family:HelveticaNeue-BoldItalic, Helvetica Neue;font-weight:700;}.d,.e{font-style:italic;}.e{font-size:28px;font-family:HelveticaNeue-Italic, Helvetica Neue;}.f{letter-spacing:-0.06em;}.g,.r{font-size:20px;font-family:HelveticaNeue, Helvetica Neue;}.h{letter-spacing:-0.02em;}.i{letter-spacing:-0.06em;}.j{letter-spacing:0em;}.k{letter-spacing:-0.06em;}.l{letter-spacing:-0.07em;}.m{letter-spacing:-0.11em;}.n{letter-spacing:-0.02em;}.o{letter-spacing:0.02em;}.p{letter-spacing:0em;}.q{letter-spacing:-0.07em;}.r,.v{fill:#040000;}.s{letter-spacing:-0.05em;}.t{letter-spacing:-0.09em;}.u{fill:none;stroke:#040000;stroke-miterlimit:10;stroke-width:2px;}</style></defs><title>skill</title><rect class="a" x="686.67" y="1" width="763.35" height="66.03"/><path class="b" d="M1449,2V66H687.67V2H1449m2-2H685.67V68H1451V0Z"/><text class="c" transform="translate(420.94 297.64)">Helvetica Neue</text><text class="c" transform="translate(420.94 297.64)">Helvetica Neue</text><text class="c" transform="translate(420.94 297.64)">Helvetica Neue</text><text class="c" transform="translate(420.94 297.64)">Helvetica Neue</text><text class="d" transform="translate(892.05 46.06)">INTERACTION DESIGN</text><rect class="a" x="1" y="508.32" width="584" height="66.03"/><path class="b" d="M584,509.32v64H2v-64H584m2-2H0v68H586v-68Z"/><text class="d" transform="translate(149.56 553.38)">UI DEVELOPMENT</text><rect class="a" x="1457.01" y="508.32" width="542" height="66.03"/><path class="b" d="M1998,509.32v64H1458v-64h540m2-2H1456v68h544v-68Z"/><text class="d" transform="translate(1493.05 553.38)">LINGUISTICS AND LANGUAGE</text><path class="a" d="M818,574.35a33,33,0,1,1,0-66h462a33,33,0,0,1,0,66Z"/><path class="b" d="M1280,509.32a32,32,0,0,1,0,64H818a32,32,0,1,1,0-64h462m0-2H818a34.12,34.12,0,0,0-34,34h0a34.12,34.12,0,0,0,34,34h462a34.11,34.11,0,0,0,34-34h0a34.11,34.11,0,0,0-34-34Z"/><text class="e" transform="translate(873.5 551.38)">Semantic <tspan class="f" x="124.99" y="0">W</tspan><tspan x="149.32" y="0">eb, Accessibility</tspan></text><text class="g" transform="translate(685.67 100.64)">2016: P<tspan class="h" x="68.56" y="0">r</tspan><tspan x="74.86" y="0">esentation: “The Overview of </tspan><tspan class="i" x="337.84" y="0">W</tspan><tspan class="j" x="355.22" y="0">eb Design”</tspan><tspan x="0" y="24">2015 - 2016: Interaction Design for DiDi Hitch, DiDi Chuxing</tspan><tspan x="0" y="48">2014 - 2015: Interaction Design for </tspan><tspan class="k" x="316.4" y="48">W</tspan><tspan x="333.78" y="48">eishi and Ali </tspan><tspan class="l" x="446.75" y="48">Y</tspan><tspan x="458.23" y="48">unOS, </tspan><tspan class="m" x="519.75" y="48">T</tspan><tspan x="529.01" y="48">encent and Alibaba</tspan></text><path class="a" d="M308.27,309.19a33,33,0,0,1,0-66H1020a33,33,0,0,1,0,66Z"/><path class="b" d="M1020,244.15a32,32,0,0,1,0,64H308.27a32,32,0,0,1,0-64H1020m0-2H308.27a34.11,34.11,0,0,0-34,34h0a34.11,34.11,0,0,0,34,34H1020a34.12,34.12,0,0,0,34-34h0a34.12,34.12,0,0,0-34-34Z"/><text class="e" transform="translate(412.17 286.22)">Responsive <tspan class="f" x="151.9" y="0">W</tspan><tspan x="176.23" y="0">eb Design, Design System</tspan></text><path class="a" d="M1149.84,309.19a33,33,0,1,1,0-66h531a33,33,0,0,1,0,66Z"/><path class="b" d="M1680.81,244.15a32,32,0,0,1,0,64h-531a32,32,0,1,1,0-64h531m0-2h-531a34.12,34.12,0,0,0-34,34h0a34.12,34.12,0,0,0,34,34h531a34.11,34.11,0,0,0,34-34h0a34.11,34.11,0,0,0-34-34Z"/><text class="e" transform="translate(1309.28 286.22)">Content Strategy</text><text class="g" transform="translate(274.26 342.94)">2016: C<tspan class="n" x="70.04" y="0">r</tspan><tspan x="76.34" y="0">eate DiDi Hitch&apos;s Design System</tspan><tspan x="0" y="24">2015: Redesign and launch the inte</tspan><tspan class="o" x="315.68" y="24">r</tspan><tspan class="p" x="322.7" y="24">national o</tspan><tspan class="h" x="410.11" y="24">f</tspan><tspan x="415.67" y="24">ficial website for Peking University</tspan><tspan x="0" y="48">2014: C</tspan><tspan class="n" x="70.04" y="48">r</tspan><tspan x="76.34" y="48">eate the guideline of </tspan><tspan class="i" x="263.04" y="48">W</tspan><tspan x="280.42" y="48">eishi</tspan><tspan class="q" x="321.16" y="48">’</tspan><tspan x="325.24" y="48">s </tspan><tspan class="i" x="340.8" y="48">W</tspan><tspan x="358.18" y="48">eb design</tspan><tspan x="0" y="72">2013: Give lesson: “Responsive </tspan><tspan class="i" x="288.58" y="72">W</tspan><tspan x="305.96" y="72">eb Design: Rebuild as Design”</tspan></text><text class="r" transform="translate(1115.82 342.94)">2016: P<tspan class="h" x="68.56" y="0">r</tspan><tspan x="74.86" y="0">esentation: “F</tspan><tspan class="h" x="198.96" y="0">r</tspan><tspan x="205.26" y="0">om </tspan><tspan class="s" x="239.36" y="0">V</tspan><tspan x="250.48" y="0">oice &amp; </tspan><tspan class="m" x="311.6" y="0">T</tspan><tspan class="p" x="320.86" y="0">one to Content Strategy”</tspan></text><text class="r" transform="translate(0 607.82)">2016: P<tspan class="h" x="68.56" y="0">r</tspan><tspan x="74.86" y="0">esentation: “F</tspan><tspan class="h" x="198.96" y="0">r</tspan><tspan x="205.26" y="0">om </tspan><tspan class="s" x="239.36" y="0">V</tspan><tspan x="250.48" y="0">oice &amp; </tspan><tspan class="m" x="311.6" y="0">T</tspan><tspan class="p" x="320.86" y="0">one to Content Strategy”</tspan></text><text class="r" transform="translate(784 607.82)">2017: <tspan class="t" x="55.6" y="0">T</tspan><tspan class="j" x="65.24" y="0">ranslate Book: “Adaptive </tspan><tspan class="i" x="292.68" y="0">W</tspan><tspan x="310.06" y="0">eb Design”</tspan><tspan x="0" y="24">2015: P</tspan><tspan class="h" x="68.56" y="24">r</tspan><tspan x="74.86" y="24">esentation: “Futu</tspan><tspan class="n" x="227.5" y="24">r</tspan><tspan class="p" x="233.8" y="24">e Friendly </tspan><tspan class="i" x="326.4" y="24">W</tspan><tspan x="343.78" y="24">eb Design”</tspan></text><text class="r" transform="translate(1456.01 607.82)">M.A. in Chinese Studies (Language Education), EdUHK<tspan x="0" y="24">B.A. in Chinese Language &amp; Literatu</tspan><tspan class="n" x="322.3" y="24">r</tspan><tspan x="328.6" y="24">e, BNU</tspan></text><path class="u" d="M1044.85,178.63a36.9,36.9,0,0,1-34.92,25H703a38.88,38.88,0,0,0-38.88,38.88h0"/><path class="v" d="M1046.82,166.71c-3.1,5.21-7.91,11.49-12.45,15.1l10-1.67,8.73,5.11C1050.13,180.26,1047.86,172.68,1046.82,166.71Z"/><line class="u" x1="1443.94" y1="541.24" x2="1314" y2="541.24"/><path class="v" d="M1456,541.24c-5.68-2.11-12.73-5.71-17.1-9.51l3.44,9.51-3.44,9.51C1443.28,546.94,1450.33,543.34,1456,541.24Z"/><line class="u" x1="598.07" y1="540.99" x2="784" y2="540.99"/><path class="v" d="M586,541c5.68,2.1,12.73,5.7,17.1,9.51L599.65,541l3.45-9.51C598.73,535.29,591.68,538.88,586,541Z"/><path class="u" d="M1082.76,178.63a36.9,36.9,0,0,0,34.93,25h258.75a38.88,38.88,0,0,1,38.88,38.88h0"/><path class="v" d="M1080.79,166.71c-1,6-3.31,13.55-6.26,18.54l8.73-5.11,10,1.67C1088.7,178.2,1083.89,171.92,1080.79,166.71Z"/><path class="u" d="M664.14,447.89A31.18,31.18,0,0,1,633,479.07H319a27.43,27.43,0,0,0-24.76,15.63"/><path class="v" d="M291.54,506.49c-.68-6-2.48-13.73-5.12-18.88l8.4,5.63,10.06-1.06C300.13,495.51,295,501.48,291.54,506.49Z"/><path class="u" d="M1415.32,358.49h0a120.59,120.59,0,0,0,120.59,120.58h179.67a27.41,27.41,0,0,1,24.76,15.63"/><path class="v" d="M1743,506.49c-3.41-5-8.6-11-13.34-14.31l10.06,1.06,8.4-5.63C1745.47,492.76,1743.68,500.47,1743,506.49Z"/></svg>