<svg xmlns="http://www.w3.org/2000/svg" viewBox="0 0 1479.66 997.56"><defs><style>.a{fill:#dcdddd;}.b{fill:#595757;}</style></defs><title>kite_frame</title><path class="a" d="M562.37,194.83a187.26,187.26,0,0,1,49.56,51.28,184.08,184.08,0,0,1,26.58,66.42A180.08,180.08,0,0,1,608.42,450,182.71,182.71,0,0,1,524,515.21a185.83,185.83,0,0,1-34.62,9.55,189.21,189.21,0,0,1-35.8,2.67,182.6,182.6,0,0,1-35.64-4.2l-4.38-1c-1.45-.37-2.92-.66-4.36-1.11l-4.31-1.25c-1.44-.43-2.89-.79-4.3-1.31l-4.26-1.45c-1.41-.5-2.85-.93-4.23-1.51-2.78-1.13-5.6-2.16-8.34-3.37a186.06,186.06,0,0,1-31.45-17.44,182.53,182.53,0,0,1-76.24-118.33,183.2,183.2,0,0,1,30.33-137.86,182.45,182.45,0,0,1,190.79-72.81A186.85,186.85,0,0,1,562.37,194.83Zm-.23.32A182.78,182.78,0,0,0,531,177.71a176.72,176.72,0,0,0-34-10.87,181.35,181.35,0,0,0-70.82-.77,183.92,183.92,0,0,0-65.56,26.09,185.87,185.87,0,0,0-27.73,22,181.43,181.43,0,0,0-27.8,227.48A182.67,182.67,0,0,0,353.61,493a179.45,179.45,0,0,0,64.67,28.9,181.47,181.47,0,0,0,35.37,4.33,177.78,177.78,0,0,0,35.53-2.79,180.2,180.2,0,0,0,116.51-75.3A186.58,186.58,0,0,0,623,417.18a184.33,184.33,0,0,0,11-33.65c.39-1.42.6-2.89.9-4.34l.83-4.35c.53-2.91.86-5.85,1.3-8.78s.59-5.88.9-8.82.3-5.91.47-8.87A187.6,187.6,0,0,0,636,313a181.74,181.74,0,0,0-25-66.29,176.35,176.35,0,0,0-21.84-28.21A182.84,182.84,0,0,0,562.14,195.15Z"/><path class="a" d="M667,45.39a187.19,187.19,0,0,1,49.57,51.29,184.08,184.08,0,0,1,26.57,66.41,180.09,180.09,0,0,1-30.09,137.49,182.92,182.92,0,0,1-84.38,65.2,186.39,186.39,0,0,1-34.62,9.55A189.09,189.09,0,0,1,558.26,378a182.78,182.78,0,0,1-35.65-4.19l-4.37-1c-1.46-.36-2.93-.65-4.36-1.1l-4.32-1.25c-1.43-.43-2.89-.8-4.3-1.32L501,367.64c-1.42-.5-2.86-.92-4.24-1.51-2.77-1.13-5.6-2.15-8.34-3.37A184.89,184.89,0,0,1,457,345.32,182.43,182.43,0,0,1,380.75,227,183.28,183.28,0,0,1,411.07,89.13,181.75,181.75,0,0,1,530.35,14a184.67,184.67,0,0,1,71.51,2.28A187,187,0,0,1,667,45.39Zm-.23.33a182.37,182.37,0,0,0-31.16-17.45,176.56,176.56,0,0,0-34-10.86,181.35,181.35,0,0,0-70.82-.78,182.86,182.86,0,0,0-93.28,48.05,181.66,181.66,0,0,0,20.73,278.85,179.44,179.44,0,0,0,169.83,20.72,181.05,181.05,0,0,0,82.24-65.58,184.43,184.43,0,0,0,28.34-64.57c.38-1.43.6-2.89.89-4.34l.84-4.36c.52-2.91.86-5.85,1.3-8.77s.59-5.89.89-8.83.31-5.91.47-8.86a186.72,186.72,0,0,0-2.38-35.41,181.91,181.91,0,0,0-25-66.29A177.07,177.07,0,0,0,693.84,69,181.68,181.68,0,0,0,666.77,45.72Z"/><path class="a" d="M126.43,1.31Q185.07,41,243.23,81.47c38.75,27,77.59,53.82,116.11,81.14L417,203.68l28.84,20.55,28.93,20.42c9.66,6.79,19.28,13.64,29,20.38l29.06,20.24,14.53,10.12,14.57,10.06,29.14,20.12q58.35,40.15,116.49,80.61t116.18,81q115.86,81.49,231,164.08l-.23.33Q937.35,571.93,821.3,490.71q-58.06-40.56-115.89-81.45T589.82,327.37L561,306.86l-14.44-10.25L532,286.42l-29-20.38c-9.64-6.81-19.37-13.5-29.05-20.25l-29.08-20.21-29.18-20.07-58.33-40.18c-38.85-26.84-77.36-54.17-116-81.35s-77-54.66-115.27-82.34Z"/><path class="a" d="M0,997.33q42.75-63,86.2-125.43c29-41.63,57.85-83.35,87.18-124.74l44.1-62,22.06-31,21.93-31.09c7.29-10.38,14.65-20.71,21.89-31.12l21.75-31.22L316,545.1l10.81-15.65,21.64-31.3Q391.61,435.5,435.08,373t87.09-124.81Q609.71,123.73,698.34,0l.33.23Q612.93,126,525.66,250.67q-43.57,62.39-87.49,124.52T350.23,499.41l-22,31-11,15.52-10.95,15.56-21.89,31.11c-7.31,10.37-14.5,20.81-21.76,31.21l-21.72,31.24-21.58,31.34-43.2,62.65c-28.86,41.72-58.2,83.1-87.4,124.59S30,956.42.33,997.56Z"/><path class="a" d="M691.69,285.37A96.38,96.38,0,0,1,716.63,311a92.69,92.69,0,0,1,13.69,33.24,89.1,89.1,0,0,1-15,69.33A91.79,91.79,0,0,1,672.61,446a95.54,95.54,0,0,1-53.25,4c-1.46-.35-2.94-.65-4.39-1.06s-2.9-.8-4.33-1.28-2.86-.92-4.27-1.46-2.82-1.06-4.2-1.66a93.11,93.11,0,0,1-15.86-8.67,91.44,91.44,0,0,1-38.74-59.45,93.49,93.49,0,0,1,.59-36.36,91.83,91.83,0,0,1,41-58.37,89.7,89.7,0,0,1,34-12.56,93,93,0,0,1,35.93,1.52A96,96,0,0,1,691.69,285.37Zm-.23.33A91.38,91.38,0,0,0,675.87,277a86.2,86.2,0,0,0-17-5.29,89.89,89.89,0,0,0-35.24,0,93.68,93.68,0,0,0-32.37,13.22,90.9,90.9,0,0,0-39,56,89.26,89.26,0,0,0-1,34.81,90.77,90.77,0,0,0,36.28,58.31,88.27,88.27,0,0,0,32.1,14.55,90.07,90.07,0,0,0,17.61,2.2A86.92,86.92,0,0,0,655,449.44a88.42,88.42,0,0,0,17-4.94,90.13,90.13,0,0,0,40.59-32.88,93.64,93.64,0,0,0,14-32c.34-1.42.57-2.87.87-4.3s.43-2.9.65-4.35.31-2.91.48-4.37.17-2.92.26-4.39a95,95,0,0,0-1-17.58,90.16,90.16,0,0,0-12.09-33.11A85.69,85.69,0,0,0,705,297.37,90.92,90.92,0,0,0,691.46,285.7Z"/><path class="a" d="M641.5,361.93A193.82,193.82,0,0,1,692.78,415a190.46,190.46,0,0,1,27.47,68.73A186.41,186.41,0,0,1,689.11,626a189.27,189.27,0,0,1-87.29,67.48A191.68,191.68,0,0,1,566,703.33a194.69,194.69,0,0,1-37,2.76,188.48,188.48,0,0,1-36.89-4.34l-4.52-1.07c-1.51-.38-3-.68-4.51-1.14l-4.47-1.3c-1.48-.44-3-.82-4.45-1.36l-4.4-1.5c-1.46-.52-3-1-4.38-1.56L461,692.1c-1.43-.59-2.9-1.09-4.3-1.77a192.44,192.44,0,0,1-32.53-18.05,188.94,188.94,0,0,1-78.86-122.43,189.68,189.68,0,0,1,31.38-142.62,188.85,188.85,0,0,1,197.38-75.36A193.34,193.34,0,0,1,641.5,361.93Zm-.23.33A188.92,188.92,0,0,0,609,344.2,182.51,182.51,0,0,0,573.85,333a187.82,187.82,0,0,0-73.3-.83,188.72,188.72,0,0,0-149.74,144.2,187.81,187.81,0,0,0,24.39,141,189,189,0,0,0,50.25,53.15,185.88,185.88,0,0,0,66.94,29.9,187.83,187.83,0,0,0,36.6,4.48A184.93,184.93,0,0,0,565.76,702a186.57,186.57,0,0,0,120.62-77.91,193.82,193.82,0,0,0,17.9-32,191.08,191.08,0,0,0,11.43-34.83c.4-1.48.62-3,.93-4.49l.86-4.51c.55-3,.89-6.06,1.34-9.08s.62-6.09.93-9.14.32-6.12.48-9.17a192.47,192.47,0,0,0-2.47-36.66,188.31,188.31,0,0,0-25.88-68.6,183,183,0,0,0-22.62-29.19A188.33,188.33,0,0,0,641.27,362.26Z"/><path class="a" d="M1316.45,155.61a382,382,0,0,1,157.12,244.82,378.45,378.45,0,0,1-237,420.42,382.72,382.72,0,0,1-220.07,16.76l-9.08-2.16c-3-.75-6.07-1.36-9-2.3l-9-2.61c-3-.9-6-1.65-8.92-2.74l-8.82-3-4.41-1.52c-.74-.26-1.48-.49-2.2-.77l-2.17-.87-8.66-3.47-4.33-1.73-2.17-.88-2.12-1a385,385,0,0,1-65.08-36.39A379.84,379.84,0,0,1,1181,95.58,384.11,384.11,0,0,1,1316.45,155.61Zm-.23.33a381.77,381.77,0,0,0-64.81-36.39,372.72,372.72,0,0,0-70.66-22.89,379.31,379.31,0,1,0,179.37,642.9,381.84,381.84,0,0,0,107.31-191.3L1468,546c.17-.75.29-1.52.44-2.27l.87-4.56,1.73-9.1.43-2.28.33-2.29.64-4.59,1.28-9.18.32-2.3.22-2.3.42-4.62.86-9.23c.17-1.54.24-3.08.3-4.62l.2-4.63.41-9.27a384.52,384.52,0,0,0-5.33-73.9A379.3,379.3,0,0,0,1418.29,263a372.77,372.77,0,0,0-45.69-58.57A381.19,381.19,0,0,0,1316.22,155.94Z"/><path class="a" d="M653.45,340a30.18,30.18,0,0,1,6.95,6.82,26.45,26.45,0,0,1,4.29,9A23,23,0,0,1,665,366a23.36,23.36,0,0,1-4.23,9.35,24.56,24.56,0,0,1-7.69,6.6,28.56,28.56,0,0,1-9.41,3.18,28,28,0,0,1-19.09-3.81,24.77,24.77,0,0,1-11.33-16.42,26.76,26.76,0,0,1,0-10.36,25.29,25.29,0,0,1,4.15-9.54,25.6,25.6,0,0,1,7.63-7,23.24,23.24,0,0,1,9.74-3.15,26.65,26.65,0,0,1,9.93,1l2.33.78c.75.33,1.51.63,2.24,1l2.16,1.14Zm-.23.33-2-1.23q-1.06-.54-2.16-1c-.74-.27-1.51-.5-2.25-.75s-1.55-.33-2.32-.49a22.7,22.7,0,0,0-9.23.56,25.52,25.52,0,0,0-14.34,10,23.54,23.54,0,0,0-4,16.8,24.56,24.56,0,0,0,8.87,15.29,22.51,22.51,0,0,0,8.29,4.09A21.15,21.15,0,0,0,651.86,380a25.24,25.24,0,0,0,6.15-6.65,27.54,27.54,0,0,0,4.17-17.18,22.59,22.59,0,0,0-2.65-8.87A20.57,20.57,0,0,0,653.22,340.3Z"/><path class="b" d="M639.35,360.47a5.77,5.77,0,0,1-.86.11l-.74,0-1.43.05-2.86.09-5.72.17-11.44.27c-7.63.16-15.26.32-22.9.35s-15.26,0-22.9,0-15.28-.18-23-.71-15.27-1.67-22.83-2.76-15.1-2.36-22.63-3.63q-22.59-3.81-45.05-8.28h0a1.67,1.67,0,0,1-1.13-.84q-10.58-20.26-20.9-40.63-5.18-10.19-10.25-20.42c-3.39-6.83-6.8-13.64-10-20.6s-6.07-14-9.08-21l-8.86-21-17.57-42.18a1.08,1.08,0,0,1,.58-1.41,1,1,0,0,1,.45-.09h0c15.23.56,30.45,1.07,45.67,1.79s30.43,1.4,45.67,2.53,30.37,2.27,45.57,3.63c7.6.67,15.2,1.45,22.79,2.43,3.8.49,7.6,1,11.4,1.69,1.9.37,3.8.69,5.71,1.16l2.88.71,2.93,1a1.69,1.69,0,0,1,.68.45l.07.08a129.46,129.46,0,0,1,13.72,18.8c4,6.57,7.7,13.35,11.1,20.23s6.61,13.84,9.74,20.82l4.67,10.46c1.56,3.44,3.17,7,4.65,10.5,3,7.06,5.77,14.19,8.49,21.33s5.39,14.31,8,21.48,5.2,14.37,7.75,21.57l3.8,10.81,1.88,5.42.92,2.71.47,1.35.24.7A7.77,7.77,0,0,1,639.35,360.47Zm-.33-.23a3.41,3.41,0,0,1-.29-.51l-.26-.64-.52-1.33-1.05-2.67-2.09-5.33-4.18-10.67-8.43-21.3c-5.65-14.18-11.38-28.35-17.5-42.28-1.53-3.49-3.15-6.88-4.79-10.37l-4.84-10.39c-3.23-6.91-6.51-13.78-10-20.53s-7.14-13.4-11.15-19.81a124.68,124.68,0,0,0-13.38-18.08l.75.53-2.47-.83-2.67-.66c-1.78-.44-3.64-.76-5.48-1.12q-5.55-.94-11.2-1.67c-7.51-1-15.06-1.75-22.63-2.51-15.12-1.49-30.31-2.67-45.48-4s-30.35-2.16-45.54-3.11l-45.6-2.77,1.07-1.5,8.34,21.26,4.2,10.61,4.3,10.58c5.76,14.08,11.49,28.2,17.82,42,6.48,13.74,13.8,27.12,21,40.53s14.54,26.74,21.86,40.08l-1.15-.84q22.5,4.08,45,8.05,11.25,2,22.54,3.76c7.52,1.17,15,2.38,22.56,3,15.1,1.12,30.4,1.4,45.64,1.7l22.87.39,11.45.16,5.72.08,2.86.05,1.43,0h.7A3.33,3.33,0,0,1,639,360.24Z"/><path class="b" d="M382.1,180.33c11.07,6.83,21.9,14,32.68,21.24l8.06,5.46,8,5.53q8,5.52,15.9,11.26l15.63,11.62,7.81,5.83,7.88,5.72c10.55,7.58,21.33,14.82,32.17,22,5.41,3.59,10.85,7.13,16.24,10.75s10.76,7.28,16.12,10.95c10.71,7.33,21.44,14.64,32,22.14,21.18,15,42.16,30.34,62.71,46.27a.19.19,0,0,1,0,.28.19.19,0,0,1-.26,0c-22-13.86-43.56-28.34-64.93-43.1-10.67-7.4-21.21-15-31.76-22.55q-7.92-5.65-15.8-11.4c-5.25-3.82-10.44-7.72-15.66-11.58-10.44-7.74-20.93-15.39-31.65-22.71l-8.08-5.45-8.14-5.34-16.27-10.72q-8.09-5.45-16-11.09l-7.94-5.64L413,204.11c-10.49-7.65-20.93-15.38-31.13-23.45a.19.19,0,0,1,0-.28A.2.2,0,0,1,382.1,180.33Z"/><path class="b" d="M458.12,343.36c3.68-6.59,7.71-12.93,11.81-19.22l3.1-4.69,3.17-4.65q3.17-4.67,6.55-9.16c4.51-6,9.34-11.78,13.74-17.86S505,275.43,509,269.08c2-3.17,4-6.37,6-9.51s4.13-6.27,6.23-9.38c4.19-6.23,8.36-12.47,12.7-18.59s8.81-12.16,13.37-18.12,9.21-11.88,14-17.66a.22.22,0,0,1,.29,0,.2.2,0,0,1,0,.25C558,202.57,554,209,550,215.28s-8.24,12.56-12.46,18.77-8.7,12.23-13.12,18.29c-2.21,3-4.42,6.07-6.68,9.07s-4.59,5.95-6.88,8.92c-4.59,5.95-9.1,12-13.28,18.19s-8,12.73-12.08,19q-3.08,4.71-6.37,9.28l-3.28,4.57-3.35,4.52c-4.51,6-9.09,12-14,17.67a.22.22,0,0,1-.29,0A.2.2,0,0,1,458.12,343.36Z"/><path class="b" d="M639.07,360.52c-.07-.42-.22-.94-.31-1.56,0-.31-.1-.64-.12-1l-.08-.77c-.12-1-.17-2.07-.25-3.1q-.15-3.09-.2-6.14c0-2-.07-4.06.09-6.11s.45-4.11.69-6.17l0-.26a.82.82,0,0,1,.9-.71h.07c2.19.45,4.34.83,6.46,1.43a39.1,39.1,0,0,1,6.26,2.25,21.11,21.11,0,0,1,5.68,3.74,26.84,26.84,0,0,1,2.36,2.52c.36.45.72.91,1.05,1.39.18.24.34.49.5.74l.24.39.11.21,0,.07a2.2,2.2,0,0,1,0,2,2.18,2.18,0,0,1-.55.69h0l-.14.1c-1.73,1.14-3.5,2.23-5.32,3.22s-3.68,1.9-5.57,2.77-3.8,1.66-5.75,2.39c-1,.35-2,.71-3,1q-.75.24-1.5.45l-.76.21-.39.09-.19.05-.14,0A.51.51,0,0,1,639.07,360.52Zm.22-.33s0-.09-.07-.09,0,0,0,0l.16-.12.31-.25.62-.47,1.26-.92c.83-.63,1.69-1.2,2.53-1.8q2.55-1.75,5.13-3.42c1.73-1.1,3.45-2.21,5.2-3.26s3.52-2.06,5.32-3l-.14.1a1.84,1.84,0,0,0-.6.59,2,2,0,0,0-.28,1,1.84,1.84,0,0,0,.19.8v0l-.07-.15-.16-.31c-.11-.21-.22-.42-.35-.63-.23-.42-.5-.83-.77-1.25a31.61,31.61,0,0,0-6.13-6.66,16.16,16.16,0,0,0-5.47-2.93,15.19,15.19,0,0,0-3.06-.67,23.36,23.36,0,0,0-3.13-.05l1-.95c.27,2.05.61,4.1.79,6.16a41.66,41.66,0,0,1,0,6.22,61.12,61.12,0,0,1-.74,6.19c-.2,1-.37,2.05-.62,3.06l-.17.76c-.06.2-.14.38-.22.59A10.06,10.06,0,0,0,639.29,360.19Z"/><path class="b" d="M639.18,360.36a9.72,9.72,0,0,0-1.25,1,5.85,5.85,0,0,1-.47.4l-.66.43c-.87.58-1.77,1.09-2.66,1.62-1.81,1-3.65,2-5.56,2.82a43.07,43.07,0,0,1-5.84,2.14c-2,.54-4,.92-6.06,1.37l.55-1.26a24.19,24.19,0,0,0,1.12,2.93,15,15,0,0,0,1.68,2.65,16.31,16.31,0,0,0,4.62,4.14,29.65,29.65,0,0,0,5.5,2.6c.94.33,1.89.64,2.85.88.49.1,1,.22,1.45.29.24.05.47.08.71.11l.34,0h.18a1.78,1.78,0,0,0-.81.1,1.83,1.83,0,0,0-.88.62,2,2,0,0,0-.36.76l0,.17q.45-3,1-6c.39-2,.84-4,1.29-6s.94-4,1.46-6c.27-1,.52-2,.82-3l.43-1.5.24-.75.12-.37.06-.19s0-.09,0,0A.12.12,0,0,0,639.18,360.36Zm.23-.33a.49.49,0,0,1,.1.23v.15l0,.2,0,.39c0,.26,0,.52.07.78,0,.53.06,1.05.09,1.57,0,1,0,2.09,0,3.13,0,2.08-.1,4.16-.27,6.22s-.38,4.14-.7,6.18-.73,4.08-1.22,6.1l0,.17h0a2.26,2.26,0,0,1-.46.75,2.15,2.15,0,0,1-1,.61,2.2,2.2,0,0,1-.92.08h-.08l-.23,0-.45-.09c-.29-.07-.59-.13-.86-.21-.57-.15-1.12-.34-1.67-.52a25.49,25.49,0,0,1-3.18-1.35,21.45,21.45,0,0,1-5.46-4.06,38.74,38.74,0,0,1-4.25-5.12c-1.29-1.78-2.38-3.67-3.55-5.58a.81.81,0,0,1,.26-1.11l.06,0,.24-.12c1.85-.93,3.68-1.92,5.56-2.76s3.8-1.5,5.71-2.17,3.87-1.31,5.84-1.91c1-.29,2-.59,3-.83l.76-.19c.3-.09.63-.16.94-.22C638.46,360.15,639,360.11,639.41,360Z"/><path class="b" d="M639.41,360a188.31,188.31,0,0,1,34.76,29.59,192.31,192.31,0,0,1,27,37,171.62,171.62,0,0,1,17,42.6,175.42,175.42,0,0,1,4,22.61c.47,3.79.67,7.64.95,11.42s.61,7.53,1.05,11.28a327.66,327.66,0,0,0,8.62,44.61,398.89,398.89,0,0,0,56.54,123.4c4.22,6.28,8.75,12.34,13.33,18.36s9.44,11.81,14.45,17.47,10.16,11.19,15.43,16.59,10.82,10.55,16.52,15.51a359.35,359.35,0,0,0,35.79,27.71c3.16,2.05,6.29,4.17,9.49,6.17l4.82,3c1.61,1,3.22,2,4.86,2.9,3.28,1.87,6.5,3.85,9.85,5.59s6.62,3.63,10,5.28a391.09,391.09,0,0,0,41.56,18,411.78,411.78,0,0,0,43.41,13.15c3.69.86,7.36,1.81,11.06,2.61l11.12,2.32,11.18,2c3.73.65,7.49,1.16,11.24,1.75,15,2.2,30.1,3.71,45.26,4.77a.19.19,0,0,1,.18.21.18.18,0,0,1-.2.18c-30.37-.88-60.78-4.21-90.52-11a410.17,410.17,0,0,1-44-12.62,357.66,357.66,0,0,1-42.2-17.75c-3.44-1.65-6.79-3.49-10.17-5.27s-6.67-3.73-10-5.59C900.23,793,898.6,792,897,791l-4.88-3c-3.24-2-6.4-4.18-9.6-6.26a340.3,340.3,0,0,1-36.07-28.25c-5.72-5.06-11.18-10.4-16.57-15.81s-10.52-11.08-15.46-16.89S804.68,709,800,702.91s-9-12.31-13.18-18.7a417.59,417.59,0,0,1-41.22-81.35q-8.11-21.35-14-43.41a387.8,387.8,0,0,1-9.36-44.68c-.53-3.78-1-7.56-1.32-11.37s-.72-7.53-1.3-11.26A182.55,182.55,0,0,0,715,470a193,193,0,0,0-16.82-41.77,212.46,212.46,0,0,0-25.84-37,220.72,220.72,0,0,0-33.16-30.9.2.2,0,0,1,0-.28A.19.19,0,0,1,639.41,360Z"/></svg>