<svg xmlns="http://www.w3.org/2000/svg" viewBox="0 0 232 232"><title>startrek2016_qr</title><path d="M0 0h8v56h-8zM0 64h8v24h-8zM0 96h8v16h-8zM0 136h8v8h-8zM0 152h8v16h-8zM0 176h8v56h-8zM8 0h8v8h-8zM8 48h8v8h-8zM8 64h8v16h-8zM8 96h8v8h-8zM8 112h8v24h-8zM8 144h8v16h-8zM8 176h8v8h-8zM8 224h8v8h-8zM16 0h8v8h-8zM16 16h8v24h-8zM16 48h8v8h-8zM16 64h8v8h-8zM16 80h8v8h-8zM16 120h8v40h-8zM16 176h8v8h-8zM16 192h8v24h-8zM16 224h8v8h-8zM24 0h8v8h-8zM24 16h8v24h-8zM24 48h8v8h-8zM24 64h8v8h-8zM24 80h8v8h-8zM24 96h8v8h-8zM24 112h8v32h-8zM24 152h8v8h-8zM24 176h8v8h-8zM24 192h8v24h-8zM24 224h8v8h-8zM32 0h8v8h-8zM32 16h8v24h-8zM32 48h8v8h-8zM32 80h8v8h-8zM32 104h8v8h-8zM32 136h8v32h-8zM32 176h8v8h-8zM32 192h8v24h-8zM32 224h8v8h-8zM40 0h8v8h-8zM40 48h8v8h-8zM40 72h8v8h-8zM40 88h8v8h-8zM40 104h8v8h-8zM40 120h8v40h-8zM40 176h8v8h-8zM40 224h8v8h-8zM48 0h8v56h-8zM48 64h8v8h-8zM48 80h8v8h-8zM48 96h8v8h-8zM48 112h8v8h-8zM48 128h8v8h-8zM48 144h8v8h-8zM48 160h8v8h-8zM48 176h8v56h-8zM56 96h8v8h-8zM56 128h8v16h-8zM56 152h8v8h-8zM64 0h8v8h-8zM64 16h8v24h-8zM64 48h8v8h-8zM64 64h8v8h-8zM64 88h8v8h-8zM64 112h8v24h-8zM64 144h8v8h-8zM64 160h8v16h-8zM64 200h8v32h-8zM72 8h8v24h-8zM72 80h8v40h-8zM72 128h8v8h-8zM72 144h8v16h-8zM72 168h8v8h-8zM72 184h8v16h-8zM72 216h8v8h-8zM80 8h8v24h-8zM80 40h8v64h-8zM80 120h8v8h-8zM80 144h8v8h-8zM80 176h8v16h-8zM80 200h8v16h-8zM88 8h8v8h-8zM88 24h8v8h-8zM88 56h8v32h-8zM88 136h8v8h-8zM88 160h8v32h-8zM88 224h8v8h-8zM96 0h8v8h-8zM96 16h8v48h-8zM96 88h8v8h-8zM96 104h8v8h-8zM96 120h8v8h-8zM96 136h8v24h-8zM96 168h8v8h-8zM96 184h8v8h-8zM96 208h8v24h-8zM104 8h8v24h-8zM104 40h8v8h-8zM104 80h8v24h-8zM104 112h8v8h-8zM104 128h8v8h-8zM104 144h8v8h-8zM104 176h8v24h-8zM104 208h8v8h-8zM104 224h8v8h-8zM112 0h8v16h-8zM112 24h8v8h-8zM112 40h8v48h-8zM112 96h8v32h-8zM112 168h8v16h-8zM112 224h8v8h-8zM120 24h8v16h-8zM120 88h8v24h-8zM120 128h8v24h-8zM120 184h8v24h-8zM120 216h8v8h-8zM128 0h8v24h-8zM128 32h8v32h-8zM128 72h8v40h-8zM128 120h8v8h-8zM128 136h8v48h-8zM128 200h8v8h-8zM136 24h8v8h-8zM136 40h8v8h-8zM136 56h8v24h-8zM136 96h8v16h-8zM136 144h8v32h-8zM136 192h8v16h-8zM144 0h8v8h-8zM144 16h8v8h-8zM144 40h8v16h-8zM144 72h8v24h-8zM144 112h8v48h-8zM144 168h8v24h-8zM144 200h8v8h-8zM144 216h8v16h-8zM152 0h8v8h-8zM152 24h8v24h-8zM152 72h8v8h-8zM152 88h8v32h-8zM152 152h8v8h-8zM152 176h8v8h-8zM152 200h8v8h-8zM152 224h8v8h-8zM160 0h8v24h-8zM160 32h8v64h-8zM160 120h8v24h-8zM160 160h8v48h-8zM160 216h8v16h-8zM168 64h8v32h-8zM168 112h8v40h-8zM168 160h8v8h-8zM168 192h8v16h-8zM168 216h8v16h-8zM176 0h8v56h-8zM176 72h8v8h-8zM176 88h8v8h-8zM176 104h8v24h-8zM176 152h8v16h-8zM176 176h8v8h-8zM176 192h8v8h-8zM176 216h8v8h-8zM184 0h8v8h-8zM184 48h8v8h-8zM184 72h8v16h-8zM184 96h8v8h-8zM184 112h8v16h-8zM184 136h8v8h-8zM184 160h8v8h-8zM184 192h8v8h-8zM184 208h8v16h-8zM192 0h8v8h-8zM192 16h8v24h-8zM192 48h8v8h-8zM192 64h8v24h-8zM192 120h8v16h-8zM192 144h8v8h-8zM192 160h8v48h-8zM192 216h8v8h-8zM200 0h8v8h-8zM200 16h8v24h-8zM200 48h8v8h-8zM200 64h8v8h-8zM200 88h8v16h-8zM200 112h8v8h-8zM200 144h8v8h-8zM200 160h8v24h-8zM200 200h8v32h-8zM208 0h8v8h-8zM208 16h8v24h-8zM208 48h8v8h-8zM208 64h8v8h-8zM208 80h8v8h-8zM208 96h8v8h-8zM208 112h8v8h-8zM208 136h8v40h-8zM208 192h8v24h-8zM216 0h8v8h-8zM216 48h8v8h-8zM216 80h8v8h-8zM216 104h8v40h-8zM216 168h8v16h-8zM216 192h8v16h-8zM216 216h8v16h-8zM224 0h8v56h-8zM224 64h8v16h-8zM224 88h8v8h-8zM224 104h8v16h-8zM224 168h8v8h-8zM224 200h8v16h-8z"/></svg>